<svg id="Capa_1" data-name="Capa 1" xmlns="http://www.w3.org/2000/svg" viewBox="0 0 716 788"><defs><style>.cls-1{fill:#fff;}.cls-2{fill:#00abc8;}</style></defs><title>Ysana_web_material</title><path class="cls-1" d="M299.18,644a64.35,64.35,0,1,0,64.36,64.35A64.43,64.43,0,0,0,299.18,644Zm21.45,64.34a21.45,21.45,0,1,1-21.45-21.45A21.48,21.48,0,0,1,320.63,708.3Z"/><path class="cls-1" d="M508,644a64.35,64.35,0,1,0,64.36,64.35A64.43,64.43,0,0,0,508,644ZM529.4,708.3A21.46,21.46,0,1,1,508,686.85,21.48,21.48,0,0,1,529.4,708.3Z"/><path class="cls-1" d="M688.44,258.35a37.88,37.88,0,0,0-29.52-14H145.29l-9.65-46.9a38.15,38.15,0,0,0-22.13-27.23L40.58,138.54a21.46,21.46,0,0,0-17.09,39.37l70.62,30.65L174,596.36a38.23,38.23,0,0,0,37.29,30.39H609.37a21.45,21.45,0,1,0,0-42.9H215.25l-7.8-37.8h405a38.21,38.21,0,0,0,37.28-30.39l46.49-225.6A38,38,0,0,0,688.44,258.35ZM653,287.23,608.51,503.15H198.61L154.13,287.22Z"/><circle class="cls-1" cx="411.8" cy="238.28" r="203.03"/><path class="cls-2" d="M411.8,54.59c101.45,0,183.7,82.24,183.7,183.69S513.25,422,411.8,422s-183.69-82.25-183.69-183.7A183.69,183.69,0,0,1,411.8,54.59m0-38.67c-122.61,0-222.36,99.75-222.36,222.36S289.19,460.65,411.8,460.65,634.17,360.9,634.17,238.28,534.41,15.92,411.8,15.92Z"/><path class="cls-2" d="M433.05,349.47H405.14v-179l-42.21.56V150.91l70.12-7.65Z"/></svg>