<svg id="Capa_1" data-name="Capa 1" xmlns="http://www.w3.org/2000/svg" viewBox="0 0 716 663"><defs><style>.cls-1{fill:#fff;}</style></defs><title>Ysana_web_material</title><path class="cls-1" d="M299.18,522a64.35,64.35,0,1,0,64.36,64.35A64.43,64.43,0,0,0,299.18,522Zm21.45,64.34a21.45,21.45,0,1,1-21.45-21.45A21.48,21.48,0,0,1,320.63,586.3Z"/><path class="cls-1" d="M508,522a64.35,64.35,0,1,0,64.36,64.35A64.43,64.43,0,0,0,508,522ZM529.4,586.3A21.46,21.46,0,1,1,508,564.85,21.48,21.48,0,0,1,529.4,586.3Z"/><path class="cls-1" d="M688.44,136.35a37.88,37.88,0,0,0-29.52-14H145.29l-9.65-46.9A38.15,38.15,0,0,0,113.51,48.2L40.58,16.54A21.46,21.46,0,0,0,23.49,55.91L94.11,86.56,174,474.36a38.23,38.23,0,0,0,37.29,30.39H609.37a21.45,21.45,0,1,0,0-42.9H215.25l-7.8-37.8h405a38.21,38.21,0,0,0,37.28-30.39l46.49-225.6A38,38,0,0,0,688.44,136.35ZM653,165.23,608.51,381.15H198.61L154.13,165.22Z"/></svg>