<svg id="Capa_1" data-name="Capa 1" xmlns="http://www.w3.org/2000/svg" viewBox="0 0 884 556"><defs><style>.cls-1{fill:#e5007e;}</style></defs><title>Ysana_web_material</title><path class="cls-1" d="M543.18,391.64c.41-26.85.57-45.71-12.61-74.8-13.82-30.74-35.91-42.85-69-76.84-1.52-1.57-3.09-3.22-4.64-4.86a2.8,2.8,0,0,0-.37-.41c-.32-.36-.63-.72-.9-1-.63-.64-1.18-1.24-1.78-1.91-6.45-7.23-13.29-16-20.6-25.58-7.94-10.26-14.63-19.13-20.64-26.72-.43-.59-.92-1.2-1.39-1.77-22.43-28.06-36.84-38.24-81.64-38.24-22.45,0-59.86,3.56-25.42,42.43,0,0,128.27,119.58,140,136.67s21.26,47.17,21.26,81.32V507.6c0,22.4,11.75,35.37,38.82,35.37C533.77,543,542,521.75,542,507.6l.38-41.52c.07-2.63.33-45,.8-74.44"/><path class="cls-1" d="M542.45,281.9C522.1,229.34,523.71,179,557.62,131.52,596,78,663.29,57.67,709.65,15.05c-2.9,46.68-19,95.41-38.62,140.22C640.48,225,550.87,231.15,542.45,281.9"/><path class="cls-1" d="M755.87,446.49c.26-17.11.36-29.14-8-47.68-8.81-19.6-22.89-27.32-44-49-1-1-2-2.06-3-3.1a1.45,1.45,0,0,0-.24-.26c-.2-.24-.4-.46-.57-.68-.4-.4-.75-.79-1.14-1.21-4.11-4.61-8.47-10.21-13.13-16.31-5.07-6.54-9.33-12.19-13.16-17-.28-.38-.58-.77-.89-1.13-14.3-17.89-23.48-24.38-52-24.38-14.32,0-38.17,2.27-16.21,27,0,0,81.78,76.24,89.24,87.13S706.3,430,706.3,451.75v68.67C706.3,534.7,713.79,543,731,543c18.83,0,24.08-13.53,24.08-22.55l.24-26.47c0-1.67.21-28.71.51-47.46"/><path class="cls-1" d="M755.41,376.53c-13-33.51-11.95-65.62,9.67-95.87,24.46-34.15,67.36-47.09,96.92-74.26-1.85,29.76-12.13,60.83-24.62,89.4-19.48,44.43-76.61,48.37-82,80.73"/><path class="cls-1" d="M172.39,446.49c.26-17.11.36-29.14-8-47.68-8.81-19.6-22.9-27.32-44-49l-3-3.1a1.86,1.86,0,0,0-.23-.26c-.21-.24-.4-.46-.57-.68-.41-.4-.76-.79-1.15-1.21-4.11-4.61-8.47-10.21-13.13-16.31-5.06-6.54-9.32-12.19-13.16-17-.27-.38-.58-.77-.88-1.13-14.3-17.89-23.49-24.38-52-24.38-14.32,0-38.16,2.27-16.21,27,0,0,81.78,76.24,89.25,87.13s13.55,30.07,13.55,51.85v68.67c0,14.28,7.49,22.55,24.75,22.55,18.83,0,24.07-13.53,24.07-22.55l.25-26.47c0-1.67.2-28.71.51-47.46"/><path class="cls-1" d="M171.92,376.53C159,343,160,310.91,181.59,280.66c24.46-34.15,67.37-47.09,96.92-74.26-1.84,29.76-12.12,60.83-24.62,89.4-19.47,44.43-76.6,48.37-82,80.73"/><circle class="cls-1" cx="467.8" cy="121.27" r="51.03"/><circle class="cls-1" cx="124.63" cy="270.23" r="32.84"/><circle class="cls-1" cx="709.65" cy="270.23" r="32.84"/></svg>