<svg id="Capa_1" data-name="Capa 1" xmlns="http://www.w3.org/2000/svg" viewBox="0 0 1014 387"><defs><style>.cls-1{fill:#00abc8;}.cls-2{fill:#ea0029;}</style></defs><title>Ysana_web_material</title><path class="cls-1" d="M974.76,95.22v-.1c0-8.94,7.56-16.42,17.16-16.42S1009,86.09,1009,95v.08c0,8.95-7.56,16.43-17.16,16.43s-17.08-7.39-17.08-16.33m32.44-.1V95c0-8.13-6.57-14.71-15.28-14.71S976.55,87,976.55,95.12v.1c0,8.11,6.59,14.69,15.29,14.69s15.36-6.67,15.36-14.79M985,86h8a7.57,7.57,0,0,1,5.42,1.87,4.62,4.62,0,0,1,1.47,3.58v.1a5.14,5.14,0,0,1-4.16,5.16l4.84,6.49h-4.08l-4.35-5.94h-3.74v5.94H985Zm7.86,8.4c2.22,0,3.54-1,3.54-2.68v-.09c0-1.72-1.32-2.67-3.54-2.67h-4.46v5.44Z"/><path class="cls-1" d="M433.82,199.68c-7.45-5.9-18.34-10.17-34.27-13.46-41.25-8.36-43.09-19.46-43.09-26.61,0-13.36,11.42-22,26.84-22,8.13,0,14,4,19.75,7.86,5.22,3.53,10.15,6.86,16.27,6.86,9,0,12.26-4.55,12.26-8.81,0-13.38-29.68-19.4-50.76-19.4-16.12,0-31.14,3.91-42.3,11-12.85,8.18-19.64,19.83-19.64,33.69,0,19,15.33,32.3,45.57,39.65,29.1,7.09,45.5,10.18,45.5,26.24,0,11.49-7.33,24.37-33.51,24.37-13.54,0-24.1-6.56-32.59-11.58-6.28-3.71-11.7-6.91-16.94-6.91-7.73,0-11.64,3.37-11.64,10,0,8.12,11,13.49,20.24,16.56,12.31,4.11,28.14,6.36,44.56,6.36,17.69,0,34.19-4.55,46.48-12.81,12.86-8.66,19.94-20.61,19.94-33.65,0-11.69-4.14-20.66-12.67-27.4"/><path class="cls-1" d="M544.86,125.63c-11.93,0-25.82,2.07-35.28,5.67C495,136.86,491.9,144,491.9,149.08c0,3.82,1.79,5.69,3.29,6.59a10.43,10.43,0,0,0,5.55,1.18l1.15,0H503c7.62,0,13.59-4.48,19.35-8.83,6.07-4.56,14-9.28,22.54-9.28h5c15,0,26.69,12.25,26.69,27.89,0,13.15-21.52,21.67-42.86,24.28-34.63,4.34-55.3,21.45-55.3,45.77,0,22.33,18.94,38.55,45,38.55A97.38,97.38,0,0,0,547,272.35a85.64,85.64,0,0,1,20.5-2.54c5.24,0,11.06,1.27,16.2,2.4,4.47,1,8.33,1.83,11.49,1.83,9.43,0,14.84-5.69,14.84-15.6V211.28c0-4,0-7.82.05-11.5.18-29.2.3-48.5-11.73-60.6-9.44-9.5-25.44-13.55-53.5-13.55m34.19,97.59c0,19.49-18.5,35.34-41.25,35.34-15,0-27.18-10.95-27.18-24.41,0-17.42,24.14-32.92,43.17-32.92,14.63,0,25.26,9.25,25.26,22"/><path class="cls-1" d="M753,128.28c-11.56,0-20.32,2.41-27.35,4.35-4.14,1.14-7.72,2.12-10.4,2.12-6.2,0-13-1.05-19.59-2.06-6.07-.94-11.8-1.82-16.7-1.82-9.87,0-18.38,6-18.38,14.69V256.75c0,10.53,6.43,15.87,15.93,15.87,8.09,0,17.13-6,17.13-14.11v-68c0-27.52,13.77-45.3,35.09-45.3,8.38,0,33.92,0,33.92,50v63.28c0,9,6,14.11,15.48,14.11S793,266.77,793,256.16V170.62c0-28.1-13.47-42.34-40-42.34"/><path class="cls-1" d="M946.7,139.18c-9.44-9.5-25.44-13.55-53.5-13.55-11.93,0-25.82,2.07-35.28,5.67-14.62,5.56-17.69,12.74-17.69,17.78,0,3.82,1.79,5.69,3.29,6.59a10.45,10.45,0,0,0,5.55,1.18l1.15,0h1.08c7.62,0,13.59-4.48,19.36-8.83,6.07-4.56,14-9.28,22.54-9.28h5c15,0,26.69,12.25,26.69,27.89,0,13.15-21.52,21.67-42.86,24.28-34.63,4.34-55.31,21.45-55.31,45.77,0,22.33,19,38.55,45,38.55a97.45,97.45,0,0,0,23.55-2.85,85.57,85.57,0,0,1,20.5-2.54c5.24,0,11.06,1.27,16.2,2.4,4.47,1,8.33,1.83,11.49,1.83,9.43,0,14.84-5.69,14.84-15.6V211.28q0-6,0-11.5c.18-29.2.29-48.5-11.73-60.6m-19.31,84c0,19.49-18.51,35.34-41.25,35.34-15,0-27.18-10.95-27.18-24.41,0-17.42,24.13-32.92,43.16-32.92,14.64,0,25.27,9.25,25.27,22"/><path class="cls-1" d="M256.11,200.08c.22-13.39.3-22.8-6.54-37.34-7.21-15.34-18.69-21.38-35.88-38.35-.82-.79-1.63-1.61-2.44-2.44a1.7,1.7,0,0,0-.19-.19c-.16-.16-.32-.35-.48-.51l-.9-1c-3.37-3.61-6.94-8-10.72-12.78-4.14-5.11-7.6-9.53-10.72-13.32-.25-.29-.49-.59-.73-.88-11.68-14-19.17-19.1-42.46-19.1-11.68,0-31.13,1.77-13.24,21.18,0,0,66.71,59.69,72.82,68.23s11,23.53,11,40.59v54.57c0,11.18,6.13,17.65,20.23,17.65,15.32,0,19.61-10.59,19.61-17.65l.22-21.52c0-1.33.16-22.5.39-37.17"/><path class="cls-1" d="M255.73,143.69c-10.58-26.25-9.75-51.37,7.9-75.06,19.94-26.75,55-36.86,79.06-58.15-1.53,23.31-9.89,47.61-20.09,70-15.87,34.79-62.48,37.88-66.87,63.23"/><polygon class="cls-2" points="6 355.21 10.25 355.21 18.22 376.39 18.3 376.39 26.57 355.21 30.59 355.21 19.91 381.24 16.46 381.24 6 355.21"/><rect class="cls-2" x="66.4" y="355.21" width="3.68" height="26.03"/><path class="cls-2" d="M109,355.21h9.46a18,18,0,0,1,5,.63,13.67,13.67,0,0,1,3.76,1.67,10.77,10.77,0,0,1,2.64,2.41,13.12,13.12,0,0,1,1.67,2.79,13.7,13.7,0,0,1,.88,2.87,14.43,14.43,0,0,1,.27,2.65,12.54,12.54,0,0,1-1,4.83,12,12,0,0,1-2.84,4.15,14,14,0,0,1-4.65,2.93,17.39,17.39,0,0,1-6.41,1.1H109Zm3.67,22.72h4.64a15.89,15.89,0,0,0,4.42-.6,11,11,0,0,0,3.66-1.82,8.69,8.69,0,0,0,2.49-3,9.32,9.32,0,0,0,.92-4.24,12.27,12.27,0,0,0-.42-2.93,8.65,8.65,0,0,0-1.59-3.18,9.43,9.43,0,0,0-3.24-2.55,11.84,11.84,0,0,0-5.36-1.05h-5.52Z"/><path class="cls-2" d="M179.05,355.21h3.34l11.6,26H189.7L187,374.81h-12.9l-2.69,6.43H167.1Zm6.59,16.51-5-12h-.08l-5.13,12Z"/><path class="cls-2" d="M274.09,375.8a6,6,0,0,0,2.54,2.12,8,8,0,0,0,3.2.67,6.94,6.94,0,0,0,1.88-.27,5.59,5.59,0,0,0,1.74-.83,4.61,4.61,0,0,0,1.28-1.36,3.52,3.52,0,0,0,.5-1.88,2.76,2.76,0,0,0-1-2.29,8.61,8.61,0,0,0-2.47-1.32c-1-.36-2.06-.7-3.22-1a13.9,13.9,0,0,1-3.22-1.38,7.75,7.75,0,0,1-2.47-2.37,7.14,7.14,0,0,1-1-4,6.65,6.65,0,0,1,.52-2.43,6.88,6.88,0,0,1,1.63-2.35,9.07,9.07,0,0,1,2.85-1.78,11,11,0,0,1,4.2-.72,15.26,15.26,0,0,1,4.25.59,7.31,7.31,0,0,1,3.56,2.39l-3,2.61a5,5,0,0,0-1.95-1.66,6.47,6.47,0,0,0-2.87-.62,7.2,7.2,0,0,0-2.55.39,4.7,4.7,0,0,0-1.63,1,3.51,3.51,0,0,0-.86,1.3,3.81,3.81,0,0,0-.25,1.29,3.21,3.21,0,0,0,1,2.54,7.68,7.68,0,0,0,2.47,1.43,29,29,0,0,0,3.21,1,14.53,14.53,0,0,1,3.22,1.23,7.37,7.37,0,0,1,2.47,2.14,6,6,0,0,1,1,3.69,7.49,7.49,0,0,1-2.76,5.92,9,9,0,0,1-3,1.58,11.9,11.9,0,0,1-3.67.55,13.87,13.87,0,0,1-5-.88,8.1,8.1,0,0,1-3.71-2.72Z"/><path class="cls-2" d="M335.64,355.21H339l11.61,26h-4.29l-2.72-6.43H330.66L328,381.24h-4.29Zm6.59,16.51-5.06-12h-.07l-5.14,12Z"/><polygon class="cls-2" points="386.66 355.21 391.49 355.21 406.43 376.61 406.5 376.61 406.5 355.21 410.18 355.21 410.18 381.24 405.51 381.24 390.41 359.85 390.34 359.85 390.34 381.24 386.66 381.24 386.66 355.21"/><path class="cls-2" d="M458.21,355.21h3.33l11.61,26h-4.29l-2.72-6.43H453.23l-2.68,6.43h-4.29Zm6.59,16.51-5.06-12h-.08l-5.13,12Z"/></svg>