<svg id="Capa_1" data-name="Capa 1" xmlns="http://www.w3.org/2000/svg" viewBox="0 0 1080 1080"><defs><style>.cls-1{fill:#fff;}</style></defs><title>Ysana_web_material</title><path class="cls-1" d="M469.18,769a64.35,64.35,0,1,0,64.36,64.35A64.43,64.43,0,0,0,469.18,769Zm21.45,64.34a21.45,21.45,0,1,1-21.45-21.45A21.48,21.48,0,0,1,490.63,833.3Z"/><path class="cls-1" d="M678,769a64.35,64.35,0,1,0,64.36,64.35A64.43,64.43,0,0,0,678,769ZM699.4,833.3A21.46,21.46,0,1,1,678,811.85,21.48,21.48,0,0,1,699.4,833.3Z"/><path class="cls-1" d="M858.44,383.35a37.88,37.88,0,0,0-29.52-14H315.29l-9.65-46.9a38.15,38.15,0,0,0-22.13-27.23l-72.93-31.66a21.46,21.46,0,0,0-17.09,39.37l70.62,30.65L344,721.36a38.23,38.23,0,0,0,37.29,30.39H779.37a21.45,21.45,0,1,0,0-42.9H385.25l-7.8-37.8h405a38.21,38.21,0,0,0,37.28-30.39l46.49-225.6A38,38,0,0,0,858.44,383.35ZM823,412.23,778.51,628.15H368.61L324.13,412.22Z"/></svg>