<svg id="Capa_1" data-name="Capa 1" xmlns="http://www.w3.org/2000/svg" viewBox="0 0 1080 1080"><defs><style>.cls-1{fill:#e5007e;}</style></defs><title>Ysana_web_material</title><path class="cls-1" d="M582.18,593.74c-.25,16.14-.4,39.41-.43,40.85l-.21,22.79c0,7.76-4.52,19.41-20.72,19.41-14.86,0-21.3-7.12-21.3-19.41V598.27c0-18.75-5.22-35.23-11.67-44.63s-76.81-75-76.81-75c-18.9-21.33,1.62-23.28,13.95-23.28,24.58,0,32.49,5.58,44.79,21,.26.31.53.65.77,1,3.3,4.17,7,9,11.32,14.66,4,5.25,7.76,10.07,11.3,14,.34.36.64.7,1,1.05.14.18.31.37.49.57a1.43,1.43,0,0,1,.2.23c.85.9,1.71,1.8,2.55,2.66,18.16,18.66,30.28,25.3,37.87,42.17,7.23,16,7.14,26.31,6.91,41m-.4-60.21c4.62-27.85,53.8-31.24,70.56-69.49,10.75-24.59,19.6-51.33,21.19-76.94-25.44,23.38-62.37,34.52-83.42,63.91-18.61,26-19.49,53.68-8.33,82.52m-41-116.15a28,28,0,1,0,28,28A28,28,0,0,0,540.82,417.38ZM159.91,587.44a5.89,5.89,0,0,0-2.83,3.95q-1.22,4.46-3,9.31-1.62,4-4,9a85.35,85.35,0,0,1-5.67,9.82,62.41,62.41,0,0,1-15.19,12.15,24.09,24.09,0,0,1-17.61,3.64,15.6,15.6,0,0,1-7.49-3.64,10.74,10.74,0,0,1-3.24-7.29,75.67,75.67,0,0,1,1.11-21.77,72.43,72.43,0,0,1,7.39-20.35,18.82,18.82,0,0,1,4-4.86,7.38,7.38,0,0,1,11.54,3.85q.62,2.24,1.11,4.35a19.64,19.64,0,0,0,1.52,4.16,6.61,6.61,0,0,0,4.76,3.84,5.74,5.74,0,0,0,5.57-2,9.44,9.44,0,0,0,2.63-3.75,12.15,12.15,0,0,0,.81-4.35c0-1.75,0-3.51-.1-5.27a40.72,40.72,0,0,0-.5-5.06,21.37,21.37,0,0,0-7.09-11.94q-8.91-7.1-18.32-7.39t-18.13,6a31.63,31.63,0,0,0-6.07,5.57A63.8,63.8,0,0,0,86.21,572a51.36,51.36,0,0,0-5.87,12.75q-2,6.69-3.45,13.57a6.11,6.11,0,0,1-.2,1.72,5,5,0,0,0-.2,1.32,75.85,75.85,0,0,0-.5,15.08,54.37,54.37,0,0,0,3.33,15.09q5.48,15,20.66,18.22h.2a.18.18,0,0,0,.2.2h1.42l.2.41a11.85,11.85,0,0,1,2.23.2h1.21a88.74,88.74,0,0,0,13.67-.3,38.22,38.22,0,0,0,16.71-5.78A51.77,51.77,0,0,0,151,630.87a102.39,102.39,0,0,0,10.23-16.3,106.75,106.75,0,0,0,5.87-14l2.12-6.58a6.25,6.25,0,0,0-.81-4.36,6.39,6.39,0,0,0-3.84-2.93A6,6,0,0,0,159.91,587.44Zm76.84-.61a6.74,6.74,0,0,0-3.34,3.34,4.81,4.81,0,0,0-.61,1.32,4.45,4.45,0,0,1-.6,1.31.79.79,0,0,1-.21.61,2.47,2.47,0,0,0-.4.61q-4.05,7.08-8.2,14.17t-8.61,14.17a66.39,66.39,0,0,1-5.47,7.8,43.28,43.28,0,0,1-6.88,6.78c-1.48,1.09-2.73,2-3.74,2.64a4.25,4.25,0,0,1-2.94.81,4.89,4.89,0,0,1-2.73-1.52,25.59,25.59,0,0,1-3.14-4.15,25,25,0,0,1-3.95-8.91,68.38,68.38,0,0,1-1.52-9.52,3.43,3.43,0,0,1,.3-2.12c.34-.75.64-1.45.92-2.13a217.35,217.35,0,0,0,24.7-51A129.61,129.61,0,0,0,216,530.24a88.42,88.42,0,0,0-.51-9.42,36.47,36.47,0,0,0-2.12-9,23.63,23.63,0,0,0-4.87-7.59,18.34,18.34,0,0,0-6.88-4.56,17.68,17.68,0,0,0-8.2-.91,21,21,0,0,0-8.4,2.94q-2,1.41-4,3a32.06,32.06,0,0,0-3.54,3.44,43.73,43.73,0,0,0-6.79,8.7,71.63,71.63,0,0,0-4.75,9.72,113.21,113.21,0,0,0-5.57,16.4q-2.13,8.31-3.55,17A160.76,160.76,0,0,0,155,594.42,119.36,119.36,0,0,0,161.73,628q1.62,4.66,3.54,9a42.89,42.89,0,0,0,5,8.41A34.53,34.53,0,0,0,183.19,657a22.83,22.83,0,0,0,11,2.73A18.54,18.54,0,0,0,204.86,656a54,54,0,0,0,5.47-4.05,35.93,35.93,0,0,0,4.86-5.06q3.44-4.26,6.68-8.81a71.32,71.32,0,0,0,5.67-9.42c.81-1.35,1.58-2.7,2.33-4s1.52-2.7,2.33-4.05q2.63-4.86,5-9.51t4-8.1c1.08-2.3,2.22-4.93,3.44-7.9a5.6,5.6,0,0,0,.2-4.86,7.29,7.29,0,0,0-3.24-3.44A5.62,5.62,0,0,0,236.75,586.83Zm-49.61-55.48a80.45,80.45,0,0,1,3.35-9.62c.53-.94,1-1.85,1.41-2.73a8.25,8.25,0,0,1,1.62-2.33q1.83-2.62,3.34-2.43c1,.14,1.86,1.15,2.54,3,.4,1.48.81,3,1.21,4.55a17.89,17.89,0,0,1,.61,4.56A76.74,76.74,0,0,1,200,539.75a100,100,0,0,1-4.76,17.52q-3.13,8.4-7.18,16.7c-.95,1.76-1.79,3.48-2.54,5.17s-1.58,3.54-2.52,5.56l-.61-1.82q.6-10.53,1.31-20.86t1.73-20.85A52.25,52.25,0,0,1,187.14,531.35ZM338.4,587.13a6.18,6.18,0,0,0-3.14,3.65,83,83,0,0,1-3.55,8.4q-2.54,5.37-5.57,10.93t-5.77,10.43a61.33,61.33,0,0,1-4.14,6.68l-2.84,2.84c0-1.08,0-2-.1-2.73s-.1-1.45-.1-2.13c.13-3.64.3-7.29.5-10.93s.51-7.29.91-10.94q.4-4.46,1.12-8.6t1.11-8.41a42.7,42.7,0,0,0,0-13.16,38.41,38.41,0,0,0-1.22-4.76,16.74,16.74,0,0,0-2.22-4.55,9.83,9.83,0,0,0-8.61-4.56,9.11,9.11,0,0,0-4.45,1.42,10.15,10.15,0,0,0-3.54,3.95,19.53,19.53,0,0,0-2.23,4.86c-.54,1.75-1.15,3.51-1.82,5.26-.28,1.08-.51,2.13-.71,3.14a10.33,10.33,0,0,1-1.11,2.94q-10.14,20-20.66,40.09a66.32,66.32,0,0,1-3.95,6.88c-1.41,2.16-2.8,4.39-4.15,6.68a21.45,21.45,0,0,1-1.62,1.83l-1.82,1.82a18,18,0,0,1-.91-6.08c.07-1.89.1-3.77.1-5.66q.19-8.5.41-16.91t.4-16.91a29.08,29.08,0,0,0-.71-6.38,15,15,0,0,0-2.93-6,11.16,11.16,0,0,0-9.42-5.06q-5.78,0-9.42,5.26c-.4.81-.84,1.66-1.31,2.53a12.82,12.82,0,0,0-1.12,2.94q-.6,3-1.31,6.17a27.4,27.4,0,0,0-.71,6,98.87,98.87,0,0,0,0,12.65q.41,6.18.81,12.25A68.58,68.58,0,0,0,235,635.73a35.34,35.34,0,0,0,3.34,8.2,29.94,29.94,0,0,0,5.57,7q6.48,5.25,13.16,5t11.95-6.78a48.55,48.55,0,0,0,7.09-10.33q3.23-6.46,6.17-13.26c1.95-4.52,4-9.07,6.17-13.66.27-.68.58-1.35.92-2s.63-1.35.9-2h1a14.75,14.75,0,0,1,.2,2.32,7.32,7.32,0,0,0,.4,2.33q.61,5.07,1.32,9.82c.48,3.18,1,6.45,1.72,9.82A23.68,23.68,0,0,0,300,643.42q4.46,5.67,10.23,6.18t10.83-4.76q2.43-2.83,4.66-5.67a47.47,47.47,0,0,0,4.05-6.07c.95-1.89,1.89-3.75,2.84-5.57s1.95-3.75,3-5.77a5.87,5.87,0,0,0,1.42-3.24,28.19,28.19,0,0,0,2-4,19.33,19.33,0,0,0,1-2.43q2.22-5.26,3.94-9.82t2.74-7.39a5.34,5.34,0,0,0-.2-4.76,7.3,7.3,0,0,0-3.65-3.14A5,5,0,0,0,338.4,587.13Zm106.81,1.62a26.77,26.77,0,0,0-3.45,1.42l-3.24,1.62c-.54.27-1,.48-1.32.61a2.94,2.94,0,0,0-.91.6,22.44,22.44,0,0,1-3,1.63,21.72,21.72,0,0,0-3,1.62,7.13,7.13,0,0,1-1.41.7,13.26,13.26,0,0,1-1.63.51,26.94,26.94,0,0,1-1.62-2.53c-.4-.74-.88-1.52-1.41-2.33a22,22,0,0,0-11.95-9.11,21.46,21.46,0,0,0-15,1A48.45,48.45,0,0,0,387.5,590a93.15,93.15,0,0,0-17,15.89,109.2,109.2,0,0,0-12.76,19.34l-1.62,3.24a15.73,15.73,0,0,1-1.31-4.25,22.54,22.54,0,0,0-1.12-4.25,5,5,0,0,1,.41-3.55,12,12,0,0,1,2.43-2.73c2.43-2.29,4.82-4.56,7.19-6.78s4.62-4.56,6.78-7a240,240,0,0,0,18-24.4q8.3-12.86,15.59-26.22a55.06,55.06,0,0,0,7.09-23.69,24,24,0,0,0-1.32-10.23,19.35,19.35,0,0,0-5.06-7.59,18.8,18.8,0,0,0-8-4.25,26.29,26.29,0,0,0-10.33-.41,39.35,39.35,0,0,0-15,4.86A68.38,68.38,0,0,0,359,517.28a73.87,73.87,0,0,0-11.95,15,91.2,91.2,0,0,0-8.1,17.62,112,112,0,0,0-5.67,26.42,183,183,0,0,0-.4,27.23q.21,2.24.91,6.89t1.72,10.12q1,5.48,2.23,11t2.43,9.62a59.17,59.17,0,0,0,5.46,14,18.09,18.09,0,0,0,2.64,4.15,32.93,32.93,0,0,0,3.44,3.54,8.45,8.45,0,0,0,5.87,2,16.65,16.65,0,0,0,6.28-1.83,11.2,11.2,0,0,0,4-4.15,9.73,9.73,0,0,0,.81-5.77,35.92,35.92,0,0,1,.41-9.31,31,31,0,0,1,2.84-8.71,73,73,0,0,1,11.34-17.21,81.66,81.66,0,0,1,15.38-13.36c3.1-2.16,5.37-3,6.79-2.43s2.8,2.76,4.15,6.68a11.62,11.62,0,0,0-1.82,1.31,15,15,0,0,1-1.42,1.12,77.87,77.87,0,0,0-13.57,12.15,55.25,55.25,0,0,0-9.51,15.38,53,53,0,0,0-2.54,8.11,26.13,26.13,0,0,0-.5,8.3,23.07,23.07,0,0,0,2.93,9.21,17.71,17.71,0,0,0,5.88,6.17,17.9,17.9,0,0,0,8.09,2.64,19.76,19.76,0,0,0,9.42-1.62,37.86,37.86,0,0,0,6.78-3.45,19,19,0,0,0,5.37-5.26,53,53,0,0,0,4.05-6,39.63,39.63,0,0,0,3-6.58,88.57,88.57,0,0,0,4.65-17.11,77.13,77.13,0,0,0,.81-17.72v-3a19.33,19.33,0,0,1,1.83-1.31c.53-.34,1.14-.71,1.82-1.12a15.45,15.45,0,0,0,2.32-1.21c.88-.54,1.73-1.08,2.54-1.62s1.95-1.15,3-1.82a5.53,5.53,0,0,0,2.43-1.42c1.07-.54,2.12-1.11,3.13-1.72s2-1.25,2.94-1.92a8.37,8.37,0,0,0,3.65-4.36,5.43,5.43,0,0,0-.62-4.76Q451.69,586.32,445.21,588.75Zm-85.86-32.39q1.83-5.88,4-11.75A72.34,72.34,0,0,1,370,533.27a43.88,43.88,0,0,1,9-9.31,22,22,0,0,1,3.95-2.43c1.42-.67,2.8-1.28,4.15-1.82,1.75-.68,3.07-.64,4,.1s1.18,2.06.91,4c-.13,1.08-.3,2.16-.5,3.24a14.72,14.72,0,0,1-.92,3c-1.08,2.42-2.12,4.86-3.13,7.28a57.22,57.22,0,0,1-3.55,7.09q-6.68,10.13-13.46,20.05t-13.67,20c-.27.41-.58.85-.91,1.32s-.64.91-.91,1.31c-.68-.13-1.09-.33-1.22-.6.54-3.11,1-6.14,1.42-9.12s.88-6,1.42-9.11A90.1,90.1,0,0,1,359.35,556.36Zm44.95,96.17a10.61,10.61,0,0,1-5.87,3,5,5,0,0,1-1.42-3.34,13.23,13.23,0,0,1,.41-3.34,26.81,26.81,0,0,1,2.83-6.68,51.06,51.06,0,0,1,4.66-7.59,78.12,78.12,0,0,1,5.67-6.79c.27.28.47.41.61.41l.2.2q-.42,4.86-1.21,9.42a62.77,62.77,0,0,1-2.43,9.21A19.92,19.92,0,0,1,404.3,652.53Zm255.53-37.45q5.86-3.45,11.34-7t11.13-7c.67-.41,1.29-.78,1.82-1.12a8.62,8.62,0,0,0,1.62-1.32q4.26-4.24,1.22-9.11a8.13,8.13,0,0,0-3.54-2.63,6.53,6.53,0,0,0-4.76.2,28.66,28.66,0,0,0-2.53,1.62c-.74.54-1.52,1.15-2.33,1.83a68,68,0,0,1-11,8,121.68,121.68,0,0,1-12.24,6.18,3.85,3.85,0,0,1-3.45,0q-4.65-2.84-8.91-5.57c-2.83-1.82-5.74-3.81-8.7-6a8,8,0,0,1-2.43-3c-.68-1.35-1.36-2.63-2-3.85-.94-2-.54-4,1.22-5.87a11.68,11.68,0,0,1,3.84-2.33,9.63,9.63,0,0,1,4.66-.3,14.5,14.5,0,0,1,5.27,1.82,12.36,12.36,0,0,1,4,3.85c.54.68,1,1.28,1.42,1.82a17.07,17.07,0,0,0,1.62,1.82,5,5,0,0,0,5.16,1.42,5.14,5.14,0,0,0,3.75-4,9.28,9.28,0,0,0-.4-6.68,26.87,26.87,0,0,0-5.47-8.3,24,24,0,0,0-12.25-7.19,22.47,22.47,0,0,0-14.08,1.11A26.72,26.72,0,0,0,612,572.76a23,23,0,0,0-4.45,13.56,28.15,28.15,0,0,0,1.52,9.12,33.69,33.69,0,0,0,4.35,8.5q2.84,3.45,5.88,6.58t5.87,6.38l2.83,2.83a18.81,18.81,0,0,0-1.31,1.83c-.34.54-.72,1.14-1.12,1.82a56.82,56.82,0,0,0-4.86,7.79,69.62,69.62,0,0,0-3.65,8.61q-4.46,11.75,1.83,23.28a24.58,24.58,0,0,0,10,10.13,22.27,22.27,0,0,0,13.87,2.43,24,24,0,0,0,12.35-4.76,28,28,0,0,0,8.1-10.43q9.32-20.85-2.23-41.31c-.27-.53-.57-1.07-.91-1.62s-.64-1-.91-1.41A1.7,1.7,0,0,0,659.83,615.08ZM644,641.8a19.24,19.24,0,0,1,0,5.67c-.27,1.89-.53,3.78-.81,5.67a6,6,0,0,1-4.85,4.86,6.5,6.5,0,0,1-6.69-3.44,13.68,13.68,0,0,1-2-4.25,11.38,11.38,0,0,1-.2-4.86,40.54,40.54,0,0,1,3-8.91,81.25,81.25,0,0,1,4.86-8.71Q643.64,634.31,644,641.8Zm144.78-54.67a7.17,7.17,0,0,0-4.76-.4,5.55,5.55,0,0,0-3.75,2.83q-6.88,12.77-14,24.3a241.55,241.55,0,0,1-13.57,20q-2.22,2.83-4.55,5.36t-4.56,5.37a7.88,7.88,0,0,1-1.72,1.62c-.61.4-1.38.94-2.33,1.62v-2.53a5.24,5.24,0,0,1,.41-1.93q.39-3.43,1-6.78a53.09,53.09,0,0,1,1.62-6.58q2.64-8.7,5.27-17.31t5.46-17.31c.68-2.44,1.28-4.86,1.83-7.3s1-4.85,1.41-7.28a12.57,12.57,0,0,0-.2-6.68,8,8,0,0,0-6.68-5.88,7.25,7.25,0,0,0-4.56.61,9.51,9.51,0,0,0-3.34,3,3.94,3.94,0,0,0-1,1.41,2.6,2.6,0,0,1-.61,1q-2.84-2-5.56-4.25a30.64,30.64,0,0,0-5.58-3.65,36.44,36.44,0,0,0-19.64-3.54q-9.51,1.11-18,8.4a63.81,63.81,0,0,0-16,20.35,67.29,67.29,0,0,0-6.48,24.6,34.37,34.37,0,0,0,.91,10.83,32.42,32.42,0,0,0,4.55,10.23q4.67,7.29,12.05,9.11T701.33,644a34.72,34.72,0,0,0,4.87-3.14c1.48-1.14,2.89-2.33,4.25-3.54q2.82-2.83,5.36-5.77l5-5.77a4.49,4.49,0,0,1,1.12-1.42c.47-.41,1-.94,1.72-1.62a18.62,18.62,0,0,1-.2,2.93c-.14.75-.28,1.46-.41,2.13-.27,2.7-.5,5.37-.71,8s-.37,5.23-.5,7.79a25.26,25.26,0,0,0,1.82,9.72,16.86,16.86,0,0,0,4.25,7,14.27,14.27,0,0,0,6.28,3.65,13.7,13.7,0,0,0,7.18-.11,17.9,17.9,0,0,0,7.19-4,59.37,59.37,0,0,0,6.69-7.89c1.62-2.3,3.27-4.59,4.95-6.89s3.28-4.59,4.76-6.88c1.35-1.89,2.74-3.81,4.15-5.77s2.87-4.15,4.36-6.58q3.65-5.67,6.88-11t5.67-9.61c1.62-2.84,2.9-5.13,3.85-6.89a22.55,22.55,0,0,0,1.41-2.83,3.71,3.71,0,0,0,.62-3.45,2.78,2.78,0,0,0-1.22-3.24A15.42,15.42,0,0,0,788.81,587.13Zm-94.76,27.74a42.58,42.58,0,0,1,13.77-24.7,11.27,11.27,0,0,1,3.44-2.33,20.31,20.31,0,0,1,3.84-1.31c3.37-.68,5.88-.61,7.5.2s3.37,2.9,5.26,6.27a218.77,218.77,0,0,1-15.08,16.31A157,157,0,0,1,695.26,624Q693,618.92,694.05,614.87ZM894.8,587a5.88,5.88,0,0,0-3.33,3.14q-4.66,10.32-9.52,20.05T872.53,628q-4.56,8.1-8.6,14a66,66,0,0,1-7.09,8.91h-.2a25.79,25.79,0,0,0,.2-3,13,13,0,0,1,.39-3q1.77-9.32,3.37-18.63T864,607.58q1-5.46,1.59-10.93a43.65,43.65,0,0,0-4-22.88,11.93,11.93,0,0,0-6.89-6.58,14,14,0,0,0-9.72.5,38.74,38.74,0,0,0-8.5,4.66,50.51,50.51,0,0,0-8.1,6.38,68.44,68.44,0,0,0-6.88,7.8q-4,5.26-7.9,10.83t-7.9,11h-.2a7.53,7.53,0,0,1-.91,1.42,7.36,7.36,0,0,0-.91,1.42,27.16,27.16,0,0,0-1.83,2.94c-.53,1-1,1.92-1.51,2.73s-.88,1.45-1.22,1.92-.57.64-.71.51V585.92a44.81,44.81,0,0,0-.6-7.29,9.61,9.61,0,0,0-2.53-5.16,8.15,8.15,0,0,0-4.77-2.33,6.68,6.68,0,0,0-5.06,1.21,12,12,0,0,0-3.64,4.46,14.27,14.27,0,0,0-1.82,5.26,113.23,113.23,0,0,0-2.43,25,100.33,100.33,0,0,0,3.64,25,35.14,35.14,0,0,0,1.52,4.36,18.24,18.24,0,0,0,2.33,3.95q3.24,4.65,8,5.16t8.8-3.34a29.5,29.5,0,0,0,5.68-7.29q2.63-4,5-8.4t4.55-8.41q4.26-7.49,9.12-14.47a149.89,149.89,0,0,1,10.53-13.47,10,10,0,0,0,1.51-1.42c.48-.53,1.18-1.28,2.13-2.22a18.16,18.16,0,0,0-.51,2.63,8.42,8.42,0,0,1-.3,1.62A140.1,140.1,0,0,0,834,617.1a158.51,158.51,0,0,0-.61,26.52,37.24,37.24,0,0,0,.61,6.59,28.44,28.44,0,0,0,1.84,6.17,16,16,0,0,0,4.5,7,15.71,15.71,0,0,0,6.84,3.64,15.9,15.9,0,0,0,7.75-.1,14.94,14.94,0,0,0,7.21-4.45q4-2.85,9.93-10.53t14.38-23.49q3.44-6.27,6.37-12.15t5.06-10.43c1.42-3,2.57-5.5,3.45-7.39a23.11,23.11,0,0,1,1.52-3,6.69,6.69,0,0,0,.09-5,5.88,5.88,0,0,0-3.13-3.34A6.69,6.69,0,0,0,894.8,587Zm106.41.1a7.17,7.17,0,0,0-4.76-.4,5.55,5.55,0,0,0-3.75,2.83q-6.88,12.77-14,24.3t-13.56,20q-2.24,2.83-4.56,5.36t-4.56,5.37a7.88,7.88,0,0,1-1.72,1.62c-.61.4-1.39.94-2.33,1.62v-2.53a5,5,0,0,1,.41-1.93q.4-3.43,1-6.78a56.91,56.91,0,0,1,1.62-6.58q2.63-8.7,5.26-17.31t5.47-17.31c.68-2.44,1.29-4.86,1.82-7.3s1-4.85,1.42-7.28a12.47,12.47,0,0,0-.2-6.68,8,8,0,0,0-6.68-5.88,7.25,7.25,0,0,0-4.56.61,9.51,9.51,0,0,0-3.34,3,3.94,3.94,0,0,0-1,1.41,2.49,2.49,0,0,1-.61,1c-1.89-1.35-3.74-2.77-5.57-4.25a30.17,30.17,0,0,0-5.56-3.65,36.49,36.49,0,0,0-19.65-3.54q-9.51,1.11-18,8.4a63.77,63.77,0,0,0-16,20.35,67.29,67.29,0,0,0-6.48,24.6,34.67,34.67,0,0,0,.91,10.83,32.22,32.22,0,0,0,4.56,10.23q4.65,7.29,12,9.11T913.74,644a34.5,34.5,0,0,0,4.85-3.14c1.49-1.14,2.91-2.33,4.26-3.54,1.89-1.89,3.67-3.81,5.36-5.77l5-5.77a4.49,4.49,0,0,1,1.12-1.42c.47-.41,1-.94,1.72-1.62a16.33,16.33,0,0,1-.21,2.93c-.13.75-.27,1.46-.4,2.13q-.4,4-.71,8t-.51,7.79a25.45,25.45,0,0,0,1.83,9.72,16.86,16.86,0,0,0,4.25,7,14.27,14.27,0,0,0,6.28,3.65,13.69,13.69,0,0,0,7.18-.11,17.93,17.93,0,0,0,7.2-4,59.94,59.94,0,0,0,6.67-7.89c1.62-2.3,3.27-4.59,5-6.89s3.27-4.59,4.75-6.88q2-2.83,4.16-5.77t4.35-6.58q3.64-5.67,6.88-11t5.67-9.61c1.62-2.84,2.9-5.13,3.85-6.89a23.67,23.67,0,0,0,1.42-2.83,3.67,3.67,0,0,0,.6-3.45,2.77,2.77,0,0,0-1.21-3.24A15.42,15.42,0,0,0,1001.21,587.13Zm-94.76,27.74a42.73,42.73,0,0,1,13.76-24.7,11.78,11.78,0,0,1,3.44-2.33,20.88,20.88,0,0,1,3.85-1.31c3.38-.68,5.87-.61,7.49.2s3.38,2.9,5.27,6.27a214.73,214.73,0,0,1-15.09,16.31A156,156,0,0,1,907.66,624Q905.43,618.92,906.45,614.87Z"/></svg>