<svg id="Capa_1" data-name="Capa 1" xmlns="http://www.w3.org/2000/svg" viewBox="0 0 1080 1080"><defs><style>.cls-1{fill:#f6f5f8;}.cls-2{fill:#ea0029;}</style></defs><title>Ysana_web_material</title><path class="cls-1" d="M999.34,440.69v-.1c0-8.78,7.44-16.14,16.87-16.14s16.79,7.26,16.79,16.06v.08c0,8.8-7.43,16.15-16.87,16.15s-16.79-7.26-16.79-16.05m31.89-.1v-.08c0-8-6.46-14.46-15-14.46s-15.11,6.55-15.11,14.54v.1c0,8,6.48,14.44,15,14.44s15.1-6.55,15.1-14.54m-21.85-8.92h7.88a7.48,7.48,0,0,1,5.32,1.83A4.57,4.57,0,0,1,1024,437v.09a5.06,5.06,0,0,1-4.08,5.08l4.75,6.38h-4l-4.27-5.84h-3.68v5.84h-3.35Zm7.74,8.25c2.18,0,3.48-1,3.48-2.63v-.09c0-1.69-1.3-2.62-3.48-2.62h-4.39v5.34Z"/><path class="cls-1" d="M467.59,543.37c-7.32-5.8-18-10-33.68-13.22C393.36,521.92,391.55,511,391.55,504c0-13.14,11.23-21.59,26.39-21.59,8,0,13.79,3.93,19.4,7.73,5.14,3.46,10,6.74,16,6.74,8.89,0,12.06-4.47,12.06-8.66,0-13.15-29.18-19.07-49.9-19.07-15.85,0-30.62,3.84-41.58,10.81-12.64,8-19.31,19.49-19.31,33.12,0,18.63,15.07,31.75,44.79,39,28.61,7,44.73,10,44.73,25.79,0,11.29-7.2,23.95-32.95,23.95-13.3,0-23.68-6.45-32-11.38-6.17-3.64-11.5-6.79-16.65-6.79-7.59,0-11.44,3.31-11.44,9.82,0,8,10.82,13.27,19.89,16.29,12.11,4,27.67,6.25,43.81,6.25,17.38,0,33.61-4.47,45.68-12.6,12.65-8.5,19.61-20.25,19.61-33.07,0-11.49-4.08-20.31-12.46-26.94"/><path class="cls-1" d="M576.74,470.58c-11.72,0-25.37,2-34.67,5.57-14.37,5.47-17.38,12.53-17.38,17.48,0,3.76,1.75,5.6,3.23,6.48a10.29,10.29,0,0,0,5.46,1.16h2.19c7.49,0,13.35-4.41,19-8.68,6-4.49,13.72-9.13,22.15-9.13h5c14.7,0,26.23,12,26.23,27.41,0,12.93-21.15,21.31-42.13,23.88-34,4.26-54.37,21.08-54.37,45,0,22,18.63,37.9,44.29,37.9a95.51,95.51,0,0,0,23.14-2.8,84,84,0,0,1,20.15-2.5c5.15,0,10.88,1.25,15.93,2.36,4.39,1,8.19,1.8,11.29,1.8,9.27,0,14.59-5.59,14.59-15.33V554.78c0-3.93,0-7.69,0-11.3.17-28.71.29-47.68-11.53-59.57-9.28-9.34-25-13.33-52.6-13.33m33.62,95.94c0,19.15-18.19,34.74-40.55,34.74-14.73,0-26.72-10.77-26.72-24,0-17.12,23.73-32.36,42.43-32.36,14.39,0,24.84,9.09,24.84,21.62"/><path class="cls-1" d="M781.34,473.18c-11.36,0-20,2.38-26.89,4.28-4.07,1.12-7.58,2.09-10.22,2.09-6.1,0-12.79-1-19.25-2-6-.92-11.61-1.79-16.42-1.79-9.7,0-18.07,5.94-18.07,14.44v109.3c0,10.35,6.32,15.6,15.66,15.6,8,0,16.83-5.93,16.83-13.86V534.34c0-27.05,13.55-44.53,34.5-44.53,8.24,0,33.35,0,33.35,49.19v62.21c0,8.81,5.89,13.86,15.21,13.86s14.67-5.75,14.67-16.18V514.81c0-27.62-13.25-41.63-39.37-41.63"/><path class="cls-1" d="M971.76,483.91c-9.28-9.34-25-13.33-52.59-13.33-11.73,0-25.38,2-34.69,5.57-14.36,5.47-17.38,12.53-17.38,17.48,0,3.76,1.76,5.6,3.23,6.48a10.33,10.33,0,0,0,5.46,1.16H878c7.49,0,13.36-4.41,19-8.68,6-4.49,13.72-9.13,22.16-9.13h4.94c14.71,0,26.24,12,26.24,27.41,0,12.93-21.16,21.31-42.13,23.88-34,4.26-54.37,21.08-54.37,45,0,22,18.62,37.9,44.28,37.9a95.53,95.53,0,0,0,23.15-2.8,84,84,0,0,1,20.15-2.5c5.15,0,10.88,1.25,15.92,2.36,4.4,1,8.19,1.8,11.3,1.8,9.27,0,14.59-5.59,14.59-15.33V554.78c0-3.93,0-7.69,0-11.3.17-28.71.29-47.68-11.53-59.57m-19,82.61c0,19.15-18.19,34.74-40.54,34.74-14.74,0-26.72-10.77-26.72-24,0-17.12,23.72-32.36,42.43-32.36,14.39,0,24.83,9.09,24.83,21.62"/><path class="cls-1" d="M292.91,543.76c.21-13.16.29-22.4-6.43-36.7-7.09-15.07-18.38-21-35.27-37.7-.81-.77-1.61-1.58-2.4-2.39l-.19-.19c-.16-.16-.32-.34-.47-.51l-.89-.94c-3.31-3.55-6.82-7.89-10.54-12.57-4.07-5-7.46-9.37-10.54-13.1-.24-.28-.47-.57-.71-.86C214,425,206.63,420,183.73,420c-11.48,0-30.6,1.73-13,20.82,0,0,65.58,58.67,71.58,67.07s10.84,23.13,10.84,39.9v53.64c0,11,6,17.35,19.88,17.35,15.06,0,19.28-10.41,19.28-17.35l.22-21.15c0-1.31.15-22.12.39-36.55"/><path class="cls-1" d="M292.53,488.33c-10.4-25.79-9.58-50.49,7.77-73.78,19.59-26.3,54-36.23,77.71-57.16-1.5,22.91-9.72,46.8-19.75,68.79-15.59,34.2-61.42,37.24-65.73,62.15"/><polygon class="cls-2" points="47.04 696.26 51.22 696.26 59.05 717.08 59.13 717.08 67.26 696.26 71.22 696.26 60.71 721.85 57.32 721.85 47.04 696.26"/><rect class="cls-2" x="106.42" y="696.26" width="3.61" height="25.59"/><path class="cls-2" d="M148.29,696.27h9.3a17.92,17.92,0,0,1,4.95.61,13.6,13.6,0,0,1,3.69,1.64,10.82,10.82,0,0,1,2.6,2.37,12.49,12.49,0,0,1,1.64,2.75,13.21,13.21,0,0,1,.86,2.82,13.84,13.84,0,0,1,.27,2.6,12.53,12.53,0,0,1-.94,4.75,12,12,0,0,1-2.79,4.08,13.56,13.56,0,0,1-4.58,2.88,17,17,0,0,1-6.3,1.08h-8.7Zm3.61,22.33h4.56a15.45,15.45,0,0,0,4.35-.6,10.52,10.52,0,0,0,3.59-1.79,8.57,8.57,0,0,0,2.45-3,9,9,0,0,0,.91-4.17,11.9,11.9,0,0,0-.42-2.88,8.33,8.33,0,0,0-1.56-3.12,9.17,9.17,0,0,0-3.18-2.51,11.63,11.63,0,0,0-5.27-1H151.9Z"/><path class="cls-2" d="M217.16,696.27h3.27l11.41,25.58h-4.21L225,715.53H212.26l-2.63,6.32h-4.22Zm6.47,16.22-5-11.74h-.07l-5.05,11.74Z"/><path class="cls-2" d="M310.57,716.5a5.88,5.88,0,0,0,2.51,2.08,7.64,7.64,0,0,0,3.14.67,6.61,6.61,0,0,0,1.84-.27,5.57,5.57,0,0,0,1.72-.82,4.57,4.57,0,0,0,1.26-1.33,3.43,3.43,0,0,0,.49-1.85,2.7,2.7,0,0,0-1-2.25,8.21,8.21,0,0,0-2.43-1.3c-1-.35-2-.69-3.16-1a12.76,12.76,0,0,1-3.16-1.35,7.6,7.6,0,0,1-2.43-2.33,7,7,0,0,1-1-4,6.43,6.43,0,0,1,.51-2.39,6.64,6.64,0,0,1,1.6-2.31,8.87,8.87,0,0,1,2.8-1.75,10.87,10.87,0,0,1,4.13-.71,15.06,15.06,0,0,1,4.17.58,7.23,7.23,0,0,1,3.51,2.35l-2.94,2.57a4.84,4.84,0,0,0-1.92-1.63,6.28,6.28,0,0,0-2.82-.61,7,7,0,0,0-2.51.38,4.62,4.62,0,0,0-1.6,1,3.62,3.62,0,0,0-.85,1.28,3.92,3.92,0,0,0-.24,1.27,3.15,3.15,0,0,0,1,2.49,7.55,7.55,0,0,0,2.43,1.41,30.35,30.35,0,0,0,3.16,1,13.72,13.72,0,0,1,3.16,1.21,7.23,7.23,0,0,1,2.43,2.1,6,6,0,0,1,1,3.63,7.36,7.36,0,0,1-.73,3.32,7.47,7.47,0,0,1-2,2.5,9,9,0,0,1-2.94,1.55,11.81,11.81,0,0,1-3.61.54,13.59,13.59,0,0,1-4.86-.87A7.84,7.84,0,0,1,307.6,719Z"/><path class="cls-2" d="M371.08,696.27h3.28l11.41,25.58h-4.22l-2.67-6.32H366.19l-2.64,6.32h-4.22Zm6.48,16.22-5-11.74h-.08l-5,11.74Z"/><polygon class="cls-2" points="421.24 696.26 425.98 696.26 440.67 717.3 440.74 717.3 440.74 696.26 444.35 696.26 444.35 721.85 439.76 721.85 424.93 700.82 424.85 700.82 424.85 721.85 421.24 721.85 421.24 696.26"/><path class="cls-2" d="M491.57,696.27h3.27l11.41,25.58H502l-2.68-6.32H486.67L484,721.85h-4.22Zm6.48,16.22-5-11.74H493l-5,11.74Z"/></svg>