<?xml version="1.0" encoding="utf-8"?>
<!-- Generator: Adobe Illustrator 22.1.0, SVG Export Plug-In . SVG Version: 6.00 Build 0)  -->
<svg version="1.1" id="Capa_1" xmlns="http://www.w3.org/2000/svg" xmlns:xlink="http://www.w3.org/1999/xlink" x="0px" y="0px"
	 viewBox="0 0 190.8 170.2" style="enable-background:new 0 0 190.8 170.2;" xml:space="preserve">
<style type="text/css">
	.st0{fill:#010101;}
</style>
<g>
	<g>
		<path d="M116.5,170.2c-3.5,0-7-1.4-9.6-4l-13.7-13.7c-1.2-1.2-1.2-3.1,0-4.3c1.2-1.2,3.1-1.2,4.3,0l13.7,13.7
			c2.5,2.5,6.3,2.9,8.9,1.1c1.6-1.2,2.6-2.9,2.8-4.8c0.2-2-0.5-3.9-1.9-5.3c-1.2-1.2-1.2-3.1,0-4.3c1.2-1.2,3.1-1.2,4.3,0l3.4,3.4
			c2.5,2.2,6.1,2.6,8.5,0.8c1.5-1.1,2.5-2.7,2.8-4.5c0.3-1.8-0.3-3.7-1.4-5.1c-1.1-1.3-0.8-3.3,0.5-4.3c1.3-1.1,3.3-0.8,4.3,0.5
			c2.2,2.7,3.2,6.3,2.7,9.8c-0.5,3.5-2.4,6.6-5.3,8.7c-3.4,2.5-7.9,2.9-11.8,1.4c-0.4,3.5-2.3,6.7-5.2,8.8
			C121.6,169.4,119.1,170.2,116.5,170.2z"/>
	</g>
	<g>
		<path d="M150.6,149.7c-3.4,0-6.6-1.3-9-3.8l-2.7-2.7c0,0-0.1-0.1-0.1-0.1l-0.7-0.7c-1.2-1.2-1.1-3.2,0.1-4.3
			c1.2-1.2,3.2-1.1,4.3,0.1l0.6,0.7l2.7,2.7c1.4,1.4,3.2,2.1,5.2,1.9c2-0.2,3.7-1.1,4.9-2.8c1.9-2.6,1.4-6.4-1.1-8.9l-3.1-3.1
			c-1.2-1.2-1.2-3.1,0-4.3c1.2-1.2,3.1-1.2,4.3,0c1.4,1.4,3.3,2.1,5.2,1.9c2-0.2,3.7-1.1,4.9-2.8c1.9-2.6,1.4-6.4-1.1-8.9
			l-17.1-17.1c-1.2-1.2-1.2-3.1,0-4.3c1.2-1.2,3.1-1.2,4.3,0l17.1,17.1c4.6,4.6,5.3,11.9,1.7,16.9c-2.1,2.9-5.3,4.8-8.9,5.2
			c1.5,3.9,1,8.4-1.4,11.9c-2.2,3.1-5.7,5-9.4,5.3C151.3,149.7,150.9,149.7,150.6,149.7z"/>
	</g>
	<g>
		<path d="M40.5,98.4c-0.8,0-1.6-0.3-2.2-0.9L37,96.3c-9.6-9.7-9.6-25.4,0-35.1l20.5-20.5C68.3,30,85.4,28.9,97.3,38.4
			c1.3,1.1,1.6,3,0.5,4.3c-1.1,1.3-3,1.6-4.3,0.5c-9.5-7.5-23.1-6.7-31.6,1.9L41.4,65.6c-7.3,7.3-7.2,19.1,0,26.4l1.2,1.2
			c1.2,1.2,1.2,3.1,0,4.3C42,98.1,41.2,98.4,40.5,98.4z"/>
	</g>
	<g>
		<path d="M154.1,129.7c-0.8,0-1.6-0.3-2.2-0.9l-24-24c-1.2-1.2-1.2-3.1,0-4.3c1.2-1.2,3.1-1.2,4.3,0l24,24c1.2,1.2,1.2,3.1,0,4.3
			C155.7,129.4,154.9,129.7,154.1,129.7z"/>
	</g>
	<g>
		<path d="M140.4,143.4c-0.8,0-1.6-0.3-2.2-0.9l-24-24c-1.2-1.2-1.2-3.1,0-4.3c1.2-1.2,3.1-1.2,4.3,0l24,24c1.2,1.2,1.2,3.1,0,4.3
			C141.9,143.1,141.1,143.4,140.4,143.4z"/>
	</g>
	<g>
		<path d="M123.2,153.7c-0.8,0-1.6-0.3-2.2-0.9l-20.6-20.6c-1.2-1.2-1.2-3.1,0-4.3c1.2-1.2,3.1-1.2,4.3,0l20.6,20.6
			c1.2,1.2,1.2,3.1,0,4.3C124.7,153.4,124,153.7,123.2,153.7z"/>
	</g>
	<g>
		<path d="M23.7,81.6c-0.8,0-1.6-0.3-2.2-0.9L0.9,60.2c-1.2-1.2-1.2-3.1,0-4.3L55.8,0.9c1.2-1.2,3.2-1.2,4.3,0l20.6,20.6
			c0.6,0.6,0.9,1.4,0.9,2.2c0,0.8-0.3,1.6-0.9,2.2L25.8,80.7C25.2,81.3,24.4,81.6,23.7,81.6z M7.4,58l16.2,16.2l50.6-50.6L58,7.4
			L7.4,58z"/>
	</g>
	<g>
		<path d="M84.5,159.9c-2.6,0-5.1-0.7-7.2-2.3c-2.9-2.1-4.8-5.3-5.3-8.9c-4,1.5-8.4,1-11.9-1.4c-2.9-2.1-4.8-5.3-5.3-8.7
			c-1.7,0.6-3.6,0.9-5.5,0.8c-3.8-0.3-7.2-2.2-9.4-5.3c-2.5-3.4-2.9-7.9-1.4-11.9c-3.5-0.4-6.8-2.3-8.9-5.3
			c-3.6-5-2.9-12.2,1.7-16.8l6.8-6.8c1.2-1.2,3.1-1.2,4.3,0c1.2,1.2,1.2,3.1,0,4.3l-6.8,6.8c-2.5,2.5-3,6.3-1.1,8.9
			c1.2,1.6,2.9,2.6,4.8,2.8c2,0.2,3.9-0.5,5.2-1.9c1.2-1.2,3.1-1.2,4.3,0c1.2,1.2,1.2,3.1,0,4.3l-3.1,3.1c-2.5,2.5-2.9,6.3-1.1,8.9
			c1.2,1.6,2.9,2.6,4.9,2.8c1.9,0.1,3.8-0.5,5.2-1.9l3.5-3.5c1.2-1.2,3.1-1.2,4.3,0c1.2,1.2,1.2,3.1,0,4.3c-1.4,1.4-2.1,3.3-1.9,5.2
			c0.2,2,1.2,3.7,2.8,4.9c2.5,1.8,6,1.4,8.6-0.8l3.4-3.4c1.2-1.2,3.1-1.2,4.3,0c0.6,0.6,0.9,1.4,0.9,2.2s-0.3,1.6-0.9,2.2
			c-1.4,1.4-2.1,3.3-1.9,5.3c0.2,2,1.1,3.7,2.8,4.9c2.6,1.8,6.5,1.4,8.9-1.1l3.5-3.4c1.2-1.2,3.2-1.2,4.3,0c1.2,1.2,1.2,3.2,0,4.3
			l-3.4,3.4C91.5,158.5,88,159.9,84.5,159.9z"/>
	</g>
	<g>
		<path d="M91.8,157c-0.8,0-1.6-0.3-2.2-0.9c-1.2-1.2-1.2-3.1,0-4.3c2.4-2.4,2.9-6.3,1.1-8.9c-1.2-1.6-2.9-2.6-4.9-2.8
			c-2-0.2-3.9,0.5-5.3,1.9l0,0c-1.2,1.2-3.1,1.2-4.3,0c-1.2-1.2-1.2-3.1,0-4.3l3.4-3.4c2.2-2.5,2.6-6.1,0.8-8.6
			c-1.2-1.6-2.9-2.6-4.9-2.8c-1.9-0.2-3.9,0.5-5.2,1.9c-1.2,1.2-3.1,1.2-4.3,0c-0.6-0.6-0.9-1.4-0.9-2.2s0.3-1.6,0.9-2.2l3.4-3.4
			c1.4-1.4,2.1-3.2,1.9-5.2c-0.2-2-1.2-3.7-2.8-4.9c-2.6-1.8-6.4-1.4-8.8,1.1l-3.1,3.1c-1.2,1.2-3.1,1.2-4.3,0
			c-1.2-1.2-1.2-3.1,0-4.3c1.4-1.4,2.1-3.3,1.9-5.2c-0.2-2-1.1-3.7-2.8-4.8c-2.6-1.9-6.4-1.4-8.9,1.1c-1.2,1.2-3.1,1.2-4.3,0
			c-1.2-1.2-1.2-3.1,0-4.3C42.8,88.8,50,88,55,91.6c2.9,2.1,4.8,5.3,5.2,8.9c3.9-1.5,8.4-1,11.9,1.4c3.1,2.2,5,5.7,5.3,9.4
			c0.1,1.9-0.1,3.7-0.8,5.5c3.5,0.5,6.7,2.4,8.7,5.3c2.5,3.4,2.9,7.9,1.4,11.9c3.5,0.4,6.8,2.3,8.9,5.3c3.6,5,2.8,12.2-1.7,16.8
			C93.4,156.7,92.6,157,91.8,157z"/>
	</g>
	<g>
		<path d="M47,119.4c-0.8,0-1.6-0.3-2.2-0.9c-1.2-1.2-1.2-3.1,0-4.3L52,107c1.2-1.2,3.1-1.2,4.3,0c1.2,1.2,1.2,3.1,0,4.3l-7.2,7.2
			C48.6,119.1,47.8,119.4,47,119.4z"/>
	</g>
	<g>
		<path d="M60.7,133.1c-0.8,0-1.6-0.3-2.2-0.9c-1.2-1.2-1.2-3.1,0-4.3l7.2-7.2c1.2-1.2,3.1-1.2,4.3,0c1.2,1.2,1.2,3.1,0,4.3
			l-7.2,7.2C62.3,132.8,61.5,133.1,60.7,133.1z"/>
	</g>
	<g>
		<path d="M74.5,146.9c-0.8,0-1.6-0.3-2.2-0.9c-1.2-1.2-1.2-3.1,0-4.3l7.2-7.2c1.2-1.2,3.1-1.2,4.3,0c1.2,1.2,1.2,3.1,0,4.3
			l-7.2,7.2C76,146.6,75.2,146.9,74.5,146.9z"/>
	</g>
	<g>
		<path d="M167.1,81.6c-0.8,0-1.6-0.3-2.2-0.9L110,25.8c-1.2-1.2-1.2-3.1,0-4.3l20.6-20.6c1.2-1.2,3.1-1.2,4.3,0l54.9,54.9
			c1.2,1.2,1.2,3.1,0,4.3l-20.6,20.6C168.7,81.3,167.9,81.6,167.1,81.6z M116.6,23.7l50.6,50.6L183.4,58L132.8,7.4L116.6,23.7z"/>
	</g>
	<g>
		<path d="M150.3,98.4c-0.8,0-1.6-0.3-2.2-0.9L114,63.4l-5.9,9c-2.8,4.3-7.1,7.2-12.2,8.2c-5,1-10.1,0-14.4-2.8l-3.9-2.6
			c-1.4-0.9-2.4-2.4-2.7-4.1c-0.3-1.6,0-3.3,0.9-4.7l17.1-27.3c0.2-0.3,0.4-0.6,0.7-0.8c0.7-0.5,1.3-1,2-1.4c1.9-1.3,4-2.3,6.2-3.1
			c11-4.1,23.4-1.3,31.6,6.9l20.5,20.5c9.6,9.6,9.6,25.4,0,35c0,0,0,0,0,0l-1.2,1.2C151.9,98.1,151.1,98.4,150.3,98.4z M151.6,94.1
			L151.6,94.1L151.6,94.1z M113.5,55.5c0.8,0,1.6,0.3,2.2,0.9L150.3,91c6.3-7.3,6-18.5-0.9-25.4l-20.5-20.5
			c-6.6-6.6-16.4-8.7-25.1-5.5c-1.8,0.7-3.4,1.5-4.9,2.5c-0.4,0.2-0.8,0.5-1.1,0.8L80.9,69.8c0,0,0,0.1-0.1,0.1c0,0,0,0.1,0,0.1
			c0,0.1,0.1,0.1,0.1,0.1l3.9,2.6c2.9,1.9,6.4,2.6,9.8,1.9c3.4-0.7,6.3-2.7,8.3-5.6l8-12.2c0.5-0.8,1.3-1.3,2.3-1.4
			C113.3,55.5,113.4,55.5,113.5,55.5z"/>
	</g>
</g>
</svg>
