<?xml version="1.0" encoding="utf-8"?>
<!-- Generator: Adobe Illustrator 22.1.0, SVG Export Plug-In . SVG Version: 6.00 Build 0)  -->
<svg version="1.1" id="Capa_1" xmlns="http://www.w3.org/2000/svg" xmlns:xlink="http://www.w3.org/1999/xlink" x="0px" y="0px"
	 viewBox="0 0 154.1 192.7" style="enable-background:new 0 0 154.1 192.7;" xml:space="preserve">
<style type="text/css">
	.st0{fill:#010101;}
</style>
<g transform="translate(0,-284.29999)">
	<path d="M76.7,284.3c-0.2,0-0.3,0-0.5,0.1c-0.9,0.1-1.8,0.5-2.5,1.2c0,0-0.1,0-0.1,0.1c-0.5,0.3-9.1,6.5-22.3,13.1
		c-13.5,6.8-31.1,13.4-46.6,13.4c-2.6,0-4.8,2.1-4.8,4.8v64.2c0,35.2,19.2,59.5,37.9,74.4c18.8,15,37.6,21.2,37.6,21.2
		c1,0.3,2,0.3,3,0c0,0,18.8-6.3,37.6-21.2c18.8-15,37.9-39.2,37.9-74.4v-64.2c0-2.7-2.2-4.8-4.8-4.8c-15.5,0-33.1-6.6-46.6-13.4
		c-13.2-6.6-22.1-13-22.4-13.2c-0.7-0.6-1.6-1-2.6-1.2c0,0,0,0-0.1,0c-0.1,0-0.3,0-0.4,0c0,0,0,0-0.1,0
		C77,284.3,76.9,284.3,76.7,284.3L76.7,284.3z M77,294.7c2,1.4,8.8,6.3,21.3,12.6c12.9,6.5,29.6,11.9,46.1,13.1v60.7
		c0,31.8-17,53-34.3,66.9c-16.6,13.2-31.7,18.3-33.1,18.8c-1.4-0.5-16.5-5.6-33.1-18.8c-17.3-13.8-34.3-35.1-34.3-66.9v-60.7
		c16.5-1.2,33.3-6.6,46.1-13C68.3,301.1,75,296.1,77,294.7z M77,327.7c-29.2,0-53,23.8-53,53s23.8,53,53,53c29.2,0,53-23.8,53-53
		S106.2,327.7,77,327.7z M77,337.3c24,0,43.4,19.3,43.4,43.3S101,424,77,424c-24,0-43.3-19.3-43.3-43.3S53,337.3,77,337.3z
		 M100.9,353.3c-3.1,0-6.2,1.2-8.5,3.5L70.3,379l-8.5-8.5c-4.7-4.7-12.4-4.7-17,0c-4.7,4.7-4.7,12.4,0,17l17,17
		c4.7,4.7,12.4,4.7,17,0l30.6-30.6c4.7-4.7,4.7-12.4,0-17C107.1,354.5,104,353.3,100.9,353.3L100.9,353.3z M100.9,362.9
		c0.6,0,1.2,0.3,1.7,0.8c1,1,1,2.4,0,3.4L72,397.7c-1,1-2.4,1-3.4,0l-17-17c-1-1-1-2.4,0-3.4c1-1,2.4-1,3.4,0l15.3,15.4l28.9-29
		C99.7,363.1,100.3,362.9,100.9,362.9z"/>
</g>
</svg>
