<?xml version="1.0" encoding="utf-8"?>
<!-- Generator: Adobe Illustrator 22.1.0, SVG Export Plug-In . SVG Version: 6.00 Build 0)  -->
<svg version="1.1" id="Capa_1" xmlns="http://www.w3.org/2000/svg" xmlns:xlink="http://www.w3.org/1999/xlink" x="0px" y="0px"
	 viewBox="0 0 186 186" style="enable-background:new 0 0 186 186;" xml:space="preserve">
<style type="text/css">
	.st0{fill:#010101;}
</style>
<g>
	<g>
		<g>
			<path class="st0" d="M125.7,62.8c-1.4-1.4-3.7-1.4-5.4-0.3l-6.5,5.1c-3.4-2-7.3-3.7-11.3-4.5l-1.1-8.5c-0.3-2-2-3.4-3.9-3.4h-8.7
				c-2,0-3.7,1.4-3.9,3.4l-1.1,8.5c-3.9,0.8-7.9,2.5-11.3,4.5l-6.8-5.1c-1.4-1.1-3.9-1.1-5.1,0.3L54.4,69c-1.4,1.4-1.7,3.7-0.3,5.4
				l5.1,6.8c-2,3.4-3.7,7-4.5,11l-8.5,1.1c-2,0.3-3.4,2-3.4,3.9v8.7c0,2,1.4,3.7,3.4,3.9l8.5,1.1c0.8,3.9,2.5,7.6,4.5,11l-5.6,6.8
				c-1.1,1.7-1.1,3.9,0.3,5.1l6.2,6.2c1.4,1.4,3.7,1.4,5.4,0.3l6.8-5.1c3.4,2,7.3,3.7,11.3,4.5l1.1,8.5c0.3,2,2,3.4,3.9,3.4h8.7
				c2,0,3.7-1.4,3.9-3.4l1.1-8.5c3.9-0.8,7.9-2.5,11.3-4.5l6.8,5.1c0.8,0.6,1.7,0.8,2.5,0.8c1.1,0,2.3-0.6,2.8-1.1l6.2-5.9
				c1.4-1.4,1.7-3.7,0.3-5.4l-5.1-6.8c2.3-3.4,3.7-7,4.5-11l8.5-1.1c2-0.3,3.4-2,3.4-3.9v-8.7c0-2-1.4-3.7-3.4-3.9l-8.5-1.1
				c-0.8-3.9-2.5-7.6-4.5-11l7.3-9.6L125.7,62.8z M129.9,97.5l8.2,1.1v5.6l-8.2,1.1c-1.7,0.3-3.1,1.4-3.4,3.1
				c-0.8,3.9-2.5,7.9-4.8,11.3c-0.8,1.4-0.8,3.4,0.3,4.5l5.1,6.5l-4.2,4.5l-6.5-5.1c-1.4-0.8-3.1-1.1-4.5-0.3
				c-3.4,2.3-7.3,3.9-11.6,4.8c-1.7,0.3-2.8,1.7-3.1,3.4l-1.4,8.2h-5.6l-1.1-8.2c-0.3-1.7-1.4-3.1-3.1-3.4
				c-4.2-0.8-7.9-2.5-11.6-4.8c-1.4-0.8-3.4-0.8-4.5,0.3l-6.8,5.1l-4.2-4.2l5.4-7l1.4-2l-1.1-1.7c-2.5-3.7-4.2-7.6-5.1-11.8
				c-0.3-1.7-1.7-2.8-3.4-3.1l-8.2-1.1v-5.6l8.2-1.1c1.7-0.3,3.1-1.4,3.4-3.1c0.8-3.9,2.5-7.9,4.8-11.3c0.8-1.4,0.8-3.4-0.3-4.5
				l-5.1-6.5l4.2-4.2l7,5.4l0.8,0.6h2l0.8-0.6c3.7-2.5,7.6-4.2,12.1-5.1c1.7-0.3,2.8-1.7,3.1-3.4l1.1-8.2h5.6l1.1,8.2
				c0.3,1.7,1.4,3.1,3.1,3.4c4.2,0.8,7.9,2.5,11.6,4.8c1.4,0.8,3.4,0.8,4.5-0.3l6.5-5.1l4.2,4.2l-5.1,6.5c-1.1,1.4-1.1,3.1-0.3,4.5
				c2.3,3.4,3.9,7.3,4.8,11.3C126.8,96.1,128.2,97.2,129.9,97.5z"/>
		</g>
	</g>
	<g>
		<g>
			<path class="st0" d="M93,77.5c-13.2,0-24.2,10.7-24.2,24s11,24,24.2,24s24.2-10.7,24.2-24S106.2,77.5,93,77.5z M93,119.8
				c-10.1,0-18.6-8.2-18.6-18.3S82.9,83.1,93,83.1s18.6,8.2,18.6,18.3S103.1,119.8,93,119.8z"/>
		</g>
	</g>
	<g>
		<g>
			<path class="st0" d="M40.3,156.7h-7.9c6.5-2.3,11.3-8.2,11.3-15.5c0-9-7.3-16.1-16.3-16.1S11,132.5,11,141.2
				c0,7,4.8,13.2,11.3,15.5h-8.2c-7.9,0-14.1,6.5-14.1,14.1v12.4c0,1.7,1.1,2.8,2.8,2.8h48.8c1.7,0,2.8-1.1,2.8-2.8v-12.4
				C54.4,163.2,47.9,156.7,40.3,156.7z M16.3,141.2c0-5.9,4.8-10.4,10.7-10.4s10.7,4.8,10.7,10.4c0,5.9-4.8,10.4-10.7,10.4
				C21.4,151.9,16.3,147.1,16.3,141.2z M48.8,180.4H5.6v-9.6c0-4.8,3.9-8.5,8.5-8.5H40c4.8,0,8.5,3.9,8.5,8.5v9.6H48.8z"/>
		</g>
	</g>
	<g>
		<g>
			<path class="st0" d="M171.9,156.7H164c6.5-2.3,11.3-8.2,11.3-15.5c0-9-7.3-16.1-16.3-16.1c-9,0-16.3,7.3-16.3,16.1
				c0,7,4.8,13.2,11.3,15.5H146c-7.9,0-14.1,6.5-14.1,14.1v12.4c0,1.7,1.1,2.8,2.8,2.8h48.5c1.7,0,2.8-1.1,2.8-2.8v-12.4
				C186,163.2,179.5,156.7,171.9,156.7z M148.2,141.2c0-5.9,4.8-10.4,10.7-10.4s10.7,4.8,10.7,10.4c0,5.9-4.8,10.4-10.7,10.4
				C153,151.9,148.2,147.1,148.2,141.2z M180.4,180.4h-43.1v-9.6c0-4.8,3.9-8.5,8.5-8.5h26.2c4.8,0,8.5,3.9,8.5,8.5V180.4z"/>
		</g>
	</g>
	<g>
		<g>
			<path class="st0" d="M2.8,60.9h48.8c1.7,0,2.8-1.1,2.8-2.8V45.7c0-7.9-6.5-14.1-14.1-14.1h-7.9c6.5-2.3,11.3-8.2,11.3-15.5
				C43.7,7,36.4,0,27.3,0c-9,0-16.6,7.3-16.6,16.1c0,7,4.8,13.2,11.3,15.5h-7.9C6.2,31.6,0,38,0,45.7v12.4C0,59.7,1.1,60.9,2.8,60.9
				z M16.3,16.1c0-5.6,5.1-10.4,10.7-10.4c5.9,0,10.7,4.8,10.7,10.4c0,5.9-4.8,10.4-10.7,10.4C21.4,26.8,16.3,22,16.3,16.1z
				 M5.6,45.7c0-4.8,3.9-8.5,8.5-8.5H40c4.8,0,8.5,3.9,8.5,8.5v9.6H5.6V45.7z"/>
		</g>
	</g>
	<g>
		<g>
			<path class="st0" d="M171.9,31.6H164c6.5-2.3,11.3-8.2,11.3-15.5C175.3,7,168,0,158.9,0c-9,0-16.3,7.3-16.3,16.1
				c0,7,4.8,13.2,11.3,15.5H146c-7.9,0-14.1,6.5-14.1,14.1v12.4c0,1.7,1.1,2.8,2.8,2.8h48.5c1.7,0,2.8-1.1,2.8-2.8V45.7
				C186,38,179.5,31.6,171.9,31.6z M148.2,16.1c0-5.9,4.8-10.4,10.7-10.4s10.7,4.8,10.7,10.4c0,5.9-4.8,10.4-10.7,10.4
				C153,26.8,148.2,22,148.2,16.1z M180.4,55.2h-43.1v-9.6c0-4.8,3.9-8.5,8.5-8.5h26.2c4.8,0,8.5,3.9,8.5,8.5V55.2z"/>
		</g>
	</g>
	<g>
		<g>
			<path class="st0" d="M24.2,67.1v51.9c0,1.7,1.1,2.8,2.8,2.8s2.8-1.1,2.8-2.8V67.1c0-1.7-1.1-2.8-2.8-2.8
				C25.6,64.3,24.2,65.7,24.2,67.1z"/>
		</g>
	</g>
	<g>
		<g>
			<path class="st0" d="M124.3,172.2H61.7c-1.7,0-2.8,1.1-2.8,2.8c0,1.7,1.1,2.8,2.8,2.8h62.6c1.7,0,2.8-1.1,2.8-2.8
				C127.1,173.3,126,172.2,124.3,172.2z"/>
		</g>
	</g>
	<g>
		<g>
			<path class="st0" d="M51.6,18.9h82.9c1.7,0,2.8-1.1,2.8-2.8s-1.1-2.8-2.8-2.8H51.6c-1.7,0-2.8,1.1-2.8,2.8S49.9,18.9,51.6,18.9z"
				/>
		</g>
	</g>
	<g>
		<g>
			<path class="st0" d="M161.8,119.2V66.8c0-1.7-1.1-2.8-2.8-2.8c-1.7,0-2.8,1.1-2.8,2.8v52.4c0,1.7,1.1,2.8,2.8,2.8
				C160.6,122,161.8,120.9,161.8,119.2z"/>
		</g>
	</g>
</g>
</svg>
