<?xml version="1.0" encoding="utf-8"?>
<!-- Generator: Adobe Illustrator 22.1.0, SVG Export Plug-In . SVG Version: 6.00 Build 0)  -->
<svg version="1.1" id="Capa_1" xmlns="http://www.w3.org/2000/svg" xmlns:xlink="http://www.w3.org/1999/xlink" x="0px" y="0px"
	 viewBox="0 0 164.1 194.9" style="enable-background:new 0 0 164.1 194.9;" xml:space="preserve">
<style type="text/css">
	.st0{fill:#010101;}
</style>
<g transform="translate(0,-1020.3622)">
	<path d="M65.1,1020.4l-1.8,0.1h-0.3l-4.5,0.6l0.8,6.2l4.3-0.6l1.7-0.1L65.1,1020.4z M78.3,1020.8l-0.8,6.3l2.9,0.4l3.1,0.7l1.3-6.2
		l-3.2-0.7l-0.3-0.1L78.3,1020.8z M45.6,1024.4l-5.1,2.1l-0.2,0.1l-0.7,0.4l2.9,5.6l0.6-0.3l5-2L45.6,1024.4z M97.3,1026l-2.4,5.8
		l0.7,0.3l4.7,2.4l2.9-5.6l-4.7-2.4l-0.2-0.1L97.3,1026z M69.4,1032.3c-31.3,0-56.8,25.3-56.8,56.4c0,17,8.6,28.5,16.6,40.4
		c3.4,5.1,6.7,10.3,9.4,16.1l-3.1,5.1l0.4,0.2l0.2,0.1l5.2,2.6l0.2-0.4c1.9,6.1,3.1,12.9,3.1,21v25.6c0,1.7,1.4,3.2,3.2,3.2h42.9
		c1.7,0,3.2-1.4,3.2-3.2v-25.6c0-8.3,1.3-15.3,3.3-21.5l0.4,0.7l1.6-0.8l-1.1-2.3c2.9-8,7.1-14.6,11.4-21
		c8-11.9,16.6-23.3,16.6-40.4C126.2,1057.5,100.7,1032.3,69.4,1032.3z M28.3,1033.8l-2.6,2l-0.2,0.2l-2.3,2l4.2,4.7l2.2-1.9l2.5-1.9
		L28.3,1033.8z M114.2,1036.6l-4.2,4.7l3.1,2.7l1.3,1.4l4.5-4.4l-1.4-1.5l-0.2-0.2L114.2,1036.6z M69.4,1038.6
		c27.9,0,50.5,22.4,50.5,50.1c0,14.9-7.4,24.8-15.6,36.8c-7.6,11.4-15.2,25.2-16,45.2H72.6v-34.5c0-1.7-1.4-3.2-3.1-3.2
		s-3.2,1.4-3.2,3.1c0,0,0,0.1,0,0.1v34.5H50.5c-0.9-20-8.4-33.8-16-45.2c-8.1-12.1-15.6-21.9-15.6-36.8
		C18.9,1061,41.5,1038.6,69.4,1038.6z M14.3,1047.5l-0.7,0.8l-0.1,0.2l-3,4.4l5.2,3.5l2.9-4.3l0-0.1l0.5-0.6L14.3,1047.5z
		 M63.1,1051.2c-1.7,0-3.2,1.4-3.2,3.2v5c-1.7,0.5-3.3,1.2-4.9,2l-3.5-3.5c-1.2-1.2-3.2-1.2-4.5,0l-8.9,8.9c-1.2,1.2-1.2,3.2,0,4.5
		l3.5,3.5c-0.8,1.6-1.5,3.2-2,4.9h-5c-1.7,0-3.2,1.4-3.2,3.2v12.6c0,1.7,1.4,3.2,3.2,3.2h5c0.5,1.7,1.2,3.3,2,4.9l-3.5,3.5
		c-1.2,1.2-1.2,3.2,0,4.5l8.9,8.9c1.2,1.2,3.2,1.2,4.5,0l3.5-3.5c1.6,0.8,3.2,1.5,4.9,2v5c0,1.7,1.4,3.2,3.2,3.2h12.6
		c1.7,0,3.2-1.4,3.2-3.2v-5c1.7-0.5,3.3-1.2,4.9-2l3.5,3.5c1.2,1.2,3.2,1.2,4.5,0l8.9-8.9c1.2-1.2,1.2-3.2,0-4.5l-3.5-3.5
		c0.8-1.6,1.5-3.2,2-4.9h5c1.7,0,3.2-1.4,3.2-3.2v-12.6c0-1.7-1.4-3.2-3.2-3.2h-5c-0.5-1.7-1.2-3.3-2-4.9l3.5-3.5
		c1.2-1.2,1.2-3.2,0-4.5l-8.9-8.9c-1.2-1.2-3.2-1.2-4.5,0l-3.5,3.5c-1.6-0.8-3.2-1.5-4.9-2v-5c0-1.7-1.4-3.2-3.2-3.2H63.1z
		 M127.2,1051.2l-5.2,3.6l1.1,1.6l2,3.5l5.5-3.1l-2.1-3.7l-0.1-0.2L127.2,1051.2z M66.2,1057.5h6.3v3.9c0,1.5,1,2.8,2.5,3.1
		c2.8,0.6,5.4,1.7,7.8,3.2c1.2,0.8,2.9,0.6,3.9-0.4l2.7-2.7l4.5,4.5l-2.7,2.7c-1,1-1.2,2.7-0.4,3.9c1.5,2.4,2.6,5,3.2,7.8
		c0.3,1.4,1.6,2.5,3.1,2.5h3.9v6.3h-3.9c-1.5,0-2.8,1-3.1,2.5c-0.6,2.8-1.7,5.4-3.2,7.8c-0.8,1.2-0.6,2.9,0.4,3.9l2.7,2.7l-4.5,4.5
		l-2.7-2.7c-1-1-2.7-1.2-3.9-0.4c-2.4,1.5-5,2.6-7.8,3.2c-1.4,0.3-2.5,1.6-2.5,3.1v3.9h-6.3v-3.9c0-1.5-1-2.8-2.5-3.1
		c-2.8-0.6-5.4-1.7-7.8-3.2c-1.2-0.8-2.9-0.6-3.9,0.4l-2.7,2.7l-4.5-4.5l2.7-2.7c1-1,1.2-2.7,0.4-3.9c-1.5-2.4-2.6-5-3.2-7.8
		c-0.3-1.4-1.6-2.5-3.1-2.5h-3.9v-6.3h3.9c1.5,0,2.8-1,3.1-2.5c0.6-2.8,1.7-5.4,3.2-7.8c0.8-1.2,0.6-2.9-0.4-3.9l-2.7-2.7l4.5-4.5
		l2.7,2.7c1,1,2.7,1.2,3.9,0.4c2.4-1.5,5.1-2.6,7.8-3.2c1.4-0.3,2.5-1.6,2.5-3.1V1057.5z M4.6,1064.9l-1.6,4.5l-0.1,0.3l-0.4,1.5
		l6.1,1.6l0.3-1.2l0-0.1l1.5-4.4L4.6,1064.9z M135.7,1069l-5.4,1.9l-0.5,0.1l0,0.1h0l0.1,0.2l0,0.1l1.3,5.1l0,0.1l0,0.2h0l0.2-0.1
		l6.1-1l0-0.2l0-0.3l-1.5-5.6l-0.1-0.3L135.7,1069z M69.4,1073.3c-8.7,0-15.8,7.1-15.8,15.8c0,8.7,7.1,15.8,15.8,15.8
		s15.8-7.1,15.8-15.8C85.2,1080.4,78.1,1073.3,69.4,1073.3z M69.4,1079.6c5.2,0,9.5,4.3,9.5,9.5c0,5.2-4.3,9.5-9.5,9.5
		c-5.2,0-9.5-4.3-9.5-9.5C59.9,1083.8,64.2,1079.6,69.4,1079.6z M0.3,1084.1l-0.2,3.3l0,0.3l0,3.1l6.3-0.1l0-2.8v-0.1l0.2-3.2
		L0.3,1084.1z M132.6,1088.6l0,4.2l-0.2,1.8l6.3,0.6l0.2-1.9l0-0.3l0-4.4L132.6,1088.6z M7.7,1102.6l-6.2,1.1l0.2,1.2l0.1,0.3
		l1.3,4.9l6.1-1.7l-1.3-4.8L7.7,1102.6z M130.2,1106.6l-0.6,2.1l0,0.1l-1.3,3.5l5.9,2.2l1.4-3.8l0.1-0.2l0.6-2.2L130.2,1106.6z
		 M13.8,1119.3l-5.5,3.2l2.3,3.9l0.1,0.2l1,1.5l5.2-3.6l-0.9-1.2l0-0.1L13.8,1119.3z M123.2,1122.9l-3.1,4.5l0,0.1l-0.3,0.4l4.9,4
		l0.5-0.6l0.1-0.2l3.1-4.6L123.2,1122.9z M24.5,1133.9l-4.5,4.4l1.6,1.7l0.2,0.2l3,2.6l4.1-4.8l-2.9-2.5L24.5,1133.9z M111.5,1136.7
		l-2.5,2.2l-2.2,1.6l3.7,5.1l2.3-1.7l0.2-0.2l2.6-2.3L111.5,1136.7z M130.2,1144.3c-1.7,0-3.2,1.4-3.2,3.2v3.2
		c-0.9,0.3-1.8,0.7-2.7,1.1l-2.3-2.3c-1.2-1.2-3.2-1.2-4.5,0l-6.7,6.7c-1.2,1.2-1.2,3.2,0,4.5l2.3,2.3c-0.4,0.9-0.8,1.8-1.1,2.7
		h-3.2c-1.7,0-3.2,1.4-3.2,3.2v9.5c0,1.7,1.4,3.2,3.2,3.2h3.2c0.3,0.9,0.7,1.8,1.1,2.7l-2.3,2.3c-1.2,1.2-1.2,3.2,0,4.5l6.7,6.7
		c1.2,1.2,3.2,1.2,4.5,0l2.3-2.3c0.9,0.4,1.8,0.8,2.7,1.1v3.2c0,1.7,1.4,3.2,3.2,3.2h9.5c1.7,0,3.2-1.4,3.2-3.2v-3.2
		c0.9-0.3,1.8-0.7,2.7-1.1l2.3,2.3c1.2,1.2,3.2,1.2,4.5,0l6.7-6.7c1.2-1.2,1.2-3.2,0-4.5l-2.3-2.3c0.4-0.9,0.8-1.8,1.1-2.7h3.2
		c1.7,0,3.2-1.4,3.2-3.2v-9.5c0-1.7-1.4-3.2-3.2-3.2h-3.2c-0.3-0.9-0.7-1.8-1.1-2.7l2.3-2.3c1.2-1.2,1.2-3.2,0-4.5l-6.7-6.7
		c-1.2-1.2-3.2-1.2-4.5,0l-2.3,2.3c-0.9-0.4-1.8-0.8-2.7-1.1v-3.2c0-1.7-1.4-3.2-3.2-3.2H130.2z M133.3,1150.6h3.2v2.1
		c0,1.5,1,2.8,2.5,3.1c2,0.5,3.9,1.2,5.6,2.3c1.2,0.8,2.9,0.6,3.9-0.4l1.5-1.5l2.2,2.2l-1.5,1.5c-1,1-1.2,2.7-0.4,3.9
		c1.1,1.7,1.9,3.6,2.3,5.6c0.3,1.4,1.6,2.5,3.1,2.5h2.1v3.2h-2.1c-1.5,0-2.8,1-3.1,2.5c-0.5,2-1.2,3.9-2.3,5.6
		c-0.8,1.2-0.6,2.9,0.4,3.9l1.5,1.5l-2.2,2.2l-1.5-1.5c-1-1-2.7-1.2-3.9-0.4c-1.7,1.1-3.6,1.9-5.6,2.3c-1.4,0.3-2.5,1.6-2.5,3.1v2.1
		h-3.2v-2.1c0-1.5-1-2.8-2.5-3.1c-2-0.5-3.9-1.2-5.6-2.3c-1.2-0.8-2.9-0.6-3.9,0.4l-1.5,1.5l-2.2-2.2l1.5-1.5c1-1,1.2-2.7,0.4-3.9
		c-1.1-1.7-1.9-3.6-2.3-5.6c-0.3-1.4-1.6-2.5-3.1-2.5H112v-3.2h2.1c1.5,0,2.8-1,3.1-2.5c0.5-2,1.2-3.9,2.3-5.6
		c0.8-1.2,0.6-2.9-0.4-3.9l-1.5-1.5l2.2-2.2l1.5,1.5c1,1,2.7,1.2,3.9,0.5c1.7-1.1,3.6-1.9,5.6-2.3c1.4-0.3,2.5-1.6,2.5-3.1V1150.6z
		 M134.9,1163.1c-5.7,0-10.4,4.7-10.4,10.4c0,5.7,4.7,10.4,10.4,10.4c5.7,0,10.4-4.7,10.4-10.4
		C145.3,1167.8,140.6,1163.1,134.9,1163.1z M134.9,1169.4c2.3,0,4.1,1.8,4.1,4.1c0,2.3-1.8,4.1-4.1,4.1c-2.2,0-4.1-1.8-4.1-4.1
		C130.8,1171.2,132.6,1169.4,134.9,1169.4z M51.1,1177h17.8c0.3,0.1,0.7,0.1,1,0h17.8v19.3H51.1v-6.3H82v-6.3H51.1V1177z M53.3,1209
		c-1.7,0.1-3.1,1.6-3,3.3c0.1,1.7,1.6,3.1,3.3,3h31.6c1.7,0,3.2-1.4,3.2-3.1c0-1.7-1.4-3.2-3.1-3.2c0,0-0.1,0-0.1,0H53.6
		C53.5,1209,53.4,1209,53.3,1209z"/>
</g>
</svg>
