<?xml version="1.0" encoding="utf-8"?>
<!-- Generator: Adobe Illustrator 22.1.0, SVG Export Plug-In . SVG Version: 6.00 Build 0)  -->
<svg version="1.1" id="Capa_1" xmlns="http://www.w3.org/2000/svg" xmlns:xlink="http://www.w3.org/1999/xlink" x="0px" y="0px"
	 viewBox="0 0 190.2 189" style="enable-background:new 0 0 190.2 189;" xml:space="preserve">
<style type="text/css">
	.st0{fill:#010101;}
</style>
<g>
	<path d="M185.3,101.1c-6.8-6.9-17.9-7.2-24.9-0.5l-33.1,31.4L97,135.3l-2.2-3.2l20.6-5.6c9.3-2.5,14.9-12.1,12.3-21.5
		c-2.3-8.4-10.4-13.9-19.1-12.8l-51,6.5c-4.1,0.4-8.1,2.1-11.2,4.8L2.3,141.5c-2.8,2.4-3.1,6.7-0.7,9.5c0.1,0.1,0.2,0.2,0.3,0.4
		L37.7,187c1.3,1.3,3,2,4.8,2c1.8,0,3.5-0.8,4.8-2.1l12-12.5l68.3-0.2c5.3,0,10.4-2.1,14.2-5.8l43.1-42.3
		C191.8,119.3,192,108.1,185.3,101.1z M179.3,119l-0.1,0.2l-0.5,0.5L135.5,162c-2.1,2.1-4.9,3.2-7.9,3.2l-71.2,0.3
		c-0.6,0-1.1,0.2-1.6,0.7l-9.3,9.6l-3.2,3.4l-3.3-3.3l-25.7-25.7l-3.5-3.5l3.7-3.2L52,110.3c1.8-1.6,4-2.5,6.4-2.7l0.2,0h0.2
		l50.7-6.5c0.5-0.1,1-0.1,1.5-0.1c4.1,0,7.6,2.9,8.4,6.9c0.5,2.3,0,4.6-1.3,6.5c-1.2,1.9-3.1,3.2-5.3,3.6L83.1,126
		c-1.2,0.3-1.8,1.5-1.5,2.7c0.1,0.2,0.2,0.5,0.3,0.7L92,143.7c0.4,0.6,1.1,0.9,1.8,0.9c0.1,0,0.2,0,0.2,0l36.5-4.2
		c0.5-0.1,0.9-0.3,1.2-0.6l34.7-32.9l0,0l0,0c1.6-1.5,3.8-2.3,6-2.3c2.5,0,4.8,1,6.5,2.9C182,110.7,182.1,115.7,179.3,119z"/>
	<path d="M170.8,9.4C165.4,4,158.1,0.9,150.5,1h-0.2c-7,0.1-13.8,2.3-19.5,6.3c-6-4.9-12-7.3-17.6-7.3c-8.5,0-16.6,3.4-22.5,9.5
		C78.4,22.2,78.5,42.4,90.8,55L124,87c1.8,1.8,4.2,2.8,6.7,2.8c2.5,0,4.9-1,6.7-2.7l33.2-32.1C183,42.2,183,22.1,170.8,9.4z
		 M164.2,48.1l-0.2,0.2l-33.3,32.1L97.5,48.2c-8.6-9-8.6-23.1,0-32l0,0c4.1-4.2,9.7-6.6,15.6-6.6c0,0,0,0,0,0
		c5.5,0,11.5,4.6,15.5,8.5c1.2,1.2,3.1,1.2,4.2,0c4.6-4.7,10.9-7.3,17.5-7.5c0,0,0,0,0,0c5.1,0,10,2.1,13.5,5.7
		C172.4,25.1,172.5,39.1,164.2,48.1z"/>
</g>
</svg>
