<svg id="Capa_1" data-name="Capa 1" xmlns="http://www.w3.org/2000/svg" viewBox="0 0 1014 387"><defs><style>.cls-1{fill:#f6f5f8;}.cls-2{fill:#ea0029;}</style></defs><title>Ysana_web_material</title><path class="cls-1" d="M974.76,94.83v-.1c0-8.94,7.56-16.42,17.16-16.42S1009,85.7,1009,94.65v.08c0,9-7.56,16.43-17.16,16.43s-17.08-7.39-17.08-16.33m32.44-.1v-.08c0-8.13-6.57-14.71-15.28-14.71s-15.37,6.66-15.37,14.79v.1c0,8.11,6.59,14.69,15.29,14.69s15.36-6.66,15.36-14.79M985,85.65h8a7.56,7.56,0,0,1,5.41,1.87,4.63,4.63,0,0,1,1.47,3.59v.09a5.16,5.16,0,0,1-4.16,5.17l4.84,6.49h-4.08l-4.35-6h-3.74v6H985Zm7.86,8.4c2.22,0,3.55-1,3.55-2.67v-.1c0-1.72-1.33-2.67-3.55-2.67h-4.46v5.44Z"/><path class="cls-1" d="M433.85,199.28c-7.45-5.89-18.34-10.17-34.27-13.45-41.25-8.36-43.1-19.46-43.1-26.61,0-13.36,11.43-22,26.85-22,8.13,0,14,4,19.74,7.86,5.22,3.53,10.15,6.86,16.28,6.86,9,0,12.26-4.55,12.26-8.81,0-13.38-29.68-19.4-50.76-19.4-16.12,0-31.14,3.91-42.3,11-12.85,8.18-19.64,19.82-19.64,33.69,0,18.95,15.33,32.29,45.56,39.65,29.11,7.08,45.5,10.17,45.5,26.24,0,11.48-7.32,24.36-33.51,24.36-13.53,0-24.09-6.56-32.59-11.57-6.27-3.71-11.69-6.91-16.93-6.91-7.73,0-11.64,3.36-11.64,10,0,8.12,11,13.49,20.24,16.57,12.31,4.1,28.14,6.36,44.56,6.36,17.68,0,34.19-4.55,46.47-12.82,12.86-8.65,19.94-20.6,19.94-33.64,0-11.7-4.14-20.66-12.66-27.41"/><path class="cls-1" d="M544.88,125.24c-11.93,0-25.81,2.06-35.28,5.67-14.61,5.56-17.68,12.74-17.68,17.78,0,3.82,1.79,5.69,3.29,6.59a10.55,10.55,0,0,0,5.55,1.18l1.15,0H503c7.61,0,13.58-4.48,19.34-8.83,6.07-4.56,14-9.28,22.54-9.28h5c15,0,26.69,12.25,26.69,27.88,0,13.15-21.52,21.68-42.86,24.29-34.63,4.34-55.3,21.45-55.3,45.76,0,22.34,18.94,38.55,45.05,38.55A97.94,97.94,0,0,0,547,272a85.07,85.07,0,0,1,20.5-2.55c5.24,0,11.06,1.28,16.2,2.4,4.47,1,8.33,1.83,11.49,1.83,9.43,0,14.84-5.69,14.84-15.6V210.89q0-6,.05-11.5c.18-29.2.29-48.5-11.73-60.6-9.44-9.5-25.44-13.55-53.5-13.55m34.19,97.59c0,19.48-18.5,35.34-41.25,35.34-15,0-27.18-11-27.18-24.41,0-17.42,24.14-32.92,43.17-32.92,14.63,0,25.26,9.25,25.26,22"/><path class="cls-1" d="M753,127.89c-11.56,0-20.32,2.41-27.35,4.34-4.14,1.14-7.71,2.13-10.4,2.13-6.2,0-13-1.05-19.58-2.07-6.07-.93-11.81-1.81-16.71-1.81-9.86,0-18.37,6-18.37,14.69V256.35c0,10.53,6.43,15.87,15.92,15.87,8.09,0,17.13-6,17.13-14.11v-68c0-27.52,13.77-45.3,35.09-45.3,8.38,0,33.92,0,33.92,50v63.27c0,9,6,14.11,15.48,14.11s14.92-5.85,14.92-16.46V170.23c0-28.1-13.47-42.34-40-42.34"/><path class="cls-1" d="M946.7,138.79c-9.44-9.5-25.44-13.55-53.5-13.55-11.93,0-25.81,2.06-35.28,5.67-14.61,5.56-17.68,12.74-17.68,17.78,0,3.82,1.79,5.69,3.28,6.59a10.58,10.58,0,0,0,5.56,1.18l1.15,0h1.08c7.62,0,13.59-4.48,19.35-8.83,6.07-4.56,14-9.28,22.54-9.28h5c15,0,26.68,12.25,26.68,27.88,0,13.15-21.52,21.68-42.85,24.29-34.63,4.34-55.31,21.45-55.31,45.76,0,22.34,18.94,38.55,45,38.55A97.94,97.94,0,0,0,895.35,272a85.1,85.1,0,0,1,20.51-2.55c5.23,0,11,1.28,16.19,2.4,4.47,1,8.33,1.83,11.49,1.83,9.43,0,14.84-5.69,14.84-15.6V210.89c0-4,0-7.83,0-11.5.18-29.2.29-48.5-11.73-60.6m-19.31,84c0,19.48-18.5,35.34-41.25,35.34-15,0-27.18-11-27.18-24.41,0-17.42,24.14-32.92,43.17-32.92,14.64,0,25.26,9.25,25.26,22"/><path class="cls-1" d="M256.15,199.68c.21-13.39.29-22.79-6.55-37.33C242.4,147,230.91,141,213.73,124c-.83-.79-1.64-1.61-2.44-2.44l-.2-.19c-.16-.17-.32-.35-.48-.51-.3-.33-.6-.64-.89-1-3.38-3.61-6.95-8-10.73-12.78-4.14-5.11-7.59-9.53-10.72-13.32-.24-.29-.48-.59-.73-.88-11.68-14-19.16-19.1-42.46-19.1-11.67,0-31.12,1.77-13.23,21.18,0,0,66.71,59.69,72.81,68.23s11,23.52,11,40.58v54.58c0,11.18,6.12,17.64,20.22,17.64,15.32,0,19.61-10.58,19.61-17.64l.22-21.53c0-1.33.16-22.49.4-37.17"/><path class="cls-1" d="M255.77,143.29c-10.59-26.24-9.75-51.36,7.89-75,19.94-26.75,55-36.85,79.06-58.15-1.53,23.31-9.89,47.62-20.09,70-15.87,34.79-62.48,37.88-66.86,63.22"/><polygon class="cls-2" points="6.04 354.81 10.29 354.81 18.26 375.99 18.34 375.99 26.61 354.81 30.63 354.81 19.95 380.84 16.5 380.84 6.04 354.81"/><rect class="cls-2" x="66.44" y="354.81" width="3.68" height="26.03"/><path class="cls-2" d="M109,354.81h9.46a18,18,0,0,1,5,.63,13.38,13.38,0,0,1,3.76,1.67,10.77,10.77,0,0,1,2.64,2.41,13.12,13.12,0,0,1,1.67,2.79,14.32,14.32,0,0,1,.88,2.87,15.29,15.29,0,0,1,.26,2.65,12.79,12.79,0,0,1-1,4.83,12.15,12.15,0,0,1-2.84,4.15,14,14,0,0,1-4.65,2.93,17.41,17.41,0,0,1-6.42,1.1H109Zm3.67,22.72h4.64a15.94,15.94,0,0,0,4.42-.6,11.21,11.21,0,0,0,3.66-1.82,8.69,8.69,0,0,0,2.49-3,9.32,9.32,0,0,0,.92-4.24,12.27,12.27,0,0,0-.42-2.93,8.65,8.65,0,0,0-1.59-3.18,9.43,9.43,0,0,0-3.24-2.55,11.86,11.86,0,0,0-5.36-1.05h-5.52Z"/><path class="cls-2" d="M179.09,354.81h3.33l11.61,26h-4.29L187,374.41H174.11l-2.68,6.43h-4.29Zm6.59,16.51-5.06-11.95h-.08l-5.13,11.95Z"/><path class="cls-2" d="M274.12,375.4a5.9,5.9,0,0,0,2.54,2.11,7.8,7.8,0,0,0,3.2.68,6.94,6.94,0,0,0,1.88-.27,5.82,5.82,0,0,0,1.74-.83,4.48,4.48,0,0,0,1.28-1.36,3.43,3.43,0,0,0,.5-1.88,2.75,2.75,0,0,0-1-2.29,8.61,8.61,0,0,0-2.47-1.32c-1-.36-2.06-.71-3.22-1a13.82,13.82,0,0,1-3.22-1.37,7.85,7.85,0,0,1-2.47-2.37,7.22,7.22,0,0,1-1-4,6.62,6.62,0,0,1,.51-2.43,6.88,6.88,0,0,1,1.63-2.35,9.07,9.07,0,0,1,2.85-1.78,11,11,0,0,1,4.2-.72,15.26,15.26,0,0,1,4.25.59,7.31,7.31,0,0,1,3.56,2.39l-3,2.61a4.92,4.92,0,0,0-2-1.66,6.47,6.47,0,0,0-2.87-.62,7.2,7.2,0,0,0-2.55.39,4.5,4.5,0,0,0-1.63,1,3.51,3.51,0,0,0-.86,1.3,3.81,3.81,0,0,0-.25,1.29,3.21,3.21,0,0,0,1,2.54,7.79,7.79,0,0,0,2.47,1.43,28.58,28.58,0,0,0,3.22,1,14.64,14.64,0,0,1,3.21,1.23,7.27,7.27,0,0,1,2.47,2.14,6,6,0,0,1,1,3.69,7.46,7.46,0,0,1-.75,3.38,7.6,7.6,0,0,1-2,2.54,9,9,0,0,1-3,1.58,11.85,11.85,0,0,1-3.67.55,13.78,13.78,0,0,1-4.94-.88,8.08,8.08,0,0,1-3.72-2.72Z"/><path class="cls-2" d="M335.67,354.81H339l11.61,26h-4.29l-2.72-6.43H330.69L328,380.84h-4.29Zm6.59,16.51-5.06-11.95h-.08L332,371.32Z"/><polygon class="cls-2" points="386.69 354.81 391.51 354.81 406.45 376.21 406.53 376.21 406.53 354.81 410.2 354.81 410.2 380.84 405.53 380.84 390.44 359.44 390.36 359.44 390.36 380.84 386.69 380.84 386.69 354.81"/><path class="cls-2" d="M458.23,354.81h3.34l11.6,26h-4.29l-2.72-6.43H453.25l-2.67,6.43h-4.3Zm6.59,16.51-5.06-11.95h-.07l-5.13,11.95Z"/></svg>