<svg id="Capa_1" data-name="Capa 1" xmlns="http://www.w3.org/2000/svg" viewBox="0 0 115 107"><defs><style>.cls-1{fill:#000f32;}</style></defs><title>carrito-color-azul</title><path class="cls-1" d="M48.35,85.4A10.78,10.78,0,1,0,59.13,96.18,10.8,10.8,0,0,0,48.35,85.4ZM52,96.18a3.6,3.6,0,1,1-3.6-3.6A3.6,3.6,0,0,1,52,96.18Z"/><path class="cls-1" d="M83.33,85.4A10.78,10.78,0,1,0,94.11,96.18,10.79,10.79,0,0,0,83.33,85.4Zm3.59,10.78a3.6,3.6,0,1,1-3.59-3.6A3.59,3.59,0,0,1,86.92,96.18Z"/><path class="cls-1" d="M113.57,20.8a6.34,6.34,0,0,0-4.95-2.35H22.57L21,10.59A6.37,6.37,0,0,0,17.25,6L5,.73a3.55,3.55,0,0,0-2.75,0,3.54,3.54,0,0,0-2,1.91,3.59,3.59,0,0,0,0,2.75,3.63,3.63,0,0,0,1.91,2L14,12.46l13.38,65a6.42,6.42,0,0,0,6.25,5.1h66.69a3.6,3.6,0,0,0,0-7.19h-66L33,69h67.86a6.41,6.41,0,0,0,6.24-5.1l7.79-37.79A6.38,6.38,0,0,0,113.57,20.8Zm-5.94,4.83-7.46,36.18H31.5L24.05,25.63Z"/></svg>