<?xml version="1.0" encoding="utf-8"?>
<!-- Generator: Adobe Illustrator 22.1.0, SVG Export Plug-In . SVG Version: 6.00 Build 0)  -->
<svg version="1.1" id="Capa_1" xmlns="http://www.w3.org/2000/svg" xmlns:xlink="http://www.w3.org/1999/xlink" x="0px" y="0px"
	 viewBox="0 0 1008 891" style="enable-background:new 0 0 1008 891;" xml:space="preserve">
<style type="text/css">
	.st0{fill:#FFFFFF;}
	.st1{enable-background:new    ;}
	.st2{fill:#E6007E;}
	.st3{fill:#000F5A;}
</style>
<title>Pronto-en-ysana-club-ysana</title>
<rect class="st0" width="1008" height="891"/>
<g class="st1">
	<path class="st2" d="M64.9,368.9v15.4H54.5v-44.9h18.2c5.3,0,9.5,1.4,12.7,4.1c3.1,2.7,4.7,6.3,4.7,10.7c0,4.4-1.6,8-4.7,10.7
		s-7.3,4.1-12.7,4.1H64.9z M64.9,360.8h7.8c2.3,0,4-0.6,5.2-1.9c1.2-1.2,1.8-2.8,1.8-4.8c0-2-0.6-3.6-1.8-4.9s-2.9-1.9-5.2-1.9h-7.8
		V360.8z"/>
	<path class="st2" d="M106.4,367v17.2H95.9v-44.9h17.3c5.2,0,9.3,1.2,12.4,3.6c3,2.4,4.6,5.7,4.6,9.9c0,2.3-0.6,4.3-1.8,6
		c-1.2,1.7-3,3-5.4,4.1c2.8,0.8,4.7,2.1,5.9,3.9c1.2,1.8,1.8,4.1,1.8,6.8v2.8c0,1.2,0.2,2.5,0.5,4s1,2.6,1.8,3.2v0.6h-10.7
		c-0.8-0.6-1.4-1.8-1.6-3.4c-0.3-1.6-0.4-3.1-0.4-4.5v-2.7c0-2.1-0.6-3.8-1.7-4.9c-1.1-1.1-2.8-1.7-5-1.7H106.4z M106.4,359h6.9
		c2.1,0,3.7-0.5,4.8-1.4c1.1-1,1.7-2.3,1.7-4.1c0-1.8-0.6-3.3-1.7-4.4c-1.1-1.1-2.7-1.7-4.8-1.7h-6.8V359z"/>
	<path class="st2" d="M174.7,365.8c0,5.5-1.8,10.1-5.3,13.7c-3.5,3.6-8.1,5.4-13.7,5.4c-5.7,0-10.3-1.8-13.8-5.4
		c-3.5-3.6-5.3-8.1-5.3-13.7v-8.1c0-5.5,1.8-10.1,5.3-13.7c3.5-3.6,8.1-5.4,13.8-5.4c5.6,0,10.2,1.8,13.8,5.4
		c3.5,3.6,5.3,8.2,5.3,13.7V365.8z M164.4,357.7c0-3.2-0.8-5.8-2.3-7.9c-1.5-2.1-3.6-3.1-6.4-3.1c-2.8,0-5,1-6.5,3.1
		c-1.5,2-2.2,4.7-2.2,7.9v8.1c0,3.2,0.8,5.9,2.3,8c1.5,2.1,3.7,3.1,6.5,3.1c2.7,0,4.9-1,6.4-3.1s2.3-4.7,2.3-8V357.7z"/>
</g>
<g class="st1">
	<path class="st2" d="M218.2,384.2h-10.4l-16.4-28.6l-0.2,0.1v28.6h-10.5v-44.9h10.5l16.4,28.6l0.2-0.1v-28.6h10.4V384.2z"/>
</g>
<g class="st1">
	<path class="st2" d="M255.7,347.4h-11.8v36.9h-10.5v-36.9h-11.7v-8h34V347.4z"/>
</g>
<g class="st1">
	<path class="st2" d="M296.2,365.8c0,5.5-1.8,10.1-5.3,13.7c-3.5,3.6-8.1,5.4-13.7,5.4c-5.7,0-10.3-1.8-13.8-5.4
		c-3.5-3.6-5.3-8.1-5.3-13.7v-8.1c0-5.5,1.8-10.1,5.3-13.7c3.5-3.6,8.1-5.4,13.8-5.4c5.6,0,10.2,1.8,13.8,5.4
		c3.5,3.6,5.3,8.2,5.3,13.7V365.8z M285.8,357.7c0-3.2-0.8-5.8-2.3-7.9c-1.5-2.1-3.6-3.1-6.4-3.1c-2.8,0-5,1-6.5,3.1
		c-1.5,2-2.2,4.7-2.2,7.9v8.1c0,3.2,0.8,5.9,2.3,8c1.5,2.1,3.7,3.1,6.5,3.1c2.7,0,4.9-1,6.4-3.1s2.3-4.7,2.3-8V357.7z"/>
	<path class="st2" d="M346,365h-17.6v11.2h20.8v8H318v-44.9h31.3v8h-20.8v9.7H346V365z"/>
	<path class="st2" d="M391.4,384.2H381l-16.4-28.6l-0.2,0.1v28.6h-10.5v-44.9h10.5l16.4,28.6l0.2-0.1v-28.6h10.4V384.2z"/>
</g>
<g class="st1">
	<path class="st2" d="M430.7,359h0.2l8.9-19.6h11.3l-15.3,29.1v15.8h-10.4v-16.3l-15-28.6h11.3L430.7,359z"/>
</g>
<g class="st1">
	<path class="st2" d="M477.9,372.3c0-1.6-0.5-2.8-1.6-3.7s-2.9-1.8-5.6-2.7c-5.7-1.8-9.9-3.7-12.6-5.8c-2.7-2-4.1-5-4.1-8.9
		c0-3.8,1.6-6.8,4.9-9.1c3.3-2.3,7.4-3.5,12.4-3.5c5,0,9,1.3,12.2,3.8c3.2,2.6,4.7,5.9,4.6,9.9l-0.1,0.2h-10.1
		c0-1.8-0.6-3.2-1.8-4.4c-1.2-1.1-2.9-1.7-5-1.7c-2.1,0-3.7,0.5-4.9,1.4c-1.2,0.9-1.8,2.1-1.8,3.4c0,1.3,0.6,2.4,1.8,3.2
		c1.2,0.8,3.5,1.8,6.8,3c5.1,1.5,8.9,3.4,11.5,5.6c2.6,2.2,3.9,5.3,3.9,9.2c0,3.9-1.5,7-4.6,9.3c-3.1,2.2-7.1,3.3-12.2,3.3
		c-5.1,0-9.5-1.3-13.2-3.8c-3.7-2.6-5.5-6.2-5.4-11.1l0.1-0.2H463c0,2.6,0.7,4.4,2.1,5.5c1.4,1.1,3.5,1.7,6.4,1.7
		c2.2,0,3.8-0.4,4.8-1.3C477.4,374.9,477.9,373.7,477.9,372.3z"/>
	<path class="st2" d="M517.8,375.5h-14.2l-2.5,8.7h-10.5l14.5-44.9h11.2l14.5,44.9h-10.5L517.8,375.5z M506,367.5h9.5l-4.7-16.1
		h-0.2L506,367.5z"/>
</g>
<g class="st1">
	<path class="st2" d="M571.5,384.2h-10.4l-16.4-28.6l-0.2,0.1v28.6H534v-44.9h10.5l16.4,28.6l0.2-0.1v-28.6h10.4V384.2z"/>
</g>
<g class="st1">
	<path class="st2" d="M603,375.5h-14.2l-2.5,8.7h-10.5l14.5-44.9h11.2l14.5,44.9h-10.5L603,375.5z M591.1,367.5h9.5l-4.7-16.1h-0.2
		L591.1,367.5z"/>
</g>
<g class="st1">
	<path class="st2" d="M617.2,350.1c0-3.8,1.2-7,3.7-9.5c2.5-2.6,5.5-3.9,9-3.9c3.5,0,6.5,1.3,9,3.9c2.5,2.6,3.7,5.8,3.7,9.5
		c0,3.8-1.2,7-3.7,9.6c-2.5,2.6-5.5,3.9-9,3.9c-3.5,0-6.6-1.3-9-3.9S617.2,353.9,617.2,350.1z M619.4,350.1c0,3.2,1,5.8,3.1,8
		c2.1,2.2,4.6,3.2,7.5,3.2c2.9,0,5.4-1.1,7.5-3.2s3.1-4.8,3.1-8c0-3.2-1-5.8-3.1-8s-4.5-3.2-7.5-3.2c-2.9,0-5.4,1.1-7.5,3.2
		C620.4,344.3,619.4,347,619.4,350.1z M627.4,351.5v6.1h-2.7v-15.3h5.1c1.8,0,3.2,0.4,4.3,1.2s1.6,2,1.6,3.5c0,0.7-0.2,1.3-0.5,1.8
		c-0.3,0.5-0.8,0.9-1.4,1.3c0.7,0.4,1.1,0.9,1.4,1.6c0.3,0.7,0.4,1.4,0.4,2.3v1c0,0.5,0,0.9,0.1,1.3c0,0.4,0.1,0.7,0.2,1v0.3H633
		c-0.1-0.3-0.2-0.6-0.2-1.1c0-0.5,0-1,0-1.5v-1c0-0.9-0.2-1.5-0.6-1.9c-0.4-0.4-1.1-0.6-2-0.6H627.4z M627.4,349.1h2.3
		c0.9,0,1.6-0.2,2.3-0.5c0.6-0.4,0.9-0.9,0.9-1.5c0-0.9-0.2-1.5-0.7-1.8c-0.5-0.3-1.3-0.5-2.4-0.5h-2.3V349.1z"/>
</g>
<g class="st1">
	<path class="st3" d="M66.7,415.5l5.7,13.8h0.1l5.8-13.8h1.7v15.6h-1.3v-6.9l0.1-6.8l-0.1,0l-5.8,13.8H72l-5.8-13.7l-0.1,0l0.1,6.8
		v6.9H65v-15.6H66.7z"/>
	<path class="st3" d="M91.3,429.2c-0.4,0.7-0.9,1.2-1.5,1.6c-0.6,0.4-1.4,0.6-2.2,0.6c-1.2,0-2.2-0.4-2.9-1.2c-0.7-0.8-1-2.1-1-3.9
		v-6.7h1.3v6.8c0,1.4,0.2,2.4,0.7,3.1c0.5,0.6,1.2,0.9,2.1,0.9c1,0,1.8-0.2,2.3-0.7s1-1,1.2-1.8v-8.3h1.3v11.6h-1.1L91.3,429.2z"/>
	<path class="st3" d="M99.2,428l0.4,1.4h0.1l3.5-9.9h1.4l-5,13.5c-0.3,0.8-0.7,1.5-1.2,2c-0.5,0.6-1.2,0.8-2.1,0.8
		c-0.2,0-0.3,0-0.5,0s-0.4-0.1-0.5-0.1l0.2-1.1c0.1,0,0.2,0,0.4,0c0.2,0,0.3,0,0.4,0c0.6,0,1-0.2,1.3-0.6c0.3-0.4,0.6-0.9,0.9-1.5
		l0.6-1.6l-4.5-11.5H96L99.2,428z"/>
	<path class="st3" d="M121.4,425.7c0,1.7-0.4,3.1-1.2,4.2c-0.8,1-1.9,1.6-3.3,1.6c-0.8,0-1.5-0.2-2.1-0.5s-1.1-0.7-1.5-1.3v6H112
		v-16.1h1.1l0.2,1.8c0.4-0.6,0.9-1.1,1.5-1.5c0.6-0.4,1.3-0.5,2.2-0.5c1.4,0,2.5,0.6,3.3,1.7s1.2,2.6,1.2,4.5V425.7z M120.1,425.4
		c0-1.5-0.3-2.7-0.9-3.6c-0.6-0.9-1.4-1.4-2.6-1.4c-0.9,0-1.6,0.2-2.1,0.6s-0.9,0.9-1.2,1.6v5.6c0.3,0.6,0.7,1.1,1.3,1.5
		c0.6,0.4,1.2,0.5,2.1,0.5c1.1,0,2-0.4,2.6-1.3s0.9-2,0.9-3.4V425.4z"/>
</g>
<g class="st1">
	<path class="st3" d="M130.7,420.6l-1-0.1c-0.8,0-1.5,0.2-2,0.7c-0.5,0.5-0.9,1.1-1.1,1.9v8h-1.3v-11.6h1.1l0.2,1.9v0.1
		c0.3-0.7,0.8-1.3,1.4-1.7c0.6-0.4,1.2-0.6,2-0.6c0.2,0,0.3,0,0.5,0s0.3,0.1,0.4,0.1L130.7,420.6z"/>
</g>
<g class="st1">
	<path class="st3" d="M132.2,425.2c0-1.7,0.5-3.1,1.4-4.2s2.2-1.6,3.7-1.6c1.6,0,2.8,0.5,3.7,1.6s1.4,2.5,1.4,4.2v0.4
		c0,1.7-0.5,3.1-1.4,4.2s-2.2,1.6-3.7,1.6c-1.6,0-2.8-0.5-3.7-1.6s-1.4-2.5-1.4-4.2V425.2z M133.5,425.5c0,1.3,0.3,2.5,1,3.4
		c0.7,0.9,1.6,1.4,2.8,1.4c1.2,0,2.1-0.5,2.8-1.4c0.7-0.9,1-2,1-3.4v-0.4c0-1.3-0.3-2.4-1-3.4c-0.7-0.9-1.6-1.4-2.8-1.4
		c-1.2,0-2.1,0.5-2.8,1.4c-0.7,0.9-1,2-1,3.4V425.5z"/>
	<path class="st3" d="M146.3,419.5l0.1,2c0.4-0.7,0.9-1.3,1.5-1.7c0.6-0.4,1.4-0.6,2.2-0.6c1.3,0,2.2,0.4,2.9,1.2s1,2,1,3.6v7.1
		h-1.3v-7.1c0-1.3-0.2-2.3-0.7-2.8c-0.5-0.6-1.2-0.8-2.1-0.8c-0.9,0-1.6,0.2-2.2,0.7c-0.6,0.5-1,1.1-1.2,1.9v8.1h-1.3v-11.6H146.3z"
		/>
</g>
<g class="st1">
	<path class="st3" d="M159.8,416.5v3h2.6v1.1h-2.6v7.6c0,0.8,0.1,1.3,0.4,1.6c0.3,0.3,0.6,0.5,1.1,0.5c0.2,0,0.4,0,0.6,0
		c0.2,0,0.4,0,0.7-0.1l0.2,1c-0.2,0.1-0.5,0.2-0.8,0.2c-0.3,0-0.6,0.1-0.9,0.1c-0.8,0-1.5-0.3-1.9-0.8c-0.5-0.5-0.7-1.3-0.7-2.4
		v-7.6h-2v-1.1h2v-3H159.8z"/>
</g>
<g class="st1">
	<path class="st3" d="M164.4,425.2c0-1.7,0.5-3.1,1.4-4.2s2.2-1.6,3.7-1.6c1.6,0,2.8,0.5,3.7,1.6s1.4,2.5,1.4,4.2v0.4
		c0,1.7-0.5,3.1-1.4,4.2s-2.2,1.6-3.7,1.6c-1.6,0-2.8-0.5-3.7-1.6s-1.4-2.5-1.4-4.2V425.2z M165.7,425.5c0,1.3,0.3,2.5,1,3.4
		c0.7,0.9,1.6,1.4,2.8,1.4c1.2,0,2.1-0.5,2.8-1.4c0.7-0.9,1-2,1-3.4v-0.4c0-1.3-0.3-2.4-1-3.4c-0.7-0.9-1.6-1.4-2.8-1.4
		c-1.2,0-2.1,0.5-2.8,1.4c-0.7,0.9-1,2-1,3.4V425.5z"/>
	<path class="st3" d="M184.1,431.1h-1.3v-16.8h1.3V431.1z"/>
	<path class="st3" d="M195.1,431.1c-0.1-0.4-0.1-0.7-0.2-1c0-0.3-0.1-0.6-0.1-0.9c-0.4,0.6-1,1.1-1.7,1.5c-0.7,0.4-1.5,0.6-2.4,0.6
		c-1.1,0-2-0.3-2.6-0.9s-0.9-1.4-0.9-2.4c0-1.1,0.5-1.9,1.4-2.6s2.2-1,3.8-1h2.6v-1.4c0-0.8-0.3-1.5-0.8-2c-0.5-0.5-1.3-0.7-2.2-0.7
		c-0.9,0-1.6,0.2-2.2,0.7c-0.6,0.5-0.9,1-0.9,1.7l-1.2,0l0-0.1c0-0.9,0.4-1.6,1.2-2.3c0.8-0.7,1.9-1,3.2-1c1.3,0,2.3,0.3,3.1,1
		c0.8,0.7,1.2,1.6,1.2,2.8v5.7c0,0.4,0,0.8,0.1,1.2c0,0.4,0.1,0.8,0.2,1.1H195.1z M190.8,430.2c0.9,0,1.7-0.2,2.4-0.6s1.2-1,1.5-1.7
		v-2.4h-2.6c-1.2,0-2.1,0.2-2.8,0.7c-0.7,0.5-1,1.1-1,1.9c0,0.6,0.2,1.1,0.6,1.5C189.5,430,190.1,430.2,190.8,430.2z"/>
	<path class="st3" d="M200.7,419.5l0.1,2c0.4-0.7,0.9-1.3,1.5-1.7c0.6-0.4,1.4-0.6,2.2-0.6c1.3,0,2.2,0.4,2.9,1.2s1,2,1,3.6v7.1
		h-1.3v-7.1c0-1.3-0.2-2.3-0.7-2.8c-0.5-0.6-1.2-0.8-2.1-0.8c-0.9,0-1.6,0.2-2.2,0.7c-0.6,0.5-1,1.1-1.2,1.9v8.1h-1.3v-11.6H200.7z"
		/>
	<path class="st3" d="M212.6,430h7.6v1.1H211v-1l7-9.6h-6.8v-1.1h8.4v0.9L212.6,430z"/>
	<path class="st3" d="M229.9,431.1c-0.1-0.4-0.1-0.7-0.2-1c0-0.3-0.1-0.6-0.1-0.9c-0.4,0.6-1,1.1-1.7,1.5c-0.7,0.4-1.5,0.6-2.4,0.6
		c-1.1,0-2-0.3-2.6-0.9s-0.9-1.4-0.9-2.4c0-1.1,0.5-1.9,1.4-2.6s2.2-1,3.8-1h2.6v-1.4c0-0.8-0.3-1.5-0.8-2c-0.5-0.5-1.3-0.7-2.2-0.7
		c-0.9,0-1.6,0.2-2.2,0.7c-0.6,0.5-0.9,1-0.9,1.7l-1.2,0l0-0.1c0-0.9,0.4-1.6,1.2-2.3c0.8-0.7,1.9-1,3.2-1c1.3,0,2.3,0.3,3.1,1
		c0.8,0.7,1.2,1.6,1.2,2.8v5.7c0,0.4,0,0.8,0.1,1.2c0,0.4,0.1,0.8,0.2,1.1H229.9z M225.7,430.2c0.9,0,1.7-0.2,2.4-0.6s1.2-1,1.5-1.7
		v-2.4h-2.6c-1.2,0-2.1,0.2-2.8,0.7c-0.7,0.5-1,1.1-1,1.9c0,0.6,0.2,1.1,0.6,1.5C224.3,430,224.9,430.2,225.7,430.2z"/>
</g>
<g class="st1">
	<path class="st3" d="M241.3,420.6l-1-0.1c-0.8,0-1.5,0.2-2,0.7c-0.5,0.5-0.9,1.1-1.1,1.9v8h-1.3v-11.6h1.1l0.2,1.9v0.1
		c0.3-0.7,0.8-1.3,1.4-1.7c0.6-0.4,1.2-0.6,2-0.6c0.2,0,0.3,0,0.5,0s0.3,0.1,0.4,0.1L241.3,420.6z"/>
</g>
<g class="st1">
	<path class="st3" d="M247.8,431.4c-1.5,0-2.7-0.5-3.6-1.6s-1.4-2.4-1.4-4.1v-0.6c0-1.7,0.5-3,1.4-4.1s2.1-1.6,3.5-1.6
		c1.4,0,2.5,0.5,3.4,1.4c0.8,0.9,1.2,2.1,1.2,3.6v1.1H244v0.3c0,1.3,0.3,2.4,1,3.3c0.7,0.9,1.6,1.3,2.7,1.3c0.8,0,1.5-0.1,2.1-0.3
		c0.6-0.2,1-0.5,1.4-1l0.5,0.9c-0.4,0.5-1,0.8-1.7,1.1C249.5,431.2,248.7,431.4,247.8,431.4z M247.6,420.4c-1,0-1.8,0.4-2.4,1.1
		c-0.6,0.7-1,1.6-1.1,2.7l0,0.1h6.8v-0.3c0-1-0.3-1.8-0.9-2.5C249.4,420.7,248.6,420.4,247.6,420.4z"/>
	<path class="st3" d="M255.8,419.5l0.1,1.9c0.4-0.7,0.9-1.2,1.5-1.6c0.6-0.4,1.4-0.6,2.2-0.6c0.9,0,1.6,0.2,2.2,0.6
		c0.6,0.4,1,1.1,1.3,2c0.4-0.8,0.9-1.5,1.5-1.9s1.4-0.7,2.4-0.7c1.2,0,2.2,0.4,2.9,1.2s1,2.1,1,3.8v6.8h-1.3v-6.8
		c0-1.4-0.3-2.4-0.8-3c-0.5-0.6-1.2-0.9-2.1-0.9c-1,0-1.8,0.3-2.3,0.9c-0.5,0.6-0.9,1.4-1,2.4c0,0.1,0,0.1,0,0.2c0,0.1,0,0.2,0,0.2
		v7h-1.3v-6.8c0-1.4-0.3-2.4-0.8-3c-0.5-0.6-1.2-0.9-2.1-0.9c-0.9,0-1.6,0.2-2.2,0.7c-0.5,0.5-0.9,1.1-1.1,1.9v8.2h-1.3v-11.6H255.8
		z"/>
	<path class="st3" d="M273.5,425.2c0-1.7,0.5-3.1,1.4-4.2s2.2-1.6,3.7-1.6c1.6,0,2.8,0.5,3.7,1.6s1.4,2.5,1.4,4.2v0.4
		c0,1.7-0.5,3.1-1.4,4.2s-2.2,1.6-3.7,1.6c-1.6,0-2.8-0.5-3.7-1.6s-1.4-2.5-1.4-4.2V425.2z M274.8,425.5c0,1.3,0.3,2.5,1,3.4
		c0.7,0.9,1.6,1.4,2.8,1.4c1.2,0,2.1-0.5,2.8-1.4c0.7-0.9,1-2,1-3.4v-0.4c0-1.3-0.3-2.4-1-3.4c-0.7-0.9-1.6-1.4-2.8-1.4
		c-1.2,0-2.1,0.5-2.8,1.4c-0.7,0.9-1,2-1,3.4V425.5z"/>
	<path class="st3" d="M293.4,428.2c0-0.5-0.2-1-0.7-1.4c-0.4-0.4-1.3-0.7-2.4-1c-1.4-0.3-2.4-0.7-3.1-1.2c-0.7-0.5-1-1.2-1-2.1
		c0-0.9,0.4-1.6,1.1-2.2c0.7-0.6,1.7-0.9,3-0.9c1.3,0,2.3,0.3,3.1,1c0.8,0.6,1.1,1.5,1.1,2.4l0,0.1h-1.2c0-0.6-0.3-1.2-0.8-1.7
		s-1.3-0.7-2.2-0.7c-0.9,0-1.6,0.2-2.1,0.6c-0.5,0.4-0.7,0.9-0.7,1.4c0,0.5,0.2,1,0.6,1.3c0.4,0.3,1.2,0.7,2.4,0.9
		c1.4,0.3,2.4,0.7,3.1,1.3c0.7,0.5,1,1.3,1,2.2c0,1-0.4,1.8-1.2,2.4c-0.8,0.6-1.8,0.9-3.1,0.9c-1.4,0-2.5-0.3-3.3-1
		s-1.2-1.5-1.1-2.4l0-0.1h1.2c0,0.8,0.4,1.4,1,1.8c0.6,0.4,1.4,0.6,2.2,0.6c0.9,0,1.7-0.2,2.2-0.6S293.4,428.8,293.4,428.2z"/>
	<path class="st3" d="M307.4,431.4c-1.5,0-2.7-0.5-3.6-1.6s-1.4-2.4-1.4-4.1v-0.6c0-1.7,0.5-3,1.4-4.1s2.1-1.6,3.5-1.6
		c1.4,0,2.5,0.5,3.4,1.4c0.8,0.9,1.2,2.1,1.2,3.6v1.1h-8.2v0.3c0,1.3,0.3,2.4,1,3.3c0.7,0.9,1.6,1.3,2.7,1.3c0.8,0,1.5-0.1,2.1-0.3
		c0.6-0.2,1-0.5,1.4-1l0.5,0.9c-0.4,0.5-1,0.8-1.7,1.1C309.1,431.2,308.3,431.4,307.4,431.4z M307.2,420.4c-1,0-1.8,0.4-2.4,1.1
		c-0.6,0.7-1,1.6-1.1,2.7l0,0.1h6.8v-0.3c0-1-0.3-1.8-0.9-2.5C309,420.7,308.2,420.4,307.2,420.4z"/>
	<path class="st3" d="M315.8,431.1h-1.3v-16.8h1.3V431.1z"/>
	<path class="st3" d="M335.8,426.3L335.8,426.3c-0.1,1.6-0.7,2.9-1.7,3.8c-1,0.9-2.3,1.3-3.9,1.3c-1.7,0-3.1-0.6-4.2-1.9
		s-1.6-2.9-1.6-4.9v-2.5c0-2,0.5-3.6,1.6-4.9s2.5-1.9,4.2-1.9c1.7,0,3,0.4,4,1.3c1,0.9,1.5,2.1,1.7,3.7l0,0.1h-1.2
		c-0.2-1.3-0.6-2.3-1.3-3s-1.7-1-3.1-1c-1.4,0-2.5,0.5-3.3,1.6c-0.8,1.1-1.2,2.4-1.2,4.1v2.6c0,1.7,0.4,3,1.2,4.1
		c0.8,1.1,1.9,1.6,3.3,1.6c1.3,0,2.3-0.3,3.1-1s1.2-1.7,1.3-3H335.8z"/>
	<path class="st3" d="M340.2,431.1H339v-16.8h1.3V431.1z"/>
	<path class="st3" d="M351.4,429.2c-0.4,0.7-0.9,1.2-1.5,1.6c-0.6,0.4-1.4,0.6-2.2,0.6c-1.2,0-2.2-0.4-2.9-1.2c-0.7-0.8-1-2.1-1-3.9
		v-6.7h1.3v6.8c0,1.4,0.2,2.4,0.7,3.1c0.5,0.6,1.2,0.9,2.1,0.9c1,0,1.8-0.2,2.3-0.7s1-1,1.2-1.8v-8.3h1.3v11.6h-1.1L351.4,429.2z"/>
	<path class="st3" d="M365.4,425.7c0,1.7-0.4,3.1-1.2,4.2c-0.8,1-1.9,1.6-3.3,1.6c-0.9,0-1.6-0.2-2.2-0.5c-0.6-0.3-1.1-0.8-1.5-1.5
		l-0.1,1.8H356v-16.8h1.3v7c0.4-0.7,0.9-1.2,1.5-1.5s1.3-0.5,2.1-0.5c1.4,0,2.5,0.6,3.3,1.7s1.2,2.6,1.2,4.5V425.7z M364.1,425.4
		c0-1.5-0.3-2.7-0.9-3.6c-0.6-0.9-1.4-1.4-2.5-1.4c-0.9,0-1.6,0.2-2.2,0.7c-0.5,0.4-1,1-1.2,1.7v5.3c0.3,0.7,0.7,1.2,1.3,1.6
		c0.6,0.4,1.3,0.6,2.1,0.6c1.1,0,2-0.4,2.5-1.3c0.6-0.8,0.8-2,0.8-3.4V425.4z"/>
</g>
<g class="st1">
	<path class="st3" d="M381.5,424.2l4.8-8.7h1.5l-5.7,9.9v5.7h-1.3v-5.8l-5.7-9.8h1.5L381.5,424.2z"/>
</g>
<g class="st1">
	<path class="st3" d="M396.4,428.2c0-0.5-0.2-1-0.7-1.4c-0.4-0.4-1.3-0.7-2.4-1c-1.4-0.3-2.4-0.7-3.1-1.2c-0.7-0.5-1-1.2-1-2.1
		c0-0.9,0.4-1.6,1.1-2.2c0.7-0.6,1.7-0.9,3-0.9c1.3,0,2.3,0.3,3.1,1c0.8,0.6,1.1,1.5,1.1,2.4l0,0.1h-1.2c0-0.6-0.3-1.2-0.8-1.7
		s-1.3-0.7-2.2-0.7c-0.9,0-1.6,0.2-2.1,0.6c-0.5,0.4-0.7,0.9-0.7,1.4c0,0.5,0.2,1,0.6,1.3c0.4,0.3,1.2,0.7,2.4,0.9
		c1.4,0.3,2.4,0.7,3.1,1.3c0.7,0.5,1,1.3,1,2.2c0,1-0.4,1.8-1.2,2.4c-0.8,0.6-1.8,0.9-3.1,0.9c-1.4,0-2.5-0.3-3.3-1
		s-1.2-1.5-1.1-2.4l0-0.1h1.2c0,0.8,0.4,1.4,1,1.8c0.6,0.4,1.4,0.6,2.2,0.6c0.9,0,1.7-0.2,2.2-0.6S396.4,428.8,396.4,428.2z"/>
	<path class="st3" d="M408,431.1c-0.1-0.4-0.1-0.7-0.2-1c0-0.3-0.1-0.6-0.1-0.9c-0.4,0.6-1,1.1-1.7,1.5c-0.7,0.4-1.5,0.6-2.4,0.6
		c-1.1,0-2-0.3-2.6-0.9s-0.9-1.4-0.9-2.4c0-1.1,0.5-1.9,1.4-2.6s2.2-1,3.8-1h2.6v-1.4c0-0.8-0.3-1.5-0.8-2c-0.5-0.5-1.3-0.7-2.2-0.7
		c-0.9,0-1.6,0.2-2.2,0.7c-0.6,0.5-0.9,1-0.9,1.7l-1.2,0l0-0.1c0-0.9,0.4-1.6,1.2-2.3c0.8-0.7,1.9-1,3.2-1c1.3,0,2.3,0.3,3.1,1
		c0.8,0.7,1.2,1.6,1.2,2.8v5.7c0,0.4,0,0.8,0.1,1.2c0,0.4,0.1,0.8,0.2,1.1H408z M403.8,430.2c0.9,0,1.7-0.2,2.4-0.6s1.2-1,1.5-1.7
		v-2.4h-2.6c-1.2,0-2.1,0.2-2.8,0.7c-0.7,0.5-1,1.1-1,1.9c0,0.6,0.2,1.1,0.6,1.5C402.4,430,403,430.2,403.8,430.2z"/>
	<path class="st3" d="M413.6,419.5l0.1,2c0.4-0.7,0.9-1.3,1.5-1.7c0.6-0.4,1.4-0.6,2.2-0.6c1.3,0,2.2,0.4,2.9,1.2s1,2,1,3.6v7.1
		h-1.3v-7.1c0-1.3-0.2-2.3-0.7-2.8c-0.5-0.6-1.2-0.8-2.1-0.8c-0.9,0-1.6,0.2-2.2,0.7c-0.6,0.5-1,1.1-1.2,1.9v8.1h-1.3v-11.6H413.6z"
		/>
	<path class="st3" d="M432.1,431.1c-0.1-0.4-0.1-0.7-0.2-1c0-0.3-0.1-0.6-0.1-0.9c-0.4,0.6-1,1.1-1.7,1.5c-0.7,0.4-1.5,0.6-2.4,0.6
		c-1.1,0-2-0.3-2.6-0.9s-0.9-1.4-0.9-2.4c0-1.1,0.5-1.9,1.4-2.6s2.2-1,3.8-1h2.6v-1.4c0-0.8-0.3-1.5-0.8-2c-0.5-0.5-1.3-0.7-2.2-0.7
		c-0.9,0-1.6,0.2-2.2,0.7c-0.6,0.5-0.9,1-0.9,1.7l-1.2,0l0-0.1c0-0.9,0.4-1.6,1.2-2.3c0.8-0.7,1.9-1,3.2-1c1.3,0,2.3,0.3,3.1,1
		c0.8,0.7,1.2,1.6,1.2,2.8v5.7c0,0.4,0,0.8,0.1,1.2c0,0.4,0.1,0.8,0.2,1.1H432.1z M427.9,430.2c0.9,0,1.7-0.2,2.4-0.6s1.2-1,1.5-1.7
		v-2.4h-2.6c-1.2,0-2.1,0.2-2.8,0.7c-0.7,0.5-1,1.1-1,1.9c0,0.6,0.2,1.1,0.6,1.5C426.5,430,427.1,430.2,427.9,430.2z"/>
	<path class="st3" d="M451.3,425.7c0,1.7-0.4,3.1-1.2,4.2c-0.8,1-1.9,1.6-3.3,1.6c-0.8,0-1.5-0.2-2.1-0.5s-1.1-0.7-1.5-1.3v6h-1.3
		v-16.1h1.1l0.2,1.8c0.4-0.6,0.9-1.1,1.5-1.5c0.6-0.4,1.3-0.5,2.2-0.5c1.4,0,2.5,0.6,3.3,1.7s1.2,2.6,1.2,4.5V425.7z M450,425.4
		c0-1.5-0.3-2.7-0.9-3.6c-0.6-0.9-1.4-1.4-2.6-1.4c-0.9,0-1.6,0.2-2.1,0.6s-0.9,0.9-1.2,1.6v5.6c0.3,0.6,0.7,1.1,1.3,1.5
		c0.6,0.4,1.2,0.5,2.1,0.5c1.1,0,2-0.4,2.6-1.3s0.9-2,0.9-3.4V425.4z"/>
	<path class="st3" d="M461.5,431.1c-0.1-0.4-0.1-0.7-0.2-1c0-0.3-0.1-0.6-0.1-0.9c-0.4,0.6-1,1.1-1.7,1.5c-0.7,0.4-1.5,0.6-2.4,0.6
		c-1.1,0-2-0.3-2.6-0.9s-0.9-1.4-0.9-2.4c0-1.1,0.5-1.9,1.4-2.6s2.2-1,3.8-1h2.6v-1.4c0-0.8-0.3-1.5-0.8-2c-0.5-0.5-1.3-0.7-2.2-0.7
		c-0.9,0-1.6,0.2-2.2,0.7c-0.6,0.5-0.9,1-0.9,1.7l-1.2,0l0-0.1c0-0.9,0.4-1.6,1.2-2.3c0.8-0.7,1.9-1,3.2-1c1.3,0,2.3,0.3,3.1,1
		c0.8,0.7,1.2,1.6,1.2,2.8v5.7c0,0.4,0,0.8,0.1,1.2c0,0.4,0.1,0.8,0.2,1.1H461.5z M457.3,430.2c0.9,0,1.7-0.2,2.4-0.6s1.2-1,1.5-1.7
		v-2.4h-2.6c-1.2,0-2.1,0.2-2.8,0.7c-0.7,0.5-1,1.1-1,1.9c0,0.6,0.2,1.1,0.6,1.5C455.9,430,456.5,430.2,457.3,430.2z"/>
	<path class="st3" d="M471.3,420.6l-1-0.1c-0.8,0-1.5,0.2-2,0.7c-0.5,0.5-0.9,1.1-1.1,1.9v8H466v-11.6h1.1l0.2,1.9v0.1
		c0.3-0.7,0.8-1.3,1.4-1.7c0.6-0.4,1.2-0.6,2-0.6c0.2,0,0.3,0,0.5,0s0.3,0.1,0.4,0.1L471.3,420.6z"/>
	<path class="st3" d="M480.8,431.1c-0.1-0.4-0.1-0.7-0.2-1c0-0.3-0.1-0.6-0.1-0.9c-0.4,0.6-1,1.1-1.7,1.5c-0.7,0.4-1.5,0.6-2.4,0.6
		c-1.1,0-2-0.3-2.6-0.9s-0.9-1.4-0.9-2.4c0-1.1,0.5-1.9,1.4-2.6s2.2-1,3.8-1h2.6v-1.4c0-0.8-0.3-1.5-0.8-2c-0.5-0.5-1.3-0.7-2.2-0.7
		c-0.9,0-1.6,0.2-2.2,0.7c-0.6,0.5-0.9,1-0.9,1.7l-1.2,0l0-0.1c0-0.9,0.4-1.6,1.2-2.3c0.8-0.7,1.9-1,3.2-1c1.3,0,2.3,0.3,3.1,1
		c0.8,0.7,1.2,1.6,1.2,2.8v5.7c0,0.4,0,0.8,0.1,1.2c0,0.4,0.1,0.8,0.2,1.1H480.8z M476.6,430.2c0.9,0,1.7-0.2,2.4-0.6s1.2-1,1.5-1.7
		v-2.4H478c-1.2,0-2.1,0.2-2.8,0.7c-0.7,0.5-1,1.1-1,1.9c0,0.6,0.2,1.1,0.6,1.5C475.2,430,475.8,430.2,476.6,430.2z"/>
</g>
<g class="st1">
	<path class="st3" d="M494.9,416.5v3h2.6v1.1h-2.6v7.6c0,0.8,0.1,1.3,0.4,1.6c0.3,0.3,0.6,0.5,1.1,0.5c0.2,0,0.4,0,0.6,0
		c0.2,0,0.4,0,0.7-0.1l0.2,1c-0.2,0.1-0.5,0.2-0.8,0.2c-0.3,0-0.6,0.1-0.9,0.1c-0.8,0-1.5-0.3-1.9-0.8c-0.5-0.5-0.7-1.3-0.7-2.4
		v-7.6h-2v-1.1h2v-3H494.9z"/>
</g>
<g class="st1">
	<path class="st3" d="M499.4,425.2c0-1.7,0.5-3.1,1.4-4.2s2.2-1.6,3.7-1.6c1.6,0,2.8,0.5,3.7,1.6c0.9,1.1,1.4,2.5,1.4,4.2v0.4
		c0,1.7-0.5,3.1-1.4,4.2s-2.2,1.6-3.7,1.6c-1.6,0-2.8-0.5-3.7-1.6s-1.4-2.5-1.4-4.2V425.2z M500.7,425.5c0,1.3,0.3,2.5,1,3.4
		c0.7,0.9,1.6,1.4,2.8,1.4c1.2,0,2.1-0.5,2.8-1.4c0.7-0.9,1-2,1-3.4v-0.4c0-1.3-0.3-2.4-1-3.4c-0.7-0.9-1.6-1.4-2.8-1.4
		c-1.2,0-2.1,0.5-2.8,1.4c-0.7,0.9-1,2-1,3.4V425.5z"/>
	<path class="st3" d="M511.9,425.4c0-1.9,0.4-3.3,1.2-4.5s1.9-1.7,3.3-1.7c0.8,0,1.5,0.2,2.1,0.5c0.6,0.3,1.1,0.8,1.5,1.5v-6.9h1.3
		v16.8h-1.1l-0.1-1.7c-0.4,0.6-0.9,1.1-1.5,1.4c-0.6,0.3-1.3,0.5-2.1,0.5c-1.4,0-2.5-0.5-3.3-1.6c-0.8-1-1.2-2.4-1.2-4.2V425.4z
		 M513.2,425.7c0,1.4,0.3,2.5,0.8,3.4c0.6,0.8,1.4,1.3,2.5,1.3c0.8,0,1.5-0.2,2.1-0.6s1-0.9,1.3-1.6v-5.5c-0.3-0.7-0.7-1.2-1.2-1.6
		c-0.5-0.4-1.2-0.6-2.1-0.6c-1.1,0-2,0.5-2.6,1.4c-0.6,0.9-0.9,2.1-0.9,3.6V425.7z"/>
	<path class="st3" d="M532,431.1c-0.1-0.4-0.1-0.7-0.2-1c0-0.3-0.1-0.6-0.1-0.9c-0.4,0.6-1,1.1-1.7,1.5c-0.7,0.4-1.5,0.6-2.4,0.6
		c-1.1,0-2-0.3-2.6-0.9c-0.6-0.6-0.9-1.4-0.9-2.4c0-1.1,0.5-1.9,1.4-2.6c0.9-0.6,2.2-1,3.8-1h2.6v-1.4c0-0.8-0.3-1.5-0.8-2
		s-1.3-0.7-2.2-0.7c-0.9,0-1.6,0.2-2.2,0.7c-0.6,0.5-0.9,1-0.9,1.7l-1.2,0l0-0.1c0-0.9,0.4-1.6,1.2-2.3c0.8-0.7,1.9-1,3.2-1
		c1.3,0,2.3,0.3,3.1,1c0.8,0.7,1.2,1.6,1.2,2.8v5.7c0,0.4,0,0.8,0.1,1.2s0.1,0.8,0.2,1.1H532z M527.8,430.2c0.9,0,1.7-0.2,2.4-0.6
		s1.2-1,1.5-1.7v-2.4h-2.6c-1.2,0-2.1,0.2-2.8,0.7c-0.7,0.5-1,1.1-1,1.9c0,0.6,0.2,1.1,0.7,1.5C526.4,430,527,430.2,527.8,430.2z"/>
	<path class="st3" d="M543.4,428.2c0-0.5-0.2-1-0.7-1.4c-0.4-0.4-1.3-0.7-2.4-1c-1.4-0.3-2.4-0.7-3.1-1.2c-0.7-0.5-1-1.2-1-2.1
		c0-0.9,0.4-1.6,1.1-2.2c0.7-0.6,1.7-0.9,3-0.9c1.3,0,2.3,0.3,3.1,1c0.8,0.6,1.1,1.5,1.1,2.4l0,0.1h-1.2c0-0.6-0.3-1.2-0.8-1.7
		s-1.3-0.7-2.2-0.7c-0.9,0-1.6,0.2-2.1,0.6c-0.5,0.4-0.7,0.9-0.7,1.4c0,0.5,0.2,1,0.6,1.3c0.4,0.3,1.2,0.7,2.4,0.9
		c1.4,0.3,2.4,0.7,3.1,1.3s1,1.3,1,2.2c0,1-0.4,1.8-1.2,2.4c-0.8,0.6-1.8,0.9-3.1,0.9c-1.4,0-2.5-0.3-3.3-1s-1.2-1.5-1.1-2.4l0-0.1
		h1.2c0.1,0.8,0.4,1.4,1,1.8s1.4,0.6,2.2,0.6c0.9,0,1.7-0.2,2.2-0.6S543.4,428.8,543.4,428.2z"/>
	<path class="st3" d="M560.4,431.1c-0.1-0.4-0.1-0.7-0.2-1c0-0.3-0.1-0.6-0.1-0.9c-0.4,0.6-1,1.1-1.7,1.5c-0.7,0.4-1.5,0.6-2.4,0.6
		c-1.1,0-2-0.3-2.6-0.9s-0.9-1.4-0.9-2.4c0-1.1,0.5-1.9,1.4-2.6s2.2-1,3.8-1h2.6v-1.4c0-0.8-0.3-1.5-0.8-2c-0.5-0.5-1.3-0.7-2.2-0.7
		c-0.9,0-1.6,0.2-2.2,0.7c-0.6,0.5-0.9,1-0.9,1.7l-1.2,0l0-0.1c0-0.9,0.4-1.6,1.2-2.3s1.9-1,3.2-1c1.3,0,2.3,0.3,3.1,1
		c0.8,0.7,1.2,1.6,1.2,2.8v5.7c0,0.4,0,0.8,0.1,1.2s0.1,0.8,0.2,1.1H560.4z M556.2,430.2c0.9,0,1.7-0.2,2.4-0.6s1.2-1,1.5-1.7v-2.4
		h-2.6c-1.2,0-2.1,0.2-2.8,0.7c-0.7,0.5-1,1.1-1,1.9c0,0.6,0.2,1.1,0.7,1.5S555.4,430.2,556.2,430.2z"/>
	<path class="st3" d="M564.3,425.4c0-1.9,0.4-3.3,1.2-4.5c0.8-1.1,1.9-1.7,3.3-1.7c0.8,0,1.5,0.2,2.1,0.5c0.6,0.3,1.1,0.8,1.5,1.4
		l0.1-1.7h1.1v16.1h-1.3v-6c-0.4,0.6-0.9,1-1.5,1.3s-1.3,0.5-2.1,0.5c-1.4,0-2.5-0.5-3.3-1.6c-0.8-1-1.2-2.4-1.2-4.2V425.4z
		 M565.6,425.6c0,1.4,0.3,2.5,0.8,3.4c0.6,0.8,1.4,1.3,2.5,1.3c0.8,0,1.5-0.2,2-0.5c0.5-0.4,1-0.9,1.3-1.5v-5.7
		c-0.3-0.6-0.7-1.2-1.2-1.6c-0.5-0.4-1.2-0.6-2-0.6c-1.1,0-2,0.5-2.6,1.4c-0.6,0.9-0.9,2.1-0.9,3.6V425.6z"/>
	<path class="st3" d="M584.7,429.2c-0.4,0.7-0.9,1.2-1.5,1.6c-0.6,0.4-1.4,0.6-2.2,0.6c-1.2,0-2.2-0.4-2.9-1.2c-0.7-0.8-1-2.1-1-3.9
		v-6.7h1.3v6.8c0,1.4,0.2,2.4,0.7,3.1c0.5,0.6,1.2,0.9,2.1,0.9c1,0,1.8-0.2,2.3-0.7s1-1,1.2-1.8v-8.3h1.3v11.6h-1.1L584.7,429.2z"/>
	<path class="st3" d="M593.7,431.4c-1.5,0-2.7-0.5-3.6-1.6s-1.4-2.4-1.4-4.1v-0.6c0-1.7,0.5-3,1.4-4.1c1-1.1,2.1-1.6,3.5-1.6
		c1.4,0,2.5,0.5,3.4,1.4c0.8,0.9,1.2,2.1,1.2,3.6v1.1h-8.2v0.3c0,1.3,0.3,2.4,1,3.3c0.7,0.9,1.6,1.3,2.7,1.3c0.8,0,1.5-0.1,2.1-0.3
		c0.6-0.2,1-0.5,1.4-1l0.5,0.9c-0.4,0.5-1,0.8-1.7,1.1C595.4,431.2,594.6,431.4,593.7,431.4z M593.5,420.4c-1,0-1.8,0.4-2.4,1.1
		c-0.6,0.7-1,1.6-1.1,2.7l0,0.1h6.8v-0.3c0-1-0.3-1.8-0.9-2.5S594.5,420.4,593.5,420.4z"/>
	<path class="st3" d="M602.1,431.1h-1.3v-16.8h1.3V431.1z"/>
	<path class="st3" d="M607.1,431.1h-1.3v-16.8h1.3V431.1z"/>
	<path class="st3" d="M618,431.1c-0.1-0.4-0.1-0.7-0.2-1c0-0.3-0.1-0.6-0.1-0.9c-0.4,0.6-1,1.1-1.7,1.5c-0.7,0.4-1.5,0.6-2.4,0.6
		c-1.1,0-2-0.3-2.6-0.9c-0.6-0.6-0.9-1.4-0.9-2.4c0-1.1,0.5-1.9,1.4-2.6c0.9-0.6,2.2-1,3.8-1h2.6v-1.4c0-0.8-0.3-1.5-0.8-2
		c-0.5-0.5-1.3-0.7-2.2-0.7c-0.9,0-1.6,0.2-2.2,0.7c-0.6,0.5-0.9,1-0.9,1.7l-1.2,0l0-0.1c0-0.9,0.4-1.6,1.2-2.3s1.9-1,3.2-1
		c1.3,0,2.3,0.3,3.1,1c0.8,0.7,1.2,1.6,1.2,2.8v5.7c0,0.4,0,0.8,0.1,1.2c0,0.4,0.1,0.8,0.2,1.1H618z M613.8,430.2
		c0.9,0,1.7-0.2,2.4-0.6s1.2-1,1.5-1.7v-2.4h-2.6c-1.2,0-2.1,0.2-2.8,0.7c-0.7,0.5-1,1.1-1,1.9c0,0.6,0.2,1.1,0.6,1.5
		S613,430.2,613.8,430.2z"/>
	<path class="st3" d="M629.4,428.2c0-0.5-0.2-1-0.7-1.4c-0.4-0.4-1.3-0.7-2.4-1c-1.4-0.3-2.4-0.7-3.1-1.2s-1-1.2-1-2.1
		c0-0.9,0.4-1.6,1.1-2.2s1.7-0.9,3-0.9c1.3,0,2.3,0.3,3.1,1c0.8,0.6,1.1,1.5,1.1,2.4l0,0.1h-1.2c0-0.6-0.3-1.2-0.8-1.7
		s-1.3-0.7-2.2-0.7c-0.9,0-1.6,0.2-2.1,0.6c-0.5,0.4-0.7,0.9-0.7,1.4c0,0.5,0.2,1,0.6,1.3c0.4,0.3,1.2,0.7,2.4,0.9
		c1.4,0.3,2.4,0.7,3.1,1.3c0.7,0.5,1,1.3,1,2.2c0,1-0.4,1.8-1.2,2.4c-0.8,0.6-1.8,0.9-3.1,0.9c-1.4,0-2.5-0.3-3.3-1
		s-1.2-1.5-1.1-2.4l0-0.1h1.2c0,0.8,0.4,1.4,1,1.8c0.6,0.4,1.4,0.6,2.2,0.6c0.9,0,1.7-0.2,2.2-0.6S629.4,428.8,629.4,428.2z"/>
</g>
<g class="st1">
	<path class="st3" d="M68.7,452c0,1.7-0.4,3.1-1.2,4.2c-0.8,1-1.9,1.6-3.3,1.6c-0.8,0-1.5-0.2-2.1-0.5s-1.1-0.7-1.5-1.3v6h-1.3
		v-16.1h1.1l0.2,1.8c0.4-0.6,0.9-1.1,1.5-1.5c0.6-0.4,1.3-0.5,2.2-0.5c1.4,0,2.5,0.6,3.3,1.7s1.2,2.6,1.2,4.5V452z M67.4,451.8
		c0-1.5-0.3-2.7-0.9-3.6c-0.6-0.9-1.4-1.4-2.6-1.4c-0.9,0-1.6,0.2-2.1,0.6s-0.9,0.9-1.2,1.6v5.6c0.3,0.6,0.7,1.1,1.3,1.5
		c0.6,0.4,1.2,0.5,2.1,0.5c1.1,0,2-0.4,2.6-1.3s0.9-2,0.9-3.4V451.8z"/>
	<path class="st3" d="M76,457.8c-1.5,0-2.7-0.5-3.6-1.6s-1.4-2.4-1.4-4.1v-0.6c0-1.7,0.5-3,1.4-4.1s2.1-1.6,3.5-1.6
		c1.4,0,2.5,0.5,3.4,1.4c0.8,0.9,1.2,2.1,1.2,3.6v1.1h-8.2v0.3c0,1.3,0.3,2.4,1,3.3c0.7,0.9,1.6,1.3,2.7,1.3c0.8,0,1.5-0.1,2.1-0.3
		c0.6-0.2,1-0.5,1.4-1l0.5,0.9c-0.4,0.5-1,0.8-1.7,1.1C77.7,457.6,76.9,457.8,76,457.8z M75.8,446.8c-1,0-1.8,0.4-2.4,1.1
		c-0.6,0.7-1,1.6-1.1,2.7l0,0.1h6.8v-0.3c0-1-0.3-1.8-0.9-2.5C77.6,447.1,76.8,446.8,75.8,446.8z"/>
	<path class="st3" d="M88.3,447l-1-0.1c-0.8,0-1.5,0.2-2,0.7c-0.5,0.5-0.9,1.1-1.1,1.9v8H83v-11.6h1.1l0.2,1.9v0.1
		c0.3-0.7,0.8-1.3,1.4-1.7c0.6-0.4,1.2-0.6,2-0.6c0.2,0,0.3,0,0.5,0s0.3,0.1,0.4,0.1L88.3,447z"/>
	<path class="st3" d="M97.4,454.6c0-0.5-0.2-1-0.7-1.4c-0.4-0.4-1.3-0.7-2.4-1c-1.4-0.3-2.4-0.7-3.1-1.2c-0.7-0.5-1-1.2-1-2.1
		c0-0.9,0.4-1.6,1.1-2.2c0.7-0.6,1.7-0.9,3-0.9c1.3,0,2.3,0.3,3.1,1c0.8,0.6,1.1,1.5,1.1,2.4l0,0.1h-1.2c0-0.6-0.3-1.2-0.8-1.7
		s-1.3-0.7-2.2-0.7c-0.9,0-1.6,0.2-2.1,0.6c-0.5,0.4-0.7,0.9-0.7,1.4c0,0.5,0.2,1,0.6,1.3c0.4,0.3,1.2,0.7,2.4,0.9
		c1.4,0.3,2.4,0.7,3.1,1.3c0.7,0.5,1,1.3,1,2.2c0,1-0.4,1.8-1.2,2.4c-0.8,0.6-1.8,0.9-3.1,0.9c-1.4,0-2.5-0.3-3.3-1
		s-1.2-1.5-1.1-2.4l0-0.1h1.2c0,0.8,0.4,1.4,1,1.8c0.6,0.4,1.4,0.6,2.2,0.6c0.9,0,1.7-0.2,2.2-0.6S97.4,455.2,97.4,454.6z"/>
	<path class="st3" d="M100.9,451.6c0-1.7,0.5-3.1,1.4-4.2s2.2-1.6,3.7-1.6c1.6,0,2.8,0.5,3.7,1.6s1.4,2.5,1.4,4.2v0.4
		c0,1.7-0.5,3.1-1.4,4.2s-2.2,1.6-3.7,1.6c-1.6,0-2.8-0.5-3.7-1.6s-1.4-2.5-1.4-4.2V451.6z M102.2,451.9c0,1.3,0.3,2.5,1,3.4
		c0.7,0.9,1.6,1.4,2.8,1.4c1.2,0,2.1-0.5,2.8-1.4c0.7-0.9,1-2,1-3.4v-0.4c0-1.3-0.3-2.4-1-3.4c-0.7-0.9-1.6-1.4-2.8-1.4
		c-1.2,0-2.1,0.5-2.8,1.4c-0.7,0.9-1,2-1,3.4V451.9z"/>
	<path class="st3" d="M115,445.9l0.1,2c0.4-0.7,0.9-1.3,1.5-1.7c0.6-0.4,1.4-0.6,2.2-0.6c1.3,0,2.2,0.4,2.9,1.2s1,2,1,3.6v7.1h-1.3
		v-7.1c0-1.3-0.2-2.3-0.7-2.8c-0.5-0.6-1.2-0.8-2.1-0.8c-0.9,0-1.6,0.2-2.2,0.7c-0.6,0.5-1,1.1-1.2,1.9v8.1h-1.3v-11.6H115z"/>
	<path class="st3" d="M133.5,457.5c-0.1-0.4-0.1-0.7-0.2-1c0-0.3-0.1-0.6-0.1-0.9c-0.4,0.6-1,1.1-1.7,1.5c-0.7,0.4-1.5,0.6-2.4,0.6
		c-1.1,0-2-0.3-2.6-0.9s-0.9-1.4-0.9-2.4c0-1.1,0.5-1.9,1.4-2.6s2.2-1,3.8-1h2.6v-1.4c0-0.8-0.3-1.5-0.8-2c-0.5-0.5-1.3-0.7-2.2-0.7
		c-0.9,0-1.6,0.2-2.2,0.7c-0.6,0.5-0.9,1-0.9,1.7l-1.2,0l0-0.1c0-0.9,0.4-1.6,1.2-2.3c0.8-0.7,1.9-1,3.2-1c1.3,0,2.3,0.3,3.1,1
		c0.8,0.7,1.2,1.6,1.2,2.8v5.7c0,0.4,0,0.8,0.1,1.2c0,0.4,0.1,0.8,0.2,1.1H133.5z M129.3,456.6c0.9,0,1.7-0.2,2.4-0.6s1.2-1,1.5-1.7
		v-2.4h-2.6c-1.2,0-2.1,0.2-2.8,0.7c-0.7,0.5-1,1.1-1,1.9c0,0.6,0.2,1.1,0.6,1.5C127.9,456.4,128.5,456.6,129.3,456.6z"/>
	<path class="st3" d="M144.9,454.6c0-0.5-0.2-1-0.7-1.4c-0.4-0.4-1.3-0.7-2.4-1c-1.4-0.3-2.4-0.7-3.1-1.2c-0.7-0.5-1-1.2-1-2.1
		c0-0.9,0.4-1.6,1.1-2.2c0.7-0.6,1.7-0.9,3-0.9c1.3,0,2.3,0.3,3.1,1c0.8,0.6,1.1,1.5,1.1,2.4l0,0.1h-1.2c0-0.6-0.3-1.2-0.8-1.7
		s-1.3-0.7-2.2-0.7c-0.9,0-1.6,0.2-2.1,0.6c-0.5,0.4-0.7,0.9-0.7,1.4c0,0.5,0.2,1,0.6,1.3c0.4,0.3,1.2,0.7,2.4,0.9
		c1.4,0.3,2.4,0.7,3.1,1.3c0.7,0.5,1,1.3,1,2.2c0,1-0.4,1.8-1.2,2.4c-0.8,0.6-1.8,0.9-3.1,0.9c-1.4,0-2.5-0.3-3.3-1
		s-1.2-1.5-1.1-2.4l0-0.1h1.2c0,0.8,0.4,1.4,1,1.8c0.6,0.4,1.4,0.6,2.2,0.6c0.9,0,1.7-0.2,2.2-0.6S144.9,455.2,144.9,454.6z"/>
	<path class="st3" d="M154,451.8c0-1.9,0.4-3.3,1.2-4.5s1.9-1.7,3.3-1.7c0.8,0,1.5,0.2,2.1,0.5c0.6,0.3,1.1,0.8,1.5,1.4l0.1-1.7h1.1
		V462H162v-6c-0.4,0.6-0.9,1-1.5,1.3s-1.3,0.5-2.1,0.5c-1.4,0-2.5-0.5-3.3-1.6c-0.8-1-1.2-2.4-1.2-4.2V451.8z M155.3,452
		c0,1.4,0.3,2.5,0.8,3.4c0.6,0.8,1.4,1.3,2.5,1.3c0.8,0,1.5-0.2,2-0.5c0.5-0.4,1-0.9,1.3-1.5V449c-0.3-0.6-0.7-1.2-1.3-1.6
		c-0.5-0.4-1.2-0.6-2-0.6c-1.1,0-2,0.5-2.6,1.4c-0.6,0.9-0.9,2.1-0.9,3.6V452z"/>
	<path class="st3" d="M174.4,455.6c-0.4,0.7-0.9,1.2-1.5,1.6c-0.6,0.4-1.4,0.6-2.2,0.6c-1.2,0-2.2-0.4-2.9-1.2c-0.7-0.8-1-2.1-1-3.9
		v-6.7h1.3v6.8c0,1.4,0.2,2.4,0.7,3.1c0.5,0.6,1.2,0.9,2.1,0.9c1,0,1.8-0.2,2.3-0.7s1-1,1.2-1.8v-8.3h1.3v11.6h-1.1L174.4,455.6z"/>
	<path class="st3" d="M183.4,457.8c-1.5,0-2.7-0.5-3.6-1.6s-1.4-2.4-1.4-4.1v-0.6c0-1.7,0.5-3,1.4-4.1s2.1-1.6,3.5-1.6
		c1.4,0,2.5,0.5,3.4,1.4c0.8,0.9,1.2,2.1,1.2,3.6v1.1h-8.2v0.3c0,1.3,0.3,2.4,1,3.3c0.7,0.9,1.6,1.3,2.7,1.3c0.8,0,1.5-0.1,2.1-0.3
		c0.6-0.2,1-0.5,1.4-1l0.5,0.9c-0.4,0.5-1,0.8-1.7,1.1C185.1,457.6,184.3,457.8,183.4,457.8z M183.2,446.8c-1,0-1.8,0.4-2.4,1.1
		c-0.6,0.7-1,1.6-1.1,2.7l0,0.1h6.8v-0.3c0-1-0.3-1.8-0.9-2.5C185,447.1,184.2,446.8,183.2,446.8z"/>
	<path class="st3" d="M195.2,451.8c0-1.9,0.4-3.3,1.2-4.5s1.9-1.7,3.3-1.7c0.8,0,1.5,0.2,2.1,0.5s1.1,0.8,1.5,1.5v-6.9h1.3v16.8
		h-1.1l-0.1-1.7c-0.4,0.6-0.9,1.1-1.5,1.4c-0.6,0.3-1.3,0.5-2.1,0.5c-1.4,0-2.5-0.5-3.3-1.6c-0.8-1-1.2-2.4-1.2-4.2V451.8z
		 M196.5,452c0,1.4,0.3,2.5,0.8,3.4c0.6,0.8,1.4,1.3,2.5,1.3c0.8,0,1.5-0.2,2.1-0.6c0.6-0.4,1-0.9,1.3-1.6v-5.5
		c-0.3-0.7-0.7-1.2-1.2-1.6c-0.5-0.4-1.2-0.6-2.1-0.6c-1.1,0-2,0.5-2.6,1.4c-0.6,0.9-0.9,2.1-0.9,3.6V452z"/>
	<path class="st3" d="M212.3,457.8c-1.5,0-2.7-0.5-3.6-1.6s-1.4-2.4-1.4-4.1v-0.6c0-1.7,0.5-3,1.4-4.1s2.1-1.6,3.5-1.6
		c1.4,0,2.5,0.5,3.4,1.4c0.8,0.9,1.2,2.1,1.2,3.6v1.1h-8.2v0.3c0,1.3,0.3,2.4,1,3.3c0.7,0.9,1.6,1.3,2.7,1.3c0.8,0,1.5-0.1,2.1-0.3
		c0.6-0.2,1-0.5,1.4-1l0.5,0.9c-0.4,0.5-1,0.8-1.7,1.1C214,457.6,213.2,457.8,212.3,457.8z M212.1,446.8c-1,0-1.8,0.4-2.4,1.1
		c-0.6,0.7-1,1.6-1.1,2.7l0,0.1h6.8v-0.3c0-1-0.3-1.8-0.9-2.5C213.9,447.1,213.1,446.8,212.1,446.8z"/>
	<path class="st3" d="M226.2,454.6c0-0.5-0.2-1-0.7-1.4c-0.4-0.4-1.3-0.7-2.4-1c-1.4-0.3-2.4-0.7-3.1-1.2c-0.7-0.5-1-1.2-1-2.1
		c0-0.9,0.4-1.6,1.1-2.2c0.7-0.6,1.7-0.9,3-0.9c1.3,0,2.3,0.3,3.1,1c0.8,0.6,1.1,1.5,1.1,2.4l0,0.1h-1.2c0-0.6-0.3-1.2-0.8-1.7
		s-1.3-0.7-2.2-0.7c-0.9,0-1.6,0.2-2.1,0.6c-0.5,0.4-0.7,0.9-0.7,1.4c0,0.5,0.2,1,0.6,1.3c0.4,0.3,1.2,0.7,2.4,0.9
		c1.4,0.3,2.4,0.7,3.1,1.3c0.7,0.5,1,1.3,1,2.2c0,1-0.4,1.8-1.2,2.4c-0.8,0.6-1.8,0.9-3.1,0.9c-1.4,0-2.5-0.3-3.3-1
		s-1.2-1.5-1.1-2.4l0-0.1h1.2c0,0.8,0.4,1.4,1,1.8c0.6,0.4,1.4,0.6,2.2,0.6c0.9,0,1.7-0.2,2.2-0.6S226.2,455.2,226.2,454.6z"/>
	<path class="st3" d="M234.8,457.8c-1.5,0-2.7-0.5-3.6-1.6s-1.4-2.4-1.4-4.1v-0.6c0-1.7,0.5-3,1.4-4.1s2.1-1.6,3.5-1.6
		c1.4,0,2.5,0.5,3.4,1.4c0.8,0.9,1.2,2.1,1.2,3.6v1.1H231v0.3c0,1.3,0.3,2.4,1,3.3c0.7,0.9,1.6,1.3,2.7,1.3c0.8,0,1.5-0.1,2.1-0.3
		c0.6-0.2,1-0.5,1.4-1l0.5,0.9c-0.4,0.5-1,0.8-1.7,1.1C236.5,457.6,235.7,457.8,234.8,457.8z M234.6,446.8c-1,0-1.8,0.4-2.4,1.1
		c-0.6,0.7-1,1.6-1.1,2.7l0,0.1h6.8v-0.3c0-1-0.3-1.8-0.9-2.5C236.5,447.1,235.7,446.8,234.6,446.8z"/>
	<path class="st3" d="M249.1,457.5c-0.1-0.4-0.1-0.7-0.2-1c0-0.3-0.1-0.6-0.1-0.9c-0.4,0.6-1,1.1-1.7,1.5c-0.7,0.4-1.5,0.6-2.4,0.6
		c-1.1,0-2-0.3-2.6-0.9s-0.9-1.4-0.9-2.4c0-1.1,0.5-1.9,1.4-2.6s2.2-1,3.8-1h2.6v-1.4c0-0.8-0.3-1.5-0.8-2c-0.5-0.5-1.3-0.7-2.2-0.7
		c-0.9,0-1.6,0.2-2.2,0.7c-0.6,0.5-0.9,1-0.9,1.7l-1.2,0l0-0.1c0-0.9,0.4-1.6,1.2-2.3c0.8-0.7,1.9-1,3.2-1c1.3,0,2.3,0.3,3.1,1
		c0.8,0.7,1.2,1.6,1.2,2.8v5.7c0,0.4,0,0.8,0.1,1.2c0,0.4,0.1,0.8,0.2,1.1H249.1z M244.9,456.6c0.9,0,1.7-0.2,2.4-0.6s1.2-1,1.5-1.7
		v-2.4h-2.6c-1.2,0-2.1,0.2-2.8,0.7c-0.7,0.5-1,1.1-1,1.9c0,0.6,0.2,1.1,0.6,1.5C243.5,456.4,244.1,456.6,244.9,456.6z"/>
	<path class="st3" d="M254.7,445.9l0.1,2c0.4-0.7,0.9-1.3,1.5-1.7c0.6-0.4,1.4-0.6,2.2-0.6c1.3,0,2.2,0.4,2.9,1.2s1,2,1,3.6v7.1
		h-1.3v-7.1c0-1.3-0.2-2.3-0.7-2.8c-0.5-0.6-1.2-0.8-2.1-0.8c-0.9,0-1.6,0.2-2.2,0.7c-0.6,0.5-1,1.1-1.2,1.9v8.1h-1.3v-11.6H254.7z"
		/>
	<path class="st3" d="M280.6,452c0,1.7-0.4,3.1-1.2,4.2c-0.8,1-1.9,1.6-3.3,1.6c-0.8,0-1.5-0.2-2.1-0.5s-1.1-0.7-1.5-1.3v6h-1.3
		v-16.1h1.1l0.2,1.8c0.4-0.6,0.9-1.1,1.5-1.5c0.6-0.4,1.3-0.5,2.2-0.5c1.4,0,2.5,0.6,3.3,1.7s1.2,2.6,1.2,4.5V452z M279.3,451.8
		c0-1.5-0.3-2.7-0.9-3.6c-0.6-0.9-1.4-1.4-2.6-1.4c-0.9,0-1.6,0.2-2.1,0.6s-0.9,0.9-1.2,1.6v5.6c0.3,0.6,0.7,1.1,1.3,1.5
		c0.6,0.4,1.2,0.5,2.1,0.5c1.1,0,2-0.4,2.6-1.3s0.9-2,0.9-3.4V451.8z"/>
	<path class="st3" d="M288.8,447l-1-0.1c-0.8,0-1.5,0.2-2,0.7c-0.5,0.5-0.9,1.1-1.1,1.9v8h-1.3v-11.6h1.1l0.2,1.9v0.1
		c0.3-0.7,0.8-1.3,1.4-1.7c0.6-0.4,1.2-0.6,2-0.6c0.2,0,0.3,0,0.5,0s0.3,0.1,0.4,0.1L288.8,447z"/>
	<path class="st3" d="M298.3,457.5c-0.1-0.4-0.1-0.7-0.2-1c0-0.3-0.1-0.6-0.1-0.9c-0.4,0.6-1,1.1-1.7,1.5c-0.7,0.4-1.5,0.6-2.4,0.6
		c-1.1,0-2-0.3-2.6-0.9s-0.9-1.4-0.9-2.4c0-1.1,0.5-1.9,1.4-2.6s2.2-1,3.8-1h2.6v-1.4c0-0.8-0.3-1.5-0.8-2c-0.5-0.5-1.3-0.7-2.2-0.7
		c-0.9,0-1.6,0.2-2.2,0.7c-0.6,0.5-0.9,1-0.9,1.7l-1.2,0l0-0.1c0-0.9,0.4-1.6,1.2-2.3c0.8-0.7,1.9-1,3.2-1c1.3,0,2.3,0.3,3.1,1
		c0.8,0.7,1.2,1.6,1.2,2.8v5.7c0,0.4,0,0.8,0.1,1.2c0,0.4,0.1,0.8,0.2,1.1H298.3z M294.1,456.6c0.9,0,1.7-0.2,2.4-0.6s1.2-1,1.5-1.7
		v-2.4h-2.6c-1.2,0-2.1,0.2-2.8,0.7c-0.7,0.5-1,1.1-1,1.9c0,0.6,0.2,1.1,0.6,1.5C292.7,456.4,293.3,456.6,294.1,456.6z"/>
	<path class="st3" d="M307.1,456.7c0.9,0,1.6-0.2,2.3-0.7c0.7-0.5,1-1.2,1-2h1.1l0,0.1c0,1.1-0.4,2-1.3,2.7
		c-0.9,0.7-1.9,1.1-3.1,1.1c-1.6,0-2.8-0.5-3.7-1.6s-1.3-2.5-1.3-4.2v-0.5c0-1.7,0.4-3.1,1.3-4.2c0.9-1.1,2.1-1.6,3.7-1.6
		c1.3,0,2.3,0.4,3.2,1.1c0.8,0.8,1.3,1.7,1.2,3l0,0.1h-1.1c0-0.9-0.3-1.7-0.9-2.2c-0.6-0.6-1.4-0.8-2.3-0.8c-1.2,0-2.2,0.4-2.8,1.3
		c-0.6,0.9-0.9,2-0.9,3.4v0.5c0,1.4,0.3,2.5,0.9,3.4C304.9,456.2,305.8,456.7,307.1,456.7z"/>
	<path class="st3" d="M316.2,442.9v3h2.6v1.1h-2.6v7.6c0,0.8,0.1,1.3,0.4,1.6c0.3,0.3,0.6,0.5,1.1,0.5c0.2,0,0.4,0,0.6,0
		c0.2,0,0.4,0,0.7-0.1l0.2,1c-0.2,0.1-0.5,0.2-0.8,0.2c-0.3,0-0.6,0.1-0.9,0.1c-0.8,0-1.5-0.3-1.9-0.8c-0.5-0.5-0.7-1.3-0.7-2.4V447
		h-2v-1.1h2v-3H316.2z"/>
	<path class="st3" d="M322.9,442.6h-1.3v-1.8h1.3V442.6z M322.9,457.5h-1.3v-11.6h1.3V457.5z"/>
	<path class="st3" d="M330.7,456.7c0.9,0,1.6-0.2,2.3-0.7c0.7-0.5,1-1.2,1-2h1.1l0,0.1c0,1.1-0.4,2-1.3,2.7
		c-0.9,0.7-1.9,1.1-3.1,1.1c-1.6,0-2.8-0.5-3.7-1.6s-1.3-2.5-1.3-4.2v-0.5c0-1.7,0.4-3.1,1.3-4.2c0.9-1.1,2.1-1.6,3.7-1.6
		c1.3,0,2.3,0.4,3.2,1.1c0.8,0.8,1.3,1.7,1.2,3l0,0.1H334c0-0.9-0.3-1.7-0.9-2.2c-0.6-0.6-1.4-0.8-2.3-0.8c-1.2,0-2.2,0.4-2.8,1.3
		c-0.6,0.9-0.9,2-0.9,3.4v0.5c0,1.4,0.3,2.5,0.9,3.4C328.6,456.2,329.5,456.7,330.7,456.7z"/>
	<path class="st3" d="M345.2,457.5c-0.1-0.4-0.1-0.7-0.2-1c0-0.3-0.1-0.6-0.1-0.9c-0.4,0.6-1,1.1-1.7,1.5c-0.7,0.4-1.5,0.6-2.4,0.6
		c-1.1,0-2-0.3-2.6-0.9s-0.9-1.4-0.9-2.4c0-1.1,0.5-1.9,1.4-2.6s2.2-1,3.8-1h2.6v-1.4c0-0.8-0.3-1.5-0.8-2c-0.5-0.5-1.3-0.7-2.2-0.7
		c-0.9,0-1.6,0.2-2.2,0.7c-0.6,0.5-0.9,1-0.9,1.7l-1.2,0l0-0.1c0-0.9,0.4-1.6,1.2-2.3c0.8-0.7,1.9-1,3.2-1c1.3,0,2.3,0.3,3.1,1
		c0.8,0.7,1.2,1.6,1.2,2.8v5.7c0,0.4,0,0.8,0.1,1.2c0,0.4,0.1,0.8,0.2,1.1H345.2z M341,456.6c0.9,0,1.7-0.2,2.4-0.6s1.2-1,1.5-1.7
		v-2.4h-2.6c-1.2,0-2.1,0.2-2.8,0.7c-0.7,0.5-1,1.1-1,1.9c0,0.6,0.2,1.1,0.6,1.5C339.6,456.4,340.2,456.6,341,456.6z"/>
	<path class="st3" d="M355,447l-1-0.1c-0.8,0-1.5,0.2-2,0.7c-0.5,0.5-0.9,1.1-1.1,1.9v8h-1.3v-11.6h1.1l0.2,1.9v0.1
		c0.3-0.7,0.8-1.3,1.4-1.7c0.6-0.4,1.2-0.6,2-0.6c0.2,0,0.3,0,0.5,0s0.3,0.1,0.4,0.1L355,447z"/>
	<path class="st3" d="M366.9,457.8c-1.5,0-2.7-0.5-3.6-1.6s-1.4-2.4-1.4-4.1v-0.6c0-1.7,0.5-3,1.4-4.1s2.1-1.6,3.5-1.6
		c1.4,0,2.5,0.5,3.4,1.4c0.8,0.9,1.2,2.1,1.2,3.6v1.1h-8.2v0.3c0,1.3,0.3,2.4,1,3.3c0.7,0.9,1.6,1.3,2.7,1.3c0.8,0,1.5-0.1,2.1-0.3
		c0.6-0.2,1-0.5,1.4-1l0.5,0.9c-0.4,0.5-1,0.8-1.7,1.1C368.6,457.6,367.8,457.8,366.9,457.8z M366.7,446.8c-1,0-1.8,0.4-2.4,1.1
		c-0.6,0.7-1,1.6-1.1,2.7l0,0.1h6.8v-0.3c0-1-0.3-1.8-0.9-2.5C368.5,447.1,367.7,446.8,366.7,446.8z"/>
	<path class="st3" d="M375.3,457.5H374v-16.8h1.3V457.5z"/>
	<path class="st3" d="M391.5,457.5c-0.1-0.4-0.1-0.7-0.2-1c0-0.3-0.1-0.6-0.1-0.9c-0.4,0.6-1,1.1-1.7,1.5c-0.7,0.4-1.5,0.6-2.4,0.6
		c-1.1,0-2-0.3-2.6-0.9s-0.9-1.4-0.9-2.4c0-1.1,0.5-1.9,1.4-2.6s2.2-1,3.8-1h2.6v-1.4c0-0.8-0.3-1.5-0.8-2c-0.5-0.5-1.3-0.7-2.2-0.7
		c-0.9,0-1.6,0.2-2.2,0.7c-0.6,0.5-0.9,1-0.9,1.7l-1.2,0l0-0.1c0-0.9,0.4-1.6,1.2-2.3c0.8-0.7,1.9-1,3.2-1c1.3,0,2.3,0.3,3.1,1
		c0.8,0.7,1.2,1.6,1.2,2.8v5.7c0,0.4,0,0.8,0.1,1.2c0,0.4,0.1,0.8,0.2,1.1H391.5z M387.3,456.6c0.9,0,1.7-0.2,2.4-0.6s1.2-1,1.5-1.7
		v-2.4h-2.6c-1.2,0-2.1,0.2-2.8,0.7c-0.7,0.5-1,1.1-1,1.9c0,0.6,0.2,1.1,0.6,1.5C385.9,456.4,386.5,456.6,387.3,456.6z"/>
	<path class="st3" d="M403.6,455.6c-0.4,0.7-0.9,1.2-1.5,1.6c-0.6,0.4-1.4,0.6-2.2,0.6c-1.2,0-2.2-0.4-2.9-1.2c-0.7-0.8-1-2.1-1-3.9
		v-6.7h1.3v6.8c0,1.4,0.2,2.4,0.7,3.1c0.5,0.6,1.2,0.9,2.1,0.9c1,0,1.8-0.2,2.3-0.7s1-1,1.2-1.8v-8.3h1.3v11.6h-1.1L403.6,455.6z"/>
</g>
<g class="st1">
	<path class="st3" d="M410.6,442.9v3h2.6v1.1h-2.6v7.6c0,0.8,0.1,1.3,0.4,1.6c0.3,0.3,0.6,0.5,1.1,0.5c0.2,0,0.4,0,0.6,0
		c0.2,0,0.4,0,0.7-0.1l0.2,1c-0.2,0.1-0.5,0.2-0.8,0.2c-0.3,0-0.6,0.1-0.9,0.1c-0.8,0-1.5-0.3-1.9-0.8c-0.5-0.5-0.7-1.3-0.7-2.4V447
		h-2v-1.1h2v-3H410.6z"/>
</g>
<g class="st1">
	<path class="st3" d="M414.7,451.6c0-1.7,0.5-3.1,1.4-4.2s2.2-1.6,3.7-1.6c1.6,0,2.8,0.5,3.7,1.6s1.4,2.5,1.4,4.2v0.4
		c0,1.7-0.5,3.1-1.4,4.2s-2.2,1.6-3.7,1.6c-1.6,0-2.8-0.5-3.7-1.6s-1.4-2.5-1.4-4.2V451.6z M416,451.9c0,1.3,0.3,2.5,1,3.4
		c0.7,0.9,1.6,1.4,2.8,1.4c1.2,0,2.1-0.5,2.8-1.4c0.7-0.9,1-2,1-3.4v-0.4c0-1.3-0.3-2.4-1-3.4c-0.7-0.9-1.6-1.4-2.8-1.4
		c-1.2,0-2.1,0.5-2.8,1.4c-0.7,0.9-1,2-1,3.4V451.9z"/>
	<path class="st3" d="M432,456.7c0.9,0,1.6-0.2,2.3-0.7c0.7-0.5,1-1.2,1-2h1.1l0,0.1c0,1.1-0.4,2-1.3,2.7c-0.9,0.7-1.9,1.1-3.1,1.1
		c-1.6,0-2.8-0.5-3.7-1.6s-1.3-2.5-1.3-4.2v-0.5c0-1.7,0.4-3.1,1.3-4.2c0.9-1.1,2.1-1.6,3.7-1.6c1.3,0,2.3,0.4,3.2,1.1
		c0.8,0.8,1.3,1.7,1.2,3l0,0.1h-1.1c0-0.9-0.3-1.7-0.9-2.2c-0.6-0.6-1.4-0.8-2.3-0.8c-1.2,0-2.2,0.4-2.8,1.3c-0.6,0.9-0.9,2-0.9,3.4
		v0.5c0,1.4,0.3,2.5,0.9,3.4C429.8,456.2,430.7,456.7,432,456.7z"/>
	<path class="st3" d="M446.7,455.6c-0.4,0.7-0.9,1.2-1.5,1.6c-0.6,0.4-1.4,0.6-2.2,0.6c-1.2,0-2.2-0.4-2.9-1.2c-0.7-0.8-1-2.1-1-3.9
		v-6.7h1.3v6.8c0,1.4,0.2,2.4,0.7,3.1c0.5,0.6,1.2,0.9,2.1,0.9c1,0,1.8-0.2,2.3-0.7s1-1,1.2-1.8v-8.3h1.3v11.6h-1.1L446.7,455.6z"/>
	<path class="st3" d="M452.8,442.6h-1.3v-1.8h1.3V442.6z M452.8,457.5h-1.3v-11.6h1.3V457.5z"/>
	<path class="st3" d="M455.8,451.8c0-1.9,0.4-3.3,1.2-4.5s1.9-1.7,3.3-1.7c0.8,0,1.5,0.2,2.1,0.5s1.1,0.8,1.5,1.5v-6.9h1.3v16.8H464
		l-0.1-1.7c-0.4,0.6-0.9,1.1-1.5,1.4c-0.6,0.3-1.3,0.5-2.1,0.5c-1.4,0-2.5-0.5-3.3-1.6c-0.8-1-1.2-2.4-1.2-4.2V451.8z M457.1,452
		c0,1.4,0.3,2.5,0.8,3.4c0.6,0.8,1.4,1.3,2.5,1.3c0.8,0,1.5-0.2,2.1-0.6c0.6-0.4,1-0.9,1.3-1.6v-5.5c-0.3-0.7-0.7-1.2-1.2-1.6
		c-0.5-0.4-1.2-0.6-2.1-0.6c-1.1,0-2,0.5-2.6,1.4c-0.6,0.9-0.9,2.1-0.9,3.6V452z"/>
	<path class="st3" d="M475.9,457.5c-0.1-0.4-0.1-0.7-0.2-1c0-0.3-0.1-0.6-0.1-0.9c-0.4,0.6-1,1.1-1.7,1.5c-0.7,0.4-1.5,0.6-2.4,0.6
		c-1.1,0-2-0.3-2.6-0.9s-0.9-1.4-0.9-2.4c0-1.1,0.5-1.9,1.4-2.6s2.2-1,3.8-1h2.6v-1.4c0-0.8-0.3-1.5-0.8-2c-0.5-0.5-1.3-0.7-2.2-0.7
		c-0.9,0-1.6,0.2-2.2,0.7c-0.6,0.5-0.9,1-0.9,1.7l-1.2,0l0-0.1c0-0.9,0.4-1.6,1.2-2.3c0.8-0.7,1.9-1,3.2-1c1.3,0,2.3,0.3,3.1,1
		c0.8,0.7,1.2,1.6,1.2,2.8v5.7c0,0.4,0,0.8,0.1,1.2c0,0.4,0.1,0.8,0.2,1.1H475.9z M471.7,456.6c0.9,0,1.7-0.2,2.4-0.6s1.2-1,1.5-1.7
		v-2.4h-2.6c-1.2,0-2.1,0.2-2.8,0.7c-0.7,0.5-1,1.1-1,1.9c0,0.6,0.2,1.1,0.6,1.5C470.3,456.4,470.9,456.6,471.7,456.6z"/>
	<path class="st3" d="M479.9,451.8c0-1.9,0.4-3.3,1.2-4.5s1.9-1.7,3.3-1.7c0.8,0,1.5,0.2,2.1,0.5s1.1,0.8,1.5,1.5v-6.9h1.3v16.8
		h-1.1l-0.1-1.7c-0.4,0.6-0.9,1.1-1.5,1.4c-0.6,0.3-1.3,0.5-2.1,0.5c-1.4,0-2.5-0.5-3.3-1.6c-0.8-1-1.2-2.4-1.2-4.2V451.8z
		 M481.2,452c0,1.4,0.3,2.5,0.8,3.4c0.6,0.8,1.4,1.3,2.5,1.3c0.8,0,1.5-0.2,2.1-0.6c0.6-0.4,1-0.9,1.3-1.6v-5.5
		c-0.3-0.7-0.7-1.2-1.2-1.6c-0.5-0.4-1.2-0.6-2.1-0.6c-1.1,0-2,0.5-2.6,1.4c-0.6,0.9-0.9,2.1-0.9,3.6V452z"/>
	<path class="st3" d="M491.9,451.6c0-1.7,0.5-3.1,1.4-4.2s2.2-1.6,3.7-1.6c1.6,0,2.8,0.5,3.7,1.6s1.4,2.5,1.4,4.2v0.4
		c0,1.7-0.5,3.1-1.4,4.2s-2.2,1.6-3.7,1.6c-1.6,0-2.8-0.5-3.7-1.6s-1.4-2.5-1.4-4.2V451.6z M493.2,451.9c0,1.3,0.3,2.5,1,3.4
		c0.7,0.9,1.6,1.4,2.8,1.4c1.2,0,2.1-0.5,2.8-1.4c0.7-0.9,1-2,1-3.4v-0.4c0-1.3-0.3-2.4-1-3.4c-0.7-0.9-1.6-1.4-2.8-1.4
		c-1.2,0-2.1,0.5-2.8,1.4c-0.7,0.9-1,2-1,3.4V451.9z"/>
	<path class="st3" d="M513.5,454.4l0.4,1.4h0.1l3.5-9.9h1.4l-5,13.5c-0.3,0.8-0.7,1.5-1.2,2c-0.5,0.6-1.2,0.8-2.1,0.8
		c-0.2,0-0.3,0-0.5,0s-0.4-0.1-0.5-0.1l0.2-1.1c0.1,0,0.2,0,0.4,0c0.2,0,0.3,0,0.4,0c0.6,0,1-0.2,1.3-0.6s0.6-0.9,0.9-1.5l0.6-1.6
		l-4.5-11.5h1.4L513.5,454.4z"/>
	<path class="st3" d="M533.3,454.6c0-0.5-0.2-1-0.7-1.4c-0.4-0.4-1.3-0.7-2.4-1c-1.4-0.3-2.4-0.7-3.1-1.2s-1-1.2-1-2.1
		c0-0.9,0.4-1.6,1.1-2.2s1.7-0.9,3-0.9c1.3,0,2.3,0.3,3.1,1c0.8,0.6,1.1,1.5,1.1,2.4l0,0.1h-1.2c0-0.6-0.3-1.2-0.8-1.7
		s-1.3-0.7-2.2-0.7c-0.9,0-1.6,0.2-2.1,0.6c-0.5,0.4-0.7,0.9-0.7,1.4c0,0.5,0.2,1,0.6,1.3c0.4,0.3,1.2,0.7,2.4,0.9
		c1.4,0.3,2.4,0.7,3.1,1.3c0.7,0.5,1,1.3,1,2.2c0,1-0.4,1.8-1.2,2.4c-0.8,0.6-1.8,0.9-3.1,0.9c-1.4,0-2.5-0.3-3.3-1
		s-1.2-1.5-1.1-2.4l0-0.1h1.2c0,0.8,0.4,1.4,1,1.8c0.6,0.4,1.4,0.6,2.2,0.6c0.9,0,1.7-0.2,2.2-0.6S533.3,455.2,533.3,454.6z"/>
	<path class="st3" d="M541.9,457.8c-1.5,0-2.7-0.5-3.6-1.6s-1.4-2.4-1.4-4.1v-0.6c0-1.7,0.5-3,1.4-4.1s2.1-1.6,3.5-1.6
		c1.4,0,2.5,0.5,3.4,1.4c0.8,0.9,1.2,2.1,1.2,3.6v1.1h-8.2v0.3c0,1.3,0.3,2.4,1,3.3c0.7,0.9,1.6,1.3,2.7,1.3c0.8,0,1.5-0.1,2.1-0.3
		c0.6-0.2,1-0.5,1.5-1l0.5,0.9c-0.4,0.5-1,0.8-1.7,1.1C543.6,457.6,542.8,457.8,541.9,457.8z M541.7,446.8c-1,0-1.8,0.4-2.4,1.1
		c-0.6,0.7-1,1.6-1.1,2.7l0,0.1h6.8v-0.3c0-1-0.3-1.8-0.9-2.5C543.5,447.1,542.7,446.8,541.7,446.8z"/>
	<path class="st3" d="M550,445.9l0.1,2c0.4-0.7,0.9-1.3,1.5-1.7c0.6-0.4,1.4-0.6,2.2-0.6c1.3,0,2.2,0.4,2.9,1.2c0.7,0.8,1,2,1,3.6
		v7.1h-1.3v-7.1c0-1.3-0.2-2.3-0.7-2.8c-0.5-0.6-1.2-0.8-2.1-0.8c-0.9,0-1.6,0.2-2.2,0.7c-0.6,0.5-1,1.1-1.2,1.9v8.1h-1.3v-11.6H550
		z"/>
	<path class="st3" d="M563.1,442.9v3h2.6v1.1h-2.6v7.6c0,0.8,0.1,1.3,0.4,1.6s0.6,0.5,1.1,0.5c0.2,0,0.4,0,0.6,0
		c0.2,0,0.4,0,0.7-0.1l0.2,1c-0.2,0.1-0.5,0.2-0.8,0.2c-0.3,0-0.6,0.1-0.9,0.1c-0.8,0-1.5-0.3-1.9-0.8s-0.7-1.3-0.7-2.4V447h-2v-1.1
		h2v-3H563.1z"/>
	<path class="st3" d="M569.8,442.6h-1.3v-1.8h1.3V442.6z M569.8,457.5h-1.3v-11.6h1.3V457.5z"/>
	<path class="st3" d="M578.7,447l-1-0.1c-0.8,0-1.5,0.2-2,0.7c-0.5,0.5-0.9,1.1-1.1,1.9v8h-1.3v-11.6h1.1l0.2,1.9v0.1
		c0.3-0.7,0.8-1.3,1.4-1.7c0.6-0.4,1.2-0.6,2-0.6c0.2,0,0.3,0,0.5,0s0.3,0.1,0.4,0.1L578.7,447z"/>
	<path class="st3" d="M587.8,454.6c0-0.5-0.2-1-0.7-1.4c-0.4-0.4-1.3-0.7-2.4-1c-1.4-0.3-2.4-0.7-3.1-1.2c-0.7-0.5-1-1.2-1-2.1
		c0-0.9,0.4-1.6,1.1-2.2c0.7-0.6,1.7-0.9,3-0.9c1.3,0,2.3,0.3,3.1,1c0.8,0.6,1.1,1.5,1.1,2.4l0,0.1h-1.2c0-0.6-0.3-1.2-0.8-1.7
		c-0.5-0.5-1.3-0.7-2.2-0.7c-0.9,0-1.6,0.2-2.1,0.6c-0.5,0.4-0.7,0.9-0.7,1.4c0,0.5,0.2,1,0.6,1.3c0.4,0.3,1.2,0.7,2.4,0.9
		c1.4,0.3,2.4,0.7,3.1,1.3c0.7,0.5,1,1.3,1,2.2c0,1-0.4,1.8-1.2,2.4c-0.8,0.6-1.8,0.9-3.1,0.9c-1.4,0-2.5-0.3-3.3-1
		c-0.8-0.7-1.2-1.5-1.1-2.4l0-0.1h1.2c0,0.8,0.4,1.4,1,1.8c0.6,0.4,1.4,0.6,2.2,0.6c0.9,0,1.7-0.2,2.2-0.6S587.8,455.2,587.8,454.6z
		"/>
	<path class="st3" d="M596.4,457.8c-1.5,0-2.7-0.5-3.6-1.6s-1.4-2.4-1.4-4.1v-0.6c0-1.7,0.5-3,1.4-4.1s2.1-1.6,3.5-1.6
		c1.4,0,2.5,0.5,3.4,1.4s1.2,2.1,1.2,3.6v1.1h-8.2v0.3c0,1.3,0.3,2.4,1,3.3c0.7,0.9,1.6,1.3,2.7,1.3c0.8,0,1.5-0.1,2.1-0.3
		c0.6-0.2,1-0.5,1.4-1l0.5,0.9c-0.4,0.5-1,0.8-1.7,1.1C598.2,457.6,597.4,457.8,596.4,457.8z M596.3,446.8c-1,0-1.8,0.4-2.4,1.1
		c-0.6,0.7-1,1.6-1.1,2.7l0,0.1h6.8v-0.3c0-1-0.3-1.8-0.9-2.5C598.1,447.1,597.3,446.8,596.3,446.8z"/>
	<path class="st3" d="M618.1,452c0,1.7-0.4,3.1-1.2,4.2c-0.8,1-1.9,1.6-3.3,1.6c-0.9,0-1.6-0.2-2.2-0.5c-0.6-0.3-1.1-0.8-1.5-1.5
		l-0.1,1.8h-1.1v-16.8h1.3v7c0.4-0.7,0.9-1.2,1.5-1.5s1.3-0.5,2.1-0.5c1.4,0,2.5,0.6,3.3,1.7c0.8,1.1,1.2,2.6,1.2,4.5V452z
		 M616.8,451.8c0-1.5-0.3-2.7-0.9-3.6c-0.6-0.9-1.4-1.4-2.5-1.4c-0.9,0-1.6,0.2-2.2,0.7c-0.5,0.4-1,1-1.2,1.7v5.3
		c0.3,0.7,0.7,1.2,1.3,1.6c0.6,0.4,1.3,0.6,2.1,0.6c1.1,0,2-0.4,2.5-1.3c0.6-0.8,0.8-2,0.8-3.4V451.8z"/>
	<path class="st3" d="M622.4,442.6h-1.3v-1.8h1.3V442.6z M622.4,457.5h-1.3v-11.6h1.3V457.5z"/>
	<path class="st3" d="M630.4,457.8c-1.5,0-2.7-0.5-3.6-1.6s-1.4-2.4-1.4-4.1v-0.6c0-1.7,0.5-3,1.4-4.1s2.1-1.6,3.5-1.6
		c1.4,0,2.5,0.5,3.4,1.4c0.8,0.9,1.2,2.1,1.2,3.6v1.1h-8.2v0.3c0,1.3,0.3,2.4,1,3.3c0.7,0.9,1.6,1.3,2.7,1.3c0.8,0,1.5-0.1,2.1-0.3
		c0.6-0.2,1-0.5,1.5-1l0.5,0.9c-0.4,0.5-1,0.8-1.7,1.1C632.1,457.6,631.3,457.8,630.4,457.8z M630.2,446.8c-1,0-1.8,0.4-2.4,1.1
		c-0.6,0.7-1,1.6-1.1,2.7l0,0.1h6.8v-0.3c0-1-0.3-1.8-0.9-2.5C632,447.1,631.2,446.8,630.2,446.8z"/>
	<path class="st3" d="M638.5,445.9l0.1,2c0.4-0.7,0.9-1.3,1.5-1.7c0.6-0.4,1.4-0.6,2.2-0.6c1.3,0,2.2,0.4,2.9,1.2s1,2,1,3.6v7.1
		h-1.3v-7.1c0-1.3-0.2-2.3-0.7-2.8c-0.5-0.6-1.2-0.8-2.1-0.8c-0.9,0-1.6,0.2-2.2,0.7c-0.6,0.5-1,1.1-1.2,1.9v8.1h-1.3v-11.6H638.5z"
		/>
	<path class="st3" d="M651.1,457.5h-1.5v-1.8h1.5V457.5z"/>
</g>
<g class="st1">
	<path class="st3" d="M97.2,509.2h7.7v1.1h-9v-15.6h1.3V509.2z"/>
	<path class="st3" d="M114.5,510.3c-0.1-0.4-0.1-0.7-0.2-1c0-0.3-0.1-0.6-0.1-0.9c-0.4,0.6-1,1.1-1.7,1.5c-0.7,0.4-1.5,0.6-2.4,0.6
		c-1.1,0-2-0.3-2.6-0.9s-0.9-1.4-0.9-2.4c0-1.1,0.5-1.9,1.4-2.6s2.2-1,3.8-1h2.6v-1.4c0-0.8-0.3-1.5-0.8-2c-0.5-0.5-1.3-0.7-2.2-0.7
		c-0.9,0-1.6,0.2-2.2,0.7c-0.6,0.5-0.9,1-0.9,1.7l-1.2,0l0-0.1c0-0.9,0.4-1.6,1.2-2.3c0.8-0.7,1.9-1,3.2-1c1.3,0,2.3,0.3,3.1,1
		c0.8,0.7,1.2,1.6,1.2,2.8v5.7c0,0.4,0,0.8,0.1,1.2c0,0.4,0.1,0.8,0.2,1.1H114.5z M110.3,509.4c0.9,0,1.7-0.2,2.4-0.6s1.2-1,1.5-1.7
		v-2.4h-2.6c-1.2,0-2.1,0.2-2.8,0.7c-0.7,0.5-1,1.1-1,1.9c0,0.6,0.2,1.1,0.6,1.5C108.9,509.2,109.5,509.4,110.3,509.4z"/>
	<path class="st3" d="M133.7,504.8c0,1.7-0.4,3.1-1.2,4.2c-0.8,1-1.9,1.6-3.3,1.6c-0.8,0-1.5-0.2-2.1-0.5s-1.1-0.7-1.5-1.3v6h-1.3
		v-16.1h1.1l0.2,1.8c0.4-0.6,0.9-1.1,1.5-1.5c0.6-0.4,1.3-0.5,2.2-0.5c1.4,0,2.5,0.6,3.3,1.7s1.2,2.6,1.2,4.5V504.8z M132.4,504.6
		c0-1.5-0.3-2.7-0.9-3.6c-0.6-0.9-1.4-1.4-2.6-1.4c-0.9,0-1.6,0.2-2.1,0.6s-0.9,0.9-1.2,1.6v5.6c0.3,0.6,0.7,1.1,1.3,1.5
		c0.6,0.4,1.2,0.5,2.1,0.5c1.1,0,2-0.4,2.6-1.3s0.9-2,0.9-3.4V504.6z"/>
	<path class="st3" d="M141.9,499.8l-1-0.1c-0.8,0-1.5,0.2-2,0.7c-0.5,0.5-0.9,1.1-1.1,1.9v8h-1.3v-11.6h1.1l0.2,1.9v0.1
		c0.3-0.7,0.8-1.3,1.4-1.7c0.6-0.4,1.2-0.6,2-0.6c0.2,0,0.3,0,0.5,0s0.3,0.1,0.4,0.1L141.9,499.8z"/>
	<path class="st3" d="M145.5,495.4h-1.3v-1.8h1.3V495.4z M145.5,510.3h-1.3v-11.6h1.3V510.3z"/>
	<path class="st3" d="M150.1,498.7l0.1,1.9c0.4-0.7,0.9-1.2,1.5-1.6c0.6-0.4,1.4-0.6,2.2-0.6c0.9,0,1.6,0.2,2.2,0.6
		c0.6,0.4,1,1.1,1.3,2c0.4-0.8,0.9-1.5,1.5-1.9s1.4-0.7,2.4-0.7c1.2,0,2.2,0.4,2.9,1.2s1,2.1,1,3.8v6.8h-1.3v-6.8
		c0-1.4-0.3-2.4-0.8-3c-0.5-0.6-1.2-0.9-2.1-0.9c-1,0-1.8,0.3-2.3,0.9c-0.5,0.6-0.9,1.4-1,2.4c0,0.1,0,0.1,0,0.2c0,0.1,0,0.2,0,0.2
		v7h-1.3v-6.8c0-1.4-0.3-2.4-0.8-3c-0.5-0.6-1.2-0.9-2.1-0.9c-0.9,0-1.6,0.2-2.2,0.7c-0.5,0.5-0.9,1.1-1.1,1.9v8.2H149v-11.6H150.1z
		"/>
	<path class="st3" d="M172.9,510.6c-1.5,0-2.7-0.5-3.6-1.6s-1.4-2.4-1.4-4.1v-0.6c0-1.7,0.5-3,1.4-4.1s2.1-1.6,3.5-1.6
		c1.4,0,2.5,0.5,3.4,1.4c0.8,0.9,1.2,2.1,1.2,3.6v1.1h-8.2v0.3c0,1.3,0.3,2.4,1,3.3c0.7,0.9,1.6,1.3,2.7,1.3c0.8,0,1.5-0.1,2.1-0.3
		c0.6-0.2,1-0.5,1.4-1l0.5,0.9c-0.4,0.5-1,0.8-1.7,1.1C174.6,510.4,173.8,510.6,172.9,510.6z M172.7,499.6c-1,0-1.8,0.4-2.4,1.1
		c-0.6,0.7-1,1.6-1.1,2.7l0,0.1h6.8v-0.3c0-1-0.3-1.8-0.9-2.5C174.5,499.9,173.7,499.6,172.7,499.6z"/>
	<path class="st3" d="M185.2,499.8l-1-0.1c-0.8,0-1.5,0.2-2,0.7c-0.5,0.5-0.9,1.1-1.1,1.9v8h-1.3v-11.6h1.1l0.2,1.9v0.1
		c0.3-0.7,0.8-1.3,1.4-1.7c0.6-0.4,1.2-0.6,2-0.6c0.2,0,0.3,0,0.5,0s0.3,0.1,0.4,0.1L185.2,499.8z"/>
	<path class="st3" d="M194.7,510.3c-0.1-0.4-0.1-0.7-0.2-1c0-0.3-0.1-0.6-0.1-0.9c-0.4,0.6-1,1.1-1.7,1.5c-0.7,0.4-1.5,0.6-2.4,0.6
		c-1.1,0-2-0.3-2.6-0.9s-0.9-1.4-0.9-2.4c0-1.1,0.5-1.9,1.4-2.6s2.2-1,3.8-1h2.6v-1.4c0-0.8-0.3-1.5-0.8-2c-0.5-0.5-1.3-0.7-2.2-0.7
		c-0.9,0-1.6,0.2-2.2,0.7c-0.6,0.5-0.9,1-0.9,1.7l-1.2,0l0-0.1c0-0.9,0.4-1.6,1.2-2.3c0.8-0.7,1.9-1,3.2-1c1.3,0,2.3,0.3,3.1,1
		c0.8,0.7,1.2,1.6,1.2,2.8v5.7c0,0.4,0,0.8,0.1,1.2c0,0.4,0.1,0.8,0.2,1.1H194.7z M190.5,509.4c0.9,0,1.7-0.2,2.4-0.6s1.2-1,1.5-1.7
		v-2.4h-2.6c-1.2,0-2.1,0.2-2.8,0.7c-0.7,0.5-1,1.1-1,1.9c0,0.6,0.2,1.1,0.6,1.5C189.1,509.2,189.7,509.4,190.5,509.4z"/>
	<path class="st3" d="M208.8,509.5c0.9,0,1.6-0.2,2.3-0.7c0.7-0.5,1-1.2,1-2h1.1l0,0.1c0,1.1-0.4,2-1.3,2.7
		c-0.9,0.7-1.9,1.1-3.1,1.1c-1.6,0-2.8-0.5-3.7-1.6s-1.3-2.5-1.3-4.2v-0.5c0-1.7,0.4-3.1,1.3-4.2c0.9-1.1,2.1-1.6,3.7-1.6
		c1.3,0,2.3,0.4,3.2,1.1c0.8,0.8,1.3,1.7,1.2,3l0,0.1h-1.1c0-0.9-0.3-1.7-0.9-2.2c-0.6-0.6-1.4-0.8-2.3-0.8c-1.2,0-2.2,0.4-2.8,1.3
		c-0.6,0.9-0.9,2-0.9,3.4v0.5c0,1.4,0.3,2.5,0.9,3.4C206.6,509,207.6,509.5,208.8,509.5z"/>
	<path class="st3" d="M215.2,504.3c0-1.7,0.5-3.1,1.4-4.2s2.2-1.6,3.7-1.6c1.6,0,2.8,0.5,3.7,1.6s1.4,2.5,1.4,4.2v0.4
		c0,1.7-0.5,3.1-1.4,4.2s-2.2,1.6-3.7,1.6c-1.6,0-2.8-0.5-3.7-1.6s-1.4-2.5-1.4-4.2V504.3z M216.5,504.7c0,1.3,0.3,2.5,1,3.4
		c0.7,0.9,1.6,1.4,2.8,1.4c1.2,0,2.1-0.5,2.8-1.4c0.7-0.9,1-2,1-3.4v-0.4c0-1.3-0.3-2.4-1-3.4c-0.7-0.9-1.6-1.4-2.8-1.4
		c-1.2,0-2.1,0.5-2.8,1.4c-0.7,0.9-1,2-1,3.4V504.7z"/>
	<path class="st3" d="M229.2,498.7l0.1,1.9c0.4-0.7,0.9-1.2,1.5-1.6c0.6-0.4,1.4-0.6,2.2-0.6c0.9,0,1.6,0.2,2.2,0.6
		c0.6,0.4,1,1.1,1.3,2c0.4-0.8,0.9-1.5,1.5-1.9s1.4-0.7,2.4-0.7c1.2,0,2.2,0.4,2.9,1.2s1,2.1,1,3.8v6.8H243v-6.8
		c0-1.4-0.3-2.4-0.8-3c-0.5-0.6-1.2-0.9-2.1-0.9c-1,0-1.8,0.3-2.3,0.9c-0.5,0.6-0.9,1.4-1,2.4c0,0.1,0,0.1,0,0.2c0,0.1,0,0.2,0,0.2
		v7h-1.3v-6.8c0-1.4-0.3-2.4-0.8-3c-0.5-0.6-1.2-0.9-2.1-0.9c-0.9,0-1.6,0.2-2.2,0.7c-0.5,0.5-0.9,1.1-1.1,1.9v8.2h-1.3v-11.6H229.2
		z"/>
	<path class="st3" d="M255.3,508.4c-0.4,0.7-0.9,1.2-1.5,1.6c-0.6,0.4-1.4,0.6-2.2,0.6c-1.2,0-2.2-0.4-2.9-1.2c-0.7-0.8-1-2.1-1-3.9
		v-6.7h1.3v6.8c0,1.4,0.2,2.4,0.7,3.1c0.5,0.6,1.2,0.9,2.1,0.9c1,0,1.8-0.2,2.3-0.7s1-1,1.2-1.8v-8.3h1.3v11.6h-1.1L255.3,508.4z"/>
	<path class="st3" d="M261,498.7l0.1,2c0.4-0.7,0.9-1.3,1.5-1.7c0.6-0.4,1.4-0.6,2.2-0.6c1.3,0,2.2,0.4,2.9,1.2s1,2,1,3.6v7.1h-1.3
		v-7.1c0-1.3-0.2-2.3-0.7-2.8c-0.5-0.6-1.2-0.8-2.1-0.8c-0.9,0-1.6,0.2-2.2,0.7c-0.6,0.5-1,1.1-1.2,1.9v8.1h-1.3v-11.6H261z"/>
	<path class="st3" d="M273.6,495.4h-1.3v-1.8h1.3V495.4z M273.6,510.3h-1.3v-11.6h1.3V510.3z"/>
	<path class="st3" d="M276.6,504.6c0-1.9,0.4-3.3,1.2-4.5s1.9-1.7,3.3-1.7c0.8,0,1.5,0.2,2.1,0.5s1.1,0.8,1.5,1.5v-6.9h1.3v16.8
		h-1.1l-0.1-1.7c-0.4,0.6-0.9,1.1-1.5,1.4c-0.6,0.3-1.3,0.5-2.1,0.5c-1.4,0-2.5-0.5-3.3-1.6c-0.8-1-1.2-2.4-1.2-4.2V504.6z
		 M277.9,504.8c0,1.4,0.3,2.5,0.8,3.4c0.6,0.8,1.4,1.3,2.5,1.3c0.8,0,1.5-0.2,2.1-0.6c0.6-0.4,1-0.9,1.3-1.6v-5.5
		c-0.3-0.7-0.7-1.2-1.2-1.6c-0.5-0.4-1.2-0.6-2.1-0.6c-1.1,0-2,0.5-2.6,1.4c-0.6,0.9-0.9,2.1-0.9,3.6V504.8z"/>
	<path class="st3" d="M296.7,510.3c-0.1-0.4-0.1-0.7-0.2-1c0-0.3-0.1-0.6-0.1-0.9c-0.4,0.6-1,1.1-1.7,1.5c-0.7,0.4-1.5,0.6-2.4,0.6
		c-1.1,0-2-0.3-2.6-0.9s-0.9-1.4-0.9-2.4c0-1.1,0.5-1.9,1.4-2.6s2.2-1,3.8-1h2.6v-1.4c0-0.8-0.3-1.5-0.8-2c-0.5-0.5-1.3-0.7-2.2-0.7
		c-0.9,0-1.6,0.2-2.2,0.7c-0.6,0.5-0.9,1-0.9,1.7l-1.2,0l0-0.1c0-0.9,0.4-1.6,1.2-2.3c0.8-0.7,1.9-1,3.2-1c1.3,0,2.3,0.3,3.1,1
		c0.8,0.7,1.2,1.6,1.2,2.8v5.7c0,0.4,0,0.8,0.1,1.2c0,0.4,0.1,0.8,0.2,1.1H296.7z M292.5,509.4c0.9,0,1.7-0.2,2.4-0.6s1.2-1,1.5-1.7
		v-2.4h-2.6c-1.2,0-2.1,0.2-2.8,0.7c-0.7,0.5-1,1.1-1,1.9c0,0.6,0.2,1.1,0.6,1.5C291.1,509.2,291.7,509.4,292.5,509.4z"/>
	<path class="st3" d="M300.7,504.6c0-1.9,0.4-3.3,1.2-4.5s1.9-1.7,3.3-1.7c0.8,0,1.5,0.2,2.1,0.5s1.1,0.8,1.5,1.5v-6.9h1.3v16.8
		h-1.1l-0.1-1.7c-0.4,0.6-0.9,1.1-1.5,1.4c-0.6,0.3-1.3,0.5-2.1,0.5c-1.4,0-2.5-0.5-3.3-1.6c-0.8-1-1.2-2.4-1.2-4.2V504.6z
		 M302,504.8c0,1.4,0.3,2.5,0.8,3.4c0.6,0.8,1.4,1.3,2.5,1.3c0.8,0,1.5-0.2,2.1-0.6c0.6-0.4,1-0.9,1.3-1.6v-5.5
		c-0.3-0.7-0.7-1.2-1.2-1.6c-0.5-0.4-1.2-0.6-2.1-0.6c-1.1,0-2,0.5-2.6,1.4c-0.6,0.9-0.9,2.1-0.9,3.6V504.8z"/>
	<path class="st3" d="M318.1,504.3c0-1.7,0.5-3.1,1.4-4.2s2.2-1.6,3.7-1.6c1.6,0,2.8,0.5,3.7,1.6s1.4,2.5,1.4,4.2v0.4
		c0,1.7-0.5,3.1-1.4,4.2s-2.2,1.6-3.7,1.6c-1.6,0-2.8-0.5-3.7-1.6s-1.4-2.5-1.4-4.2V504.3z M319.4,504.7c0,1.3,0.3,2.5,1,3.4
		c0.7,0.9,1.6,1.4,2.8,1.4c1.2,0,2.1-0.5,2.8-1.4c0.7-0.9,1-2,1-3.4v-0.4c0-1.3-0.3-2.4-1-3.4c-0.7-0.9-1.6-1.4-2.8-1.4
		c-1.2,0-2.1,0.5-2.8,1.4c-0.7,0.9-1,2-1,3.4V504.7z"/>
	<path class="st3" d="M332.2,498.7l0.1,2c0.4-0.7,0.9-1.3,1.5-1.7c0.6-0.4,1.4-0.6,2.2-0.6c1.3,0,2.2,0.4,2.9,1.2s1,2,1,3.6v7.1
		h-1.3v-7.1c0-1.3-0.2-2.3-0.7-2.8c-0.5-0.6-1.2-0.8-2.1-0.8c-0.9,0-1.6,0.2-2.2,0.7c-0.6,0.5-1,1.1-1.2,1.9v8.1H331v-11.6H332.2z"
		/>
	<path class="st3" d="M344.7,510.3h-1.3v-16.8h1.3V510.3z"/>
	<path class="st3" d="M349.7,495.4h-1.3v-1.8h1.3V495.4z M349.7,510.3h-1.3v-11.6h1.3V510.3z"/>
	<path class="st3" d="M354.4,498.7l0.1,2c0.4-0.7,0.9-1.3,1.5-1.7c0.6-0.4,1.4-0.6,2.2-0.6c1.3,0,2.2,0.4,2.9,1.2s1,2,1,3.6v7.1
		h-1.3v-7.1c0-1.3-0.2-2.3-0.7-2.8c-0.5-0.6-1.2-0.8-2.1-0.8c-0.9,0-1.6,0.2-2.2,0.7c-0.6,0.5-1,1.1-1.2,1.9v8.1h-1.3v-11.6H354.4z"
		/>
	<path class="st3" d="M369.9,510.6c-1.5,0-2.7-0.5-3.6-1.6s-1.4-2.4-1.4-4.1v-0.6c0-1.7,0.5-3,1.4-4.1s2.1-1.6,3.5-1.6
		c1.4,0,2.5,0.5,3.4,1.4c0.8,0.9,1.2,2.1,1.2,3.6v1.1h-8.2v0.3c0,1.3,0.3,2.4,1,3.3c0.7,0.9,1.6,1.3,2.7,1.3c0.8,0,1.5-0.1,2.1-0.3
		c0.6-0.2,1-0.5,1.4-1l0.5,0.9c-0.4,0.5-1,0.8-1.7,1.1C371.6,510.4,370.8,510.6,369.9,510.6z M369.7,499.6c-1,0-1.8,0.4-2.4,1.1
		c-0.6,0.7-1,1.6-1.1,2.7l0,0.1h6.8v-0.3c0-1-0.3-1.8-0.9-2.5C371.5,499.9,370.7,499.6,369.7,499.6z"/>
	<path class="st3" d="M386.5,510.6c-1.5,0-2.7-0.5-3.6-1.6s-1.4-2.4-1.4-4.1v-0.6c0-1.7,0.5-3,1.4-4.1s2.1-1.6,3.5-1.6
		c1.4,0,2.5,0.5,3.4,1.4c0.8,0.9,1.2,2.1,1.2,3.6v1.1h-8.2v0.3c0,1.3,0.3,2.4,1,3.3c0.7,0.9,1.6,1.3,2.7,1.3c0.8,0,1.5-0.1,2.1-0.3
		c0.6-0.2,1-0.5,1.4-1l0.5,0.9c-0.4,0.5-1,0.8-1.7,1.1C388.3,510.4,387.5,510.6,386.5,510.6z M386.4,499.6c-1,0-1.8,0.4-2.4,1.1
		c-0.6,0.7-1,1.6-1.1,2.7l0,0.1h6.8v-0.3c0-1-0.3-1.8-0.9-2.5C388.2,499.9,387.4,499.6,386.4,499.6z"/>
	<path class="st3" d="M394.7,498.7l0.1,2c0.4-0.7,0.9-1.3,1.5-1.7c0.6-0.4,1.4-0.6,2.2-0.6c1.3,0,2.2,0.4,2.9,1.2s1,2,1,3.6v7.1
		h-1.3v-7.1c0-1.3-0.2-2.3-0.7-2.8c-0.5-0.6-1.2-0.8-2.1-0.8c-0.9,0-1.6,0.2-2.2,0.7c-0.6,0.5-1,1.1-1.2,1.9v8.1h-1.3v-11.6H394.7z"
		/>
	<path class="st3" d="M412.6,510.3h-1.3v-16.8h1.3V510.3z"/>
	<path class="st3" d="M423.5,510.3c-0.1-0.4-0.1-0.7-0.2-1c0-0.3-0.1-0.6-0.1-0.9c-0.4,0.6-1,1.1-1.7,1.5c-0.7,0.4-1.5,0.6-2.4,0.6
		c-1.1,0-2-0.3-2.6-0.9s-0.9-1.4-0.9-2.4c0-1.1,0.5-1.9,1.4-2.6s2.2-1,3.8-1h2.6v-1.4c0-0.8-0.3-1.5-0.8-2c-0.5-0.5-1.3-0.7-2.2-0.7
		c-0.9,0-1.6,0.2-2.2,0.7c-0.6,0.5-0.9,1-0.9,1.7l-1.2,0l0-0.1c0-0.9,0.4-1.6,1.2-2.3c0.8-0.7,1.9-1,3.2-1c1.3,0,2.3,0.3,3.1,1
		c0.8,0.7,1.2,1.6,1.2,2.8v5.7c0,0.4,0,0.8,0.1,1.2c0,0.4,0.1,0.8,0.2,1.1H423.5z M419.2,509.4c0.9,0,1.7-0.2,2.4-0.6s1.2-1,1.5-1.7
		v-2.4h-2.6c-1.2,0-2.1,0.2-2.8,0.7c-0.7,0.5-1,1.1-1,1.9c0,0.6,0.2,1.1,0.6,1.5C417.9,509.2,418.5,509.4,419.2,509.4z"/>
	<path class="st3" d="M432.8,504.6c0-1.9,0.4-3.3,1.2-4.5s1.9-1.7,3.3-1.7c0.8,0,1.5,0.2,2.1,0.5c0.6,0.3,1.1,0.8,1.5,1.4l0.1-1.7
		h1.1v16.1h-1.3v-6c-0.4,0.6-0.9,1-1.5,1.3s-1.3,0.5-2.1,0.5c-1.4,0-2.5-0.5-3.3-1.6c-0.8-1-1.2-2.4-1.2-4.2V504.6z M434.1,504.8
		c0,1.4,0.3,2.5,0.8,3.4c0.6,0.8,1.4,1.3,2.5,1.3c0.8,0,1.5-0.2,2-0.5c0.5-0.4,1-0.9,1.3-1.5v-5.7c-0.3-0.6-0.7-1.2-1.3-1.6
		c-0.5-0.4-1.2-0.6-2-0.6c-1.1,0-2,0.5-2.6,1.4c-0.6,0.9-0.9,2.1-0.9,3.6V504.8z"/>
	<path class="st3" d="M453.1,508.4c-0.4,0.7-0.9,1.2-1.5,1.6c-0.6,0.4-1.4,0.6-2.2,0.6c-1.2,0-2.2-0.4-2.9-1.2c-0.7-0.8-1-2.1-1-3.9
		v-6.7h1.3v6.8c0,1.4,0.2,2.4,0.7,3.1c0.5,0.6,1.2,0.9,2.1,0.9c1,0,1.8-0.2,2.3-0.7s1-1,1.2-1.8v-8.3h1.3v11.6h-1.1L453.1,508.4z"/>
	<path class="st3" d="M462.1,510.6c-1.5,0-2.7-0.5-3.6-1.6s-1.4-2.4-1.4-4.1v-0.6c0-1.7,0.5-3,1.4-4.1s2.1-1.6,3.5-1.6
		c1.4,0,2.5,0.5,3.4,1.4c0.8,0.9,1.2,2.1,1.2,3.6v1.1h-8.2v0.3c0,1.3,0.3,2.4,1,3.3c0.7,0.9,1.6,1.3,2.7,1.3c0.8,0,1.5-0.1,2.1-0.3
		c0.6-0.2,1-0.5,1.4-1l0.5,0.9c-0.4,0.5-1,0.8-1.7,1.1C463.8,510.4,463.1,510.6,462.1,510.6z M462,499.6c-1,0-1.8,0.4-2.4,1.1
		c-0.6,0.7-1,1.6-1.1,2.7l0,0.1h6.8v-0.3c0-1-0.3-1.8-0.9-2.5C463.8,499.9,463,499.6,462,499.6z"/>
	<path class="st3" d="M478.8,509.5c0.9,0,1.6-0.2,2.3-0.7c0.7-0.5,1-1.2,1-2h1.1l0,0.1c0,1.1-0.4,2-1.3,2.7
		c-0.9,0.7-1.9,1.1-3.1,1.1c-1.6,0-2.8-0.5-3.7-1.6s-1.3-2.5-1.3-4.2v-0.5c0-1.7,0.4-3.1,1.3-4.2c0.9-1.1,2.1-1.6,3.7-1.6
		c1.3,0,2.3,0.4,3.2,1.1c0.8,0.8,1.3,1.7,1.2,3l0,0.1H482c0-0.9-0.3-1.7-0.9-2.2c-0.6-0.6-1.4-0.8-2.3-0.8c-1.2,0-2.2,0.4-2.8,1.3
		c-0.6,0.9-0.9,2-0.9,3.4v0.5c0,1.4,0.3,2.5,0.9,3.4C476.6,509,477.5,509.5,478.8,509.5z"/>
	<path class="st3" d="M485.1,504.3c0-1.7,0.5-3.1,1.4-4.2s2.2-1.6,3.7-1.6c1.6,0,2.8,0.5,3.7,1.6s1.4,2.5,1.4,4.2v0.4
		c0,1.7-0.5,3.1-1.4,4.2s-2.2,1.6-3.7,1.6c-1.6,0-2.8-0.5-3.7-1.6s-1.4-2.5-1.4-4.2V504.3z M486.4,504.7c0,1.3,0.3,2.5,1,3.4
		c0.7,0.9,1.6,1.4,2.8,1.4c1.2,0,2.1-0.5,2.8-1.4c0.7-0.9,1-2,1-3.4v-0.4c0-1.3-0.3-2.4-1-3.4c-0.7-0.9-1.6-1.4-2.8-1.4
		c-1.2,0-2.1,0.5-2.8,1.4c-0.7,0.9-1,2-1,3.4V504.7z"/>
	<path class="st3" d="M499.2,498.7l0.1,1.9c0.4-0.7,0.9-1.2,1.5-1.6c0.6-0.4,1.4-0.6,2.2-0.6c0.9,0,1.6,0.2,2.2,0.6s1,1.1,1.3,2
		c0.4-0.8,0.9-1.5,1.5-1.9c0.6-0.5,1.4-0.7,2.4-0.7c1.2,0,2.2,0.4,2.9,1.2s1,2.1,1,3.8v6.8H513v-6.8c0-1.4-0.3-2.4-0.8-3
		s-1.2-0.9-2.1-0.9c-1,0-1.8,0.3-2.3,0.9s-0.9,1.4-1,2.4c0,0.1,0,0.1,0,0.2c0,0.1,0,0.2,0,0.2v7h-1.3v-6.8c0-1.4-0.3-2.4-0.8-3
		c-0.5-0.6-1.2-0.9-2.1-0.9c-0.9,0-1.6,0.2-2.2,0.7c-0.5,0.5-0.9,1.1-1.1,1.9v8.2H498v-11.6H499.2z"/>
	<path class="st3" d="M526.9,504.8c0,1.7-0.4,3.1-1.2,4.2c-0.8,1-1.9,1.6-3.3,1.6c-0.8,0-1.5-0.2-2.1-0.5c-0.6-0.3-1.1-0.7-1.5-1.3
		v6h-1.3v-16.1h1.1l0.2,1.8c0.4-0.6,0.9-1.1,1.5-1.5c0.6-0.4,1.3-0.5,2.2-0.5c1.4,0,2.5,0.6,3.3,1.7s1.2,2.6,1.2,4.5V504.8z
		 M525.6,504.6c0-1.5-0.3-2.7-0.9-3.6c-0.6-0.9-1.4-1.4-2.6-1.4c-0.9,0-1.6,0.2-2.1,0.6c-0.5,0.4-0.9,0.9-1.2,1.6v5.6
		c0.3,0.6,0.7,1.1,1.3,1.5c0.6,0.4,1.2,0.5,2.1,0.5c1.1,0,2-0.4,2.6-1.3c0.6-0.8,0.9-2,0.9-3.4V504.6z"/>
	<path class="st3" d="M537.2,510.3c-0.1-0.4-0.1-0.7-0.2-1c0-0.3-0.1-0.6-0.1-0.9c-0.4,0.6-1,1.1-1.7,1.5c-0.7,0.4-1.5,0.6-2.4,0.6
		c-1.1,0-2-0.3-2.6-0.9c-0.6-0.6-0.9-1.4-0.9-2.4c0-1.1,0.5-1.9,1.4-2.6c0.9-0.6,2.2-1,3.8-1h2.6v-1.4c0-0.8-0.3-1.5-0.8-2
		c-0.5-0.5-1.3-0.7-2.2-0.7c-0.9,0-1.6,0.2-2.2,0.7c-0.6,0.5-0.9,1-0.9,1.7l-1.2,0l0-0.1c0-0.9,0.4-1.6,1.2-2.3s1.9-1,3.2-1
		c1.3,0,2.3,0.3,3.1,1c0.8,0.7,1.2,1.6,1.2,2.8v5.7c0,0.4,0,0.8,0.1,1.2c0,0.4,0.1,0.8,0.2,1.1H537.2z M533,509.4
		c0.9,0,1.7-0.2,2.4-0.6s1.2-1,1.5-1.7v-2.4h-2.6c-1.2,0-2.1,0.2-2.8,0.7c-0.7,0.5-1,1.1-1,1.9c0,0.6,0.2,1.1,0.6,1.5
		S532.2,509.4,533,509.4z"/>
</g>
<g class="st1">
	<path class="st3" d="M547,499.8l-1-0.1c-0.8,0-1.5,0.2-2,0.7c-0.5,0.5-0.9,1.1-1.1,1.9v8h-1.3v-11.6h1.1l0.2,1.9v0.1
		c0.3-0.7,0.8-1.3,1.4-1.7c0.6-0.4,1.2-0.6,2-0.6c0.2,0,0.3,0,0.5,0s0.3,0.1,0.4,0.1L547,499.8z"/>
</g>
<g class="st1">
	<path class="st3" d="M551.5,495.7v3h2.6v1.1h-2.6v7.6c0,0.8,0.1,1.3,0.4,1.6s0.6,0.5,1.1,0.5c0.2,0,0.4,0,0.6,0
		c0.2,0,0.4,0,0.7-0.1l0.2,1c-0.2,0.1-0.5,0.2-0.8,0.2s-0.6,0.1-0.9,0.1c-0.8,0-1.5-0.3-1.9-0.8s-0.7-1.3-0.7-2.4v-7.6h-2v-1.1h2v-3
		H551.5z"/>
	<path class="st3" d="M558.3,495.4H557v-1.8h1.3V495.4z M558.3,510.3H557v-11.6h1.3V510.3z"/>
	<path class="st3" d="M567.2,499.8l-1-0.1c-0.8,0-1.5,0.2-2,0.7c-0.5,0.5-0.9,1.1-1.1,1.9v8h-1.3v-11.6h1.1l0.2,1.9v0.1
		c0.3-0.7,0.8-1.3,1.4-1.7c0.6-0.4,1.2-0.6,2-0.6c0.2,0,0.3,0,0.5,0c0.2,0,0.3,0.1,0.4,0.1L567.2,499.8z"/>
	<path class="st3" d="M576.7,495.7v3h2.6v1.1h-2.6v7.6c0,0.8,0.1,1.3,0.4,1.6s0.6,0.5,1.1,0.5c0.2,0,0.4,0,0.6,0
		c0.2,0,0.4,0,0.7-0.1l0.2,1c-0.2,0.1-0.5,0.2-0.8,0.2s-0.6,0.1-0.9,0.1c-0.8,0-1.5-0.3-1.9-0.8s-0.7-1.3-0.7-2.4v-7.6h-2v-1.1h2v-3
		H576.7z"/>
	<path class="st3" d="M589.6,508.4c-0.4,0.7-0.9,1.2-1.5,1.6c-0.6,0.4-1.4,0.6-2.2,0.6c-1.2,0-2.2-0.4-2.9-1.2c-0.7-0.8-1-2.1-1-3.9
		v-6.7h1.3v6.8c0,1.4,0.2,2.4,0.7,3.1c0.5,0.6,1.2,0.9,2.1,0.9c1,0,1.8-0.2,2.3-0.7s1-1,1.2-1.8v-8.3h1.3v11.6h-1.1L589.6,508.4z"/>
	<path class="st3" d="M601.2,507.4c0-0.5-0.2-1-0.7-1.4c-0.4-0.4-1.3-0.7-2.4-1c-1.4-0.3-2.4-0.7-3.1-1.2s-1-1.2-1-2.1
		c0-0.9,0.4-1.6,1.1-2.2s1.7-0.9,3-0.9c1.3,0,2.3,0.3,3.1,1c0.8,0.6,1.1,1.5,1.1,2.4l0,0.1h-1.2c0-0.6-0.3-1.2-0.8-1.7
		c-0.5-0.5-1.3-0.7-2.2-0.7c-0.9,0-1.6,0.2-2.1,0.6c-0.5,0.4-0.7,0.9-0.7,1.4c0,0.5,0.2,1,0.6,1.3c0.4,0.3,1.2,0.7,2.4,0.9
		c1.4,0.3,2.4,0.7,3.1,1.3c0.7,0.5,1,1.3,1,2.2c0,1-0.4,1.8-1.2,2.4s-1.8,0.9-3.1,0.9c-1.4,0-2.5-0.3-3.3-1s-1.2-1.5-1.1-2.4l0-0.1
		h1.2c0,0.8,0.4,1.4,1,1.8s1.4,0.6,2.2,0.6c0.9,0,1.7-0.2,2.2-0.6S601.2,507.9,601.2,507.4z"/>
</g>
<g class="st1">
	<path class="st3" d="M75.4,521.8h-1.3V520h1.3V521.8z M75.4,536.7h-1.3v-11.6h1.3V536.7z"/>
	<path class="st3" d="M80.1,525.1l0.1,2c0.4-0.7,0.9-1.3,1.5-1.7c0.6-0.4,1.4-0.6,2.2-0.6c1.3,0,2.2,0.4,2.9,1.2s1,2,1,3.6v7.1h-1.3
		v-7.1c0-1.3-0.2-2.3-0.7-2.8c-0.5-0.6-1.2-0.8-2.1-0.8c-0.9,0-1.6,0.2-2.2,0.7c-0.6,0.5-1,1.1-1.2,1.9v8.1H79v-11.6H80.1z"/>
	<path class="st3" d="M90.7,531c0-1.9,0.4-3.3,1.2-4.5s1.9-1.7,3.3-1.7c0.8,0,1.5,0.2,2.1,0.5c0.6,0.3,1.1,0.8,1.5,1.4l0.1-1.7h1.1
		v16.1h-1.3v-6c-0.4,0.6-0.9,1-1.5,1.3S96,537,95.2,537c-1.4,0-2.5-0.5-3.3-1.6c-0.8-1-1.2-2.4-1.2-4.2V531z M92,531.2
		c0,1.4,0.3,2.5,0.8,3.4c0.6,0.8,1.4,1.3,2.5,1.3c0.8,0,1.5-0.2,2-0.5c0.5-0.4,1-0.9,1.3-1.5v-5.7c-0.3-0.6-0.7-1.2-1.3-1.6
		c-0.5-0.4-1.2-0.6-2-0.6c-1.1,0-2,0.5-2.6,1.4c-0.6,0.9-0.9,2.1-0.9,3.6V531.2z"/>
	<path class="st3" d="M111.1,534.8c-0.4,0.7-0.9,1.2-1.5,1.6c-0.6,0.4-1.4,0.6-2.2,0.6c-1.2,0-2.2-0.4-2.9-1.2c-0.7-0.8-1-2.1-1-3.9
		v-6.7h1.3v6.8c0,1.4,0.2,2.4,0.7,3.1c0.5,0.6,1.2,0.9,2.1,0.9c1,0,1.8-0.2,2.3-0.7s1-1,1.2-1.8v-8.3h1.3v11.6h-1.1L111.1,534.8z"/>
	<path class="st3" d="M117.2,521.8h-1.3V520h1.3V521.8z M117.2,536.7h-1.3v-11.6h1.3V536.7z"/>
	<path class="st3" d="M125.1,537c-1.5,0-2.7-0.5-3.6-1.6s-1.4-2.4-1.4-4.1v-0.6c0-1.7,0.5-3,1.4-4.1s2.1-1.6,3.5-1.6
		c1.4,0,2.5,0.5,3.4,1.4c0.8,0.9,1.2,2.1,1.2,3.6v1.1h-8.2v0.3c0,1.3,0.3,2.4,1,3.3c0.7,0.9,1.6,1.3,2.7,1.3c0.8,0,1.5-0.1,2.1-0.3
		c0.6-0.2,1-0.5,1.4-1l0.5,0.9c-0.4,0.5-1,0.8-1.7,1.1C126.8,536.8,126,537,125.1,537z M124.9,526c-1,0-1.8,0.4-2.4,1.1
		c-0.6,0.7-1,1.6-1.1,2.7l0,0.1h6.8v-0.3c0-1-0.3-1.8-0.9-2.5C126.7,526.3,125.9,526,124.9,526z"/>
	<path class="st3" d="M134.1,522.1v3h2.6v1.1h-2.6v7.6c0,0.8,0.1,1.3,0.4,1.6c0.3,0.3,0.6,0.5,1.1,0.5c0.2,0,0.4,0,0.6,0
		c0.2,0,0.4,0,0.7-0.1l0.2,1c-0.2,0.1-0.5,0.2-0.8,0.2c-0.3,0-0.6,0.1-0.9,0.1c-0.8,0-1.5-0.3-1.9-0.8c-0.5-0.5-0.7-1.3-0.7-2.4
		v-7.6h-2v-1.1h2v-3H134.1z"/>
	<path class="st3" d="M147,534.8c-0.4,0.7-0.9,1.2-1.5,1.6c-0.6,0.4-1.4,0.6-2.2,0.6c-1.2,0-2.2-0.4-2.9-1.2c-0.7-0.8-1-2.1-1-3.9
		v-6.7h1.3v6.8c0,1.4,0.2,2.4,0.7,3.1c0.5,0.6,1.2,0.9,2.1,0.9c1,0,1.8-0.2,2.3-0.7s1-1,1.2-1.8v-8.3h1.3v11.6h-1.1L147,534.8z"/>
	<path class="st3" d="M151.1,531c0-1.9,0.4-3.3,1.2-4.5s1.9-1.7,3.3-1.7c0.8,0,1.5,0.2,2.1,0.5s1.1,0.8,1.5,1.5V520h1.3v16.8h-1.1
		l-0.1-1.7c-0.4,0.6-0.9,1.1-1.5,1.4c-0.6,0.3-1.3,0.5-2.1,0.5c-1.4,0-2.5-0.5-3.3-1.6c-0.8-1-1.2-2.4-1.2-4.2V531z M152.4,531.2
		c0,1.4,0.3,2.5,0.8,3.4c0.6,0.8,1.4,1.3,2.5,1.3c0.8,0,1.5-0.2,2.1-0.6c0.6-0.4,1-0.9,1.3-1.6v-5.5c-0.3-0.7-0.7-1.2-1.2-1.6
		c-0.5-0.4-1.2-0.6-2.1-0.6c-1.1,0-2,0.5-2.6,1.4c-0.6,0.9-0.9,2.1-0.9,3.6V531.2z"/>
	<path class="st3" d="M168.2,537c-1.5,0-2.7-0.5-3.6-1.6s-1.4-2.4-1.4-4.1v-0.6c0-1.7,0.5-3,1.4-4.1s2.1-1.6,3.5-1.6
		c1.4,0,2.5,0.5,3.4,1.4c0.8,0.9,1.2,2.1,1.2,3.6v1.1h-8.2v0.3c0,1.3,0.3,2.4,1,3.3c0.7,0.9,1.6,1.3,2.7,1.3c0.8,0,1.5-0.1,2.1-0.3
		c0.6-0.2,1-0.5,1.4-1l0.5,0.9c-0.4,0.5-1,0.8-1.7,1.1C169.9,536.8,169.1,537,168.2,537z M168,526c-1,0-1.8,0.4-2.4,1.1
		c-0.6,0.7-1,1.6-1.1,2.7l0,0.1h6.8v-0.3c0-1-0.3-1.8-0.9-2.5C169.9,526.3,169.1,526,168,526z"/>
	<path class="st3" d="M182.1,533.8c0-0.5-0.2-1-0.7-1.4c-0.4-0.4-1.3-0.7-2.4-1c-1.4-0.3-2.4-0.7-3.1-1.2c-0.7-0.5-1-1.2-1-2.1
		c0-0.9,0.4-1.6,1.1-2.2c0.7-0.6,1.7-0.9,3-0.9c1.3,0,2.3,0.3,3.1,1c0.8,0.6,1.1,1.5,1.1,2.4l0,0.1h-1.2c0-0.6-0.3-1.2-0.8-1.7
		s-1.3-0.7-2.2-0.7c-0.9,0-1.6,0.2-2.1,0.6c-0.5,0.4-0.7,0.9-0.7,1.4c0,0.5,0.2,1,0.6,1.3c0.4,0.3,1.2,0.7,2.4,0.9
		c1.4,0.3,2.4,0.7,3.1,1.3c0.7,0.5,1,1.3,1,2.2c0,1-0.4,1.8-1.2,2.4c-0.8,0.6-1.8,0.9-3.1,0.9c-1.4,0-2.5-0.3-3.3-1
		s-1.2-1.5-1.1-2.4l0-0.1h1.2c0,0.8,0.4,1.4,1,1.8c0.6,0.4,1.4,0.6,2.2,0.6c0.9,0,1.7-0.2,2.2-0.6S182.1,534.4,182.1,533.8z"/>
	<path class="st3" d="M187.6,536.5l-1.1,3h-0.9l0.7-3v-1.8h1.3V536.5z"/>
	<path class="st3" d="M203.3,536.7c-0.1-0.4-0.1-0.7-0.2-1c0-0.3-0.1-0.6-0.1-0.9c-0.4,0.6-1,1.1-1.7,1.5c-0.7,0.4-1.5,0.6-2.4,0.6
		c-1.1,0-2-0.3-2.6-0.9s-0.9-1.4-0.9-2.4c0-1.1,0.5-1.9,1.4-2.6s2.2-1,3.8-1h2.6v-1.4c0-0.8-0.3-1.5-0.8-2c-0.5-0.5-1.3-0.7-2.2-0.7
		c-0.9,0-1.6,0.2-2.2,0.7c-0.6,0.5-0.9,1-0.9,1.7l-1.2,0l0-0.1c0-0.9,0.4-1.6,1.2-2.3c0.8-0.7,1.9-1,3.2-1c1.3,0,2.3,0.3,3.1,1
		c0.8,0.7,1.2,1.6,1.2,2.8v5.7c0,0.4,0,0.8,0.1,1.2c0,0.4,0.1,0.8,0.2,1.1H203.3z M199.1,535.8c0.9,0,1.7-0.2,2.4-0.6s1.2-1,1.5-1.7
		v-2.4h-2.6c-1.2,0-2.1,0.2-2.8,0.7c-0.7,0.5-1,1.1-1,1.9c0,0.6,0.2,1.1,0.6,1.5C197.7,535.6,198.3,535.8,199.1,535.8z"/>
	<path class="st3" d="M207.3,531c0-1.9,0.4-3.3,1.2-4.5s1.9-1.7,3.3-1.7c0.8,0,1.5,0.2,2.1,0.5s1.1,0.8,1.5,1.5V520h1.3v16.8h-1.1
		l-0.1-1.7c-0.4,0.6-0.9,1.1-1.5,1.4c-0.6,0.3-1.3,0.5-2.1,0.5c-1.4,0-2.5-0.5-3.3-1.6c-0.8-1-1.2-2.4-1.2-4.2V531z M208.5,531.2
		c0,1.4,0.3,2.5,0.8,3.4c0.6,0.8,1.4,1.3,2.5,1.3c0.8,0,1.5-0.2,2.1-0.6c0.6-0.4,1-0.9,1.3-1.6v-5.5c-0.3-0.7-0.7-1.2-1.2-1.6
		c-0.5-0.4-1.2-0.6-2.1-0.6c-1.1,0-2,0.5-2.6,1.4c-0.6,0.9-0.9,2.1-0.9,3.6V531.2z"/>
	<path class="st3" d="M224.4,537c-1.5,0-2.7-0.5-3.6-1.6s-1.4-2.4-1.4-4.1v-0.6c0-1.7,0.5-3,1.4-4.1s2.1-1.6,3.5-1.6
		c1.4,0,2.5,0.5,3.4,1.4c0.8,0.9,1.2,2.1,1.2,3.6v1.1h-8.2v0.3c0,1.3,0.3,2.4,1,3.3c0.7,0.9,1.6,1.3,2.7,1.3c0.8,0,1.5-0.1,2.1-0.3
		c0.6-0.2,1-0.5,1.4-1l0.5,0.9c-0.4,0.5-1,0.8-1.7,1.1C226.1,536.8,225.3,537,224.4,537z M224.2,526c-1,0-1.8,0.4-2.4,1.1
		c-0.6,0.7-1,1.6-1.1,2.7l0,0.1h6.8v-0.3c0-1-0.3-1.8-0.9-2.5C226,526.3,225.2,526,224.2,526z"/>
	<path class="st3" d="M232.4,525.1l0.1,1.9c0.4-0.7,0.9-1.2,1.5-1.6c0.6-0.4,1.4-0.6,2.2-0.6c0.9,0,1.6,0.2,2.2,0.6
		c0.6,0.4,1,1.1,1.3,2c0.4-0.8,0.9-1.5,1.5-1.9s1.4-0.7,2.4-0.7c1.2,0,2.2,0.4,2.9,1.2s1,2.1,1,3.8v6.8h-1.3v-6.8
		c0-1.4-0.3-2.4-0.8-3c-0.5-0.6-1.2-0.9-2.1-0.9c-1,0-1.8,0.3-2.3,0.9c-0.5,0.6-0.9,1.4-1,2.4c0,0.1,0,0.1,0,0.2c0,0.1,0,0.2,0,0.2
		v7h-1.3v-6.8c0-1.4-0.3-2.4-0.8-3c-0.5-0.6-1.2-0.9-2.1-0.9c-0.9,0-1.6,0.2-2.2,0.7c-0.5,0.5-0.9,1.1-1.1,1.9v8.2h-1.3v-11.6H232.4
		z"/>
	<path class="st3" d="M258.2,536.7c-0.1-0.4-0.1-0.7-0.2-1c0-0.3-0.1-0.6-0.1-0.9c-0.4,0.6-1,1.1-1.7,1.5c-0.7,0.4-1.5,0.6-2.4,0.6
		c-1.1,0-2-0.3-2.6-0.9s-0.9-1.4-0.9-2.4c0-1.1,0.5-1.9,1.4-2.6s2.2-1,3.8-1h2.6v-1.4c0-0.8-0.3-1.5-0.8-2c-0.5-0.5-1.3-0.7-2.2-0.7
		c-0.9,0-1.6,0.2-2.2,0.7c-0.6,0.5-0.9,1-0.9,1.7l-1.2,0l0-0.1c0-0.9,0.4-1.6,1.2-2.3c0.8-0.7,1.9-1,3.2-1c1.3,0,2.3,0.3,3.1,1
		c0.8,0.7,1.2,1.6,1.2,2.8v5.7c0,0.4,0,0.8,0.1,1.2c0,0.4,0.1,0.8,0.2,1.1H258.2z M254,535.8c0.9,0,1.7-0.2,2.4-0.6s1.2-1,1.5-1.7
		v-2.4h-2.6c-1.2,0-2.1,0.2-2.8,0.7c-0.7,0.5-1,1.1-1,1.9c0,0.6,0.2,1.1,0.6,1.5C252.6,535.6,253.2,535.8,254,535.8z M256.4,520.6
		h1.6l0,0.1l-2.7,2.8h-1.2L256.4,520.6z"/>
	<path class="st3" d="M269.6,533.8c0-0.5-0.2-1-0.7-1.4c-0.4-0.4-1.3-0.7-2.4-1c-1.4-0.3-2.4-0.7-3.1-1.2c-0.7-0.5-1-1.2-1-2.1
		c0-0.9,0.4-1.6,1.1-2.2c0.7-0.6,1.7-0.9,3-0.9c1.3,0,2.3,0.3,3.1,1c0.8,0.6,1.1,1.5,1.1,2.4l0,0.1h-1.2c0-0.6-0.3-1.2-0.8-1.7
		s-1.3-0.7-2.2-0.7c-0.9,0-1.6,0.2-2.1,0.6c-0.5,0.4-0.7,0.9-0.7,1.4c0,0.5,0.2,1,0.6,1.3c0.4,0.3,1.2,0.7,2.4,0.9
		c1.4,0.3,2.4,0.7,3.1,1.3c0.7,0.5,1,1.3,1,2.2c0,1-0.4,1.8-1.2,2.4c-0.8,0.6-1.8,0.9-3.1,0.9c-1.4,0-2.5-0.3-3.3-1
		s-1.2-1.5-1.1-2.4l0-0.1h1.2c0,0.8,0.4,1.4,1,1.8c0.6,0.4,1.4,0.6,2.2,0.6c0.9,0,1.7-0.2,2.2-0.6S269.6,534.4,269.6,533.8z"/>
	<path class="st3" d="M278.7,531c0-1.9,0.4-3.3,1.2-4.5s1.9-1.7,3.3-1.7c0.8,0,1.5,0.2,2.1,0.5s1.1,0.8,1.5,1.5V520h1.3v16.8h-1.1
		l-0.1-1.7c-0.4,0.6-0.9,1.1-1.5,1.4c-0.6,0.3-1.3,0.5-2.1,0.5c-1.4,0-2.5-0.5-3.3-1.6c-0.8-1-1.2-2.4-1.2-4.2V531z M280,531.2
		c0,1.4,0.3,2.5,0.8,3.4c0.6,0.8,1.4,1.3,2.5,1.3c0.8,0,1.5-0.2,2.1-0.6c0.6-0.4,1-0.9,1.3-1.6v-5.5c-0.3-0.7-0.7-1.2-1.2-1.6
		c-0.5-0.4-1.2-0.6-2.1-0.6c-1.1,0-2,0.5-2.6,1.4c-0.6,0.9-0.9,2.1-0.9,3.6V531.2z"/>
	<path class="st3" d="M295.8,537c-1.5,0-2.7-0.5-3.6-1.6s-1.4-2.4-1.4-4.1v-0.6c0-1.7,0.5-3,1.4-4.1s2.1-1.6,3.5-1.6
		c1.4,0,2.5,0.5,3.4,1.4c0.8,0.9,1.2,2.1,1.2,3.6v1.1H292v0.3c0,1.3,0.3,2.4,1,3.3c0.7,0.9,1.6,1.3,2.7,1.3c0.8,0,1.5-0.1,2.1-0.3
		c0.6-0.2,1-0.5,1.4-1l0.5,0.9c-0.4,0.5-1,0.8-1.7,1.1C297.5,536.8,296.7,537,295.8,537z M295.6,526c-1,0-1.8,0.4-2.4,1.1
		c-0.6,0.7-1,1.6-1.1,2.7l0,0.1h6.8v-0.3c0-1-0.3-1.8-0.9-2.5C297.5,526.3,296.7,526,295.6,526z"/>
	<path class="st3" d="M307.4,530.8c0-1.7,0.5-3.1,1.4-4.2s2.2-1.6,3.7-1.6c1.6,0,2.8,0.5,3.7,1.6s1.4,2.5,1.4,4.2v0.4
		c0,1.7-0.5,3.1-1.4,4.2s-2.2,1.6-3.7,1.6c-1.6,0-2.8-0.5-3.7-1.6s-1.4-2.5-1.4-4.2V530.8z M308.7,531.1c0,1.3,0.3,2.5,1,3.4
		c0.7,0.9,1.6,1.4,2.8,1.4c1.2,0,2.1-0.5,2.8-1.4c0.7-0.9,1-2,1-3.4v-0.4c0-1.3-0.3-2.4-1-3.4c-0.7-0.9-1.6-1.4-2.8-1.4
		c-1.2,0-2.1,0.5-2.8,1.4c-0.7,0.9-1,2-1,3.4V531.1z"/>
	<path class="st3" d="M329.7,531.2c0,1.7-0.4,3.1-1.2,4.2c-0.8,1-1.9,1.6-3.3,1.6c-0.9,0-1.6-0.2-2.2-0.5c-0.6-0.3-1.1-0.8-1.5-1.5
		l-0.1,1.8h-1.1V520h1.3v7c0.4-0.7,0.9-1.2,1.5-1.5s1.3-0.5,2.1-0.5c1.4,0,2.5,0.6,3.3,1.7s1.2,2.6,1.2,4.5V531.2z M328.4,531
		c0-1.5-0.3-2.7-0.9-3.6c-0.6-0.9-1.4-1.4-2.5-1.4c-0.9,0-1.6,0.2-2.2,0.7c-0.5,0.4-1,1-1.2,1.7v5.3c0.3,0.7,0.7,1.2,1.3,1.6
		c0.6,0.4,1.3,0.6,2.1,0.6c1.1,0,2-0.4,2.5-1.3c0.6-0.8,0.8-2,0.8-3.4V531z"/>
	<path class="st3" d="M334.6,522.1v3h2.6v1.1h-2.6v7.6c0,0.8,0.1,1.3,0.4,1.6c0.3,0.3,0.6,0.5,1.1,0.5c0.2,0,0.4,0,0.6,0
		c0.2,0,0.4,0,0.7-0.1l0.2,1c-0.2,0.1-0.5,0.2-0.8,0.2c-0.3,0-0.6,0.1-0.9,0.1c-0.8,0-1.5-0.3-1.9-0.8c-0.5-0.5-0.7-1.3-0.7-2.4
		v-7.6h-2v-1.1h2v-3H334.6z"/>
	<path class="st3" d="M344.3,537c-1.5,0-2.7-0.5-3.6-1.6s-1.4-2.4-1.4-4.1v-0.6c0-1.7,0.5-3,1.4-4.1s2.1-1.6,3.5-1.6
		c1.4,0,2.5,0.5,3.4,1.4c0.8,0.9,1.2,2.1,1.2,3.6v1.1h-8.2v0.3c0,1.3,0.3,2.4,1,3.3c0.7,0.9,1.6,1.3,2.7,1.3c0.8,0,1.5-0.1,2.1-0.3
		c0.6-0.2,1-0.5,1.4-1l0.5,0.9c-0.4,0.5-1,0.8-1.7,1.1C346,536.8,345.2,537,344.3,537z M344.1,526c-1,0-1.8,0.4-2.4,1.1
		c-0.6,0.7-1,1.6-1.1,2.7l0,0.1h6.8v-0.3c0-1-0.3-1.8-0.9-2.5C345.9,526.3,345.1,526,344.1,526z"/>
	<path class="st3" d="M352.4,525.1l0.1,2c0.4-0.7,0.9-1.3,1.5-1.7c0.6-0.4,1.4-0.6,2.2-0.6c1.3,0,2.2,0.4,2.9,1.2s1,2,1,3.6v7.1
		h-1.3v-7.1c0-1.3-0.2-2.3-0.7-2.8c-0.5-0.6-1.2-0.8-2.1-0.8c-0.9,0-1.6,0.2-2.2,0.7c-0.6,0.5-1,1.1-1.2,1.9v8.1h-1.3v-11.6H352.4z"
		/>
	<path class="st3" d="M367.8,537c-1.5,0-2.7-0.5-3.6-1.6s-1.4-2.4-1.4-4.1v-0.6c0-1.7,0.5-3,1.4-4.1s2.1-1.6,3.5-1.6
		c1.4,0,2.5,0.5,3.4,1.4c0.8,0.9,1.2,2.1,1.2,3.6v1.1h-8.2v0.3c0,1.3,0.3,2.4,1,3.3c0.7,0.9,1.6,1.3,2.7,1.3c0.8,0,1.5-0.1,2.1-0.3
		c0.6-0.2,1-0.5,1.4-1l0.5,0.9c-0.4,0.5-1,0.8-1.7,1.1C369.6,536.8,368.8,537,367.8,537z M367.7,526c-1,0-1.8,0.4-2.4,1.1
		c-0.6,0.7-1,1.6-1.1,2.7l0,0.1h6.8v-0.3c0-1-0.3-1.8-0.9-2.5C369.5,526.3,368.7,526,367.7,526z"/>
	<path class="st3" d="M380.2,526.2l-1-0.1c-0.8,0-1.5,0.2-2,0.7c-0.5,0.5-0.9,1.1-1.1,1.9v8h-1.3v-11.6h1.1l0.2,1.9v0.1
		c0.3-0.7,0.8-1.3,1.4-1.7c0.6-0.4,1.2-0.6,2-0.6c0.2,0,0.3,0,0.5,0s0.3,0.1,0.4,0.1L380.2,526.2z"/>
	<path class="st3" d="M392,535.9c0.9,0,1.6-0.2,2.3-0.7c0.7-0.5,1-1.2,1-2h1.1l0,0.1c0,1.1-0.4,2-1.3,2.7c-0.9,0.7-1.9,1.1-3.1,1.1
		c-1.6,0-2.8-0.5-3.7-1.6s-1.3-2.5-1.3-4.2v-0.5c0-1.7,0.4-3.1,1.3-4.2c0.9-1.1,2.1-1.6,3.7-1.6c1.3,0,2.3,0.4,3.2,1.1
		c0.8,0.8,1.3,1.7,1.2,3l0,0.1h-1.1c0-0.9-0.3-1.7-0.9-2.2c-0.6-0.6-1.4-0.8-2.3-0.8c-1.2,0-2.2,0.4-2.8,1.3c-0.6,0.9-0.9,2-0.9,3.4
		v0.5c0,1.4,0.3,2.5,0.9,3.4C389.8,535.4,390.7,535.9,392,535.9z"/>
	<path class="st3" d="M398.3,530.8c0-1.7,0.5-3.1,1.4-4.2s2.2-1.6,3.7-1.6c1.6,0,2.8,0.5,3.7,1.6s1.4,2.5,1.4,4.2v0.4
		c0,1.7-0.5,3.1-1.4,4.2s-2.2,1.6-3.7,1.6c-1.6,0-2.8-0.5-3.7-1.6s-1.4-2.5-1.4-4.2V530.8z M399.6,531.1c0,1.3,0.3,2.5,1,3.4
		c0.7,0.9,1.6,1.4,2.8,1.4c1.2,0,2.1-0.5,2.8-1.4c0.7-0.9,1-2,1-3.4v-0.4c0-1.3-0.3-2.4-1-3.4c-0.7-0.9-1.6-1.4-2.8-1.4
		c-1.2,0-2.1,0.5-2.8,1.4c-0.7,0.9-1,2-1,3.4V531.1z"/>
	<path class="st3" d="M412.4,525.1l0.1,2c0.4-0.7,0.9-1.3,1.5-1.7c0.6-0.4,1.4-0.6,2.2-0.6c1.3,0,2.2,0.4,2.9,1.2s1,2,1,3.6v7.1
		h-1.3v-7.1c0-1.3-0.2-2.3-0.7-2.8c-0.5-0.6-1.2-0.8-2.1-0.8c-0.9,0-1.6,0.2-2.2,0.7c-0.6,0.5-1,1.1-1.2,1.9v8.1h-1.3v-11.6H412.4z"
		/>
	<path class="st3" d="M430.5,533.8c0-0.5-0.2-1-0.7-1.4c-0.4-0.4-1.3-0.7-2.4-1c-1.4-0.3-2.4-0.7-3.1-1.2c-0.7-0.5-1-1.2-1-2.1
		c0-0.9,0.4-1.6,1.1-2.2c0.7-0.6,1.7-0.9,3-0.9c1.3,0,2.3,0.3,3.1,1c0.8,0.6,1.1,1.5,1.1,2.4l0,0.1h-1.2c0-0.6-0.3-1.2-0.8-1.7
		s-1.3-0.7-2.2-0.7c-0.9,0-1.6,0.2-2.1,0.6c-0.5,0.4-0.7,0.9-0.7,1.4c0,0.5,0.2,1,0.6,1.3c0.4,0.3,1.2,0.7,2.4,0.9
		c1.4,0.3,2.4,0.7,3.1,1.3c0.7,0.5,1,1.3,1,2.2c0,1-0.4,1.8-1.2,2.4c-0.8,0.6-1.8,0.9-3.1,0.9c-1.4,0-2.5-0.3-3.3-1
		s-1.2-1.5-1.1-2.4l0-0.1h1.2c0,0.8,0.4,1.4,1,1.8c0.6,0.4,1.4,0.6,2.2,0.6c0.9,0,1.7-0.2,2.2-0.6S430.5,534.4,430.5,533.8z"/>
	<path class="st3" d="M439.1,537c-1.5,0-2.7-0.5-3.6-1.6s-1.4-2.4-1.4-4.1v-0.6c0-1.7,0.5-3,1.4-4.1s2.1-1.6,3.5-1.6
		c1.4,0,2.5,0.5,3.4,1.4c0.8,0.9,1.2,2.1,1.2,3.6v1.1h-8.2v0.3c0,1.3,0.3,2.4,1,3.3c0.7,0.9,1.6,1.3,2.7,1.3c0.8,0,1.5-0.1,2.1-0.3
		c0.6-0.2,1-0.5,1.4-1l0.5,0.9c-0.4,0.5-1,0.8-1.7,1.1C440.8,536.8,440,537,439.1,537z M438.9,526c-1,0-1.8,0.4-2.4,1.1
		c-0.6,0.7-1,1.6-1.1,2.7l0,0.1h6.8v-0.3c0-1-0.3-1.8-0.9-2.5C440.8,526.3,440,526,438.9,526z"/>
	<path class="st3" d="M447.6,525.1v12.6c0,1.2-0.3,2.1-0.9,2.8c-0.6,0.6-1.4,1-2.4,1c-0.2,0-0.4,0-0.6-0.1c-0.2,0-0.4-0.1-0.6-0.2
		l0.1-1.1c0.1,0,0.3,0.1,0.5,0.1c0.2,0,0.4,0.1,0.5,0.1c0.6,0,1.1-0.2,1.5-0.7c0.4-0.4,0.5-1.1,0.5-1.9v-12.6H447.6z M447.5,521.7
		h-1.3V520h1.3V521.7z"/>
	<path class="st3" d="M450.5,530.8c0-1.7,0.5-3.1,1.4-4.2s2.2-1.6,3.7-1.6c1.6,0,2.8,0.5,3.7,1.6s1.4,2.5,1.4,4.2v0.4
		c0,1.7-0.5,3.1-1.4,4.2s-2.2,1.6-3.7,1.6c-1.6,0-2.8-0.5-3.7-1.6s-1.4-2.5-1.4-4.2V530.8z M451.8,531.1c0,1.3,0.3,2.5,1,3.4
		c0.7,0.9,1.6,1.4,2.8,1.4c1.2,0,2.1-0.5,2.8-1.4c0.7-0.9,1-2,1-3.4v-0.4c0-1.3-0.3-2.4-1-3.4c-0.7-0.9-1.6-1.4-2.8-1.4
		c-1.2,0-2.1,0.5-2.8,1.4c-0.7,0.9-1,2-1,3.4V531.1z"/>
	<path class="st3" d="M470.5,533.8c0-0.5-0.2-1-0.7-1.4c-0.4-0.4-1.3-0.7-2.4-1c-1.4-0.3-2.4-0.7-3.1-1.2c-0.7-0.5-1-1.2-1-2.1
		c0-0.9,0.4-1.6,1.1-2.2c0.7-0.6,1.7-0.9,3-0.9c1.3,0,2.3,0.3,3.1,1c0.8,0.6,1.1,1.5,1.1,2.4l0,0.1h-1.2c0-0.6-0.3-1.2-0.8-1.7
		s-1.3-0.7-2.2-0.7c-0.9,0-1.6,0.2-2.1,0.6c-0.5,0.4-0.7,0.9-0.7,1.4c0,0.5,0.2,1,0.6,1.3c0.4,0.3,1.2,0.7,2.4,0.9
		c1.4,0.3,2.4,0.7,3.1,1.3c0.7,0.5,1,1.3,1,2.2c0,1-0.4,1.8-1.2,2.4c-0.8,0.6-1.8,0.9-3.1,0.9c-1.4,0-2.5-0.3-3.3-1
		s-1.2-1.5-1.1-2.4l0-0.1h1.2c0,0.8,0.4,1.4,1,1.8c0.6,0.4,1.4,0.6,2.2,0.6c0.9,0,1.7-0.2,2.2-0.6S470.5,534.4,470.5,533.8z"/>
	<path class="st3" d="M489.4,531.2c0,1.7-0.4,3.1-1.2,4.2c-0.8,1-1.9,1.6-3.3,1.6c-0.8,0-1.5-0.2-2.1-0.5s-1.1-0.7-1.5-1.3v6H480
		v-16.1h1.1l0.2,1.8c0.4-0.6,0.9-1.1,1.5-1.5c0.6-0.4,1.3-0.5,2.2-0.5c1.4,0,2.5,0.6,3.3,1.7s1.2,2.6,1.2,4.5V531.2z M488.1,531
		c0-1.5-0.3-2.7-0.9-3.6c-0.6-0.9-1.4-1.4-2.6-1.4c-0.9,0-1.6,0.2-2.1,0.6s-0.9,0.9-1.2,1.6v5.6c0.3,0.6,0.7,1.1,1.3,1.5
		c0.6,0.4,1.2,0.5,2.1,0.5c1.1,0,2-0.4,2.6-1.3s0.9-2,0.9-3.4V531z"/>
	<path class="st3" d="M496.7,537c-1.5,0-2.7-0.5-3.6-1.6s-1.4-2.4-1.4-4.1v-0.6c0-1.7,0.5-3,1.4-4.1s2.1-1.6,3.5-1.6
		c1.4,0,2.5,0.5,3.4,1.4c0.8,0.9,1.2,2.1,1.2,3.6v1.1h-8.2v0.3c0,1.3,0.3,2.4,1,3.3c0.7,0.9,1.6,1.3,2.7,1.3c0.8,0,1.5-0.1,2.1-0.3
		c0.6-0.2,1-0.5,1.4-1l0.5,0.9c-0.4,0.5-1,0.8-1.7,1.1C498.4,536.8,497.6,537,496.7,537z M496.5,526c-1,0-1.8,0.4-2.4,1.1
		c-0.6,0.7-1,1.6-1.1,2.7l0,0.1h6.8v-0.3c0-1-0.3-1.8-0.9-2.5C498.3,526.3,497.5,526,496.5,526z"/>
	<path class="st3" d="M509,526.2l-1-0.1c-0.8,0-1.5,0.2-2,0.7c-0.5,0.5-0.9,1.1-1.1,1.9v8h-1.3v-11.6h1.1l0.2,1.9v0.1
		c0.3-0.7,0.8-1.3,1.4-1.7c0.6-0.4,1.2-0.6,2-0.6c0.2,0,0.3,0,0.5,0c0.2,0,0.3,0.1,0.4,0.1L509,526.2z"/>
	<path class="st3" d="M518.1,533.8c0-0.5-0.2-1-0.7-1.4c-0.4-0.4-1.3-0.7-2.4-1c-1.4-0.3-2.4-0.7-3.1-1.2c-0.7-0.5-1-1.2-1-2.1
		c0-0.9,0.4-1.6,1.1-2.2c0.7-0.6,1.7-0.9,3-0.9c1.3,0,2.3,0.3,3.1,1c0.8,0.6,1.1,1.5,1.1,2.4l0,0.1H518c0-0.6-0.3-1.2-0.8-1.7
		c-0.5-0.5-1.3-0.7-2.2-0.7c-0.9,0-1.6,0.2-2.1,0.6c-0.5,0.4-0.7,0.9-0.7,1.4c0,0.5,0.2,1,0.6,1.3c0.4,0.3,1.2,0.7,2.4,0.9
		c1.4,0.3,2.4,0.7,3.1,1.3s1,1.3,1,2.2c0,1-0.4,1.8-1.2,2.4c-0.8,0.6-1.8,0.9-3.1,0.9c-1.4,0-2.5-0.3-3.3-1s-1.2-1.5-1.1-2.4l0-0.1
		h1.2c0,0.8,0.4,1.4,1,1.8c0.6,0.4,1.4,0.6,2.2,0.6c0.9,0,1.7-0.2,2.2-0.6S518.1,534.4,518.1,533.8z"/>
	<path class="st3" d="M521.6,530.8c0-1.7,0.5-3.1,1.4-4.2c0.9-1.1,2.2-1.6,3.7-1.6c1.6,0,2.8,0.5,3.7,1.6c0.9,1.1,1.4,2.5,1.4,4.2
		v0.4c0,1.7-0.5,3.1-1.4,4.2s-2.2,1.6-3.7,1.6c-1.6,0-2.8-0.5-3.7-1.6c-0.9-1.1-1.4-2.5-1.4-4.2V530.8z M522.9,531.1
		c0,1.3,0.3,2.5,1,3.4c0.7,0.9,1.6,1.4,2.8,1.4c1.2,0,2.1-0.5,2.8-1.4c0.7-0.9,1-2,1-3.4v-0.4c0-1.3-0.3-2.4-1-3.4
		c-0.7-0.9-1.6-1.4-2.8-1.4s-2.1,0.5-2.8,1.4c-0.7,0.9-1,2-1,3.4V531.1z"/>
	<path class="st3" d="M535.7,525.1l0.1,2c0.4-0.7,0.9-1.3,1.5-1.7c0.6-0.4,1.4-0.6,2.2-0.6c1.3,0,2.2,0.4,2.9,1.2c0.7,0.8,1,2,1,3.6
		v7.1h-1.3v-7.1c0-1.3-0.2-2.3-0.7-2.8c-0.5-0.6-1.2-0.8-2.1-0.8c-0.9,0-1.6,0.2-2.2,0.7c-0.6,0.5-1,1.1-1.2,1.9v8.1h-1.3v-11.6
		H535.7z"/>
	<path class="st3" d="M554.2,536.7c-0.1-0.4-0.1-0.7-0.2-1c0-0.3-0.1-0.6-0.1-0.9c-0.4,0.6-1,1.1-1.7,1.5c-0.7,0.4-1.5,0.6-2.4,0.6
		c-1.1,0-2-0.3-2.6-0.9c-0.6-0.6-0.9-1.4-0.9-2.4c0-1.1,0.5-1.9,1.4-2.6c0.9-0.6,2.2-1,3.8-1h2.6v-1.4c0-0.8-0.3-1.5-0.8-2
		s-1.3-0.7-2.2-0.7c-0.9,0-1.6,0.2-2.2,0.7s-0.9,1-0.9,1.7l-1.2,0l0-0.1c0-0.9,0.4-1.6,1.2-2.3s1.9-1,3.2-1c1.3,0,2.3,0.3,3.1,1
		c0.8,0.7,1.2,1.6,1.2,2.8v5.7c0,0.4,0,0.8,0.1,1.2c0,0.4,0.1,0.8,0.2,1.1H554.2z M549.9,535.8c0.9,0,1.7-0.2,2.4-0.6s1.2-1,1.5-1.7
		v-2.4h-2.6c-1.2,0-2.1,0.2-2.8,0.7c-0.7,0.5-1,1.1-1,1.9c0,0.6,0.2,1.1,0.6,1.5S549.2,535.8,549.9,535.8z"/>
	<path class="st3" d="M560.1,536.7h-1.3V520h1.3V536.7z"/>
	<path class="st3" d="M565.1,521.8h-1.3V520h1.3V521.8z M565.1,536.7h-1.3v-11.6h1.3V536.7z"/>
	<path class="st3" d="M569.5,535.6h7.5v1.1h-9.1v-1l7-9.6h-6.8v-1.1h8.4v0.9L569.5,535.6z"/>
	<path class="st3" d="M586.7,536.7c-0.1-0.4-0.1-0.7-0.2-1c0-0.3-0.1-0.6-0.1-0.9c-0.4,0.6-1,1.1-1.7,1.5c-0.7,0.4-1.5,0.6-2.4,0.6
		c-1.1,0-2-0.3-2.6-0.9c-0.6-0.6-0.9-1.4-0.9-2.4c0-1.1,0.5-1.9,1.4-2.6c0.9-0.6,2.2-1,3.8-1h2.6v-1.4c0-0.8-0.3-1.5-0.8-2
		c-0.5-0.5-1.3-0.7-2.2-0.7c-0.9,0-1.6,0.2-2.2,0.7c-0.6,0.5-0.9,1-0.9,1.7l-1.2,0l0-0.1c0-0.9,0.4-1.6,1.2-2.3c0.8-0.7,1.9-1,3.2-1
		c1.3,0,2.3,0.3,3.1,1s1.2,1.6,1.2,2.8v5.7c0,0.4,0,0.8,0.1,1.2s0.1,0.8,0.2,1.1H586.7z M582.5,535.8c0.9,0,1.7-0.2,2.4-0.6
		s1.2-1,1.5-1.7v-2.4h-2.6c-1.2,0-2.1,0.2-2.8,0.7c-0.7,0.5-1,1.1-1,1.9c0,0.6,0.2,1.1,0.7,1.5C581.2,535.6,581.8,535.8,582.5,535.8
		z"/>
	<path class="st3" d="M590.7,531c0-1.9,0.4-3.3,1.2-4.5s1.9-1.7,3.3-1.7c0.8,0,1.5,0.2,2.1,0.5c0.6,0.3,1.1,0.8,1.5,1.5V520h1.3
		v16.8h-1.1l-0.1-1.7c-0.4,0.6-0.9,1.1-1.5,1.4c-0.6,0.3-1.3,0.5-2.1,0.5c-1.4,0-2.5-0.5-3.3-1.6c-0.8-1-1.2-2.4-1.2-4.2V531z
		 M592,531.2c0,1.4,0.3,2.5,0.8,3.4s1.4,1.3,2.5,1.3c0.8,0,1.5-0.2,2.1-0.6s1-0.9,1.3-1.6v-5.5c-0.3-0.7-0.7-1.2-1.2-1.6
		c-0.5-0.4-1.2-0.6-2.1-0.6c-1.1,0-2,0.5-2.6,1.4c-0.6,0.9-0.9,2.1-0.9,3.6V531.2z"/>
	<path class="st3" d="M602.7,530.8c0-1.7,0.5-3.1,1.4-4.2c0.9-1.1,2.2-1.6,3.7-1.6c1.6,0,2.8,0.5,3.7,1.6c0.9,1.1,1.4,2.5,1.4,4.2
		v0.4c0,1.7-0.5,3.1-1.4,4.2s-2.2,1.6-3.7,1.6c-1.6,0-2.8-0.5-3.7-1.6c-0.9-1.1-1.4-2.5-1.4-4.2V530.8z M604,531.1
		c0,1.3,0.3,2.5,1,3.4c0.7,0.9,1.6,1.4,2.8,1.4c1.2,0,2.1-0.5,2.8-1.4c0.7-0.9,1-2,1-3.4v-0.4c0-1.3-0.3-2.4-1-3.4
		c-0.7-0.9-1.6-1.4-2.8-1.4s-2.1,0.5-2.8,1.4c-0.7,0.9-1,2-1,3.4V531.1z"/>
	<path class="st3" d="M622.7,533.8c0-0.5-0.2-1-0.7-1.4c-0.4-0.4-1.3-0.7-2.4-1c-1.4-0.3-2.4-0.7-3.1-1.2c-0.7-0.5-1-1.2-1-2.1
		c0-0.9,0.4-1.6,1.1-2.2c0.7-0.6,1.7-0.9,3-0.9c1.3,0,2.3,0.3,3.1,1c0.8,0.6,1.1,1.5,1.1,2.4l0,0.1h-1.2c0-0.6-0.3-1.2-0.8-1.7
		c-0.5-0.5-1.3-0.7-2.2-0.7c-0.9,0-1.6,0.2-2.1,0.6c-0.5,0.4-0.7,0.9-0.7,1.4c0,0.5,0.2,1,0.6,1.3c0.4,0.3,1.2,0.7,2.4,0.9
		c1.4,0.3,2.4,0.7,3.1,1.3s1,1.3,1,2.2c0,1-0.4,1.8-1.2,2.4c-0.8,0.6-1.8,0.9-3.1,0.9c-1.4,0-2.5-0.3-3.3-1s-1.2-1.5-1.1-2.4l0-0.1
		h1.2c0,0.8,0.4,1.4,1,1.8c0.6,0.4,1.4,0.6,2.2,0.6c0.9,0,1.7-0.2,2.2-0.6S622.7,534.4,622.7,533.8z"/>
</g>
<g class="st1">
	<path class="st3" d="M149.3,557.4c0-1.9,0.4-3.3,1.2-4.5s1.9-1.7,3.3-1.7c0.8,0,1.5,0.2,2.1,0.5s1.1,0.8,1.5,1.5v-6.9h1.3v16.8
		h-1.1l-0.1-1.7c-0.4,0.6-0.9,1.1-1.5,1.4c-0.6,0.3-1.3,0.5-2.1,0.5c-1.4,0-2.5-0.5-3.3-1.6c-0.8-1-1.2-2.4-1.2-4.2V557.4z
		 M150.6,557.6c0,1.4,0.3,2.5,0.8,3.4c0.6,0.8,1.4,1.3,2.5,1.3c0.8,0,1.5-0.2,2.1-0.6c0.6-0.4,1-0.9,1.3-1.6v-5.5
		c-0.3-0.7-0.7-1.2-1.2-1.6c-0.5-0.4-1.2-0.6-2.1-0.6c-1.1,0-2,0.5-2.6,1.4c-0.6,0.9-0.9,2.1-0.9,3.6V557.6z"/>
	<path class="st3" d="M166.4,563.4c-1.5,0-2.7-0.5-3.6-1.6s-1.4-2.4-1.4-4.1v-0.6c0-1.7,0.5-3,1.4-4.1s2.1-1.6,3.5-1.6
		c1.4,0,2.5,0.5,3.4,1.4c0.8,0.9,1.2,2.1,1.2,3.6v1.1h-8.2v0.3c0,1.3,0.3,2.4,1,3.3c0.7,0.9,1.6,1.3,2.7,1.3c0.8,0,1.5-0.1,2.1-0.3
		c0.6-0.2,1-0.5,1.4-1l0.5,0.9c-0.4,0.5-1,0.8-1.7,1.1C168.1,563.2,167.3,563.4,166.4,563.4z M166.2,552.4c-1,0-1.8,0.4-2.4,1.1
		c-0.6,0.7-1,1.6-1.1,2.7l0,0.1h6.8v-0.3c0-1-0.3-1.8-0.9-2.5C168,552.7,167.2,552.4,166.2,552.4z"/>
	<path class="st3" d="M179.6,563.1v-10.6h-1.9v-1.1h1.9v-1.7c0-1.2,0.3-2.1,0.9-2.7c0.6-0.6,1.4-1,2.5-1c0.2,0,0.5,0,0.7,0.1
		c0.2,0,0.5,0.1,0.7,0.2l-0.2,1.1c-0.2,0-0.3-0.1-0.5-0.1c-0.2,0-0.4,0-0.6,0c-0.7,0-1.2,0.2-1.6,0.7c-0.4,0.4-0.6,1.1-0.6,1.9v1.7
		h2.8v1.1h-2.8v10.6H179.6z"/>
	<path class="st3" d="M193.3,563.1c-0.1-0.4-0.1-0.7-0.2-1c0-0.3-0.1-0.6-0.1-0.9c-0.4,0.6-1,1.1-1.7,1.5c-0.7,0.4-1.5,0.6-2.4,0.6
		c-1.1,0-2-0.3-2.6-0.9s-0.9-1.4-0.9-2.4c0-1.1,0.5-1.9,1.4-2.6s2.2-1,3.8-1h2.6V555c0-0.8-0.3-1.5-0.8-2c-0.5-0.5-1.3-0.7-2.2-0.7
		c-0.9,0-1.6,0.2-2.2,0.7c-0.6,0.5-0.9,1-0.9,1.7l-1.2,0l0-0.1c0-0.9,0.4-1.6,1.2-2.3c0.8-0.7,1.9-1,3.2-1c1.3,0,2.3,0.3,3.1,1
		c0.8,0.7,1.2,1.6,1.2,2.8v5.7c0,0.4,0,0.8,0.1,1.2c0,0.4,0.1,0.8,0.2,1.1H193.3z M189.1,562.2c0.9,0,1.7-0.2,2.4-0.6s1.2-1,1.5-1.7
		v-2.4h-2.6c-1.2,0-2.1,0.2-2.8,0.7c-0.7,0.5-1,1.1-1,1.9c0,0.6,0.2,1.1,0.6,1.5C187.7,562,188.3,562.2,189.1,562.2z"/>
	<path class="st3" d="M203.1,552.6l-1-0.1c-0.8,0-1.5,0.2-2,0.7c-0.5,0.5-0.9,1.1-1.1,1.9v8h-1.3v-11.6h1.1l0.2,1.9v0.1
		c0.3-0.7,0.8-1.3,1.4-1.7c0.6-0.4,1.2-0.6,2-0.6c0.2,0,0.3,0,0.5,0s0.3,0.1,0.4,0.1L203.1,552.6z"/>
	<path class="st3" d="M206.3,551.5l0.1,1.9c0.4-0.7,0.9-1.2,1.5-1.6c0.6-0.4,1.4-0.6,2.2-0.6c0.9,0,1.6,0.2,2.2,0.6
		c0.6,0.4,1,1.1,1.3,2c0.4-0.8,0.9-1.5,1.5-1.9s1.4-0.7,2.4-0.7c1.2,0,2.2,0.4,2.9,1.2s1,2.1,1,3.8v6.8h-1.3v-6.8
		c0-1.4-0.3-2.4-0.8-3c-0.5-0.6-1.2-0.9-2.1-0.9c-1,0-1.8,0.3-2.3,0.9c-0.5,0.6-0.9,1.4-1,2.4c0,0.1,0,0.1,0,0.2c0,0.1,0,0.2,0,0.2
		v7h-1.3v-6.8c0-1.4-0.3-2.4-0.8-3c-0.5-0.6-1.2-0.9-2.1-0.9c-0.9,0-1.6,0.2-2.2,0.7c-0.5,0.5-0.9,1.1-1.1,1.9v8.2h-1.3v-11.6H206.3
		z"/>
	<path class="st3" d="M232.1,563.1c-0.1-0.4-0.1-0.7-0.2-1c0-0.3-0.1-0.6-0.1-0.9c-0.4,0.6-1,1.1-1.7,1.5c-0.7,0.4-1.5,0.6-2.4,0.6
		c-1.1,0-2-0.3-2.6-0.9s-0.9-1.4-0.9-2.4c0-1.1,0.5-1.9,1.4-2.6s2.2-1,3.8-1h2.6V555c0-0.8-0.3-1.5-0.8-2c-0.5-0.5-1.3-0.7-2.2-0.7
		c-0.9,0-1.6,0.2-2.2,0.7c-0.6,0.5-0.9,1-0.9,1.7l-1.2,0l0-0.1c0-0.9,0.4-1.6,1.2-2.3c0.8-0.7,1.9-1,3.2-1c1.3,0,2.3,0.3,3.1,1
		c0.8,0.7,1.2,1.6,1.2,2.8v5.7c0,0.4,0,0.8,0.1,1.2c0,0.4,0.1,0.8,0.2,1.1H232.1z M227.9,562.2c0.9,0,1.7-0.2,2.4-0.6s1.2-1,1.5-1.7
		v-2.4h-2.6c-1.2,0-2.1,0.2-2.8,0.7c-0.7,0.5-1,1.1-1,1.9c0,0.6,0.2,1.1,0.6,1.5C226.5,562,227.1,562.2,227.9,562.2z"/>
	<path class="st3" d="M240.9,562.3c0.9,0,1.6-0.2,2.3-0.7c0.7-0.5,1-1.2,1-2h1.1l0,0.1c0,1.1-0.4,2-1.3,2.7
		c-0.9,0.7-1.9,1.1-3.1,1.1c-1.6,0-2.8-0.5-3.7-1.6s-1.3-2.5-1.3-4.2v-0.5c0-1.7,0.4-3.1,1.3-4.2c0.9-1.1,2.1-1.6,3.7-1.6
		c1.3,0,2.3,0.4,3.2,1.1c0.8,0.8,1.3,1.7,1.2,3l0,0.1h-1.1c0-0.9-0.3-1.7-0.9-2.2c-0.6-0.6-1.4-0.8-2.3-0.8c-1.2,0-2.2,0.4-2.8,1.3
		c-0.6,0.9-0.9,2-0.9,3.4v0.5c0,1.4,0.3,2.5,0.9,3.4C238.7,561.8,239.6,562.3,240.9,562.3z"/>
	<path class="st3" d="M252.3,563.4c-1.5,0-2.7-0.5-3.6-1.6s-1.4-2.4-1.4-4.1v-0.6c0-1.7,0.5-3,1.4-4.1s2.1-1.6,3.5-1.6
		c1.4,0,2.5,0.5,3.4,1.4c0.8,0.9,1.2,2.1,1.2,3.6v1.1h-8.2v0.3c0,1.3,0.3,2.4,1,3.3c0.7,0.9,1.6,1.3,2.7,1.3c0.8,0,1.5-0.1,2.1-0.3
		c0.6-0.2,1-0.5,1.4-1l0.5,0.9c-0.4,0.5-1,0.8-1.7,1.1C254,563.2,253.2,563.4,252.3,563.4z M252.2,552.4c-1,0-1.8,0.4-2.4,1.1
		c-0.6,0.7-1,1.6-1.1,2.7l0,0.1h6.8v-0.3c0-1-0.3-1.8-0.9-2.5C254,552.7,253.2,552.4,252.2,552.4z M253.7,547h1.6l0,0.1l-2.7,2.8
		h-1.2L253.7,547z"/>
	<path class="st3" d="M266.9,561.2c-0.4,0.7-0.9,1.2-1.5,1.6c-0.6,0.4-1.4,0.6-2.2,0.6c-1.2,0-2.2-0.4-2.9-1.2c-0.7-0.8-1-2.1-1-3.9
		v-6.7h1.3v6.8c0,1.4,0.2,2.4,0.7,3.1c0.5,0.6,1.2,0.9,2.1,0.9c1,0,1.8-0.2,2.3-0.7s1-1,1.2-1.8v-8.3h1.3v11.6H267L266.9,561.2z"/>
	<path class="st3" d="M273.5,548.5v3h2.6v1.1h-2.6v7.6c0,0.8,0.1,1.3,0.4,1.6c0.3,0.3,0.6,0.5,1.1,0.5c0.2,0,0.4,0,0.6,0
		c0.2,0,0.4,0,0.7-0.1l0.2,1c-0.2,0.1-0.5,0.2-0.8,0.2c-0.3,0-0.6,0.1-0.9,0.1c-0.8,0-1.5-0.3-1.9-0.8c-0.5-0.5-0.7-1.3-0.7-2.4
		v-7.6h-2v-1.1h2v-3H273.5z"/>
	<path class="st3" d="M280.3,548.2H279v-1.8h1.3V548.2z M280.3,563.1H279v-11.6h1.3V563.1z"/>
	<path class="st3" d="M288.1,562.3c0.9,0,1.6-0.2,2.3-0.7c0.7-0.5,1-1.2,1-2h1.1l0,0.1c0,1.1-0.4,2-1.3,2.7
		c-0.9,0.7-1.9,1.1-3.1,1.1c-1.6,0-2.8-0.5-3.7-1.6s-1.3-2.5-1.3-4.2v-0.5c0-1.7,0.4-3.1,1.3-4.2c0.9-1.1,2.1-1.6,3.7-1.6
		c1.3,0,2.3,0.4,3.2,1.1c0.8,0.8,1.3,1.7,1.2,3l0,0.1h-1.1c0-0.9-0.3-1.7-0.9-2.2c-0.6-0.6-1.4-0.8-2.3-0.8c-1.2,0-2.2,0.4-2.8,1.3
		c-0.6,0.9-0.9,2-0.9,3.4v0.5c0,1.4,0.3,2.5,0.9,3.4C285.9,561.8,286.9,562.3,288.1,562.3z"/>
	<path class="st3" d="M294.5,557.1c0-1.7,0.5-3.1,1.4-4.2s2.2-1.6,3.7-1.6c1.6,0,2.8,0.5,3.7,1.6s1.4,2.5,1.4,4.2v0.4
		c0,1.7-0.5,3.1-1.4,4.2s-2.2,1.6-3.7,1.6c-1.6,0-2.8-0.5-3.7-1.6s-1.4-2.5-1.4-4.2V557.1z M295.8,557.5c0,1.3,0.3,2.5,1,3.4
		c0.7,0.9,1.6,1.4,2.8,1.4c1.2,0,2.1-0.5,2.8-1.4c0.7-0.9,1-2,1-3.4v-0.4c0-1.3-0.3-2.4-1-3.4c-0.7-0.9-1.6-1.4-2.8-1.4
		c-1.2,0-2.1,0.5-2.8,1.4c-0.7,0.9-1,2-1,3.4V557.5z"/>
	<path class="st3" d="M314.4,560.2c0-0.5-0.2-1-0.7-1.4c-0.4-0.4-1.3-0.7-2.4-1c-1.4-0.3-2.4-0.7-3.1-1.2c-0.7-0.5-1-1.2-1-2.1
		c0-0.9,0.4-1.6,1.1-2.2c0.7-0.6,1.7-0.9,3-0.9c1.3,0,2.3,0.3,3.1,1c0.8,0.6,1.1,1.5,1.1,2.4l0,0.1h-1.2c0-0.6-0.3-1.2-0.8-1.7
		s-1.3-0.7-2.2-0.7c-0.9,0-1.6,0.2-2.1,0.6c-0.5,0.4-0.7,0.9-0.7,1.4c0,0.5,0.2,1,0.6,1.3c0.4,0.3,1.2,0.7,2.4,0.9
		c1.4,0.3,2.4,0.7,3.1,1.3c0.7,0.5,1,1.3,1,2.2c0,1-0.4,1.8-1.2,2.4c-0.8,0.6-1.8,0.9-3.1,0.9c-1.4,0-2.5-0.3-3.3-1
		s-1.2-1.5-1.1-2.4l0-0.1h1.2c0,0.8,0.4,1.4,1,1.8c0.6,0.4,1.4,0.6,2.2,0.6c0.9,0,1.7-0.2,2.2-0.6S314.4,560.7,314.4,560.2z"/>
	<path class="st3" d="M327.3,560l0.4,1.4h0.1l3.5-9.9h1.4l-5,13.5c-0.3,0.8-0.7,1.5-1.2,2c-0.5,0.6-1.2,0.8-2.1,0.8
		c-0.2,0-0.3,0-0.5,0s-0.4-0.1-0.5-0.1l0.2-1.1c0.1,0,0.2,0,0.4,0c0.2,0,0.3,0,0.4,0c0.6,0,1-0.2,1.3-0.6c0.3-0.4,0.6-0.9,0.9-1.5
		l0.6-1.6l-4.5-11.5h1.4L327.3,560z"/>
	<path class="st3" d="M344.4,562.3c0.9,0,1.6-0.2,2.3-0.7c0.7-0.5,1-1.2,1-2h1.1l0,0.1c0,1.1-0.4,2-1.3,2.7
		c-0.9,0.7-1.9,1.1-3.1,1.1c-1.6,0-2.8-0.5-3.7-1.6s-1.3-2.5-1.3-4.2v-0.5c0-1.7,0.4-3.1,1.3-4.2c0.9-1.1,2.1-1.6,3.7-1.6
		c1.3,0,2.3,0.4,3.2,1.1c0.8,0.8,1.3,1.7,1.2,3l0,0.1h-1.1c0-0.9-0.3-1.7-0.9-2.2c-0.6-0.6-1.4-0.8-2.3-0.8c-1.2,0-2.2,0.4-2.8,1.3
		c-0.6,0.9-0.9,2-0.9,3.4v0.5c0,1.4,0.3,2.5,0.9,3.4C342.2,561.8,343.2,562.3,344.4,562.3z"/>
	<path class="st3" d="M350.8,557.1c0-1.7,0.5-3.1,1.4-4.2s2.2-1.6,3.7-1.6c1.6,0,2.8,0.5,3.7,1.6s1.4,2.5,1.4,4.2v0.4
		c0,1.7-0.5,3.1-1.4,4.2s-2.2,1.6-3.7,1.6c-1.6,0-2.8-0.5-3.7-1.6s-1.4-2.5-1.4-4.2V557.1z M352.1,557.5c0,1.3,0.3,2.5,1,3.4
		c0.7,0.9,1.6,1.4,2.8,1.4c1.2,0,2.1-0.5,2.8-1.4c0.7-0.9,1-2,1-3.4v-0.4c0-1.3-0.3-2.4-1-3.4c-0.7-0.9-1.6-1.4-2.8-1.4
		c-1.2,0-2.1,0.5-2.8,1.4c-0.7,0.9-1,2-1,3.4V557.5z"/>
	<path class="st3" d="M371.1,563.1c-0.1-0.4-0.1-0.7-0.2-1c0-0.3-0.1-0.6-0.1-0.9c-0.4,0.6-1,1.1-1.7,1.5c-0.7,0.4-1.5,0.6-2.4,0.6
		c-1.1,0-2-0.3-2.6-0.9s-0.9-1.4-0.9-2.4c0-1.1,0.5-1.9,1.4-2.6s2.2-1,3.8-1h2.6V555c0-0.8-0.3-1.5-0.8-2c-0.5-0.5-1.3-0.7-2.2-0.7
		c-0.9,0-1.6,0.2-2.2,0.7c-0.6,0.5-0.9,1-0.9,1.7l-1.2,0l0-0.1c0-0.9,0.4-1.6,1.2-2.3c0.8-0.7,1.9-1,3.2-1c1.3,0,2.3,0.3,3.1,1
		c0.8,0.7,1.2,1.6,1.2,2.8v5.7c0,0.4,0,0.8,0.1,1.2c0,0.4,0.1,0.8,0.2,1.1H371.1z M366.9,562.2c0.9,0,1.7-0.2,2.4-0.6s1.2-1,1.5-1.7
		v-2.4h-2.6c-1.2,0-2.1,0.2-2.8,0.7c-0.7,0.5-1,1.1-1,1.9c0,0.6,0.2,1.1,0.6,1.5C365.5,562,366.1,562.2,366.9,562.2z"/>
	<path class="st3" d="M379.9,562.3c0.9,0,1.6-0.2,2.3-0.7c0.7-0.5,1-1.2,1-2h1.1l0,0.1c0,1.1-0.4,2-1.3,2.7
		c-0.9,0.7-1.9,1.1-3.1,1.1c-1.6,0-2.8-0.5-3.7-1.6s-1.3-2.5-1.3-4.2v-0.5c0-1.7,0.4-3.1,1.3-4.2c0.9-1.1,2.1-1.6,3.7-1.6
		c1.3,0,2.3,0.4,3.2,1.1c0.8,0.8,1.3,1.7,1.2,3l0,0.1h-1.1c0-0.9-0.3-1.7-0.9-2.2c-0.6-0.6-1.4-0.8-2.3-0.8c-1.2,0-2.2,0.4-2.8,1.3
		c-0.6,0.9-0.9,2-0.9,3.4v0.5c0,1.4,0.3,2.5,0.9,3.4C377.7,561.8,378.6,562.3,379.9,562.3z"/>
	<path class="st3" d="M388.3,553.5c0.4-0.7,0.9-1.2,1.5-1.6s1.4-0.6,2.3-0.6c1.2,0,2.2,0.4,2.8,1.1s1,1.9,1,3.5v7.2h-1.3v-7.2
		c0-1.3-0.2-2.2-0.7-2.7c-0.5-0.5-1.2-0.8-2.1-0.8c-0.9,0-1.6,0.2-2.2,0.7c-0.6,0.5-1,1.1-1.3,1.8v8.2H387v-16.8h1.3V553.5z"/>
	<path class="st3" d="M406.2,560.2c0-0.5-0.2-1-0.7-1.4c-0.4-0.4-1.3-0.7-2.4-1c-1.4-0.3-2.4-0.7-3.1-1.2c-0.7-0.5-1-1.2-1-2.1
		c0-0.9,0.4-1.6,1.1-2.2c0.7-0.6,1.7-0.9,3-0.9c1.3,0,2.3,0.3,3.1,1c0.8,0.6,1.1,1.5,1.1,2.4l0,0.1h-1.2c0-0.6-0.3-1.2-0.8-1.7
		s-1.3-0.7-2.2-0.7c-0.9,0-1.6,0.2-2.1,0.6c-0.5,0.4-0.7,0.9-0.7,1.4c0,0.5,0.2,1,0.6,1.3c0.4,0.3,1.2,0.7,2.4,0.9
		c1.4,0.3,2.4,0.7,3.1,1.3c0.7,0.5,1,1.3,1,2.2c0,1-0.4,1.8-1.2,2.4c-0.8,0.6-1.8,0.9-3.1,0.9c-1.4,0-2.5-0.3-3.3-1
		s-1.2-1.5-1.1-2.4l0-0.1h1.2c0,0.8,0.4,1.4,1,1.8c0.6,0.4,1.4,0.6,2.2,0.6c0.9,0,1.7-0.2,2.2-0.6S406.2,560.7,406.2,560.2z"/>
	<path class="st3" d="M425.1,557.6c0,1.7-0.4,3.1-1.2,4.2c-0.8,1-1.9,1.6-3.3,1.6c-0.8,0-1.5-0.2-2.1-0.5s-1.1-0.7-1.5-1.3v6h-1.3
		v-16.1h1.1l0.2,1.8c0.4-0.6,0.9-1.1,1.5-1.5c0.6-0.4,1.3-0.5,2.2-0.5c1.4,0,2.5,0.6,3.3,1.7s1.2,2.6,1.2,4.5V557.6z M423.8,557.4
		c0-1.5-0.3-2.7-0.9-3.6c-0.6-0.9-1.4-1.4-2.6-1.4c-0.9,0-1.6,0.2-2.1,0.6s-0.9,0.9-1.2,1.6v5.6c0.3,0.6,0.7,1.1,1.3,1.5
		c0.6,0.4,1.2,0.5,2.1,0.5c1.1,0,2-0.4,2.6-1.3s0.9-2,0.9-3.4V557.4z"/>
</g>
<g class="st1">
	<path class="st3" d="M433.4,552.6l-1-0.1c-0.8,0-1.5,0.2-2,0.7c-0.5,0.5-0.9,1.1-1.1,1.9v8h-1.3v-11.6h1.1l0.2,1.9v0.1
		c0.3-0.7,0.8-1.3,1.4-1.7c0.6-0.4,1.2-0.6,2-0.6c0.2,0,0.3,0,0.5,0s0.3,0.1,0.4,0.1L433.4,552.6z"/>
</g>
<g class="st1">
	<path class="st3" d="M434.6,557.1c0-1.7,0.5-3.1,1.4-4.2s2.2-1.6,3.7-1.6c1.6,0,2.8,0.5,3.7,1.6s1.4,2.5,1.4,4.2v0.4
		c0,1.7-0.5,3.1-1.4,4.2s-2.2,1.6-3.7,1.6c-1.6,0-2.8-0.5-3.7-1.6s-1.4-2.5-1.4-4.2V557.1z M435.9,557.5c0,1.3,0.3,2.5,1,3.4
		c0.7,0.9,1.6,1.4,2.8,1.4c1.2,0,2.1-0.5,2.8-1.4c0.7-0.9,1-2,1-3.4v-0.4c0-1.3-0.3-2.4-1-3.4c-0.7-0.9-1.6-1.4-2.8-1.4
		c-1.2,0-2.1,0.5-2.8,1.4c-0.7,0.9-1,2-1,3.4V557.5z"/>
</g>
<g class="st1">
	<path class="st3" d="M448.5,563.1v-10.6h-1.9v-1.1h1.9v-1.7c0-1.2,0.3-2.1,0.9-2.7c0.6-0.6,1.4-1,2.5-1c0.2,0,0.5,0,0.7,0.1
		c0.2,0,0.5,0.1,0.7,0.2l-0.2,1.1c-0.2,0-0.3-0.1-0.5-0.1c-0.2,0-0.4,0-0.6,0c-0.7,0-1.2,0.2-1.6,0.7c-0.4,0.4-0.6,1.1-0.6,1.9v1.7
		h2.8v1.1h-2.8v10.6H448.5z"/>
</g>
<g class="st1">
	<path class="st3" d="M458.9,563.4c-1.5,0-2.7-0.5-3.6-1.6s-1.4-2.4-1.4-4.1v-0.6c0-1.7,0.5-3,1.4-4.1s2.1-1.6,3.5-1.6
		c1.4,0,2.5,0.5,3.4,1.4c0.8,0.9,1.2,2.1,1.2,3.6v1.1h-8.2v0.3c0,1.3,0.3,2.4,1,3.3c0.7,0.9,1.6,1.3,2.7,1.3c0.8,0,1.5-0.1,2.1-0.3
		c0.6-0.2,1-0.5,1.4-1l0.5,0.9c-0.4,0.5-1,0.8-1.7,1.1C460.6,563.2,459.8,563.4,458.9,563.4z M458.7,552.4c-1,0-1.8,0.4-2.4,1.1
		c-0.6,0.7-1,1.6-1.1,2.7l0,0.1h6.8v-0.3c0-1-0.3-1.8-0.9-2.5C460.6,552.7,459.8,552.4,458.7,552.4z"/>
	<path class="st3" d="M472.8,560.2c0-0.5-0.2-1-0.7-1.4c-0.4-0.4-1.3-0.7-2.4-1c-1.4-0.3-2.4-0.7-3.1-1.2c-0.7-0.5-1-1.2-1-2.1
		c0-0.9,0.4-1.6,1.1-2.2c0.7-0.6,1.7-0.9,3-0.9c1.3,0,2.3,0.3,3.1,1c0.8,0.6,1.1,1.5,1.1,2.4l0,0.1h-1.2c0-0.6-0.3-1.2-0.8-1.7
		s-1.3-0.7-2.2-0.7c-0.9,0-1.6,0.2-2.1,0.6c-0.5,0.4-0.7,0.9-0.7,1.4c0,0.5,0.2,1,0.6,1.3c0.4,0.3,1.2,0.7,2.4,0.9
		c1.4,0.3,2.4,0.7,3.1,1.3c0.7,0.5,1,1.3,1,2.2c0,1-0.4,1.8-1.2,2.4c-0.8,0.6-1.8,0.9-3.1,0.9c-1.4,0-2.5-0.3-3.3-1
		s-1.2-1.5-1.1-2.4l0-0.1h1.2c0,0.8,0.4,1.4,1,1.8c0.6,0.4,1.4,0.6,2.2,0.6c0.9,0,1.7-0.2,2.2-0.6S472.8,560.7,472.8,560.2z"/>
	<path class="st3" d="M478.5,548.2h-1.3v-1.8h1.3V548.2z M478.5,563.1h-1.3v-11.6h1.3V563.1z"/>
	<path class="st3" d="M481.4,557.1c0-1.7,0.5-3.1,1.4-4.2s2.2-1.6,3.7-1.6c1.6,0,2.8,0.5,3.7,1.6s1.4,2.5,1.4,4.2v0.4
		c0,1.7-0.5,3.1-1.4,4.2s-2.2,1.6-3.7,1.6c-1.6,0-2.8-0.5-3.7-1.6s-1.4-2.5-1.4-4.2V557.1z M482.6,557.5c0,1.3,0.3,2.5,1,3.4
		c0.7,0.9,1.6,1.4,2.8,1.4c1.2,0,2.1-0.5,2.8-1.4c0.7-0.9,1-2,1-3.4v-0.4c0-1.3-0.3-2.4-1-3.4c-0.7-0.9-1.6-1.4-2.8-1.4
		c-1.2,0-2.1,0.5-2.8,1.4c-0.7,0.9-1,2-1,3.4V557.5z"/>
	<path class="st3" d="M495.5,551.5l0.1,2c0.4-0.7,0.9-1.3,1.5-1.7c0.6-0.4,1.4-0.6,2.2-0.6c1.3,0,2.2,0.4,2.9,1.2s1,2,1,3.6v7.1
		h-1.3V556c0-1.3-0.2-2.3-0.7-2.8c-0.5-0.6-1.2-0.8-2.1-0.8c-0.9,0-1.6,0.2-2.2,0.7c-0.6,0.5-1,1.1-1.2,1.9v8.1h-1.3v-11.6H495.5z"
		/>
	<path class="st3" d="M513.9,563.1c-0.1-0.4-0.1-0.7-0.2-1c0-0.3-0.1-0.6-0.1-0.9c-0.4,0.6-1,1.1-1.7,1.5c-0.7,0.4-1.5,0.6-2.4,0.6
		c-1.1,0-2-0.3-2.6-0.9S506,561,506,560c0-1.1,0.5-1.9,1.4-2.6s2.2-1,3.8-1h2.6V555c0-0.8-0.3-1.5-0.8-2s-1.3-0.7-2.2-0.7
		c-0.9,0-1.6,0.2-2.2,0.7s-0.9,1-0.9,1.7l-1.2,0l0-0.1c0-0.9,0.4-1.6,1.2-2.3c0.8-0.7,1.9-1,3.2-1c1.3,0,2.3,0.3,3.1,1
		s1.2,1.6,1.2,2.8v5.7c0,0.4,0,0.8,0.1,1.2c0,0.4,0.1,0.8,0.2,1.1H513.9z M509.7,562.2c0.9,0,1.7-0.2,2.4-0.6s1.2-1,1.5-1.7v-2.4
		h-2.6c-1.2,0-2.1,0.2-2.8,0.7c-0.7,0.5-1,1.1-1,1.9c0,0.6,0.2,1.1,0.6,1.5C508.3,562,508.9,562.2,509.7,562.2z"/>
	<path class="st3" d="M519.8,563.1h-1.3v-16.8h1.3V563.1z"/>
	<path class="st3" d="M527.7,563.4c-1.5,0-2.7-0.5-3.6-1.6s-1.4-2.4-1.4-4.1v-0.6c0-1.7,0.5-3,1.4-4.1c1-1.1,2.1-1.6,3.5-1.6
		c1.4,0,2.5,0.5,3.4,1.4c0.8,0.9,1.2,2.1,1.2,3.6v1.1H524v0.3c0,1.3,0.3,2.4,1,3.3c0.7,0.9,1.6,1.3,2.7,1.3c0.8,0,1.5-0.1,2.1-0.3
		c0.6-0.2,1-0.5,1.4-1l0.5,0.9c-0.4,0.5-1,0.8-1.7,1.1C529.5,563.2,528.7,563.4,527.7,563.4z M527.6,552.4c-1,0-1.8,0.4-2.4,1.1
		c-0.6,0.7-1,1.6-1.1,2.7l0,0.1h6.8v-0.3c0-1-0.3-1.8-0.9-2.5S528.6,552.4,527.6,552.4z"/>
	<path class="st3" d="M541.7,560.2c0-0.5-0.2-1-0.7-1.4c-0.4-0.4-1.3-0.7-2.4-1c-1.4-0.3-2.4-0.7-3.1-1.2c-0.7-0.5-1-1.2-1-2.1
		c0-0.9,0.4-1.6,1.1-2.2c0.7-0.6,1.7-0.9,3-0.9c1.3,0,2.3,0.3,3.1,1c0.8,0.6,1.1,1.5,1.1,2.4l0,0.1h-1.2c0-0.6-0.3-1.2-0.8-1.7
		c-0.5-0.5-1.3-0.7-2.2-0.7c-0.9,0-1.6,0.2-2.1,0.6c-0.5,0.4-0.7,0.9-0.7,1.4c0,0.5,0.2,1,0.6,1.3c0.4,0.3,1.2,0.7,2.4,0.9
		c1.4,0.3,2.4,0.7,3.1,1.3c0.7,0.5,1,1.3,1,2.2c0,1-0.4,1.8-1.2,2.4c-0.8,0.6-1.8,0.9-3.1,0.9c-1.4,0-2.5-0.3-3.3-1
		c-0.8-0.7-1.2-1.5-1.1-2.4l0-0.1h1.2c0,0.8,0.4,1.4,1,1.8c0.6,0.4,1.4,0.6,2.2,0.6c0.9,0,1.7-0.2,2.2-0.6S541.7,560.7,541.7,560.2z
		"/>
	<path class="st3" d="M547.5,563.1H546v-1.8h1.5V563.1z"/>
</g>
</svg>
