<?xml version="1.0" encoding="utf-8"?>
<!-- Generator: Adobe Illustrator 22.1.0, SVG Export Plug-In . SVG Version: 6.00 Build 0)  -->
<svg version="1.1" id="Capa_1" xmlns="http://www.w3.org/2000/svg" xmlns:xlink="http://www.w3.org/1999/xlink" x="0px" y="0px"
	 viewBox="0 0 1014 387" style="enable-background:new 0 0 1014 387;" xml:space="preserve">
<style type="text/css">
	.st0{fill:#FFFFFF;}
	.st1{fill:#EA0029;}
</style>
<title>Ysana_web_material</title>
<path class="st0" d="M974.8,95.2L974.8,95.2c0-9,7.6-16.5,17.2-16.5S1009,86.1,1009,95v0.1c0,8.9-7.6,16.4-17.2,16.4
	S974.8,104.1,974.8,95.2 M1007.2,95.1L1007.2,95.1c0-8.2-6.6-14.8-15.3-14.8s-15.4,6.7-15.4,14.8v0.1c0,8.1,6.6,14.7,15.3,14.7
	S1007.2,103.2,1007.2,95.1 M985,86h8c2-0.1,3.9,0.6,5.4,1.9c1,0.9,1.5,2.2,1.5,3.6v0.1c0.1,2.5-1.7,4.7-4.2,5.2l4.8,6.5h-4.1
	l-4.3-5.9h-3.7v5.9H985V86z M992.9,94.4c2.2,0,3.5-1,3.5-2.7v-0.1c0-1.7-1.3-2.7-3.5-2.7h-4.5v5.4L992.9,94.4z"/>
<path class="st0" d="M433.8,199.7c-7.5-5.9-18.3-10.2-34.3-13.5c-41.2-8.4-43.1-19.5-43.1-26.6c0-13.4,11.4-22,26.8-22
	c8.1,0,14,4,19.8,7.9c5.2,3.5,10.1,6.9,16.3,6.9c9,0,12.3-4.6,12.3-8.8c0-13.4-29.7-19.4-50.8-19.4c-16.1,0-31.1,3.9-42.3,11
	c-12.9,8.2-19.6,19.8-19.6,33.7c0,19,15.3,32.3,45.6,39.6c29.1,7.1,45.5,10.2,45.5,26.2c0,11.5-7.3,24.4-33.5,24.4
	c-13.5,0-24.1-6.6-32.6-11.6c-6.3-3.7-11.7-6.9-16.9-6.9c-7.7,0-11.6,3.4-11.6,10c0,8.1,11,13.5,20.2,16.6
	c12.3,4.1,28.1,6.4,44.6,6.4c17.7,0,34.2-4.5,46.5-12.8c12.9-8.7,19.9-20.6,19.9-33.6C446.5,215.4,442.3,206.4,433.8,199.7"/>
<path class="st0" d="M544.9,125.6c-11.9,0-25.8,2.1-35.3,5.7c-14.6,5.6-17.7,12.7-17.7,17.8c0,3.8,1.8,5.7,3.3,6.6
	c1.7,0.9,3.6,1.3,5.5,1.2h1.1h1.1c7.6,0,13.6-4.5,19.3-8.8c6.1-4.6,14-9.3,22.5-9.3h5c15,0,26.7,12.2,26.7,27.9
	c0,13.1-21.5,21.7-42.9,24.3c-34.6,4.3-55.3,21.4-55.3,45.8c0,22.3,18.9,38.5,45,38.5c7.9,0,15.9-1,23.6-2.9
	c6.7-1.7,13.6-2.5,20.5-2.5c5.2,0,11.1,1.3,16.2,2.4c4.5,1,8.3,1.8,11.5,1.8c9.4,0,14.8-5.7,14.8-15.6v-47.2c0-4,0-7.8,0-11.5
	c0.2-29.2,0.3-48.5-11.7-60.6C588.9,129.7,572.9,125.6,544.9,125.6 M579,223.2c0,19.5-18.5,35.3-41.2,35.3
	c-15,0-27.2-10.9-27.2-24.4c0-17.4,24.1-32.9,43.2-32.9C568.4,201.2,579,210.5,579,223.2"/>
<path class="st0" d="M753,128.3c-11.6,0-20.3,2.4-27.3,4.4c-4.1,1.1-7.7,2.1-10.4,2.1c-6.2,0-13-1.1-19.6-2.1
	c-6.1-0.9-11.8-1.8-16.7-1.8c-9.9,0-18.4,6-18.4,14.7v111.2c0,10.5,6.4,15.9,15.9,15.9c8.1,0,17.1-6,17.1-14.1v-68
	c0-27.5,13.8-45.3,35.1-45.3c8.4,0,33.9,0,33.9,50v63.3c0,9,6,14.1,15.5,14.1s14.9-5.8,14.9-16.4v-85.5
	C793,142.5,779.5,128.3,753,128.3"/>
<path class="st0" d="M946.7,139.2c-9.4-9.5-25.4-13.6-53.5-13.6c-11.9,0-25.8,2.1-35.3,5.7c-14.6,5.6-17.7,12.7-17.7,17.8
	c0,3.8,1.8,5.7,3.3,6.6c1.7,0.9,3.6,1.3,5.5,1.2h1.2h1.1c7.6,0,13.6-4.5,19.4-8.8c6.1-4.6,14-9.3,22.5-9.3h5
	c15,0,26.7,12.2,26.7,27.9c0,13.1-21.5,21.7-42.9,24.3c-34.6,4.3-55.3,21.4-55.3,45.8c0,22.3,19,38.6,45,38.6
	c7.9,0,15.8-0.9,23.5-2.9c6.7-1.7,13.6-2.5,20.5-2.5c5.2,0,11.1,1.3,16.2,2.4c4.5,1,8.3,1.8,11.5,1.8c9.4,0,14.8-5.7,14.8-15.6
	v-47.2c0-4,0-7.8,0-11.5c0.2-29.2,0.3-48.5-11.7-60.6 M927.3,223.2c0,19.5-18.5,35.3-41.2,35.3c-15,0-27.2-10.9-27.2-24.4
	c0-17.4,24.1-32.9,43.2-32.9C916.6,201.2,927.3,210.4,927.3,223.2"/>
<path class="st0" d="M256.1,200.1c0.2-13.4,0.3-22.8-6.5-37.3c-7.2-15.3-18.7-21.4-35.9-38.3c-0.8-0.8-1.6-1.6-2.4-2.4
	c-0.1-0.1-0.1-0.1-0.2-0.2c-0.2-0.2-0.3-0.3-0.5-0.5l-0.9-1c-3.4-3.6-6.9-8-10.7-12.8c-4.1-5.1-7.6-9.5-10.7-13.3
	c-0.2-0.3-0.5-0.6-0.7-0.9c-11.7-14-19.2-19.1-42.5-19.1c-11.7,0-31.1,1.8-13.2,21.2c0,0,66.7,59.7,72.8,68.2s11,23.5,11,40.6v54.6
	c0,11.2,6.1,17.6,20.2,17.6c15.3,0,19.6-10.6,19.6-17.6l0.2-21.5C255.7,235.9,255.8,214.7,256.1,200.1"/>
<path class="st0" d="M255.7,143.7c-10.6-26.2-9.8-51.4,7.9-75.1c19.9-26.8,55-36.9,79.1-58.2c-1.5,23.3-9.9,47.6-20.1,70
	C306.7,115.3,260.1,118.4,255.7,143.7"/>
<polygon class="st1" points="6,355.2 10.2,355.2 18.2,376.4 18.3,376.4 26.6,355.2 30.6,355.2 19.9,381.2 16.5,381.2 "/>
<rect x="66.4" y="355.2" class="st1" width="3.7" height="26"/>
<path class="st1" d="M109,355.2h9.5c1.7,0,3.4,0.2,5,0.6c1.3,0.4,2.6,0.9,3.8,1.7c1,0.7,1.9,1.5,2.6,2.4c0.7,0.9,1.2,1.8,1.7,2.8
	c0.4,0.9,0.7,1.9,0.9,2.9c0.2,0.9,0.3,1.8,0.3,2.6c0,1.7-0.4,3.3-1,4.8c-0.6,1.6-1.6,3-2.8,4.1c-1.3,1.3-2.9,2.3-4.7,2.9
	c-2,0.8-4.2,1.1-6.4,1.1H109V355.2z M112.7,377.9h4.6c1.5,0,3-0.2,4.4-0.6c1.3-0.4,2.6-1,3.7-1.8c1-0.8,1.9-1.8,2.5-3
	c0.6-1.3,1-2.8,0.9-4.2c0-1-0.2-2-0.4-2.9c-0.3-1.2-0.8-2.2-1.6-3.2c-0.9-1.1-2-1.9-3.2-2.5c-1.7-0.8-3.5-1.1-5.4-1h-5.5
	L112.7,377.9z"/>
<path class="st1" d="M179.1,355.2h3.3l11.6,26h-4.3l-2.7-6.4h-12.9l-2.7,6.4h-4.3L179.1,355.2z M185.6,371.7l-5-12h-0.1l-5.1,12
	H185.6z"/>
<path class="st1" d="M274.1,375.8c0.6,0.9,1.5,1.7,2.5,2.1c1,0.4,2.1,0.7,3.2,0.7c0.6,0,1.3-0.1,1.9-0.3c0.6-0.2,1.2-0.5,1.7-0.8
	c0.5-0.4,1-0.8,1.3-1.4c0.3-0.6,0.5-1.2,0.5-1.9c0.1-0.9-0.3-1.7-1-2.3c-0.7-0.6-1.6-1-2.5-1.3c-1-0.4-2.1-0.7-3.2-1
	c-1.1-0.3-2.2-0.8-3.2-1.4c-1-0.6-1.8-1.4-2.5-2.4c-0.7-1.2-1.1-2.6-1-4c0-0.8,0.2-1.7,0.5-2.4c0.4-0.9,0.9-1.7,1.6-2.4
	c0.8-0.8,1.8-1.4,2.9-1.8c1.3-0.5,2.8-0.8,4.2-0.7c1.4,0,2.9,0.2,4.2,0.6c1.4,0.4,2.6,1.3,3.6,2.4l-3,2.6c-0.5-0.7-1.2-1.3-2-1.7
	c-0.9-0.4-1.9-0.6-2.9-0.6c-0.9,0-1.7,0.1-2.5,0.4c-0.6,0.2-1.2,0.6-1.6,1c-0.4,0.4-0.7,0.8-0.9,1.3c-0.2,0.4-0.2,0.8-0.2,1.3
	c-0.1,1,0.3,1.9,1,2.5c0.7,0.6,1.6,1.1,2.5,1.4c1,0.4,2.1,0.7,3.2,1c1.1,0.3,2.2,0.7,3.2,1.2c1,0.5,1.8,1.3,2.5,2.1
	c0.7,1.1,1.1,2.4,1,3.7c0,2.3-1,4.5-2.8,5.9c-0.9,0.7-1.9,1.2-3,1.6c-1.2,0.4-2.4,0.6-3.7,0.5c-1.7,0-3.4-0.3-5-0.9
	c-1.5-0.5-2.8-1.5-3.7-2.7L274.1,375.8z"/>
<path class="st1" d="M335.6,355.2h3.4l11.6,26h-4.3l-2.7-6.4h-12.9l-2.7,6.5h-4.3L335.6,355.2z M342.2,371.7l-5.1-12h-0.1l-5.1,12
	H342.2z"/>
<polygon class="st1" points="386.7,355.2 391.5,355.2 406.4,376.6 406.5,376.6 406.5,355.2 410.2,355.2 410.2,381.2 405.5,381.2 
	390.4,359.9 390.3,359.9 390.3,381.2 386.7,381.2 "/>
<path class="st1" d="M458.2,355.2h3.3l11.6,26h-4.3l-2.7-6.4h-12.9l-2.7,6.4h-4.3L458.2,355.2z M464.8,371.7l-5.1-12h-0.1l-5.1,12
	H464.8z"/>
</svg>
