<?xml version="1.0" encoding="utf-8"?>
<!-- Generator: Adobe Illustrator 22.1.0, SVG Export Plug-In . SVG Version: 6.00 Build 0)  -->
<svg version="1.1" id="Capa_1" xmlns="http://www.w3.org/2000/svg" xmlns:xlink="http://www.w3.org/1999/xlink" x="0px" y="0px"
	 viewBox="0 0 682 311" style="enable-background:new 0 0 682 311;" xml:space="preserve">
<style type="text/css">
	.st0{fill:#E6007E;}
	.st1{fill:#F2F2F2;}
	.st2{enable-background:new    ;}
	.st3{fill:#FFFFFF;}
</style>
<title>Ysana-Home-club-ysana</title>
<rect x="-0.5" y="-0.3" class="st0" width="683" height="311.3"/>
<path class="st1" d="M356.7,140.1c-0.1,7.3-0.2,17.9-0.2,18.5l-0.1,10.3c0,3.5-2,8.8-9.4,8.8c-6.7,0-9.6-3.2-9.6-8.8v-26.8
	c0-8.5-2.4-16-5.3-20.2s-34.8-34-34.8-34c-8.6-9.7,0.7-10.6,6.3-10.6c11.1,0,14.7,2.5,20.3,9.5c0.1,0.1,0.2,0.3,0.3,0.4
	c1.5,1.9,3.2,4.1,5.1,6.6c1.8,2.4,3.5,4.6,5.1,6.4c0.1,0.2,0.3,0.3,0.4,0.5l0.2,0.3c0,0,0.1,0.1,0.1,0.1c0.4,0.4,0.8,0.8,1.1,1.2
	c8.2,8.4,13.7,11.5,17.2,19.1C356.8,128.7,356.8,133.4,356.7,140.1 M356.5,112.8c2.1-12.6,24.4-14.2,32-31.5
	c4.9-11.1,8.9-23.2,9.6-34.9c-11.5,10.6-28.3,15.6-37.8,29C351.9,87.2,351.5,99.8,356.5,112.8 M337.9,60.2c-7,0-12.7,5.7-12.7,12.7
	c0,7,5.7,12.7,12.7,12.7s12.7-5.7,12.7-12.7S344.9,60.2,337.9,60.2L337.9,60.2z M165.3,137.2c-0.7,0.4-1.2,1-1.3,1.8
	c-0.4,1.3-0.8,2.7-1.4,4.2c-0.5,1.2-1.1,2.6-1.8,4.1c-0.8,1.5-1.6,3-2.6,4.4c-2,2.2-4.3,4-6.9,5.5c-2.4,1.6-5.2,2.1-8,1.6
	c-1.3-0.2-2.4-0.8-3.4-1.6c-0.9-0.9-1.4-2.1-1.5-3.3c-0.3-3.3-0.1-6.6,0.5-9.9c0.6-3.2,1.8-6.3,3.4-9.2c0.5-0.8,1.1-1.6,1.8-2.2
	c1.5-1.1,3.6-0.8,4.7,0.7c0.2,0.3,0.4,0.7,0.5,1.1c0.2,0.7,0.4,1.3,0.5,2c0.2,0.7,0.4,1.3,0.7,1.9c0.4,0.9,1.2,1.5,2.2,1.7
	c0.9,0.2,1.9-0.2,2.5-0.9c0.5-0.5,0.9-1,1.2-1.7c0.2-0.6,0.4-1.3,0.4-2c0-0.8,0-1.6,0-2.4c0-0.8-0.1-1.5-0.2-2.3
	c-0.4-2.1-1.6-4-3.2-5.4c-2.3-2-5.2-3.2-8.3-3.3c-3-0.1-5.9,0.9-8.2,2.7c-1,0.7-1.9,1.6-2.8,2.5c-0.8,0.9-1.5,2-2.2,3
	c-1.1,1.8-2,3.7-2.7,5.8c-0.6,2-1.1,4.1-1.6,6.1c0,0.3,0,0.5-0.1,0.8c-0.1,0.2-0.1,0.4-0.1,0.6c-0.3,2.3-0.4,4.6-0.2,6.8
	c0.2,2.3,0.7,4.6,1.5,6.8c1.4,4.3,5,7.4,9.4,8.3h0.1c0,0,0,0.1,0.1,0.1c0,0,0,0,0,0h0.6l0.1,0.2c0.3,0,0.7,0,1,0.1h0.6
	c2.1,0.1,4.1,0.1,6.2-0.1c2.7-0.3,5.3-1.2,7.6-2.6c2.7-1.6,5-3.7,6.9-6.1c1.8-2.3,3.3-4.8,4.6-7.4c1-2,1.9-4.2,2.7-6.3l1-3
	c0.1-0.7,0-1.4-0.4-2c-0.4-0.7-1-1.1-1.8-1.3C166.7,136.7,165.9,136.8,165.3,137.2L165.3,137.2z M200.1,137
	c-0.7,0.3-1.2,0.8-1.5,1.5c-0.1,0.2-0.2,0.4-0.3,0.6c-0.1,0.2-0.2,0.4-0.3,0.6c0,0.1,0,0.2-0.1,0.3c-0.1,0.1-0.1,0.2-0.2,0.3
	c-1.2,2.1-2.5,4.3-3.7,6.4c-1.3,2.1-2.6,4.3-3.9,6.4c-0.7,1.2-1.6,2.4-2.5,3.5c-0.9,1.1-2,2.2-3.1,3.1c-0.7,0.5-1.2,0.9-1.7,1.2
	c-0.4,0.3-0.9,0.4-1.3,0.4c-0.5-0.1-0.9-0.3-1.2-0.7c-1.5-1.7-2.6-3.7-3.2-5.9c-0.3-1.4-0.6-2.9-0.7-4.3c-0.1-0.3,0-0.7,0.1-1l0.4-1
	c4.7-7.2,8.5-15,11.2-23.1c1.4-4.5,2.3-9.2,2.6-13.9c0-1.4-0.1-2.9-0.2-4.3c-0.2-1.4-0.5-2.8-1-4.1c-0.5-1.3-1.3-2.4-2.2-3.4
	c-0.9-0.9-1.9-1.6-3.1-2.1c-1.2-0.4-2.5-0.6-3.7-0.4c-1.4,0.2-2.7,0.6-3.8,1.3c-0.6,0.4-1.2,0.9-1.8,1.4c-0.6,0.5-1.1,1-1.6,1.6
	c-1.2,1.2-2.2,2.5-3.1,3.9c-0.8,1.4-1.5,2.9-2.1,4.4c-1,2.4-1.9,4.9-2.5,7.4c-0.6,2.5-1.2,5.1-1.6,7.7c-0.9,5.2-1.1,10.4-0.9,15.6
	c0.3,5.2,1.3,10.3,3.1,15.2c0.5,1.4,1,2.8,1.6,4.1c0.6,1.4,1.4,2.6,2.2,3.8c1.5,2.2,3.5,4,5.9,5.2c1.5,0.8,3.3,1.3,5,1.2
	c1.7-0.1,3.4-0.6,4.8-1.7c0.9-0.6,1.7-1.2,2.5-1.8c0.8-0.7,1.5-1.5,2.2-2.3c1-1.3,2-2.6,3-4c1-1.4,1.8-2.8,2.6-4.3
	c0.4-0.6,0.7-1.2,1.1-1.8s0.7-1.2,1.1-1.8c0.8-1.5,1.5-2.9,2.2-4.3c0.7-1.4,1.3-2.6,1.8-3.7s1-2.2,1.6-3.6c0.4-0.7,0.4-1.5,0.1-2.2
	c-0.3-0.7-0.8-1.2-1.5-1.6C201.5,136.6,200.8,136.7,200.1,137L200.1,137z M177.7,111.8c0.4-1.5,0.9-2.9,1.5-4.4
	c0.2-0.4,0.5-0.8,0.6-1.2c0.2-0.4,0.4-0.8,0.7-1.1c0.6-0.8,1.1-1.2,1.5-1.1s0.8,0.5,1.1,1.4c0.2,0.7,0.4,1.4,0.5,2.1
	c0.2,0.7,0.3,1.4,0.3,2.1c0,2-0.2,4.1-0.6,6.1c-0.5,2.7-1.2,5.4-2.2,7.9c-1,2.5-2,5.1-3.2,7.6c-0.4,0.8-0.8,1.6-1.1,2.3
	s-0.7,1.6-1.1,2.5l-0.3-0.8c0.2-3.2,0.4-6.3,0.6-9.4c0.2-3.1,0.5-6.3,0.8-9.4C177,114.8,177.3,113.3,177.7,111.8L177.7,111.8z
	 M246.2,137.1c-0.7,0.3-1.2,0.9-1.4,1.6c-0.5,1.3-1,2.6-1.6,3.8c-0.8,1.6-1.6,3.3-2.5,4.9c-0.9,1.7-1.8,3.3-2.6,4.7
	c-0.6,1-1.2,2-1.9,3l-1.3,1.3c0-0.5,0-0.9-0.1-1.2s0-0.7,0-1c0.1-1.6,0.1-3.3,0.2-5s0.2-3.3,0.4-4.9c0.1-1.4,0.3-2.6,0.5-3.9
	s0.4-2.5,0.5-3.8c0.3-2,0.3-4,0-6c-0.1-0.7-0.3-1.5-0.6-2.2c-0.2-0.7-0.6-1.4-1-2.1c-0.8-1.3-2.3-2.1-3.9-2.1c-0.7,0-1.4,0.3-2,0.6
	c-0.7,0.4-1.2,1.1-1.6,1.8c-0.4,0.7-0.8,1.4-1,2.2c-0.2,0.8-0.5,1.6-0.8,2.4c-0.1,0.5-0.2,1-0.3,1.4c-0.1,0.5-0.3,0.9-0.5,1.3
	c-3.1,6.1-6.2,12.1-9.4,18.2c-0.5,1.1-1.1,2.1-1.8,3.1c-0.6,1-1.3,2-1.9,3c-0.2,0.3-0.5,0.6-0.7,0.8s-0.5,0.5-0.8,0.8
	c-0.3-0.9-0.4-1.8-0.4-2.8c0-0.9,0-1.7,0-2.6c0.1-2.6,0.1-5.1,0.2-7.7s0.1-5.1,0.2-7.7c0-1-0.1-1.9-0.3-2.9c-0.2-1-0.7-1.9-1.3-2.7
	c-0.9-1.4-2.5-2.3-4.3-2.3c-1.7,0-3.4,0.9-4.3,2.4c-0.2,0.4-0.4,0.8-0.6,1.1c-0.2,0.4-0.4,0.9-0.5,1.3c-0.2,0.9-0.4,1.9-0.6,2.8
	c-0.2,0.9-0.3,1.8-0.3,2.7c-0.1,1.9-0.1,3.8,0,5.7c0.1,1.9,0.2,3.7,0.4,5.6c0.2,2,0.6,3.9,1.1,5.8c0.3,1.3,0.9,2.5,1.5,3.7
	c0.7,1.2,1.5,2.4,2.5,3.3c1.6,1.5,3.8,2.3,6,2.2c2.2-0.2,4.2-1.3,5.4-3.1c1.3-1.4,2.3-3,3.2-4.7c1-2,1.9-4,2.8-6s1.8-4.1,2.8-6.2
	c0.1-0.3,0.3-0.6,0.4-0.9s0.3-0.6,0.4-0.9h0.5c0.1,0.3,0.1,0.7,0.1,1c0,0.4,0.1,0.7,0.2,1.1c0.2,1.5,0.4,3,0.6,4.4s0.5,2.9,0.8,4.4
	c0.3,1.9,1.1,3.7,2.3,5.1c1.1,1.6,2.8,2.6,4.6,2.8c1.9,0.1,3.7-0.7,4.9-2.1c0.7-0.9,1.4-1.7,2.1-2.6c0.7-0.9,1.3-1.8,1.8-2.8
	l1.3-2.5c0.4-0.8,0.9-1.7,1.4-2.6c0.4-0.4,0.6-0.9,0.6-1.5c0.4-0.6,0.7-1.2,0.9-1.8c0.2-0.4,0.3-0.7,0.5-1.1
	c0.7-1.6,1.3-3.1,1.8-4.4c0.5-1.4,0.9-2.5,1.2-3.4c0.3-0.7,0.3-1.5-0.1-2.1c-0.4-0.7-1-1.2-1.6-1.4
	C247.6,136.7,246.8,136.7,246.2,137.1z M294.6,137.8c-0.5,0.2-1.1,0.4-1.6,0.6l-1.5,0.7l-0.6,0.3c-0.2,0.1-0.3,0.2-0.4,0.3
	c-0.4,0.3-0.9,0.5-1.4,0.7c-0.5,0.2-0.9,0.5-1.4,0.7c-0.2,0.1-0.4,0.2-0.6,0.3c-0.2,0.1-0.5,0.2-0.7,0.2c-0.3-0.4-0.5-0.8-0.7-1.1
	c-0.2-0.3-0.4-0.7-0.6-1.1c-1.3-2-3.2-3.4-5.4-4.1c-2.2-0.7-4.7-0.5-6.8,0.5c-1.6,0.6-3,1.5-4.4,2.5c-2.9,2.1-5.5,4.5-7.7,7.2
	c-2.2,2.7-4.2,5.6-5.8,8.8l-0.7,1.5c-0.3-0.6-0.5-1.3-0.6-1.9c-0.1-0.7-0.3-1.3-0.5-1.9c-0.1-0.5-0.1-1.1,0.2-1.6
	c0.3-0.5,0.7-0.9,1.1-1.2l3.3-3.1c1.1-1,2.1-2.1,3.1-3.2c3-3.5,5.7-7.2,8.2-11.1c2.5-3.9,4.9-7.8,7.1-11.9c1.9-3.3,3-7,3.2-10.7
	c0.1-1.6-0.1-3.2-0.6-4.6c-0.5-1.3-1.3-2.5-2.3-3.4c-1-0.9-2.3-1.6-3.6-1.9c-1.5-0.4-3.1-0.5-4.7-0.2c-2.4,0.3-4.7,1-6.8,2.2
	c-2.1,1.2-4,2.6-5.7,4.2c-2.1,2-3.9,4.3-5.4,6.8c-1.5,2.5-2.7,5.2-3.7,8c-1.3,3.9-2.2,7.9-2.6,12c-0.4,4.1-0.4,8.2-0.2,12.3
	c0.1,0.7,0.2,1.7,0.4,3.1s0.5,2.9,0.8,4.6s0.6,3.3,1,5s0.7,3.1,1.1,4.4c0.6,2.2,1.4,4.3,2.5,6.3c0.3,0.7,0.7,1.3,1.2,1.9
	c0.5,0.6,1,1.1,1.6,1.6c0.7,0.6,1.7,1,2.7,0.9c1-0.1,2-0.4,2.8-0.8c0.8-0.5,1.4-1.1,1.8-1.9c0.4-0.8,0.5-1.7,0.4-2.6
	c-0.1-1.4-0.1-2.8,0.2-4.2c0.2-1.4,0.7-2.7,1.3-3.9c1.3-2.8,3.1-5.5,5.1-7.8c2.1-2.3,4.4-4.3,7-6c1.4-1,2.4-1.4,3.1-1.1
	s1.3,1.2,1.9,3c-0.3,0.2-0.6,0.4-0.8,0.6c-0.2,0.2-0.4,0.4-0.6,0.5c-2.3,1.6-4.3,3.4-6.1,5.5c-1.8,2.1-3.3,4.4-4.3,7
	c-0.5,1.2-0.9,2.4-1.1,3.7c-0.3,1.2-0.3,2.5-0.2,3.8c0.1,1.5,0.6,2.9,1.3,4.2c1.3,2.3,3.7,3.8,6.3,4c1.5,0.1,2.9-0.1,4.3-0.7
	c1.1-0.4,2.1-0.9,3.1-1.6c1-0.6,1.8-1.4,2.4-2.4c0.7-0.9,1.3-1.8,1.8-2.7c0.6-1,1-2,1.4-3c1-2.5,1.6-5.1,2.1-7.8
	c0.4-2.6,0.5-5.3,0.4-8v-1.4c0.3-0.2,0.5-0.4,0.8-0.6l0.8-0.5c0.4-0.2,0.7-0.3,1-0.6c0.4-0.2,0.8-0.5,1.1-0.7s0.9-0.5,1.4-0.8
	c0.4-0.1,0.8-0.3,1.1-0.6c0.5-0.2,1-0.5,1.4-0.8s0.9-0.6,1.3-0.9c0.8-0.5,1.4-1.2,1.6-2c0.2-0.7,0.1-1.5-0.3-2.2
	C297.9,137.5,296.5,137.1,294.6,137.8z M255.7,123.2c0.6-1.8,1.2-3.5,1.8-5.3c0.8-1.8,1.8-3.5,3-5.1c1.1-1.6,2.5-3,4.1-4.2
	c0.6-0.4,1.2-0.8,1.8-1.1c0.6-0.3,1.3-0.6,1.9-0.8c0.6-0.3,1.2-0.3,1.8,0c0.4,0.5,0.6,1.2,0.4,1.8c-0.1,0.5-0.1,1-0.2,1.5
	c-0.1,0.5-0.2,0.9-0.4,1.4c-0.5,1.1-1,2.2-1.4,3.3c-0.5,1.1-1,2.2-1.6,3.2c-2,3.1-4,6.1-6.1,9.1l-6.2,9.1l-0.4,0.6
	c-0.1,0.2-0.3,0.4-0.4,0.6c-0.3-0.1-0.5-0.1-0.6-0.3c0.2-1.4,0.4-2.8,0.6-4.1s0.4-2.7,0.6-4.1C254.7,126.7,255.2,124.9,255.7,123.2z
	 M276.1,166.7c-0.7,0.7-1.7,1.2-2.7,1.4c-0.4-0.4-0.6-0.9-0.6-1.5c0-0.5,0.1-1,0.2-1.5c0.3-1.1,0.7-2.1,1.3-3
	c0.6-1.2,1.3-2.4,2.1-3.4c0.8-1.1,1.7-2.1,2.6-3.1c0.1,0.1,0.2,0.2,0.3,0.2l0.1,0.1c-0.1,1.5-0.3,2.9-0.5,4.3
	c-0.3,1.4-0.6,2.8-1.1,4.2C277.2,165.2,276.7,166,276.1,166.7L276.1,166.7z M391.9,149.7c1.8-1,3.5-2.1,5.1-3.2s3.3-2.1,5-3.2
	c0.3-0.2,0.6-0.4,0.8-0.5c0.3-0.2,0.5-0.4,0.7-0.6c1.3-1,1.5-2.8,0.5-4.1c-0.4-0.5-1-1-1.6-1.2c-0.7-0.2-1.5-0.2-2.2,0.1
	c-0.4,0.2-0.8,0.5-1.1,0.7c-0.3,0.2-0.7,0.5-1,0.8c-1.5,1.4-3.2,2.6-5,3.6c-1.8,1-3.7,2-5.5,2.8c-0.5,0.3-1.1,0.3-1.6,0
	c-1.4-0.9-2.7-1.7-4-2.5c-1.3-0.8-2.6-1.7-4-2.7c-0.5-0.4-0.9-0.8-1.1-1.4c-0.3-0.6-0.6-1.2-0.9-1.7c-0.4-0.9-0.2-2,0.5-2.7
	c0.5-0.5,1.1-0.8,1.7-1.1c0.7-0.2,1.4-0.3,2.1-0.1c0.8,0.1,1.7,0.4,2.4,0.8c0.7,0.4,1.4,1,1.8,1.8l0.6,0.8c0.2,0.3,0.5,0.6,0.7,0.8
	c0.6,0.6,1.5,0.9,2.3,0.6c0.9-0.2,1.5-0.9,1.7-1.8c0.3-1,0.2-2.1-0.2-3c-0.6-1.4-1.4-2.7-2.5-3.8c-1.5-1.6-3.4-2.8-5.5-3.3
	c-2.1-0.5-4.4-0.3-6.4,0.5c-2.1,0.9-4,2.3-5.3,4.2c-1.3,1.8-2,3.9-2,6.1c0,1.4,0.2,2.8,0.7,4.1c0.5,1.4,1.2,2.7,2,3.9
	c0.9,1,1.7,2,2.7,3s1.8,1.9,2.7,2.9l1.3,1.3c-0.2,0.3-0.4,0.5-0.6,0.8c-0.2,0.2-0.3,0.5-0.5,0.8c-0.8,1.1-1.6,2.3-2.2,3.5
	c-0.6,1.3-1.2,2.6-1.6,3.9c-1.4,3.5-1.1,7.3,0.8,10.6c1,1.9,2.6,3.5,4.5,4.6c1.9,1,4.1,1.4,6.3,1.1c2-0.2,4-0.9,5.6-2.1
	c1.6-1.3,2.8-2.9,3.7-4.7c2.8-6,2.5-13-1-18.7c-0.1-0.2-0.3-0.5-0.4-0.7l-0.4-0.6C391.7,150.1,391.8,149.9,391.9,149.7L391.9,149.7z
	 M384.7,161.8c0.1,0.9,0.1,1.7,0,2.6c-0.1,0.9-0.2,1.7-0.4,2.6c-0.2,1.1-1.1,2-2.2,2.2c-1.2,0.1-2.4-0.5-3-1.6
	c-0.4-0.6-0.7-1.2-0.9-1.9c-0.2-0.7-0.2-1.5-0.1-2.2c0.3-1.4,0.8-2.7,1.4-4c0.7-1.4,1.4-2.7,2.2-4
	C383.4,157.2,384.5,159.4,384.7,161.8L384.7,161.8z M450.3,137.1c-0.7-0.3-1.4-0.4-2.2-0.2c-0.7,0.2-1.3,0.6-1.7,1.3
	c-2.1,3.9-4.2,7.5-6.3,11s-4.2,6.5-6.1,9.1c-0.7,0.9-1.4,1.7-2.1,2.4s-1.4,1.6-2.1,2.4c-0.2,0.3-0.5,0.5-0.8,0.7
	c-0.3,0.2-0.6,0.4-1.1,0.7v-1.1c0-0.3,0.1-0.6,0.2-0.9c0.1-1,0.3-2.1,0.5-3.1c0.2-1,0.4-2,0.7-3c0.8-2.6,1.6-5.2,2.4-7.9
	s1.6-5.2,2.5-7.8c0.3-1.1,0.6-2.2,0.8-3.3s0.5-2.2,0.6-3.3c0.2-1,0.2-2-0.1-3c-0.4-1.4-1.6-2.5-3-2.7c-0.7-0.1-1.4,0-2.1,0.3
	c-0.6,0.3-1.1,0.8-1.5,1.4c-0.2,0.2-0.4,0.4-0.5,0.6c-0.1,0.2-0.1,0.3-0.3,0.5c-0.9-0.6-1.7-1.3-2.5-1.9c-0.8-0.6-1.6-1.2-2.5-1.7
	c-2.8-1.4-5.8-1.9-8.9-1.6c-3,0.4-5.9,1.7-8.2,3.8c-3,2.5-5.5,5.7-7.2,9.2c-1.7,3.5-2.7,7.3-2.9,11.2c-0.1,1.6,0,3.3,0.4,4.9
	c0.4,1.7,1.1,3.2,2.1,4.6c2.4,4.2,7.7,5.6,11.8,3.2c0.1-0.1,0.2-0.1,0.4-0.2c0.8-0.4,1.5-0.9,2.2-1.4c0.7-0.5,1.3-1.1,1.9-1.6
	c0.9-0.9,1.7-1.7,2.4-2.6l2.2-2.6c0.1-0.2,0.3-0.4,0.5-0.6c0.2-0.2,0.5-0.4,0.8-0.7c0,0.4,0,0.9-0.1,1.3l-0.2,1
	c-0.1,1.2-0.2,2.4-0.3,3.6s-0.2,2.4-0.2,3.5c0,1.5,0.3,3,0.8,4.4c0.4,1.2,1,2.3,1.9,3.2c0.8,0.8,1.8,1.4,2.9,1.7
	c1.1,0.3,2.2,0.3,3.2,0c1.2-0.4,2.3-1.1,3.2-2c1.1-1.1,2.1-2.3,3-3.6c0.7-1,1.5-2.1,2.2-3.1c0.8-1,1.5-2.1,2.1-3.1l1.9-2.6
	c0.6-0.9,1.3-1.9,2-3c1.1-1.7,2.1-3.4,3.1-5c1-1.6,1.8-3.1,2.6-4.4s1.3-2.3,1.8-3.1c0.2-0.4,0.5-0.8,0.6-1.3c0.3-0.4,0.5-1,0.3-1.6
	c0.2-0.6-0.1-1.2-0.6-1.5C450.8,137.5,450.6,137.3,450.3,137.1L450.3,137.1z M407.4,149.6c0.8-4.3,3-8.3,6.2-11.2
	c0.5-0.4,1-0.8,1.6-1.1c0.6-0.3,1.1-0.5,1.7-0.6c1.1-0.3,2.3-0.3,3.4,0.1c1,0.7,1.9,1.7,2.4,2.9c-2.1,2.6-4.4,5-6.8,7.4
	c-2.5,2.4-5.1,4.6-7.9,6.7C407.3,152.5,407.1,151.1,407.4,149.6L407.4,149.6z M498.4,137c-0.7,0.3-1.2,0.8-1.5,1.4
	c-1.4,3.1-2.9,6.1-4.3,9.1c-1.5,2.9-2.9,5.6-4.3,8.1s-2.7,4.6-3.9,6.3c-1,1.4-2,2.8-3.2,4H481c0-0.5,0.1-0.9,0.1-1.4
	c0-0.5,0.1-0.9,0.2-1.4c0.5-2.8,1.1-5.6,1.5-8.4c0.5-2.8,1-5.6,1.5-8.4c0.3-1.7,0.5-3.3,0.7-5c0.3-3.5-0.3-7.1-1.8-10.3
	c-0.6-1.4-1.7-2.5-3.1-3c-1.5-0.5-3-0.4-4.4,0.2c-1.4,0.5-2.7,1.2-3.9,2.1c-1.3,0.8-2.5,1.8-3.7,2.9c-1.1,1.1-2.2,2.3-3.1,3.5
	c-1.2,1.6-2.4,3.2-3.6,4.9s-2.4,3.4-3.6,5h-0.1c-0.1,0.2-0.2,0.4-0.4,0.6c-0.2,0.2-0.3,0.4-0.4,0.6c-0.3,0.4-0.6,0.9-0.8,1.3
	c-0.2,0.5-0.5,0.9-0.7,1.2s-0.4,0.6-0.5,0.9s-0.3,0.3-0.3,0.2v-15.1c0-1.1-0.1-2.2-0.3-3.3c-0.1-0.9-0.5-1.7-1.1-2.3
	c-0.6-0.6-1.3-1-2.2-1.1c-0.8-0.1-1.6,0.1-2.3,0.6c-0.7,0.5-1.3,1.2-1.6,2c-0.4,0.7-0.7,1.5-0.8,2.4c-0.8,3.7-1.2,7.5-1.1,11.3
	c0.1,3.8,0.6,7.6,1.6,11.3c0.2,0.7,0.4,1.3,0.7,2c0.3,0.6,0.6,1.2,1.1,1.8c0.8,1.3,2.1,2.1,3.6,2.3c1.5,0.1,3-0.4,4-1.5
	c1-1,1.9-2.1,2.6-3.3c0.8-1.2,1.5-2.5,2.2-3.8s1.4-2.6,2.1-3.8c1.3-2.3,2.7-4.4,4.1-6.6c1.5-2.1,3.1-4.2,4.8-6.1
	c0.3-0.2,0.5-0.4,0.7-0.6c0.2-0.2,0.5-0.6,1-1c-0.1,0.4-0.2,0.8-0.2,1.2c0,0.2-0.1,0.5-0.1,0.7c-1.2,3.9-2,7.9-2.5,11.9
	c-0.4,4-0.5,8-0.3,12c0,1,0.1,2,0.3,3c0.2,1,0.4,1.9,0.8,2.8c0.4,1.2,1.1,2.3,2,3.2c0.9,0.8,1.9,1.4,3.1,1.6c1.2,0.3,2.4,0.3,3.5,0
	c1.3-0.3,2.4-1,3.3-2c1.7-1.4,3.2-3,4.5-4.8c2.4-3.4,4.6-6.9,6.5-10.6c1-1.9,2-3.7,2.9-5.5s1.6-3.4,2.3-4.7l1.6-3.3
	c0.2-0.5,0.4-0.9,0.7-1.4c0.3-0.7,0.3-1.5,0-2.2c-0.3-0.7-0.8-1.2-1.4-1.5C499.9,136.8,499.1,136.8,498.4,137L498.4,137z M546.6,137
	c-0.7-0.3-1.4-0.4-2.2-0.2c-0.7,0.2-1.3,0.6-1.7,1.3c-2.1,3.9-4.2,7.5-6.3,11c-2.2,3.5-4.2,6.5-6.2,9.1c-0.7,0.9-1.4,1.7-2.1,2.4
	s-1.4,1.6-2.1,2.4c-0.2,0.3-0.5,0.5-0.8,0.7l-1,0.7v-1.1c0-0.3,0.1-0.6,0.2-0.9c0.1-1,0.3-2.1,0.5-3.1c0.2-1,0.4-2,0.7-3
	c0.8-2.6,1.6-5.2,2.4-7.9s1.6-5.2,2.5-7.8c0.3-1.1,0.6-2.2,0.8-3.3s0.5-2.2,0.6-3.3c0.2-1,0.2-2-0.1-3c-0.4-1.4-1.6-2.5-3-2.7
	c-0.7-0.1-1.4,0-2.1,0.3c-0.6,0.3-1.1,0.8-1.5,1.4c-0.2,0.2-0.3,0.4-0.5,0.6c-0.1,0.2-0.2,0.3-0.3,0.5c-0.9-0.6-1.7-1.3-2.5-1.9
	c-0.8-0.6-1.6-1.2-2.5-1.7c-2.8-1.4-5.8-1.9-8.9-1.6c-3,0.4-5.9,1.7-8.2,3.8c-3,2.5-5.5,5.7-7.2,9.2c-1.7,3.5-2.7,7.3-2.9,11.1
	c-0.1,1.6,0,3.3,0.4,4.9c0.4,1.7,1.1,3.2,2.1,4.6c2.4,4.2,7.7,5.6,11.8,3.2c0.1-0.1,0.2-0.1,0.4-0.2c0.8-0.4,1.5-0.9,2.2-1.4
	c0.7-0.5,1.3-1.1,1.9-1.6c0.9-0.9,1.7-1.7,2.4-2.6l2.2-2.6c0.1-0.2,0.3-0.5,0.5-0.6c0.2-0.2,0.5-0.4,0.8-0.7c0,0.4,0,0.9-0.1,1.3
	c-0.1,0.3-0.1,0.6-0.2,1c-0.1,1.2-0.2,2.4-0.3,3.6s-0.2,2.4-0.2,3.5c0,1.5,0.3,3,0.8,4.4c0.4,1.2,1,2.3,1.9,3.2
	c0.8,0.8,1.8,1.4,2.8,1.7c1.1,0.3,2.2,0.3,3.3,0c1.2-0.4,2.3-1,3.2-1.8c1.1-1.1,2.1-2.3,3-3.6c0.7-1,1.5-2.1,2.2-3.1
	s1.5-2.1,2.2-3.1c0.6-0.9,1.2-1.7,1.9-2.6s1.3-1.9,2-3c1.1-1.7,2.1-3.4,3.1-5s1.8-3.1,2.6-4.4s1.3-2.3,1.7-3.1
	c0.2-0.4,0.5-0.8,0.6-1.3c0.3-0.4,0.5-1,0.3-1.6c0.2-0.6,0-1.2-0.5-1.5C547.2,137.5,546.9,137.3,546.6,137L546.6,137z M503.6,149.6
	c0.8-4.3,3-8.3,6.2-11.2c0.5-0.4,1-0.8,1.6-1.1c0.6-0.3,1.1-0.5,1.8-0.6c1.1-0.3,2.3-0.3,3.4,0.1c1,0.7,1.9,1.7,2.4,2.9
	c-2.1,2.6-4.4,5-6.8,7.4c-2.5,2.4-5.1,4.6-7.9,6.7C503.5,152.5,503.3,151,503.6,149.6L503.6,149.6z"/>
<g class="st2">
	<path class="st3" d="M210.6,260.9h-8.4v6.1h9.7v2.6H199v-19.2h12.9v2.6h-9.7v5.4h8.4V260.9z"/>
	<path class="st3" d="M217.2,255.3l0.2,2.1c0.5-0.7,1.1-1.3,1.8-1.7c0.7-0.4,1.5-0.6,2.4-0.6c1.5,0,2.6,0.5,3.5,1.4
		c0.8,0.9,1.2,2.3,1.2,4.2v9H223v-8.9c0-1.1-0.2-1.8-0.7-2.3c-0.4-0.5-1.1-0.7-2-0.7c-0.6,0-1.2,0.1-1.7,0.4
		c-0.5,0.3-0.9,0.7-1.2,1.1v10.3h-3.2v-14.3H217.2z"/>
	<path class="st3" d="M233,269.6h-3.2V249h3.2V269.6z"/>
	<path class="st3" d="M245.2,269.6c-0.1-0.4-0.2-0.7-0.3-1.1s-0.1-0.7-0.2-1c-0.4,0.7-1,1.2-1.7,1.7c-0.7,0.5-1.5,0.7-2.4,0.7
		c-1.5,0-2.6-0.4-3.4-1.1c-0.8-0.8-1.2-1.8-1.2-3.2c0-1.4,0.5-2.5,1.6-3.2c1.1-0.8,2.6-1.2,4.6-1.2h2.5v-1.3c0-0.7-0.2-1.3-0.7-1.8
		s-1.1-0.6-1.9-0.6c-0.7,0-1.3,0.2-1.7,0.5c-0.4,0.4-0.6,0.8-0.6,1.4h-3.1l0-0.1c-0.1-1.1,0.4-2.1,1.5-3c1.1-0.9,2.5-1.3,4.2-1.3
		c1.7,0,3,0.4,4,1.3s1.5,2.1,1.5,3.6v6.3c0,0.6,0,1.2,0.1,1.7c0.1,0.5,0.2,1.1,0.4,1.6H245.2z M241.2,267.3c0.8,0,1.5-0.2,2.2-0.6
		c0.6-0.4,1.1-0.9,1.3-1.4v-2.1h-2.5c-0.9,0-1.7,0.2-2.2,0.7c-0.5,0.5-0.8,1-0.8,1.6c0,0.5,0.2,1,0.5,1.3
		C240.1,267.1,240.6,267.3,241.2,267.3z"/>
	<path class="st3" d="M254.7,267h7.6v2.6h-11.6v-2.1l7.2-9.6h-7.1v-2.6h11.1v2L254.7,267z"/>
	<path class="st3" d="M273.5,269.6c-0.1-0.4-0.2-0.7-0.3-1.1s-0.1-0.7-0.2-1c-0.4,0.7-1,1.2-1.7,1.7c-0.7,0.5-1.5,0.7-2.4,0.7
		c-1.5,0-2.6-0.4-3.4-1.1c-0.8-0.8-1.2-1.8-1.2-3.2c0-1.4,0.5-2.5,1.6-3.2c1.1-0.8,2.6-1.2,4.6-1.2h2.5v-1.3c0-0.7-0.2-1.3-0.7-1.8
		s-1.1-0.6-1.9-0.6c-0.7,0-1.3,0.2-1.7,0.5c-0.4,0.4-0.6,0.8-0.6,1.4h-3.1l0-0.1c-0.1-1.1,0.4-2.1,1.5-3c1.1-0.9,2.5-1.3,4.2-1.3
		c1.7,0,3,0.4,4,1.3s1.5,2.1,1.5,3.6v6.3c0,0.6,0,1.2,0.1,1.7c0.1,0.5,0.2,1.1,0.4,1.6H273.5z M269.6,267.3c0.8,0,1.5-0.2,2.2-0.6
		c0.6-0.4,1.1-0.9,1.3-1.4v-2.1h-2.5c-0.9,0-1.7,0.2-2.2,0.7c-0.5,0.5-0.8,1-0.8,1.6c0,0.5,0.2,1,0.5,1.3
		C268.4,267.1,268.9,267.3,269.6,267.3z"/>
	<path class="st3" d="M292.3,267.3c0.8,0,1.4-0.2,2-0.7s0.8-1,0.8-1.7h2.9l0,0.1c0,1.3-0.5,2.5-1.6,3.5c-1.1,1-2.5,1.5-4.1,1.5
		c-2.1,0-3.7-0.7-4.8-2c-1.1-1.4-1.7-3.1-1.7-5.1v-0.5c0-2.1,0.6-3.8,1.7-5.1c1.1-1.4,2.7-2,4.8-2c1.7,0,3.1,0.5,4.2,1.5
		c1.1,1,1.6,2.3,1.5,3.8l0,0.1H295c0-0.8-0.3-1.4-0.8-2c-0.5-0.5-1.2-0.8-2-0.8c-1.2,0-2.1,0.4-2.6,1.3s-0.8,2-0.8,3.3v0.5
		c0,1.3,0.3,2.4,0.8,3.3S291.1,267.3,292.3,267.3z"/>
	<path class="st3" d="M299.9,262.3c0-2.1,0.6-3.9,1.7-5.2c1.2-1.4,2.8-2,4.8-2c2,0,3.7,0.7,4.8,2c1.2,1.4,1.8,3.1,1.8,5.2v0.3
		c0,2.1-0.6,3.9-1.8,5.2c-1.2,1.3-2.8,2-4.8,2c-2,0-3.6-0.7-4.8-2c-1.2-1.4-1.7-3.1-1.7-5.2V262.3z M303.1,262.6
		c0,1.4,0.3,2.5,0.8,3.4c0.5,0.9,1.4,1.3,2.5,1.3c1.1,0,2-0.4,2.5-1.3c0.6-0.9,0.8-2,0.8-3.4v-0.3c0-1.4-0.3-2.5-0.8-3.4
		c-0.6-0.9-1.4-1.3-2.5-1.3c-1.1,0-2,0.4-2.5,1.3c-0.5,0.9-0.8,2-0.8,3.4V262.6z"/>
	<path class="st3" d="M318.7,255.3l0.2,2.1c0.5-0.7,1.1-1.3,1.8-1.7c0.7-0.4,1.5-0.6,2.4-0.6c1.5,0,2.6,0.5,3.5,1.4
		c0.8,0.9,1.2,2.3,1.2,4.2v9h-3.2v-8.9c0-1.1-0.2-1.8-0.7-2.3c-0.4-0.5-1.1-0.7-2-0.7c-0.6,0-1.2,0.1-1.7,0.4
		c-0.5,0.3-0.9,0.7-1.2,1.1v10.3h-3.2v-14.3H318.7z"/>
	<path class="st3" d="M341.3,269.6h-3.2V249h3.2V269.6z"/>
	<path class="st3" d="M353.4,269.6c-0.1-0.4-0.2-0.7-0.3-1.1c-0.1-0.3-0.1-0.7-0.2-1c-0.4,0.7-1,1.2-1.7,1.7
		c-0.7,0.5-1.5,0.7-2.4,0.7c-1.5,0-2.6-0.4-3.4-1.1c-0.8-0.8-1.2-1.8-1.2-3.2c0-1.4,0.5-2.5,1.6-3.2c1.1-0.8,2.6-1.2,4.6-1.2h2.5
		v-1.3c0-0.7-0.2-1.3-0.7-1.8s-1.1-0.6-1.9-0.6c-0.7,0-1.3,0.2-1.7,0.5c-0.4,0.4-0.6,0.8-0.6,1.4h-3.1l0-0.1c-0.1-1.1,0.4-2.1,1.5-3
		c1.1-0.9,2.5-1.3,4.2-1.3c1.7,0,3,0.4,4,1.3s1.5,2.1,1.5,3.6v6.3c0,0.6,0,1.2,0.1,1.7c0.1,0.5,0.2,1.1,0.4,1.6H353.4z M349.5,267.3
		c0.8,0,1.5-0.2,2.2-0.6c0.6-0.4,1.1-0.9,1.3-1.4v-2.1h-2.5c-0.9,0-1.7,0.2-2.2,0.7c-0.5,0.5-0.8,1-0.8,1.6c0,0.5,0.2,1,0.5,1.3
		C348.3,267.1,348.8,267.3,349.5,267.3z"/>
	<path class="st3" d="M372.8,264.5l0.3,1.3h0.1l0.3-1.3l4.6-14.2h3.4l-6.9,19.2h-3l-6.8-19.2h3.4L372.8,264.5z"/>
	<path class="st3" d="M386.8,251.8h-3.2V249h3.2V251.8z M386.8,269.6h-3.2v-14.3h3.2V269.6z"/>
	<path class="st3" d="M389.8,262.6c0-2.3,0.5-4.1,1.5-5.5c1-1.4,2.3-2.1,4.1-2.1c0.8,0,1.5,0.2,2.1,0.5c0.6,0.3,1.1,0.8,1.6,1.3V249
		h3.2v20.6h-2.7l-0.3-1.8c-0.5,0.7-1,1.2-1.6,1.5c-0.6,0.3-1.4,0.5-2.2,0.5c-1.7,0-3.1-0.6-4.1-1.9s-1.5-2.9-1.5-5V262.6z
		 M393,262.9c0,1.3,0.3,2.4,0.8,3.2c0.5,0.8,1.3,1.2,2.4,1.2c0.7,0,1.2-0.1,1.7-0.4c0.5-0.3,0.9-0.7,1.2-1.2v-6.2
		c-0.3-0.5-0.7-0.9-1.2-1.2c-0.5-0.3-1-0.4-1.7-0.4c-1.1,0-1.9,0.5-2.4,1.4c-0.5,0.9-0.8,2.1-0.8,3.6V262.9z"/>
	<path class="st3" d="M414.3,269.6c-0.1-0.4-0.2-0.7-0.3-1.1c-0.1-0.3-0.1-0.7-0.2-1c-0.4,0.7-1,1.2-1.7,1.7
		c-0.7,0.5-1.5,0.7-2.4,0.7c-1.5,0-2.6-0.4-3.4-1.1c-0.8-0.8-1.2-1.8-1.2-3.2c0-1.4,0.5-2.5,1.6-3.2c1.1-0.8,2.6-1.2,4.6-1.2h2.5
		v-1.3c0-0.7-0.2-1.3-0.7-1.8s-1.1-0.6-1.9-0.6c-0.7,0-1.3,0.2-1.7,0.5c-0.4,0.4-0.6,0.8-0.6,1.4h-3.1l0-0.1c-0.1-1.1,0.4-2.1,1.5-3
		c1.1-0.9,2.5-1.3,4.2-1.3c1.7,0,3,0.4,4,1.3s1.5,2.1,1.5,3.6v6.3c0,0.6,0,1.2,0.1,1.7c0.1,0.5,0.2,1.1,0.4,1.6H414.3z M410.3,267.3
		c0.8,0,1.5-0.2,2.2-0.6c0.6-0.4,1.1-0.9,1.3-1.4v-2.1h-2.5c-0.9,0-1.7,0.2-2.2,0.7c-0.5,0.5-0.8,1-0.8,1.6c0,0.5,0.2,1,0.5,1.3
		C409.2,267.1,409.7,267.3,410.3,267.3z"/>
	<path class="st3" d="M437.9,264.6c0-0.8-0.3-1.4-0.9-2c-0.6-0.5-1.6-1-3.1-1.4c-2.1-0.6-3.8-1.3-5-2.2c-1.2-0.9-1.7-2.1-1.7-3.6
		c0-1.5,0.6-2.8,1.9-3.8c1.3-1,2.9-1.5,5-1.5c2.1,0,3.8,0.6,5.1,1.7c1.3,1.1,1.9,2.5,1.9,4.1l0,0.1h-3.1c0-1-0.3-1.8-1-2.4
		c-0.7-0.6-1.6-0.9-2.9-0.9c-1.2,0-2.1,0.3-2.7,0.8c-0.6,0.5-0.9,1.2-0.9,2c0,0.7,0.3,1.3,1,1.8c0.7,0.5,1.8,0.9,3.4,1.4
		c2.1,0.6,3.6,1.3,4.7,2.3c1.1,1,1.6,2.2,1.6,3.7c0,1.6-0.6,2.9-1.9,3.8c-1.3,0.9-3,1.4-5,1.4c-2,0-3.8-0.5-5.3-1.6
		c-1.5-1.1-2.2-2.5-2.2-4.4l0-0.1h3.1c0,1.2,0.4,2,1.2,2.6c0.8,0.6,1.9,0.9,3.2,0.9c1.2,0,2.1-0.2,2.8-0.7
		C437.6,266.1,437.9,265.4,437.9,264.6z"/>
	<path class="st3" d="M452.7,269.6c-0.1-0.4-0.2-0.7-0.3-1.1c-0.1-0.3-0.1-0.7-0.2-1c-0.4,0.7-1,1.2-1.7,1.7
		c-0.7,0.5-1.5,0.7-2.4,0.7c-1.5,0-2.6-0.4-3.4-1.1c-0.8-0.8-1.2-1.8-1.2-3.2c0-1.4,0.5-2.5,1.6-3.2c1.1-0.8,2.6-1.2,4.6-1.2h2.5
		v-1.3c0-0.7-0.2-1.3-0.7-1.8s-1.1-0.6-1.9-0.6c-0.7,0-1.3,0.2-1.7,0.5c-0.4,0.4-0.6,0.8-0.6,1.4h-3.1l0-0.1c-0.1-1.1,0.4-2.1,1.5-3
		c1.1-0.9,2.5-1.3,4.2-1.3c1.7,0,3,0.4,4,1.3s1.5,2.1,1.5,3.6v6.3c0,0.6,0,1.2,0.1,1.7c0.1,0.5,0.2,1.1,0.4,1.6H452.7z M448.7,267.3
		c0.8,0,1.5-0.2,2.2-0.6c0.6-0.4,1.1-0.9,1.3-1.4v-2.1h-2.5c-0.9,0-1.7,0.2-2.2,0.7c-0.5,0.5-0.8,1-0.8,1.6c0,0.5,0.2,1,0.5,1.3
		C447.6,267.1,448.1,267.3,448.7,267.3z"/>
	<path class="st3" d="M461.7,255.3l0.2,2.1c0.5-0.7,1.1-1.3,1.8-1.7c0.7-0.4,1.5-0.6,2.4-0.6c1.5,0,2.6,0.5,3.5,1.4
		c0.8,0.9,1.2,2.3,1.2,4.2v9h-3.2v-8.9c0-1.1-0.2-1.8-0.7-2.3c-0.4-0.5-1.1-0.7-2-0.7c-0.6,0-1.2,0.1-1.7,0.4
		c-0.5,0.3-0.9,0.7-1.2,1.1v10.3h-3.2v-14.3H461.7z"/>
	<path class="st3" d="M482.6,269.6c-0.1-0.4-0.2-0.7-0.3-1.1c-0.1-0.3-0.1-0.7-0.2-1c-0.4,0.7-1,1.2-1.7,1.7
		c-0.7,0.5-1.5,0.7-2.4,0.7c-1.5,0-2.6-0.4-3.4-1.1c-0.8-0.8-1.2-1.8-1.2-3.2c0-1.4,0.5-2.5,1.6-3.2c1.1-0.8,2.6-1.2,4.6-1.2h2.5
		v-1.3c0-0.7-0.2-1.3-0.7-1.8s-1.1-0.6-1.9-0.6c-0.7,0-1.3,0.2-1.7,0.5c-0.4,0.4-0.6,0.8-0.6,1.4h-3.1l0-0.1c-0.1-1.1,0.4-2.1,1.5-3
		c1.1-0.9,2.5-1.3,4.2-1.3c1.7,0,3,0.4,4,1.3s1.5,2.1,1.5,3.6v6.3c0,0.6,0,1.2,0.1,1.7c0.1,0.5,0.2,1.1,0.4,1.6H482.6z M478.7,267.3
		c0.8,0,1.5-0.2,2.2-0.6c0.6-0.4,1.1-0.9,1.3-1.4v-2.1h-2.5c-0.9,0-1.7,0.2-2.2,0.7c-0.5,0.5-0.8,1-0.8,1.6c0,0.5,0.2,1,0.5,1.3
		C477.5,267.1,478.1,267.3,478.7,267.3z"/>
</g>
</svg>
