<?xml version="1.0" encoding="utf-8"?>
<!-- Generator: Adobe Illustrator 22.1.0, SVG Export Plug-In . SVG Version: 6.00 Build 0)  -->
<svg version="1.1" id="Capa_1" xmlns="http://www.w3.org/2000/svg" xmlns:xlink="http://www.w3.org/1999/xlink" x="0px" y="0px"
	 viewBox="0 0 620.2 512" style="enable-background:new 0 0 620.2 512;" xml:space="preserve">
<style type="text/css">
	.st0{fill:#FFFFFF;}
	.st1{fill:#000F32;}
</style>
<title>ICONOS BARRA</title>
<g>
	<path class="st0" d="M592.7,412.3h-35.8v-19.7h35.8c4.3,0,7.8-3.5,7.8-7.8V27.4c0-4.3-3.5-7.8-7.8-7.8H27.4c-4.3,0-7.8,3.5-7.8,7.8
		v357.5c0,4.2,3.5,7.7,7.7,7.7h328.5v19.7H27.4C12.3,412.3,0,400,0,384.9V27.4C0,12.3,12.3,0,27.4,0h565.3
		c15.1,0,27.4,12.3,27.4,27.4v357.5C620.2,400,607.9,412.3,592.7,412.3z"/>
</g>
<g>
	<rect x="9.6" y="70.4" class="st0" width="600.5" height="19.7"/>
</g>
<g>
	<rect x="9.6" y="145.4" class="st0" width="600.5" height="19.7"/>
</g>
<g>
	<path class="st1" d="M545.1,510.7H367.8c-11.9,0-21.7-9.7-21.7-21.7V336.3c0-11.9,9.7-21.7,21.7-21.7h177.3
		c11.9,0,21.7,9.7,21.7,21.7V489C566.7,501,557,510.7,545.1,510.7z M367.8,334.3c-1.1,0-2,0.9-2,2V489c0,1.1,0.9,2,2,2h177.3
		c1.1,0,2-0.9,2-2V336.3c0-1.1-0.9-2-2-2H367.8z"/>
</g>
<g>
	<path class="st1" d="M530.3,334.3H382.6v-69.5c0-40.7,33.1-73.8,73.8-73.8s73.8,33.1,73.8,73.8V334.3z M402.3,314.6h108.3v-49.8
		c0-29.9-24.3-54.1-54.1-54.1c-29.9,0-54.1,24.3-54.1,54.1V314.6z"/>
</g>
<g>
	<path class="st1" d="M460.1,458.9c-8.2,0-14.9-6.7-14.9-14.9v-18.3c-9.6-5.5-15.7-15.8-15.7-27.1c0-17.3,14-31.4,31.3-31.4
		c0,0,0,0,0,0c17.3,0,31.4,14.1,31.4,31.3l0,0c0,11.4-6,21.7-15.7,27.2V444c0,8.2-6.7,14.9-14.9,14.9c0,0,0,0,0,0H460.1z
		 M460.8,379.4C460.8,379.4,460.8,379.4,460.8,379.4c-10.5,0-19.1,8.6-19.1,19.1c0,7.8,4.7,14.7,11.9,17.6l3.8,1.6V444
		c0,1.4,1.2,2.6,2.6,2.6h1.6c0,0,0,0,0,0c1.4,0,2.6-1.2,2.6-2.6v-26.3l3.8-1.6c7.2-2.9,11.9-9.9,11.9-17.7v0
		C479.9,387.9,471.3,379.4,460.8,379.4z"/>
</g>
<g>
	<path class="st0" d="M144,375.6H78.7c-16.3,0-29.5-13.2-29.5-29.5v-38.3c0-16.3,13.2-29.5,29.5-29.5H144
		c16.3,0,29.5,13.2,29.5,29.5v38.3C173.5,362.3,160.3,375.6,144,375.6z M78.7,290.6c-9.5,0-17.2,7.7-17.2,17.2v38.3
		c0,9.5,7.7,17.2,17.2,17.2H144c9.5,0,17.2-7.7,17.2-17.2v-38.3c0-9.5-7.7-17.2-17.2-17.2H78.7z"/>
</g>
<g>
	<path class="st0" d="M74.4,240.6c-3.4,0-6.2-2.8-6.2-6.2v-22.4c0-3.4,2.8-6.2,6.2-6.2s6.2,2.8,6.2,6.2v22.4
		C80.6,237.9,77.8,240.6,74.4,240.6z"/>
</g>
<g>
	<path class="st0" d="M111.4,240.6c-3.4,0-6.2-2.8-6.2-6.2v-22.4c0-3.4,2.8-6.2,6.2-6.2s6.2,2.8,6.2,6.2v22.4
		C117.5,237.9,114.8,240.6,111.4,240.6z"/>
</g>
<g>
	<path class="st0" d="M148.3,240.6c-3.4,0-6.2-2.8-6.2-6.2v-22.4c0-3.4,2.8-6.2,6.2-6.2s6.2,2.8,6.2,6.2v22.4
		C154.4,237.9,151.7,240.6,148.3,240.6z"/>
</g>
</svg>
