<?xml version="1.0" encoding="utf-8"?>
<!-- Generator: Adobe Illustrator 22.1.0, SVG Export Plug-In . SVG Version: 6.00 Build 0)  -->
<svg version="1.1" id="Capa_1" xmlns="http://www.w3.org/2000/svg" xmlns:xlink="http://www.w3.org/1999/xlink" x="0px" y="0px"
	 viewBox="0 0 533 512" style="enable-background:new 0 0 533 512;" xml:space="preserve">
<style type="text/css">
	.st0{fill:#FFFFFF;}
	.st1{enable-background:new    ;}
	.st2{fill:#000F32;}
</style>
<title>ICONOS BARRA</title>
<g>
	<path class="st0" d="M298.4,43.4H132.8V1.6L16.3,120l116.5,118.4v-41.7h167.9c89.1,2.2,158.4,75.1,158.4,164.8
		c0,63.1-36,120.7-92.7,148.3c125.7-39.9,195.2-174.2,155.3-299.9C490.7,112.2,400.8,45.3,298.4,43.4z"/>
</g>
<g class="st1">
	<path class="st2" d="M70.3,339.9H27.8v42.7H3.1v-106h74.6v18.9H27.8V321h42.4V339.9z"/>
	<path class="st2" d="M113.5,342v40.6H88.8v-106h40.8c12.3,0,22,2.8,29.2,8.5c7.2,5.7,10.8,13.4,10.8,23.3c0,5.5-1.4,10.2-4.3,14.1
		c-2.9,3.9-7.1,7.1-12.8,9.6c6.5,1.8,11.2,4.9,14,9.2c2.8,4.3,4.3,9.6,4.3,16.1v6.7c0,2.8,0.4,5.9,1.2,9.5c0.8,3.5,2.3,6.1,4.3,7.6
		v1.5h-25.3c-1.9-1.5-3.2-4.2-3.8-8c-0.6-3.8-0.9-7.4-0.9-10.6v-6.4c0-5-1.3-8.9-4-11.6c-2.7-2.7-6.6-4-11.7-4H113.5z M113.5,323
		h16.2c5,0,8.7-1.1,11.4-3.4c2.6-2.3,3.9-5.5,3.9-9.7c0-4.3-1.3-7.8-4-10.4c-2.7-2.6-6.5-4-11.4-4h-16.1V323z"/>
	<path class="st2" d="M253.5,337.2H212v26.4h49v18.9h-73.7v-106h73.8v18.9H212v22.8h41.6V337.2z"/>
	<path class="st2" d="M338.3,337.2h-41.6v26.4h49v18.9h-73.7v-106h73.8v18.9h-49.1v22.8h41.6V337.2z"/>
</g>
<g class="st1">
</g>
<g class="st1">
	<path class="st2" d="M15.3,468.4v25.2H0v-65.8h25.3c7.6,0,13.7,1.8,18.1,5.3c4.5,3.5,6.7,8.3,6.7,14.5c0,3.4-0.9,6.3-2.7,8.8
		c-1.8,2.4-4.4,4.4-7.9,6c4,1.1,6.9,3,8.7,5.7c1.8,2.7,2.6,6,2.6,10v4.2c0,1.7,0.3,3.7,0.8,5.9c0.5,2.2,1.4,3.8,2.7,4.7v0.9H38.5
		c-1.2-0.9-2-2.6-2.4-5c-0.4-2.4-0.6-4.6-0.6-6.6v-4c0-3.1-0.8-5.5-2.5-7.2c-1.7-1.7-4.1-2.5-7.3-2.5H15.3z M15.3,456.7h10.1
		c3.1,0,5.4-0.7,7-2.1c1.6-1.4,2.4-3.4,2.4-6c0-2.7-0.8-4.8-2.5-6.5c-1.7-1.6-4-2.5-7.1-2.5h-10V456.7z"/>
</g>
<g class="st1">
	<path class="st2" d="M102.2,465.5H76.4v16.4h30.4v11.8H61.1v-65.8h45.8v11.8H76.4v14.1h25.8V465.5z"/>
</g>
<g class="st1">
	<path class="st2" d="M160.6,439.6h-17.4v54h-15.3v-54h-17.2v-11.8h49.9V439.6z"/>
	<path class="st2" d="M220.7,427.9V471c0,7.5-2.5,13.3-7.5,17.4c-5,4.1-11.5,6.2-19.6,6.2c-8.2,0-14.7-2.1-19.7-6.2
		c-5-4.1-7.5-9.9-7.5-17.4v-43.1h15.3V471c0,4,1,7,3.1,9c2.1,1.9,5,2.9,8.8,2.9c3.8,0,6.7-1,8.7-2.9c2-1.9,3.1-4.9,3.1-9v-43.1
		H220.7z"/>
	<path class="st2" d="M246.1,468.4v25.2h-15.3v-65.8h25.3c7.6,0,13.7,1.8,18.1,5.3c4.5,3.5,6.7,8.3,6.7,14.5c0,3.4-0.9,6.3-2.7,8.8
		c-1.8,2.4-4.4,4.4-7.9,6c4,1.1,6.9,3,8.7,5.7c1.8,2.7,2.6,6,2.6,10v4.2c0,1.7,0.3,3.7,0.8,5.9c0.5,2.2,1.4,3.8,2.7,4.7v0.9h-15.7
		c-1.2-0.9-2-2.6-2.4-5c-0.4-2.4-0.6-4.6-0.6-6.6v-4c0-3.1-0.8-5.5-2.5-7.2c-1.7-1.7-4.1-2.5-7.3-2.5H246.1z M246.1,456.7h10.1
		c3.1,0,5.4-0.7,7-2.1c1.6-1.4,2.4-3.4,2.4-6c0-2.7-0.8-4.8-2.5-6.5c-1.7-1.6-4-2.5-7.1-2.5h-10V456.7z"/>
	<path class="st2" d="M346.8,493.7h-15.2l-24.1-41.9l-0.3,0.1v41.8h-15.3v-65.8h15.3l24.1,41.9l0.3-0.1v-41.8h15.2V493.7z"/>
</g>
</svg>
