<?xml version="1.0" encoding="utf-8"?>
<!-- Generator: Adobe Illustrator 22.1.0, SVG Export Plug-In . SVG Version: 6.00 Build 0)  -->
<svg version="1.1" id="Capa_1" xmlns="http://www.w3.org/2000/svg" xmlns:xlink="http://www.w3.org/1999/xlink" x="0px" y="0px"
	 viewBox="0 0 669 433" style="enable-background:new 0 0 669 433;" xml:space="preserve">
<style type="text/css">
	.st0{fill:#FFFFFF;}
	.st1{enable-background:new    ;}
	.st2{fill:#000F32;}
</style>
<title>ICONOS BARRA</title>
<g>
	<path class="st0" d="M404.9,389H215.7v-16h189.1c3,0,5.4-2.5,5.4-5.4V26.8c0-1.5-0.6-2.8-1.6-3.8c-1-1-2.4-1.6-3.8-1.6c0,0,0,0,0,0
		H30.6c-3,0-5.4,2.4-5.4,5.4v340.8c0,3,2.4,5.4,5.4,5.4h77.5v16H30.6c-11.8,0-21.4-9.6-21.4-21.4V26.8C9.2,15,18.8,5.4,30.6,5.4
		h374.2c5.7,0,11.1,2.2,15.1,6.2c4.1,4,6.3,9.4,6.3,15.1v340.8C426.3,379.3,416.8,388.9,404.9,389L404.9,389z"/>
</g>
<g>
	<path class="st0" d="M646.8,388.7h-69.6v-16h69.6c0.1,0,0.2-0.1,0.2-0.2V250.2c0-0.1,0-0.2,0-0.2L548.3,97.1
		c-0.1-0.1-0.1-0.1-0.2-0.1H426.5c-0.1,0-0.2,0.1-0.2,0.2v275.2c0,0,0,0.1,0.1,0.2c0.1,0.1,0.1,0.1,0.2,0.1h49.4v16h-49.4
		c-9,0-16.3-7.3-16.2-16.3V97.2c0-9,7.3-16.3,16.2-16.3h121.5c5.6,0,10.7,2.8,13.7,7.5l98.7,152.9c1.7,2.7,2.6,5.8,2.5,8.9v122.2
		C663,381.4,655.7,388.7,646.8,388.7z"/>
</g>
<g>
	<path class="st0" d="M644.8,248.1H477.2c-8.3,0-15-6.7-15-15v-83.8c0-8.3,6.7-15,15-15h111.9v16H478.2v81.8h166.6V248.1z"/>
</g>
<g>
	<path class="st0" d="M157.6,433c-34.8,0-63.1-28.3-63.1-63.1s28.3-63.1,63.1-63.1s63.1,28.3,63.1,63.1S192.4,433,157.6,433z
		 M157.6,322.7c-26,0-47.1,21.1-47.1,47.1c0,26,21.1,47.1,47.1,47.1s47.1-21.1,47.1-47.1C204.7,343.9,183.6,322.7,157.6,322.7z"/>
</g>
<g>
	<path class="st0" d="M524.7,433c-34.8,0-63.1-28.3-63.1-63.1s28.3-63.1,63.1-63.1s63.1,28.3,63.1,63.1S559.5,433,524.7,433z
		 M524.7,322.7c-26,0-47.1,21.1-47.1,47.1c0,26,21.1,47.1,47.1,47.1s47.1-21.1,47.1-47.1C571.8,343.9,550.7,322.7,524.7,322.7z"/>
</g>
<g class="st1">
	<g>
		<path class="st2" d="M121.2,133.6H81.5v39.8h-23v-99h69.6v17.7H81.5v23.8h39.6V133.6z"/>
	</g>
	<g>
		<path class="st2" d="M161.6,135.5v37.9h-23v-99h38.1c11.5,0,20.6,2.7,27.3,8c6.7,5.3,10.1,12.6,10.1,21.8c0,5.1-1.3,9.5-4,13.2
			c-2.7,3.7-6.7,6.7-11.9,9c6.1,1.7,10.4,4.6,13.1,8.6c2.7,4,4,9,4,15v6.3c0,2.6,0.4,5.5,1.2,8.8c0.8,3.3,2.1,5.7,4,7.1v1.4h-23.7
			c-1.8-1.4-3-3.9-3.6-7.5c-0.6-3.6-0.8-6.9-0.8-9.9v-6c0-4.7-1.2-8.3-3.7-10.8c-2.5-2.5-6.1-3.7-10.9-3.7H161.6z M161.6,117.9h15.2
			c4.6,0,8.2-1.1,10.6-3.2c2.4-2.1,3.7-5.1,3.7-9.1c0-4-1.3-7.3-3.8-9.8c-2.5-2.5-6.1-3.7-10.6-3.7h-15V117.9z"/>
	</g>
	<g>
		<path class="st2" d="M292.3,131.1h-38.8v24.7h45.8v17.7h-68.8v-99h68.9v17.7h-45.9v21.3h38.8V131.1z"/>
	</g>
	<g>
		<path class="st2" d="M371.5,131.1h-38.8v24.7h45.8v17.7h-68.8v-99h68.9v17.7h-45.9v21.3h38.8V131.1z"/>
	</g>
</g>
<g class="st1">
	<g>
		<path class="st2" d="M54.7,260.1v-51.3h18.5c6,0,11.1,2,15.2,5.9c4.1,3.9,6.1,9,6.1,15.1v9.2c0,6.2-2,11.2-6.1,15.2
			c-4.1,3.9-9.1,5.9-15.2,5.9H54.7z M66.7,218v33h5.8c3.2,0,5.7-1.1,7.4-3.3c1.8-2.2,2.7-5,2.7-8.6v-9.3c0-3.5-0.9-6.4-2.7-8.6
			c-1.8-2.2-4.3-3.2-7.4-3.2H66.7z"/>
	</g>
	<g>
		<path class="st2" d="M134,238.2h-20.1V251h23.7v9.2h-35.7v-51.3h35.8v9.2h-23.8v11H134V238.2z"/>
	</g>
	<g>
		<path class="st2" d="M154.9,251h22.1v9.2H143v-51.3h12V251z"/>
	</g>
	<g>
		<path class="st2" d="M194.8,260.1h-11.9v-51.3h11.9V260.1z"/>
	</g>
	<g>
		<path class="st2" d="M222.1,246.2l0.4,1.9h0.2l0.4-1.7l10.2-37.5h12.5L229,260.1h-12.9l-16.6-51.3H212L222.1,246.2z"/>
	</g>
	<g>
		<path class="st2" d="M281.7,238.2h-20.1V251h23.7v9.2h-35.7v-51.3h35.8v9.2h-23.8v11h20.1V238.2z"/>
	</g>
</g>
<g class="st1">
	<g>
		<path class="st2" d="M302.7,240.4v19.7h-12v-51.3h19.7c5.9,0,10.7,1.4,14.1,4.1c3.5,2.7,5.2,6.5,5.2,11.3c0,2.7-0.7,4.9-2.1,6.8
			c-1.4,1.9-3.5,3.5-6.2,4.7c3.1,0.9,5.4,2.4,6.8,4.5c1.4,2.1,2.1,4.7,2.1,7.8v3.2c0,1.3,0.2,2.9,0.6,4.6c0.4,1.7,1.1,2.9,2.1,3.7
			v0.7h-12.3c-0.9-0.7-1.6-2-1.9-3.9c-0.3-1.9-0.4-3.6-0.4-5.1V248c0-2.4-0.6-4.3-1.9-5.6c-1.3-1.3-3.2-1.9-5.7-1.9H302.7z
			 M302.7,231.3h7.9c2.4,0,4.2-0.5,5.5-1.6c1.3-1.1,1.9-2.7,1.9-4.7c0-2.1-0.7-3.8-2-5.1c-1.3-1.3-3.1-1.9-5.5-1.9h-7.8V231.3z"/>
	</g>
</g>
<g class="st1">
	<g>
		<path class="st2" d="M355.6,231.2h0.2l10.2-22.4H379l-17.5,33.3v18.1h-11.9v-18.7l-17.1-32.7h12.9L355.6,231.2z"/>
	</g>
</g>
</svg>
