<?xml version="1.0" encoding="utf-8"?>
<!-- Generator: Adobe Illustrator 22.1.0, SVG Export Plug-In . SVG Version: 6.00 Build 0)  -->
<svg version="1.1" id="Capa_1" xmlns="http://www.w3.org/2000/svg" xmlns:xlink="http://www.w3.org/1999/xlink" x="0px" y="0px"
	 viewBox="0 0 1316.4 600" style="enable-background:new 0 0 1316.4 600;" xml:space="preserve">
<style type="text/css">
	.st0{fill:#E6007E;}
	.st1{fill:#F2F2F2;}
	.st2{fill:none;}
	.st3{fill:#FFFFFF;}
	.st4{font-family:'Roboto-Medium';}
	.st5{font-size:40px;}
</style>
<title>Ysana-Home-club-ysana</title>
<rect class="st0" width="1316.4" height="600"/>
<path class="st1" d="M688.5,270.6c-0.2,14.1-0.4,34.5-0.4,35.7l-0.2,19.9c0,6.7-3.9,17-18.1,17c-12.9,0-18.5-6.2-18.5-17v-51.7
	c0-16.4-4.6-30.8-10.2-38.9C635.5,227.4,574,170,574,170c-16.6-18.7,1.3-20.4,12.1-20.4c21.4,0,28.3,4.8,39.1,18.3
	c0.2,0.2,0.4,0.6,0.6,0.8c2.9,3.7,6.2,7.9,9.8,12.7c3.5,4.6,6.7,8.9,9.8,12.3c0.2,0.4,0.6,0.6,0.8,1l0.4,0.6l0.2,0.2
	c0.8,0.8,1.5,1.5,2.1,2.3c15.8,16.2,26.4,22.2,33.2,36.8C688.7,248.6,688.7,257.7,688.5,270.6 M688.1,218c4-24.3,47-27.4,61.7-60.7
	c9.4-21.4,17.2-44.7,18.5-67.3c-22.2,20.4-54.5,30.1-72.9,55.9C679.2,168.6,678.4,192.9,688.1,218 M652.2,116.6
	c-13.5,0-24.5,11-24.5,24.5s11,24.5,24.5,24.5s24.5-11,24.5-24.5S665.7,116.6,652.2,116.6L652.2,116.6z M319.6,265
	c-1.3,0.8-2.3,1.9-2.5,3.5c-0.8,2.5-1.5,5.2-2.7,8.1c-1,2.3-2.1,5-3.5,7.9c-1.5,2.9-3.1,5.8-5,8.5c-3.9,4.2-8.3,7.7-13.3,10.6
	c-4.6,3.1-10,4-15.4,3.1c-2.5-0.4-4.6-1.5-6.6-3.1c-1.7-1.7-2.7-4-2.9-6.4c-0.6-6.4-0.2-12.7,1-19.1c1.2-6.2,3.5-12.1,6.6-17.7
	c1-1.5,2.1-3.1,3.5-4.2c2.9-2.1,6.9-1.5,9.1,1.3c0.4,0.6,0.8,1.3,1,2.1c0.4,1.3,0.8,2.5,1,3.9c0.4,1.3,0.8,2.5,1.3,3.7
	c0.8,1.7,2.3,2.9,4.2,3.3c1.7,0.4,3.7-0.4,4.8-1.7c1-1,1.7-1.9,2.3-3.3c0.4-1.2,0.8-2.5,0.8-3.9c0-1.5,0-3.1,0-4.6s-0.2-2.9-0.4-4.4
	c-0.8-4-3.1-7.7-6.2-10.4c-4.4-3.9-10-6.2-16-6.4c-5.8-0.2-11.4,1.7-15.8,5.2c-1.9,1.3-3.7,3.1-5.4,4.8c-1.5,1.7-2.9,3.9-4.2,5.8
	c-2.1,3.5-3.9,7.1-5.2,11.2c-1.2,3.9-2.1,7.9-3.1,11.8c0,0.6,0,1-0.2,1.5c-0.2,0.4-0.2,0.8-0.2,1.2c-0.6,4.4-0.8,8.9-0.4,13.1
	c0.4,4.4,1.3,8.9,2.9,13.1c2.7,8.3,9.6,14.3,18.1,16h0.2c0,0,0,0.2,0.2,0.2l0,0h1.2l0.2,0.4c0.6,0,1.3,0,1.9,0.2h1.2
	c4,0.2,7.9,0.2,11.9-0.2c5.2-0.6,10.2-2.3,14.6-5c5.2-3.1,9.6-7.1,13.3-11.8c3.5-4.4,6.4-9.3,8.9-14.3c1.9-3.9,3.7-8.1,5.2-12.1
	l1.9-5.8c0.2-1.3,0-2.7-0.8-3.9c-0.8-1.3-1.9-2.1-3.5-2.5C322.3,264.1,320.7,264.2,319.6,265L319.6,265z M386.6,264.6
	c-1.3,0.6-2.3,1.5-2.9,2.9c-0.2,0.4-0.4,0.8-0.6,1.2c-0.2,0.4-0.4,0.8-0.6,1.2c0,0.2,0,0.4-0.2,0.6s-0.2,0.4-0.4,0.6
	c-2.3,4-4.8,8.3-7.1,12.3c-2.5,4-5,8.3-7.5,12.3c-1.3,2.3-3.1,4.6-4.8,6.7s-3.9,4.2-6,6c-1.3,1-2.3,1.7-3.3,2.3
	c-0.8,0.6-1.7,0.8-2.5,0.8c-1-0.2-1.7-0.6-2.3-1.3c-2.9-3.3-5-7.1-6.2-11.4c-0.6-2.7-1.2-5.6-1.3-8.3c-0.2-0.6,0-1.3,0.2-1.9
	l0.8-1.9c9.1-13.9,16.4-28.9,21.6-44.5c2.7-8.7,4.4-17.7,5-26.8c0-2.7-0.2-5.6-0.4-8.3c-0.4-2.7-1-5.4-1.9-7.9
	c-1-2.5-2.5-4.6-4.2-6.6c-1.7-1.7-3.7-3.1-6-4c-2.3-0.8-4.8-1.2-7.1-0.8c-2.7,0.4-5.2,1.2-7.3,2.5c-1.2,0.8-2.3,1.7-3.5,2.7
	s-2.1,1.9-3.1,3.1c-2.3,2.3-4.2,4.8-6,7.5c-1.5,2.7-2.9,5.6-4,8.5c-1.9,4.6-3.7,9.4-4.8,14.3c-1.2,4.8-2.3,9.8-3.1,14.8
	c-1.7,10-2.1,20-1.7,30.1c0.6,10,2.5,19.9,6,29.3c1,2.7,1.9,5.4,3.1,7.9c1.2,2.7,2.7,5,4.2,7.3c2.9,4.2,6.7,7.7,11.4,10
	c2.9,1.5,6.4,2.5,9.6,2.3c3.3-0.2,6.6-1.2,9.3-3.3c1.7-1.2,3.3-2.3,4.8-3.5c1.5-1.3,2.9-2.9,4.2-4.4c1.9-2.5,3.9-5,5.8-7.7
	s3.5-5.4,5-8.3c0.8-1.2,1.3-2.3,2.1-3.5s1.3-2.3,2.1-3.5c1.5-2.9,2.9-5.6,4.2-8.3c1.3-2.7,2.5-5,3.5-7.1s1.9-4.2,3.1-6.9
	c0.8-1.3,0.8-2.9,0.2-4.2s-1.5-2.3-2.9-3.1C389.3,263.9,388,264.1,386.6,264.6L386.6,264.6z M343.5,216.1c0.8-2.9,1.7-5.6,2.9-8.5
	c0.4-0.8,1-1.5,1.2-2.3c0.4-0.8,0.8-1.5,1.3-2.1c1.2-1.5,2.1-2.3,2.9-2.1s1.5,1,2.1,2.7c0.4,1.3,0.8,2.7,1,4c0.4,1.3,0.6,2.7,0.6,4
	c0,3.9-0.4,7.9-1.2,11.8c-1,5.2-2.3,10.4-4.2,15.2s-3.9,9.8-6.2,14.6c-0.8,1.5-1.5,3.1-2.1,4.4s-1.3,3.1-2.1,4.8l-0.6-1.5
	c0.4-6.2,0.8-12.1,1.2-18.1c0.4-6,1-12.1,1.5-18.1C342.1,221.8,342.7,219,343.5,216.1L343.5,216.1z M475.5,264.8
	c-1.3,0.6-2.3,1.7-2.7,3.1c-1,2.5-1.9,5-3.1,7.3c-1.5,3.1-3.1,6.4-4.8,9.4c-1.7,3.3-3.5,6.4-5,9.1c-1.2,1.9-2.3,3.9-3.7,5.8
	l-2.5,2.5c0-1,0-1.7-0.2-2.3c-0.2-0.6,0-1.3,0-1.9c0.2-3.1,0.2-6.4,0.4-9.6s0.4-6.4,0.8-9.4c0.2-2.7,0.6-5,1-7.5s0.8-4.8,1-7.3
	c0.6-3.9,0.6-7.7,0-11.6c-0.2-1.3-0.6-2.9-1.2-4.2c-0.4-1.3-1.2-2.7-1.9-4c-1.5-2.5-4.4-4-7.5-4c-1.3,0-2.7,0.6-3.9,1.2
	c-1.3,0.8-2.3,2.1-3.1,3.5s-1.5,2.7-1.9,4.2s-1,3.1-1.5,4.6c-0.2,1-0.4,1.9-0.6,2.7c-0.2,1-0.6,1.7-1,2.5
	c-6,11.8-11.9,23.3-18.1,35.1c-1,2.1-2.1,4-3.5,6c-1.2,1.9-2.5,3.9-3.7,5.8c-0.4,0.6-1,1.2-1.3,1.5c-0.4,0.4-1,1-1.5,1.5
	c-0.6-1.7-0.8-3.5-0.8-5.4c0-1.7,0-3.3,0-5c0.2-5,0.2-9.8,0.4-14.8s0.2-9.8,0.4-14.8c0-1.9-0.2-3.7-0.6-5.6s-1.3-3.7-2.5-5.2
	c-1.7-2.7-4.8-4.4-8.3-4.4c-3.3,0-6.6,1.7-8.3,4.6c-0.4,0.8-0.8,1.5-1.2,2.1c-0.4,0.8-0.8,1.7-1,2.5c-0.4,1.7-0.8,3.7-1.2,5.4
	c-0.4,1.7-0.6,3.5-0.6,5.2c-0.2,3.7-0.2,7.3,0,11s0.4,7.1,0.8,10.8c0.4,3.9,1.2,7.5,2.1,11.2c0.6,2.5,1.7,4.8,2.9,7.1
	c1.3,2.3,2.9,4.6,4.8,6.4c3.1,2.9,7.3,4.4,11.6,4.2c4.2-0.4,8.1-2.5,10.4-6c2.5-2.7,4.4-5.8,6.2-9.1c1.9-3.9,3.7-7.7,5.4-11.6
	s3.5-7.9,5.4-11.9c0.2-0.6,0.6-1.2,0.8-1.7s0.6-1.2,0.8-1.7h1c0.2,0.6,0.2,1.3,0.2,1.9c0,0.8,0.2,1.3,0.4,2.1
	c0.4,2.9,0.8,5.8,1.2,8.5c0.4,2.7,1,5.6,1.5,8.5c0.6,3.7,2.1,7.1,4.4,9.8c2.1,3.1,5.4,5,8.9,5.4c3.7,0.2,7.1-1.3,9.4-4
	c1.3-1.7,2.7-3.3,4-5s2.5-3.5,3.5-5.4l2.5-4.8c0.8-1.5,1.7-3.3,2.7-5c0.8-0.8,1.2-1.7,1.2-2.9c0.8-1.2,1.3-2.3,1.7-3.5
	c0.4-0.8,0.6-1.3,1-2.1c1.3-3.1,2.5-6,3.5-8.5c1-2.7,1.7-4.8,2.3-6.6c0.6-1.3,0.6-2.9-0.2-4c-0.8-1.3-1.9-2.3-3.1-2.7
	C478.2,264.1,476.6,264.1,475.5,264.8z M568.8,266.2c-1,0.4-2.1,0.8-3.1,1.2l-2.9,1.3l-1.2,0.6c-0.4,0.2-0.6,0.4-0.8,0.6
	c-0.8,0.6-1.7,1-2.7,1.3s-1.7,1-2.7,1.3c-0.4,0.2-0.8,0.4-1.2,0.6s-1,0.4-1.3,0.4c-0.6-0.8-1-1.5-1.3-2.1c-0.4-0.6-0.8-1.3-1.2-2.1
	c-2.5-3.9-6.2-6.6-10.4-7.9s-9.1-1-13.1,1c-3.1,1.2-5.8,2.9-8.5,4.8c-5.6,4-10.6,8.7-14.8,13.9s-8.1,10.8-11.2,17l-1.3,2.9
	c-0.6-1.2-1-2.5-1.2-3.7c-0.2-1.3-0.6-2.5-1-3.7c-0.2-1-0.2-2.1,0.4-3.1s1.3-1.7,2.1-2.3l6.4-6c2.1-1.9,4-4,6-6.2
	c5.8-6.7,11-13.9,15.8-21.4s9.4-15,13.7-22.9c3.7-6.4,5.8-13.5,6.2-20.6c0.2-3.1-0.2-6.2-1.2-8.9c-1-2.5-2.5-4.8-4.4-6.6
	c-1.9-1.7-4.4-3.1-6.9-3.7c-2.9-0.8-6-1-9.1-0.4c-4.6,0.6-9.1,1.9-13.1,4.2s-7.7,5-11,8.1c-4,3.9-7.5,8.3-10.4,13.1
	s-5.2,10-7.1,15.4c-2.5,7.5-4.2,15.2-5,23.1c-0.8,7.9-0.8,15.8-0.4,23.7c0.2,1.3,0.4,3.3,0.8,6s1,5.6,1.5,8.9s1.2,6.4,1.9,9.6
	c0.8,3.3,1.3,6,2.1,8.5c1.2,4.2,2.7,8.3,4.8,12.1c0.6,1.3,1.3,2.5,2.3,3.7s1.9,2.1,3.1,3.1c1.3,1.2,3.3,1.9,5.2,1.7s3.9-0.8,5.4-1.5
	c1.5-1,2.7-2.1,3.5-3.7c0.8-1.5,1-3.3,0.8-5c-0.2-2.7-0.2-5.4,0.4-8.1c0.4-2.7,1.3-5.2,2.5-7.5c2.5-5.4,6-10.6,9.8-15
	c4-4.4,8.5-8.3,13.5-11.6c2.7-1.9,4.6-2.7,6-2.1c1.3,0.6,2.5,2.3,3.7,5.8c-0.6,0.4-1.2,0.8-1.5,1.2c-0.4,0.4-0.8,0.8-1.2,1
	c-4.4,3.1-8.3,6.6-11.8,10.6s-6.4,8.5-8.3,13.5c-1,2.3-1.7,4.6-2.1,7.1c-0.6,2.3-0.6,4.8-0.4,7.3c0.2,2.9,1.2,5.6,2.5,8.1
	c2.5,4.4,7.1,7.3,12.1,7.7c2.9,0.2,5.6-0.2,8.3-1.3c2.1-0.8,4-1.7,6-3.1c1.9-1.2,3.5-2.7,4.6-4.6c1.3-1.7,2.5-3.5,3.5-5.2
	c1.2-1.9,1.9-3.9,2.7-5.8c1.9-4.8,3.1-9.8,4-15c0.8-5,1-10.2,0.8-15.4v-2.7c0.6-0.4,1-0.8,1.5-1.2l1.5-1c0.8-0.4,1.3-0.6,1.9-1.2
	c0.8-0.4,1.5-1,2.1-1.3c0.6-0.4,1.7-1,2.7-1.5c0.8-0.2,1.5-0.6,2.1-1.2c1-0.4,1.9-1,2.7-1.5c0.8-0.6,1.7-1.2,2.5-1.7
	c1.5-1,2.7-2.3,3.1-3.9c0.4-1.3,0.2-2.9-0.6-4.2C575.1,265.6,572.4,264.8,568.8,266.2z M493.8,238c1.2-3.5,2.3-6.7,3.5-10.2
	c1.5-3.5,3.5-6.7,5.8-9.8c2.1-3.1,4.8-5.8,7.9-8.1c1.2-0.8,2.3-1.5,3.5-2.1s2.5-1.2,3.7-1.5c1.2-0.6,2.3-0.6,3.5,0
	c0.8,1,1.2,2.3,0.8,3.5c-0.2,1-0.2,1.9-0.4,2.9s-0.4,1.7-0.8,2.7c-1,2.1-1.9,4.2-2.7,6.4c-1,2.1-1.9,4.2-3.1,6.2
	c-3.9,6-7.7,11.8-11.8,17.5L491.8,263l-0.8,1.2c-0.2,0.4-0.6,0.8-0.8,1.2c-0.6-0.2-1-0.2-1.2-0.6c0.4-2.7,0.8-5.4,1.2-7.9
	c0.4-2.5,0.8-5.2,1.2-7.9C491.9,244.8,492.8,241.3,493.8,238z M533.1,321.9c-1.3,1.3-3.3,2.3-5.2,2.7c-0.8-0.8-1.2-1.7-1.2-2.9
	c0-1,0.2-1.9,0.4-2.9c0.6-2.1,1.3-4,2.5-5.8c1.2-2.3,2.5-4.6,4-6.6c1.5-2.1,3.3-4,5-6c0.2,0.2,0.4,0.4,0.6,0.4l0.2,0.2
	c-0.2,2.9-0.6,5.6-1,8.3c-0.6,2.7-1.2,5.4-2.1,8.1C535.2,319,534.3,320.5,533.1,321.9L533.1,321.9z M756.3,289.1
	c3.5-1.9,6.7-4,9.8-6.2s6.4-4,9.6-6.2c0.6-0.4,1.2-0.8,1.5-1c0.6-0.4,1-0.8,1.3-1.2c2.5-1.9,2.9-5.4,1-7.9c-0.8-1-1.9-1.9-3.1-2.3
	c-1.3-0.4-2.9-0.4-4.2,0.2c-0.8,0.4-1.5,1-2.1,1.3c-0.6,0.4-1.3,1-1.9,1.5c-2.9,2.7-6.2,5-9.6,6.9s-7.1,3.9-10.6,5.4
	c-1,0.6-2.1,0.6-3.1,0c-2.7-1.7-5.2-3.3-7.7-4.8s-5-3.3-7.7-5.2c-1-0.8-1.7-1.5-2.1-2.7c-0.6-1.2-1.2-2.3-1.7-3.3
	c-0.8-1.7-0.4-3.9,1-5.2c1-1,2.1-1.5,3.3-2.1c1.3-0.4,2.7-0.6,4-0.2c1.5,0.2,3.3,0.8,4.6,1.5c1.3,0.8,2.7,1.9,3.5,3.5l1.2,1.5
	c0.4,0.6,1,1.2,1.3,1.5c1.2,1.2,2.9,1.7,4.4,1.2c1.7-0.4,2.9-1.7,3.3-3.5c0.6-1.9,0.4-4-0.4-5.8c-1.2-2.7-2.7-5.2-4.8-7.3
	c-2.9-3.1-6.6-5.4-10.6-6.4s-8.5-0.6-12.3,1c-4,1.7-7.7,4.4-10.2,8.1c-2.5,3.5-3.9,7.5-3.9,11.8c0,2.7,0.4,5.4,1.3,7.9
	c1,2.7,2.3,5.2,3.9,7.5c1.7,1.9,3.3,3.9,5.2,5.8s3.5,3.7,5.2,5.6l2.5,2.5c-0.4,0.6-0.8,1-1.2,1.5c-0.4,0.4-0.6,1-1,1.5
	c-1.5,2.1-3.1,4.4-4.2,6.7c-1.2,2.5-2.3,5-3.1,7.5c-2.7,6.7-2.1,14.1,1.5,20.4c1.9,3.7,5,6.7,8.7,8.9c3.7,1.9,7.9,2.7,12.1,2.1
	c3.9-0.4,7.7-1.7,10.8-4c3.1-2.5,5.4-5.6,7.1-9.1c5.4-11.6,4.8-25.1-1.9-36c-0.2-0.4-0.6-1-0.8-1.3l-0.8-1.2
	C755.9,289.9,756.1,289.5,756.3,289.1L756.3,289.1z M742.4,312.4c0.2,1.7,0.2,3.3,0,5s-0.4,3.3-0.8,5c-0.4,2.1-2.1,3.9-4.2,4.2
	c-2.3,0.2-4.6-1-5.8-3.1c-0.8-1.2-1.3-2.3-1.7-3.7c-0.4-1.3-0.4-2.9-0.2-4.2c0.6-2.7,1.5-5.2,2.7-7.7c1.3-2.7,2.7-5.2,4.2-7.7
	C739.9,303.6,742,307.8,742.4,312.4L742.4,312.4z M868.9,264.8c-1.3-0.6-2.7-0.8-4.2-0.4c-1.3,0.4-2.5,1.2-3.3,2.5
	c-4,7.5-8.1,14.5-12.1,21.2s-8.1,12.5-11.8,17.5c-1.3,1.7-2.7,3.3-4,4.6c-1.3,1.3-2.7,3.1-4,4.6c-0.4,0.6-1,1-1.5,1.3
	c-0.6,0.4-1.2,0.8-2.1,1.3v-2.1c0-0.6,0.2-1.2,0.4-1.7c0.2-1.9,0.6-4,1-6c0.4-1.9,0.8-3.9,1.3-5.8c1.5-5,3.1-10,4.6-15.2
	s3.1-10,4.8-15c0.6-2.1,1.2-4.2,1.5-6.4s1-4.2,1.2-6.4c0.4-1.9,0.4-3.9-0.2-5.8c-0.8-2.7-3.1-4.8-5.8-5.2c-1.3-0.2-2.7,0-4,0.6
	c-1.2,0.6-2.1,1.5-2.9,2.7c-0.4,0.4-0.8,0.8-1,1.2s-0.2,0.6-0.6,1c-1.7-1.2-3.3-2.5-4.8-3.7s-3.1-2.3-4.8-3.3
	c-5.4-2.7-11.2-3.7-17.2-3.1c-5.8,0.8-11.4,3.3-15.8,7.3c-5.8,4.8-10.6,11-13.9,17.7c-3.3,6.7-5.2,14.1-5.6,21.6
	c-0.2,3.1,0,6.4,0.8,9.4c0.8,3.3,2.1,6.2,4,8.9c4.6,8.1,14.8,10.8,22.7,6.2c0.2-0.2,0.4-0.2,0.8-0.4c1.5-0.8,2.9-1.7,4.2-2.7
	s2.5-2.1,3.7-3.1c1.7-1.7,3.3-3.3,4.6-5l4.2-5c0.2-0.4,0.6-0.8,1-1.2c0.4-0.4,1-0.8,1.5-1.3c0,0.8,0,1.7-0.2,2.5L811,300
	c-0.2,2.3-0.4,4.6-0.6,6.9c-0.2,2.3-0.4,4.6-0.4,6.7c0,2.9,0.6,5.8,1.5,8.5c0.8,2.3,1.9,4.4,3.7,6.2c1.5,1.5,3.5,2.7,5.6,3.3
	c2.1,0.6,4.2,0.6,6.2,0c2.3-0.8,4.4-2.1,6.2-3.9c2.1-2.1,4-4.4,5.8-6.9c1.3-1.9,2.9-4,4.2-6c1.5-1.9,2.9-4,4-6l3.7-5
	c1.2-1.7,2.5-3.7,3.9-5.8c2.1-3.3,4-6.6,6-9.6c1.9-3.1,3.5-6,5-8.5s2.5-4.4,3.5-6c0.4-0.8,1-1.5,1.2-2.5c0.6-0.8,1-1.9,0.6-3.1
	c0.4-1.2-0.2-2.3-1.2-2.9C869.8,265.6,869.5,265.2,868.9,264.8L868.9,264.8z M786.2,288.9c1.5-8.3,5.8-16,11.9-21.6
	c1-0.8,1.9-1.5,3.1-2.1s2.1-1,3.3-1.2c2.1-0.6,4.4-0.6,6.6,0.2c1.9,1.3,3.7,3.3,4.6,5.6c-4,5-8.5,9.6-13.1,14.3
	c-4.8,4.6-9.8,8.9-15.2,12.9C786,294.5,785.6,291.8,786.2,288.9L786.2,288.9z M961.6,264.6c-1.3,0.6-2.3,1.5-2.9,2.7
	c-2.7,6-5.6,11.8-8.3,17.5c-2.9,5.6-5.6,10.8-8.3,15.6c-2.7,4.8-5.2,8.9-7.5,12.1c-1.9,2.7-3.9,5.4-6.2,7.7H928c0-1,0.2-1.7,0.2-2.7
	s0.2-1.7,0.4-2.7c1-5.4,2.1-10.8,2.9-16.2c1-5.4,1.9-10.8,2.9-16.2c0.6-3.3,1-6.4,1.3-9.6c0.6-6.7-0.6-13.7-3.5-19.9
	c-1.2-2.7-3.3-4.8-6-5.8c-2.9-1-5.8-0.8-8.5,0.4c-2.7,1-5.2,2.3-7.5,4c-2.5,1.5-4.8,3.5-7.1,5.6c-2.1,2.1-4.2,4.4-6,6.7
	c-2.3,3.1-4.6,6.2-6.9,9.4c-2.3,3.3-4.6,6.6-6.9,9.6h-0.2c-0.2,0.4-0.4,0.8-0.8,1.2c-0.4,0.4-0.6,0.8-0.8,1.2
	c-0.6,0.8-1.2,1.7-1.5,2.5c-0.4,1-1,1.7-1.3,2.3s-0.8,1.2-1,1.7c-0.2,0.6-0.6,0.6-0.6,0.4V263c0-2.1-0.2-4.2-0.6-6.4
	c-0.2-1.7-1-3.3-2.1-4.4c-1.2-1.2-2.5-1.9-4.2-2.1c-1.5-0.2-3.1,0.2-4.4,1.2s-2.5,2.3-3.1,3.9c-0.8,1.3-1.3,2.9-1.5,4.6
	c-1.5,7.1-2.3,14.5-2.1,21.8s1.2,14.6,3.1,21.8c0.4,1.3,0.8,2.5,1.3,3.9c0.6,1.2,1.2,2.3,2.1,3.5c1.5,2.5,4,4,6.9,4.4
	c2.9,0.2,5.8-0.8,7.7-2.9c1.9-1.9,3.7-4,5-6.4c1.5-2.3,2.9-4.8,4.2-7.3s2.7-5,4-7.3c2.5-4.4,5.2-8.5,7.9-12.7c2.9-4,6-8.1,9.3-11.8
	c0.6-0.4,1-0.8,1.3-1.2c0.4-0.4,1-1.2,1.9-1.9c-0.2,0.8-0.4,1.5-0.4,2.3c0,0.4-0.2,1-0.2,1.3c-2.3,7.5-3.9,15.2-4.8,22.9
	c-0.8,7.7-1,15.4-0.6,23.1c0,1.9,0.2,3.9,0.6,5.8c0.4,1.9,0.8,3.7,1.5,5.4c0.8,2.3,2.1,4.4,3.9,6.2c1.7,1.5,3.7,2.7,6,3.1
	c2.3,0.6,4.6,0.6,6.7,0c2.5-0.6,4.6-1.9,6.4-3.9c3.3-2.7,6.2-5.8,8.7-9.3c4.6-6.6,8.9-13.3,12.5-20.4c1.9-3.7,3.9-7.1,5.6-10.6
	c1.7-3.5,3.1-6.6,4.4-9.1l3.1-6.4c0.4-1,0.8-1.7,1.3-2.7c0.6-1.3,0.6-2.9,0-4.2s-1.5-2.3-2.7-2.9
	C964.5,264.2,962.9,264.2,961.6,264.6L961.6,264.6z M1054.5,264.6c-1.3-0.6-2.7-0.8-4.2-0.4c-1.3,0.4-2.5,1.2-3.3,2.5
	c-4,7.5-8.1,14.5-12.1,21.2c-4.2,6.7-8.1,12.5-11.9,17.5c-1.3,1.7-2.7,3.3-4,4.6c-1.3,1.3-2.7,3.1-4,4.6c-0.4,0.6-1,1-1.5,1.3
	l-1.9,1.3v-2.1c0-0.6,0.2-1.2,0.4-1.7c0.2-1.9,0.6-4,1-6c0.4-1.9,0.8-3.9,1.3-5.8c1.5-5,3.1-10,4.6-15.2s3.1-10,4.8-15
	c0.6-2.1,1.2-4.2,1.5-6.4s1-4.2,1.2-6.4c0.4-1.9,0.4-3.9-0.2-5.8c-0.8-2.7-3.1-4.8-5.8-5.2c-1.3-0.2-2.7,0-4,0.6
	c-1.2,0.6-2.1,1.5-2.9,2.7c-0.4,0.4-0.6,0.8-1,1.2c-0.2,0.4-0.4,0.6-0.6,1c-1.7-1.2-3.3-2.5-4.8-3.7s-3.1-2.3-4.8-3.3
	c-5.4-2.7-11.2-3.7-17.2-3.1c-5.8,0.8-11.4,3.3-15.8,7.3c-5.8,4.8-10.6,11-13.9,17.7c-3.3,6.7-5.2,14.1-5.6,21.4
	c-0.2,3.1,0,6.4,0.8,9.4c0.8,3.3,2.1,6.2,4,8.9c4.6,8.1,14.8,10.8,22.7,6.2c0.2-0.2,0.4-0.2,0.8-0.4c1.5-0.8,2.9-1.7,4.2-2.7
	s2.5-2.1,3.7-3.1c1.7-1.7,3.3-3.3,4.6-5l4.2-5c0.2-0.4,0.6-1,1-1.2c0.4-0.4,1-0.8,1.5-1.3c0,0.8,0,1.7-0.2,2.5
	c-0.2,0.6-0.2,1.2-0.4,1.9c-0.2,2.3-0.4,4.6-0.6,6.9c-0.2,2.3-0.4,4.6-0.4,6.7c0,2.9,0.6,5.8,1.5,8.5c0.8,2.3,1.9,4.4,3.7,6.2
	c1.5,1.5,3.5,2.7,5.4,3.3c2.1,0.6,4.2,0.6,6.4,0c2.3-0.8,4.4-1.9,6.2-3.5c2.1-2.1,4-4.4,5.8-6.9c1.3-1.9,2.9-4,4.2-6
	c1.3-1.9,2.9-4,4.2-6c1.2-1.7,2.3-3.3,3.7-5s2.5-3.7,3.9-5.8c2.1-3.3,4-6.6,6-9.6s3.5-6,5-8.5s2.5-4.4,3.3-6c0.4-0.8,1-1.5,1.2-2.5
	c0.6-0.8,1-1.9,0.6-3.1c0.4-1.2,0-2.3-1-2.9C1055.6,265.6,1055.1,265.2,1054.5,264.6L1054.5,264.6z M971.6,288.9
	c1.5-8.3,5.8-16,11.9-21.6c1-0.8,1.9-1.5,3.1-2.1s2.1-1,3.5-1.2c2.1-0.6,4.4-0.6,6.6,0.2c1.9,1.3,3.7,3.3,4.6,5.6
	c-4,5-8.5,9.6-13.1,14.3c-4.8,4.6-9.8,8.9-15.2,12.9C971.4,294.5,971,291.6,971.6,288.9L971.6,288.9z"/>
<rect x="381.4" y="452.7" class="st2" width="553.6" height="98.3"/>
<text transform="matrix(1 0 0 1 421.3445 483.1795)"><tspan x="0" y="0" class="st3 st4 st5">Únete ahora al Club Ysana </tspan><tspan x="12.6" y="48" class="st3 st4 st5">y enlaza con la vida sana</tspan></text>
</svg>
