<?xml version="1.0" encoding="utf-8"?>
<!-- Generator: Adobe Illustrator 22.1.0, SVG Export Plug-In . SVG Version: 6.00 Build 0)  -->
<svg version="1.1" id="Capa_1" xmlns="http://www.w3.org/2000/svg" xmlns:xlink="http://www.w3.org/1999/xlink" x="0px" y="0px"
	 viewBox="0 0 610 891" style="enable-background:new 0 0 610 891;" xml:space="preserve">
<style type="text/css">
	.st0{fill:#FFFFFF;}
	.st1{enable-background:new    ;}
	.st2{fill:#E6007E;}
	.st3{fill:#000F5A;}
</style>
<title>Pronto-en-ysana-club-ysana</title>
<rect class="st0" width="610" height="891"/>
<g class="st1">
	<path class="st2" d="M17.9,368.9v15.4H7.5v-44.9h18.2c5.3,0,9.5,1.4,12.7,4.1c3.1,2.7,4.7,6.3,4.7,10.7c0,4.4-1.6,8-4.7,10.7
		s-7.3,4.1-12.7,4.1h-7.8V368.9z M17.9,360.8h7.8c2.3,0,4-0.6,5.2-1.9c1.2-1.2,1.8-2.8,1.8-4.8s-0.6-3.6-1.8-4.9s-2.9-1.9-5.2-1.9
		h-7.8V360.8z"/>
	<path class="st2" d="M59.4,367v17.2H48.9v-44.9h17.3c5.2,0,9.3,1.2,12.4,3.6c3,2.4,4.6,5.7,4.6,9.9c0,2.3-0.6,4.3-1.8,6
		s-3,3-5.4,4.1c2.8,0.8,4.7,2.1,5.9,3.9c1.2,1.8,1.8,4.1,1.8,6.8v2.8c0,1.2,0.2,2.5,0.5,4s1,2.6,1.8,3.2v0.6H75.3
		c-0.8-0.6-1.4-1.8-1.6-3.4c-0.3-1.6-0.4-3.1-0.4-4.5v-2.7c0-2.1-0.6-3.8-1.7-4.9s-2.8-1.7-5-1.7H59.4z M59.4,359h6.9
		c2.1,0,3.7-0.5,4.8-1.4c1.1-1,1.7-2.3,1.7-4.1c0-1.8-0.6-3.3-1.7-4.4s-2.7-1.7-4.8-1.7h-6.8L59.4,359L59.4,359z"/>
	<path class="st2" d="M127.7,365.8c0,5.5-1.8,10.1-5.3,13.7s-8.1,5.4-13.7,5.4c-5.7,0-10.3-1.8-13.8-5.4s-5.3-8.1-5.3-13.7v-8.1
		c0-5.5,1.8-10.1,5.3-13.7s8.1-5.4,13.8-5.4c5.6,0,10.2,1.8,13.8,5.4c3.5,3.6,5.3,8.2,5.3,13.7v8.1H127.7z M117.4,357.7
		c0-3.2-0.8-5.8-2.3-7.9s-3.6-3.1-6.4-3.1c-2.8,0-5,1-6.5,3.1c-1.5,2-2.2,4.7-2.2,7.9v8.1c0,3.2,0.8,5.9,2.3,8s3.7,3.1,6.5,3.1
		c2.7,0,4.9-1,6.4-3.1s2.3-4.7,2.3-8v-8.1H117.4z"/>
</g>
<g class="st1">
	<path class="st2" d="M171.2,384.2h-10.4l-16.4-28.6l-0.2,0.1v28.6h-10.5v-44.9h10.5l16.4,28.6l0.2-0.1v-28.6h10.4V384.2z"/>
</g>
<g class="st1">
	<path class="st2" d="M208.7,347.4h-11.8v36.9h-10.5v-36.9h-11.7v-8h34V347.4z"/>
</g>
<g class="st1">
	<path class="st2" d="M249.2,365.8c0,5.5-1.8,10.1-5.3,13.7s-8.1,5.4-13.7,5.4c-5.7,0-10.3-1.8-13.8-5.4s-5.3-8.1-5.3-13.7v-8.1
		c0-5.5,1.8-10.1,5.3-13.7s8.1-5.4,13.8-5.4c5.6,0,10.2,1.8,13.8,5.4c3.5,3.6,5.3,8.2,5.3,13.7L249.2,365.8L249.2,365.8z
		 M238.8,357.7c0-3.2-0.8-5.8-2.3-7.9s-3.6-3.1-6.4-3.1s-5,1-6.5,3.1c-1.5,2-2.2,4.7-2.2,7.9v8.1c0,3.2,0.8,5.9,2.3,8
		s3.7,3.1,6.5,3.1c2.7,0,4.9-1,6.4-3.1s2.3-4.7,2.3-8L238.8,357.7L238.8,357.7z"/>
	<path class="st2" d="M299,365h-17.6v11.2h20.8v8H271v-44.9h31.3v8h-20.8v9.7H299V365z"/>
	<path class="st2" d="M344.4,384.2H334l-16.4-28.6l-0.2,0.1v28.6h-10.5v-44.9h10.5l16.4,28.6l0.2-0.1v-28.6h10.4V384.2z"/>
</g>
<g class="st1">
	<path class="st2" d="M383.7,359h0.2l8.9-19.6h11.3l-15.3,29.1v15.8h-10.4V368l-15-28.6h11.3L383.7,359z"/>
</g>
<g class="st1">
	<path class="st2" d="M430.9,372.3c0-1.6-0.5-2.8-1.6-3.7s-2.9-1.8-5.6-2.7c-5.7-1.8-9.9-3.7-12.6-5.8c-2.7-2-4.1-5-4.1-8.9
		c0-3.8,1.6-6.8,4.9-9.1c3.3-2.3,7.4-3.5,12.4-3.5s9,1.3,12.2,3.8c3.2,2.6,4.7,5.9,4.6,9.9l-0.1,0.2h-10.1c0-1.8-0.6-3.2-1.8-4.4
		c-1.2-1.1-2.9-1.7-5-1.7s-3.7,0.5-4.9,1.4c-1.2,0.9-1.8,2.1-1.8,3.4s0.6,2.4,1.8,3.2c1.2,0.8,3.5,1.8,6.8,3
		c5.1,1.5,8.9,3.4,11.5,5.6s3.9,5.3,3.9,9.2c0,3.9-1.5,7-4.6,9.3c-3.1,2.2-7.1,3.3-12.2,3.3s-9.5-1.3-13.2-3.8
		c-3.7-2.6-5.5-6.2-5.4-11.1l0.1-0.2h9.9c0,2.6,0.7,4.4,2.1,5.5s3.5,1.7,6.4,1.7c2.2,0,3.8-0.4,4.8-1.3
		C430.4,374.9,430.9,373.7,430.9,372.3z"/>
	<path class="st2" d="M470.8,375.5h-14.2l-2.5,8.7h-10.5l14.5-44.9h11.2l14.5,44.9h-10.5L470.8,375.5z M459,367.5h9.5l-4.7-16.1
		h-0.2L459,367.5z"/>
</g>
<g class="st1">
	<path class="st2" d="M524.5,384.2h-10.4l-16.4-28.6l-0.2,0.1v28.6H487v-44.9h10.5l16.4,28.6l0.2-0.1v-28.6h10.4L524.5,384.2
		L524.5,384.2z"/>
</g>
<g class="st1">
	<path class="st2" d="M556,375.5h-14.2l-2.5,8.7h-10.5l14.5-44.9h11.2l14.5,44.9h-10.5L556,375.5z M544.1,367.5h9.5l-4.7-16.1h-0.2
		L544.1,367.5z"/>
</g>
<g class="st1">
	<path class="st2" d="M570.2,350.1c0-3.8,1.2-7,3.7-9.5c2.5-2.6,5.5-3.9,9-3.9s6.5,1.3,9,3.9s3.7,5.8,3.7,9.5c0,3.8-1.2,7-3.7,9.6
		s-5.5,3.9-9,3.9s-6.6-1.3-9-3.9S570.2,353.9,570.2,350.1z M572.4,350.1c0,3.2,1,5.8,3.1,8s4.6,3.2,7.5,3.2s5.4-1.1,7.5-3.2
		s3.1-4.8,3.1-8s-1-5.8-3.1-8s-4.5-3.2-7.5-3.2c-2.9,0-5.4,1.1-7.5,3.2C573.4,344.3,572.4,347,572.4,350.1z M580.4,351.5v6.1h-2.7
		v-15.3h5.1c1.8,0,3.2,0.4,4.3,1.2s1.6,2,1.6,3.5c0,0.7-0.2,1.3-0.5,1.8s-0.8,0.9-1.4,1.3c0.7,0.4,1.1,0.9,1.4,1.6
		c0.3,0.7,0.4,1.4,0.4,2.3v1c0,0.5,0,0.9,0.1,1.3c0,0.4,0.1,0.7,0.2,1v0.3H586c-0.1-0.3-0.2-0.6-0.2-1.1s0-1,0-1.5v-1
		c0-0.9-0.2-1.5-0.6-1.9c-0.4-0.4-1.1-0.6-2-0.6L580.4,351.5L580.4,351.5z M580.4,349.1h2.3c0.9,0,1.6-0.2,2.3-0.5
		c0.6-0.4,0.9-0.9,0.9-1.5c0-0.9-0.2-1.5-0.7-1.8s-1.3-0.5-2.4-0.5h-2.3L580.4,349.1L580.4,349.1z"/>
</g>
<g class="st1">
	<path class="st3" d="M19.7,415.5l5.7,13.8h0.1l5.8-13.8H33v15.6h-1.3v-6.9l0.1-6.8h-0.1l-5.8,13.8H25l-5.8-13.7h-0.1l0.1,6.8v6.9
		H18v-15.6L19.7,415.5L19.7,415.5z"/>
	<path class="st3" d="M44.3,429.2c-0.4,0.7-0.9,1.2-1.5,1.6s-1.4,0.6-2.2,0.6c-1.2,0-2.2-0.4-2.9-1.2c-0.7-0.8-1-2.1-1-3.9v-6.7H38
		v6.8c0,1.4,0.2,2.4,0.7,3.1c0.5,0.6,1.2,0.9,2.1,0.9c1,0,1.8-0.2,2.3-0.7s1-1,1.2-1.8v-8.3h1.3v11.6h-1.1L44.3,429.2z"/>
	<path class="st3" d="M52.2,428l0.4,1.4h0.1l3.5-9.9h1.4l-5,13.5c-0.3,0.8-0.7,1.5-1.2,2c-0.5,0.6-1.2,0.8-2.1,0.8
		c-0.2,0-0.3,0-0.5,0s-0.4-0.1-0.5-0.1l0.2-1.1c0.1,0,0.2,0,0.4,0c0.2,0,0.3,0,0.4,0c0.6,0,1-0.2,1.3-0.6s0.6-0.9,0.9-1.5l0.6-1.6
		l-4.5-11.5H49L52.2,428z"/>
	<path class="st3" d="M74.4,425.7c0,1.7-0.4,3.1-1.2,4.2c-0.8,1-1.9,1.6-3.3,1.6c-0.8,0-1.5-0.2-2.1-0.5s-1.1-0.7-1.5-1.3v6H65
		v-16.1h1.1l0.2,1.8c0.4-0.6,0.9-1.1,1.5-1.5s1.3-0.5,2.2-0.5c1.4,0,2.5,0.6,3.3,1.7S74.5,423.7,74.4,425.7L74.4,425.7L74.4,425.7z
		 M73.1,425.4c0-1.5-0.3-2.7-0.9-3.6s-1.4-1.4-2.6-1.4c-0.9,0-1.6,0.2-2.1,0.6s-0.9,0.9-1.2,1.6v5.6c0.3,0.6,0.7,1.1,1.3,1.5
		c0.6,0.4,1.2,0.5,2.1,0.5c1.1,0,2-0.4,2.6-1.3s0.9-2,0.9-3.4v-0.1H73.1z"/>
</g>
<g class="st1">
	<path class="st3" d="M83.7,420.6l-1-0.1c-0.8,0-1.5,0.2-2,0.7s-0.9,1.1-1.1,1.9v8h-1.3v-11.6h1.1l0.2,1.9v0.1
		c0.3-0.7,0.8-1.3,1.4-1.7c0.6-0.4,1.2-0.6,2-0.6c0.2,0,0.3,0,0.5,0s0.3,0.1,0.4,0.1L83.7,420.6z"/>
</g>
<g class="st1">
	<path class="st3" d="M85.2,425.2c0-1.7,0.5-3.1,1.4-4.2s2.2-1.6,3.7-1.6c1.6,0,2.8,0.5,3.7,1.6s1.4,2.5,1.4,4.2v0.4
		c0,1.7-0.5,3.1-1.4,4.2s-2.2,1.6-3.7,1.6c-1.6,0-2.8-0.5-3.7-1.6s-1.4-2.5-1.4-4.2V425.2z M86.5,425.5c0,1.3,0.3,2.5,1,3.4
		s1.6,1.4,2.8,1.4s2.1-0.5,2.8-1.4s1-2,1-3.4v-0.4c0-1.3-0.3-2.4-1-3.4c-0.7-0.9-1.6-1.4-2.8-1.4s-2.1,0.5-2.8,1.4s-1,2-1,3.4V425.5
		z"/>
	<path class="st3" d="M99.3,419.5l0.1,2c0.4-0.7,0.9-1.3,1.5-1.7c0.6-0.4,1.4-0.6,2.2-0.6c1.3,0,2.2,0.4,2.9,1.2s1,2,1,3.6v7.1h-1.3
		V424c0-1.3-0.2-2.3-0.7-2.8c-0.5-0.6-1.2-0.8-2.1-0.8c-0.9,0-1.6,0.2-2.2,0.7c-0.6,0.5-1,1.1-1.2,1.9v8.1h-1.3v-11.6L99.3,419.5
		L99.3,419.5z"/>
</g>
<g class="st1">
	<path class="st3" d="M112.8,416.5v3h2.6v1.1h-2.6v7.6c0,0.8,0.1,1.3,0.4,1.6c0.3,0.3,0.6,0.5,1.1,0.5c0.2,0,0.4,0,0.6,0
		c0.2,0,0.4,0,0.7-0.1l0.2,1c-0.2,0.1-0.5,0.2-0.8,0.2s-0.6,0.1-0.9,0.1c-0.8,0-1.5-0.3-1.9-0.8c-0.5-0.5-0.7-1.3-0.7-2.4v-7.6h-2
		v-1.1h2v-3h1.3V416.5z"/>
</g>
<g class="st1">
	<path class="st3" d="M117.4,425.2c0-1.7,0.5-3.1,1.4-4.2s2.2-1.6,3.7-1.6c1.6,0,2.8,0.5,3.7,1.6s1.4,2.5,1.4,4.2v0.4
		c0,1.7-0.5,3.1-1.4,4.2s-2.2,1.6-3.7,1.6c-1.6,0-2.8-0.5-3.7-1.6s-1.4-2.5-1.4-4.2V425.2z M118.7,425.5c0,1.3,0.3,2.5,1,3.4
		s1.6,1.4,2.8,1.4s2.1-0.5,2.8-1.4s1-2,1-3.4v-0.4c0-1.3-0.3-2.4-1-3.4c-0.7-0.9-1.6-1.4-2.8-1.4s-2.1,0.5-2.8,1.4s-1,2-1,3.4V425.5
		z"/>
	<path class="st3" d="M137.1,431.1h-1.3v-16.8h1.3V431.1z"/>
	<path class="st3" d="M148.1,431.1c-0.1-0.4-0.1-0.7-0.2-1c0-0.3-0.1-0.6-0.1-0.9c-0.4,0.6-1,1.1-1.7,1.5s-1.5,0.6-2.4,0.6
		c-1.1,0-2-0.3-2.6-0.9s-0.9-1.4-0.9-2.4c0-1.1,0.5-1.9,1.4-2.6s2.2-1,3.8-1h2.6V423c0-0.8-0.3-1.5-0.8-2s-1.3-0.7-2.2-0.7
		s-1.6,0.2-2.2,0.7c-0.6,0.5-0.9,1-0.9,1.7h-1.2v-0.1c0-0.9,0.4-1.6,1.2-2.3c0.8-0.7,1.9-1,3.2-1s2.3,0.3,3.1,1s1.2,1.6,1.2,2.8v5.7
		c0,0.4,0,0.8,0.1,1.2c0,0.4,0.1,0.8,0.2,1.1L148.1,431.1L148.1,431.1z M143.8,430.2c0.9,0,1.7-0.2,2.4-0.6s1.2-1,1.5-1.7v-2.4h-2.6
		c-1.2,0-2.1,0.2-2.8,0.7s-1,1.1-1,1.9c0,0.6,0.2,1.1,0.6,1.5C142.5,430,143.1,430.2,143.8,430.2z"/>
	<path class="st3" d="M153.7,419.5l0.1,2c0.4-0.7,0.9-1.3,1.5-1.7c0.6-0.4,1.4-0.6,2.2-0.6c1.3,0,2.2,0.4,2.9,1.2s1,2,1,3.6v7.1
		h-1.3V424c0-1.3-0.2-2.3-0.7-2.8c-0.5-0.6-1.2-0.8-2.1-0.8c-0.9,0-1.6,0.2-2.2,0.7c-0.6,0.5-1,1.1-1.2,1.9v8.1h-1.3v-11.6
		L153.7,419.5L153.7,419.5z"/>
	<path class="st3" d="M165.6,430h7.6v1.1H164v-1l7-9.6h-6.8v-1.1h8.4v0.9L165.6,430z"/>
	<path class="st3" d="M182.9,431.1c-0.1-0.4-0.1-0.7-0.2-1c0-0.3-0.1-0.6-0.1-0.9c-0.4,0.6-1,1.1-1.7,1.5s-1.5,0.6-2.4,0.6
		c-1.1,0-2-0.3-2.6-0.9S175,429,175,428c0-1.1,0.5-1.9,1.4-2.6s2.2-1,3.8-1h2.6V423c0-0.8-0.3-1.5-0.8-2s-1.3-0.7-2.2-0.7
		s-1.6,0.2-2.2,0.7c-0.6,0.5-0.9,1-0.9,1.7h-1.2v-0.1c0-0.9,0.4-1.6,1.2-2.3c0.8-0.7,1.9-1,3.2-1s2.3,0.3,3.1,1s1.2,1.6,1.2,2.8v5.7
		c0,0.4,0,0.8,0.1,1.2c0,0.4,0.1,0.8,0.2,1.1L182.9,431.1L182.9,431.1z M178.7,430.2c0.9,0,1.7-0.2,2.4-0.6s1.2-1,1.5-1.7v-2.4H180
		c-1.2,0-2.1,0.2-2.8,0.7s-1,1.1-1,1.9c0,0.6,0.2,1.1,0.6,1.5C177.3,430,177.9,430.2,178.7,430.2z"/>
</g>
<g class="st1">
	<path class="st3" d="M194.3,420.6l-1-0.1c-0.8,0-1.5,0.2-2,0.7s-0.9,1.1-1.1,1.9v8h-1.3v-11.6h1.1l0.2,1.9v0.1
		c0.3-0.7,0.8-1.3,1.4-1.7c0.6-0.4,1.2-0.6,2-0.6c0.2,0,0.3,0,0.5,0s0.3,0.1,0.4,0.1L194.3,420.6z"/>
</g>
<g class="st1">
	<path class="st3" d="M200.8,431.4c-1.5,0-2.7-0.5-3.6-1.6s-1.4-2.4-1.4-4.1v-0.6c0-1.7,0.5-3,1.4-4.1s2.1-1.6,3.5-1.6
		s2.5,0.5,3.4,1.4c0.8,0.9,1.2,2.1,1.2,3.6v1.1H197v0.3c0,1.3,0.3,2.4,1,3.3s1.6,1.3,2.7,1.3c0.8,0,1.5-0.1,2.1-0.3
		c0.6-0.2,1-0.5,1.4-1l0.5,0.9c-0.4,0.5-1,0.8-1.7,1.1C202.5,431.2,201.7,431.4,200.8,431.4z M200.6,420.4c-1,0-1.8,0.4-2.4,1.1
		c-0.6,0.7-1,1.6-1.1,2.7v0.1h6.8V424c0-1-0.3-1.8-0.9-2.5C202.4,420.7,201.6,420.4,200.6,420.4z"/>
	<path class="st3" d="M208.8,419.5l0.1,1.9c0.4-0.7,0.9-1.2,1.5-1.6s1.4-0.6,2.2-0.6c0.9,0,1.6,0.2,2.2,0.6s1,1.1,1.3,2
		c0.4-0.8,0.9-1.5,1.5-1.9s1.4-0.7,2.4-0.7c1.2,0,2.2,0.4,2.9,1.2s1,2.1,1,3.8v6.8h-1.3v-6.8c0-1.4-0.3-2.4-0.8-3s-1.2-0.9-2.1-0.9
		c-1,0-1.8,0.3-2.3,0.9s-0.9,1.4-1,2.4c0,0.1,0,0.1,0,0.2s0,0.2,0,0.2v7h-1.3v-6.8c0-1.4-0.3-2.4-0.8-3s-1.2-0.9-2.1-0.9
		s-1.6,0.2-2.2,0.7c-0.5,0.5-0.9,1.1-1.1,1.9v8.2h-1.3v-11.6L208.8,419.5L208.8,419.5z"/>
	<path class="st3" d="M226.5,425.2c0-1.7,0.5-3.1,1.4-4.2s2.2-1.6,3.7-1.6c1.6,0,2.8,0.5,3.7,1.6s1.4,2.5,1.4,4.2v0.4
		c0,1.7-0.5,3.1-1.4,4.2s-2.2,1.6-3.7,1.6c-1.6,0-2.8-0.5-3.7-1.6s-1.4-2.5-1.4-4.2V425.2z M227.8,425.5c0,1.3,0.3,2.5,1,3.4
		s1.6,1.4,2.8,1.4c1.2,0,2.1-0.5,2.8-1.4c0.7-0.9,1-2,1-3.4v-0.4c0-1.3-0.3-2.4-1-3.4c-0.7-0.9-1.6-1.4-2.8-1.4
		c-1.2,0-2.1,0.5-2.8,1.4c-0.7,0.9-1,2-1,3.4V425.5z"/>
	<path class="st3" d="M246.4,428.2c0-0.5-0.2-1-0.7-1.4c-0.4-0.4-1.3-0.7-2.4-1c-1.4-0.3-2.4-0.7-3.1-1.2s-1-1.2-1-2.1
		s0.4-1.6,1.1-2.2s1.7-0.9,3-0.9s2.3,0.3,3.1,1c0.8,0.6,1.1,1.5,1.1,2.4v0.1h-1.2c0-0.6-0.3-1.2-0.8-1.7s-1.3-0.7-2.2-0.7
		c-0.9,0-1.6,0.2-2.1,0.6s-0.7,0.9-0.7,1.4s0.2,1,0.6,1.3s1.2,0.7,2.4,0.9c1.4,0.3,2.4,0.7,3.1,1.3c0.7,0.5,1,1.3,1,2.2
		c0,1-0.4,1.8-1.2,2.4c-0.8,0.6-1.8,0.9-3.1,0.9c-1.4,0-2.5-0.3-3.3-1s-1.2-1.5-1.1-2.4V428h1.2c0,0.8,0.4,1.4,1,1.8
		s1.4,0.6,2.2,0.6c0.9,0,1.7-0.2,2.2-0.6S246.4,428.8,246.4,428.2z"/>
	<path class="st3" d="M260.4,431.4c-1.5,0-2.7-0.5-3.6-1.6s-1.4-2.4-1.4-4.1v-0.6c0-1.7,0.5-3,1.4-4.1s2.1-1.6,3.5-1.6
		s2.5,0.5,3.4,1.4c0.8,0.9,1.2,2.1,1.2,3.6v1.1h-8.2v0.3c0,1.3,0.3,2.4,1,3.3s1.6,1.3,2.7,1.3c0.8,0,1.5-0.1,2.1-0.3
		c0.6-0.2,1-0.5,1.4-1l0.5,0.9c-0.4,0.5-1,0.8-1.7,1.1C262.1,431.2,261.3,431.4,260.4,431.4z M260.2,420.4c-1,0-1.8,0.4-2.4,1.1
		s-1,1.6-1.1,2.7v0.1h6.8V424c0-1-0.3-1.8-0.9-2.5C262,420.7,261.2,420.4,260.2,420.4z"/>
	<path class="st3" d="M268.8,431.1h-1.3v-16.8h1.3V431.1z"/>
	<path class="st3" d="M288.8,426.3L288.8,426.3c-0.1,1.6-0.7,2.9-1.7,3.8s-2.3,1.3-3.9,1.3c-1.7,0-3.1-0.6-4.2-1.9s-1.6-2.9-1.6-4.9
		v-2.5c0-2,0.5-3.6,1.6-4.9s2.5-1.9,4.2-1.9s3,0.4,4,1.3s1.5,2.1,1.7,3.7v0.1h-1.2c-0.2-1.3-0.6-2.3-1.3-3s-1.7-1-3.1-1
		s-2.5,0.5-3.3,1.6s-1.2,2.4-1.2,4.1v2.6c0,1.7,0.4,3,1.2,4.1c0.8,1.1,1.9,1.6,3.3,1.6c1.3,0,2.3-0.3,3.1-1s1.2-1.7,1.3-3h1.1V426.3
		z"/>
	<path class="st3" d="M293.2,431.1H292v-16.8h1.3L293.2,431.1L293.2,431.1z"/>
	<path class="st3" d="M304.4,429.2c-0.4,0.7-0.9,1.2-1.5,1.6s-1.4,0.6-2.2,0.6c-1.2,0-2.2-0.4-2.9-1.2c-0.7-0.8-1-2.1-1-3.9v-6.7
		h1.3v6.8c0,1.4,0.2,2.4,0.7,3.1c0.5,0.6,1.2,0.9,2.1,0.9c1,0,1.8-0.2,2.3-0.7s1-1,1.2-1.8v-8.3h1.3v11.6h-1.1L304.4,429.2z"/>
	<path class="st3" d="M318.4,425.7c0,1.7-0.4,3.1-1.2,4.2c-0.8,1-1.9,1.6-3.3,1.6c-0.9,0-1.6-0.2-2.2-0.5s-1.1-0.8-1.5-1.5l-0.1,1.8
		H309v-16.8h1.3v7c0.4-0.7,0.9-1.2,1.5-1.5s1.3-0.5,2.1-0.5c1.4,0,2.5,0.6,3.3,1.7S318.4,423.8,318.4,425.7L318.4,425.7z
		 M317.1,425.4c0-1.5-0.3-2.7-0.9-3.6s-1.4-1.4-2.5-1.4c-0.9,0-1.6,0.2-2.2,0.7c-0.5,0.4-1,1-1.2,1.7v5.3c0.3,0.7,0.7,1.2,1.3,1.6
		c0.6,0.4,1.3,0.6,2.1,0.6c1.1,0,2-0.4,2.5-1.3c0.6-0.8,0.8-2,0.8-3.4v-0.2H317.1z"/>
</g>
<g class="st1">
	<path class="st3" d="M334.5,424.2l4.8-8.7h1.5l-5.7,9.9v5.7h-1.3v-5.8l-5.7-9.8h1.5L334.5,424.2z"/>
</g>
<g class="st1">
	<path class="st3" d="M349.4,428.2c0-0.5-0.2-1-0.7-1.4c-0.4-0.4-1.3-0.7-2.4-1c-1.4-0.3-2.4-0.7-3.1-1.2s-1-1.2-1-2.1
		s0.4-1.6,1.1-2.2s1.7-0.9,3-0.9s2.3,0.3,3.1,1c0.8,0.6,1.1,1.5,1.1,2.4v0.1h-1.2c0-0.6-0.3-1.2-0.8-1.7s-1.3-0.7-2.2-0.7
		c-0.9,0-1.6,0.2-2.1,0.6s-0.7,0.9-0.7,1.4s0.2,1,0.6,1.3s1.2,0.7,2.4,0.9c1.4,0.3,2.4,0.7,3.1,1.3c0.7,0.5,1,1.3,1,2.2
		c0,1-0.4,1.8-1.2,2.4c-0.8,0.6-1.8,0.9-3.1,0.9c-1.4,0-2.5-0.3-3.3-1s-1.2-1.5-1.1-2.4V428h1.2c0,0.8,0.4,1.4,1,1.8
		s1.4,0.6,2.2,0.6c0.9,0,1.7-0.2,2.2-0.6S349.4,428.8,349.4,428.2z"/>
	<path class="st3" d="M361,431.1c-0.1-0.4-0.1-0.7-0.2-1c0-0.3-0.1-0.6-0.1-0.9c-0.4,0.6-1,1.1-1.7,1.5s-1.5,0.6-2.4,0.6
		c-1.1,0-2-0.3-2.6-0.9s-0.9-1.4-0.9-2.4c0-1.1,0.5-1.9,1.4-2.6s2.2-1,3.8-1h2.6V423c0-0.8-0.3-1.5-0.8-2s-1.3-0.7-2.2-0.7
		c-0.9,0-1.6,0.2-2.2,0.7s-0.9,1-0.9,1.7h-1.2v-0.1c0-0.9,0.4-1.6,1.2-2.3c0.8-0.7,1.9-1,3.2-1c1.3,0,2.3,0.3,3.1,1
		c0.8,0.7,1.2,1.6,1.2,2.8v5.7c0,0.4,0,0.8,0.1,1.2c0,0.4,0.1,0.8,0.2,1.1L361,431.1L361,431.1z M356.8,430.2c0.9,0,1.7-0.2,2.4-0.6
		s1.2-1,1.5-1.7v-2.4h-2.6c-1.2,0-2.1,0.2-2.8,0.7c-0.7,0.5-1,1.1-1,1.9c0,0.6,0.2,1.1,0.6,1.5C355.4,430,356,430.2,356.8,430.2z"/>
	<path class="st3" d="M366.6,419.5l0.1,2c0.4-0.7,0.9-1.3,1.5-1.7c0.6-0.4,1.4-0.6,2.2-0.6c1.3,0,2.2,0.4,2.9,1.2s1,2,1,3.6v7.1H373
		V424c0-1.3-0.2-2.3-0.7-2.8c-0.5-0.6-1.2-0.8-2.1-0.8s-1.6,0.2-2.2,0.7s-1,1.1-1.2,1.9v8.1h-1.3v-11.6L366.6,419.5L366.6,419.5z"/>
	<path class="st3" d="M385.1,431.1c-0.1-0.4-0.1-0.7-0.2-1c0-0.3-0.1-0.6-0.1-0.9c-0.4,0.6-1,1.1-1.7,1.5s-1.5,0.6-2.4,0.6
		c-1.1,0-2-0.3-2.6-0.9s-0.9-1.4-0.9-2.4c0-1.1,0.5-1.9,1.4-2.6s2.2-1,3.8-1h2.6V423c0-0.8-0.3-1.5-0.8-2s-1.3-0.7-2.2-0.7
		c-0.9,0-1.6,0.2-2.2,0.7s-0.9,1-0.9,1.7h-1.2v-0.1c0-0.9,0.4-1.6,1.2-2.3c0.8-0.7,1.9-1,3.2-1c1.3,0,2.3,0.3,3.1,1
		c0.8,0.7,1.2,1.6,1.2,2.8v5.7c0,0.4,0,0.8,0.1,1.2c0,0.4,0.1,0.8,0.2,1.1L385.1,431.1L385.1,431.1z M380.9,430.2
		c0.9,0,1.7-0.2,2.4-0.6s1.2-1,1.5-1.7v-2.4h-2.6c-1.2,0-2.1,0.2-2.8,0.7c-0.7,0.5-1,1.1-1,1.9c0,0.6,0.2,1.1,0.6,1.5
		C379.5,430,380.1,430.2,380.9,430.2z"/>
	<path class="st3" d="M404.3,425.7c0,1.7-0.4,3.1-1.2,4.2c-0.8,1-1.9,1.6-3.3,1.6c-0.8,0-1.5-0.2-2.1-0.5s-1.1-0.7-1.5-1.3v6h-1.3
		v-16.1h1.1l0.2,1.8c0.4-0.6,0.9-1.1,1.5-1.5s1.3-0.5,2.2-0.5c1.4,0,2.5,0.6,3.3,1.7s1.2,2.6,1.2,4.5v0.1H404.3z M403,425.4
		c0-1.5-0.3-2.7-0.9-3.6s-1.4-1.4-2.6-1.4c-0.9,0-1.6,0.2-2.1,0.6s-0.9,0.9-1.2,1.6v5.6c0.3,0.6,0.7,1.1,1.3,1.5
		c0.6,0.4,1.2,0.5,2.1,0.5c1.1,0,2-0.4,2.6-1.3s0.9-2,0.9-3.4L403,425.4L403,425.4z"/>
	<path class="st3" d="M414.5,431.1c-0.1-0.4-0.1-0.7-0.2-1c0-0.3-0.1-0.6-0.1-0.9c-0.4,0.6-1,1.1-1.7,1.5s-1.5,0.6-2.4,0.6
		c-1.1,0-2-0.3-2.6-0.9s-0.9-1.4-0.9-2.4c0-1.1,0.5-1.9,1.4-2.6s2.2-1,3.8-1h2.6V423c0-0.8-0.3-1.5-0.8-2s-1.3-0.7-2.2-0.7
		c-0.9,0-1.6,0.2-2.2,0.7s-0.9,1-0.9,1.7h-1.2v-0.1c0-0.9,0.4-1.6,1.2-2.3c0.8-0.7,1.9-1,3.2-1c1.3,0,2.3,0.3,3.1,1
		c0.8,0.7,1.2,1.6,1.2,2.8v5.7c0,0.4,0,0.8,0.1,1.2c0,0.4,0.1,0.8,0.2,1.1L414.5,431.1L414.5,431.1z M410.3,430.2
		c0.9,0,1.7-0.2,2.4-0.6s1.2-1,1.5-1.7v-2.4h-2.6c-1.2,0-2.1,0.2-2.8,0.7c-0.7,0.5-1,1.1-1,1.9c0,0.6,0.2,1.1,0.6,1.5
		C408.9,430,409.5,430.2,410.3,430.2z"/>
	<path class="st3" d="M424.3,420.6l-1-0.1c-0.8,0-1.5,0.2-2,0.7s-0.9,1.1-1.1,1.9v8H419v-11.6h1.1l0.2,1.9v0.1
		c0.3-0.7,0.8-1.3,1.4-1.7c0.6-0.4,1.2-0.6,2-0.6c0.2,0,0.3,0,0.5,0s0.3,0.1,0.4,0.1L424.3,420.6z"/>
	<path class="st3" d="M433.8,431.1c-0.1-0.4-0.1-0.7-0.2-1c0-0.3-0.1-0.6-0.1-0.9c-0.4,0.6-1,1.1-1.7,1.5s-1.5,0.6-2.4,0.6
		c-1.1,0-2-0.3-2.6-0.9s-0.9-1.4-0.9-2.4c0-1.1,0.5-1.9,1.4-2.6s2.2-1,3.8-1h2.6V423c0-0.8-0.3-1.5-0.8-2s-1.3-0.7-2.2-0.7
		c-0.9,0-1.6,0.2-2.2,0.7s-0.9,1-0.9,1.7h-1.2v-0.1c0-0.9,0.4-1.6,1.2-2.3c0.8-0.7,1.9-1,3.2-1c1.3,0,2.3,0.3,3.1,1
		c0.8,0.7,1.2,1.6,1.2,2.8v5.7c0,0.4,0,0.8,0.1,1.2c0,0.4,0.1,0.8,0.2,1.1L433.8,431.1L433.8,431.1z M429.6,430.2
		c0.9,0,1.7-0.2,2.4-0.6s1.2-1,1.5-1.7v-2.4H431c-1.2,0-2.1,0.2-2.8,0.7c-0.7,0.5-1,1.1-1,1.9c0,0.6,0.2,1.1,0.6,1.5
		S428.8,430.2,429.6,430.2z"/>
</g>
<g class="st1">
	<path class="st3" d="M447.9,416.5v3h2.6v1.1h-2.6v7.6c0,0.8,0.1,1.3,0.4,1.6c0.3,0.3,0.6,0.5,1.1,0.5c0.2,0,0.4,0,0.6,0
		s0.4,0,0.7-0.1l0.2,1c-0.2,0.1-0.5,0.2-0.8,0.2s-0.6,0.1-0.9,0.1c-0.8,0-1.5-0.3-1.9-0.8c-0.5-0.5-0.7-1.3-0.7-2.4v-7.6h-2v-1.1h2
		v-3h1.3V416.5z"/>
</g>
<g class="st1">
	<path class="st3" d="M452.4,425.2c0-1.7,0.5-3.1,1.4-4.2s2.2-1.6,3.7-1.6c1.6,0,2.8,0.5,3.7,1.6c0.9,1.1,1.4,2.5,1.4,4.2v0.4
		c0,1.7-0.5,3.1-1.4,4.2s-2.2,1.6-3.7,1.6c-1.6,0-2.8-0.5-3.7-1.6s-1.4-2.5-1.4-4.2V425.2z M453.7,425.5c0,1.3,0.3,2.5,1,3.4
		s1.6,1.4,2.8,1.4c1.2,0,2.1-0.5,2.8-1.4c0.7-0.9,1-2,1-3.4v-0.4c0-1.3-0.3-2.4-1-3.4c-0.7-0.9-1.6-1.4-2.8-1.4
		c-1.2,0-2.1,0.5-2.8,1.4c-0.7,0.9-1,2-1,3.4V425.5z"/>
	<path class="st3" d="M464.9,425.4c0-1.9,0.4-3.3,1.2-4.5s1.9-1.7,3.3-1.7c0.8,0,1.5,0.2,2.1,0.5s1.1,0.8,1.5,1.5v-6.9h1.3v16.8
		h-1.1l-0.1-1.7c-0.4,0.6-0.9,1.1-1.5,1.4s-1.3,0.5-2.1,0.5c-1.4,0-2.5-0.5-3.3-1.6c-0.8-1-1.2-2.4-1.2-4.2v-0.1H464.9z
		 M466.2,425.7c0,1.4,0.3,2.5,0.8,3.4c0.6,0.8,1.4,1.3,2.5,1.3c0.8,0,1.5-0.2,2.1-0.6s1-0.9,1.3-1.6v-5.5c-0.3-0.7-0.7-1.2-1.2-1.6
		s-1.2-0.6-2.1-0.6c-1.1,0-2,0.5-2.6,1.4s-0.9,2.1-0.9,3.6v0.2H466.2z"/>
	<path class="st3" d="M485,431.1c-0.1-0.4-0.1-0.7-0.2-1c0-0.3-0.1-0.6-0.1-0.9c-0.4,0.6-1,1.1-1.7,1.5s-1.5,0.6-2.4,0.6
		c-1.1,0-2-0.3-2.6-0.9s-0.9-1.4-0.9-2.4c0-1.1,0.5-1.9,1.4-2.6c0.9-0.6,2.2-1,3.8-1h2.6V423c0-0.8-0.3-1.5-0.8-2s-1.3-0.7-2.2-0.7
		s-1.6,0.2-2.2,0.7c-0.6,0.5-0.9,1-0.9,1.7h-1.2v-0.1c0-0.9,0.4-1.6,1.2-2.3c0.8-0.7,1.9-1,3.2-1s2.3,0.3,3.1,1s1.2,1.6,1.2,2.8v5.7
		c0,0.4,0,0.8,0.1,1.2s0.1,0.8,0.2,1.1L485,431.1L485,431.1z M480.8,430.2c0.9,0,1.7-0.2,2.4-0.6s1.2-1,1.5-1.7v-2.4h-2.6
		c-1.2,0-2.1,0.2-2.8,0.7s-1,1.1-1,1.9c0,0.6,0.2,1.1,0.7,1.5C479.4,430,480,430.2,480.8,430.2z"/>
	<path class="st3" d="M496.4,428.2c0-0.5-0.2-1-0.7-1.4c-0.4-0.4-1.3-0.7-2.4-1c-1.4-0.3-2.4-0.7-3.1-1.2c-0.7-0.5-1-1.2-1-2.1
		s0.4-1.6,1.1-2.2c0.7-0.6,1.7-0.9,3-0.9s2.3,0.3,3.1,1c0.8,0.6,1.1,1.5,1.1,2.4v0.1h-1.2c0-0.6-0.3-1.2-0.8-1.7s-1.3-0.7-2.2-0.7
		s-1.6,0.2-2.1,0.6s-0.7,0.9-0.7,1.4s0.2,1,0.6,1.3c0.4,0.3,1.2,0.7,2.4,0.9c1.4,0.3,2.4,0.7,3.1,1.3s1,1.3,1,2.2
		c0,1-0.4,1.8-1.2,2.4s-1.8,0.9-3.1,0.9c-1.4,0-2.5-0.3-3.3-1s-1.2-1.5-1.1-2.4V428h1.2c0.1,0.8,0.4,1.4,1,1.8s1.4,0.6,2.2,0.6
		c0.9,0,1.7-0.2,2.2-0.6S496.4,428.8,496.4,428.2z"/>
	<path class="st3" d="M513.4,431.1c-0.1-0.4-0.1-0.7-0.2-1c0-0.3-0.1-0.6-0.1-0.9c-0.4,0.6-1,1.1-1.7,1.5s-1.5,0.6-2.4,0.6
		c-1.1,0-2-0.3-2.6-0.9s-0.9-1.4-0.9-2.4c0-1.1,0.5-1.9,1.4-2.6s2.2-1,3.8-1h2.6V423c0-0.8-0.3-1.5-0.8-2s-1.3-0.7-2.2-0.7
		s-1.6,0.2-2.2,0.7c-0.6,0.5-0.9,1-0.9,1.7H506v-0.1c0-0.9,0.4-1.6,1.2-2.3s1.9-1,3.2-1s2.3,0.3,3.1,1s1.2,1.6,1.2,2.8v5.7
		c0,0.4,0,0.8,0.1,1.2s0.1,0.8,0.2,1.1L513.4,431.1L513.4,431.1z M509.2,430.2c0.9,0,1.7-0.2,2.4-0.6s1.2-1,1.5-1.7v-2.4h-2.6
		c-1.2,0-2.1,0.2-2.8,0.7s-1,1.1-1,1.9c0,0.6,0.2,1.1,0.7,1.5S508.4,430.2,509.2,430.2z"/>
	<path class="st3" d="M517.3,425.4c0-1.9,0.4-3.3,1.2-4.5c0.8-1.1,1.9-1.7,3.3-1.7c0.8,0,1.5,0.2,2.1,0.5s1.1,0.8,1.5,1.4l0.1-1.7
		h1.1v16.1h-1.3v-6c-0.4,0.6-0.9,1-1.5,1.3s-1.3,0.5-2.1,0.5c-1.4,0-2.5-0.5-3.3-1.6c-0.8-1-1.2-2.4-1.2-4.2v-0.1H517.3z
		 M518.6,425.6c0,1.4,0.3,2.5,0.8,3.4c0.6,0.8,1.4,1.3,2.5,1.3c0.8,0,1.5-0.2,2-0.5c0.5-0.4,1-0.9,1.3-1.5v-5.7
		c-0.3-0.6-0.7-1.2-1.2-1.6s-1.2-0.6-2-0.6c-1.1,0-2,0.5-2.6,1.4s-0.9,2.1-0.9,3.6v0.2H518.6z"/>
	<path class="st3" d="M537.7,429.2c-0.4,0.7-0.9,1.2-1.5,1.6s-1.4,0.6-2.2,0.6c-1.2,0-2.2-0.4-2.9-1.2c-0.7-0.8-1-2.1-1-3.9v-6.7
		h1.3v6.8c0,1.4,0.2,2.4,0.7,3.1c0.5,0.6,1.2,0.9,2.1,0.9c1,0,1.8-0.2,2.3-0.7s1-1,1.2-1.8v-8.3h1.3v11.6h-1.1L537.7,429.2z"/>
	<path class="st3" d="M546.7,431.4c-1.5,0-2.7-0.5-3.6-1.6s-1.4-2.4-1.4-4.1v-0.6c0-1.7,0.5-3,1.4-4.1c1-1.1,2.1-1.6,3.5-1.6
		s2.5,0.5,3.4,1.4c0.8,0.9,1.2,2.1,1.2,3.6v1.1H543v0.3c0,1.3,0.3,2.4,1,3.3s1.6,1.3,2.7,1.3c0.8,0,1.5-0.1,2.1-0.3
		c0.6-0.2,1-0.5,1.4-1l0.5,0.9c-0.4,0.5-1,0.8-1.7,1.1C548.4,431.2,547.6,431.4,546.7,431.4z M546.5,420.4c-1,0-1.8,0.4-2.4,1.1
		c-0.6,0.7-1,1.6-1.1,2.7v0.1h6.8V424c0-1-0.3-1.8-0.9-2.5S547.5,420.4,546.5,420.4z"/>
	<path class="st3" d="M555.1,431.1h-1.3v-16.8h1.3V431.1z"/>
	<path class="st3" d="M560.1,431.1h-1.3v-16.8h1.3V431.1z"/>
	<path class="st3" d="M571,431.1c-0.1-0.4-0.1-0.7-0.2-1c0-0.3-0.1-0.6-0.1-0.9c-0.4,0.6-1,1.1-1.7,1.5s-1.5,0.6-2.4,0.6
		c-1.1,0-2-0.3-2.6-0.9s-0.9-1.4-0.9-2.4c0-1.1,0.5-1.9,1.4-2.6c0.9-0.6,2.2-1,3.8-1h2.6V423c0-0.8-0.3-1.5-0.8-2s-1.3-0.7-2.2-0.7
		s-1.6,0.2-2.2,0.7c-0.6,0.5-0.9,1-0.9,1.7h-1.2v-0.1c0-0.9,0.4-1.6,1.2-2.3s1.9-1,3.2-1s2.3,0.3,3.1,1s1.2,1.6,1.2,2.8v5.7
		c0,0.4,0,0.8,0.1,1.2c0,0.4,0.1,0.8,0.2,1.1L571,431.1L571,431.1z M566.8,430.2c0.9,0,1.7-0.2,2.4-0.6s1.2-1,1.5-1.7v-2.4h-2.6
		c-1.2,0-2.1,0.2-2.8,0.7s-1,1.1-1,1.9c0,0.6,0.2,1.1,0.6,1.5S566,430.2,566.8,430.2z"/>
	<path class="st3" d="M582.4,428.2c0-0.5-0.2-1-0.7-1.4c-0.4-0.4-1.3-0.7-2.4-1c-1.4-0.3-2.4-0.7-3.1-1.2s-1-1.2-1-2.1
		s0.4-1.6,1.1-2.2s1.7-0.9,3-0.9s2.3,0.3,3.1,1c0.8,0.6,1.1,1.5,1.1,2.4v0.1h-1.2c0-0.6-0.3-1.2-0.8-1.7s-1.3-0.7-2.2-0.7
		s-1.6,0.2-2.1,0.6s-0.7,0.9-0.7,1.4s0.2,1,0.6,1.3c0.4,0.3,1.2,0.7,2.4,0.9c1.4,0.3,2.4,0.7,3.1,1.3c0.7,0.5,1,1.3,1,2.2
		c0,1-0.4,1.8-1.2,2.4s-1.8,0.9-3.1,0.9c-1.4,0-2.5-0.3-3.3-1s-1.2-1.5-1.1-2.4V428h1.2c0,0.8,0.4,1.4,1,1.8s1.4,0.6,2.2,0.6
		c0.9,0,1.7-0.2,2.2-0.6S582.4,428.8,582.4,428.2z"/>
</g>
<g class="st1">
	<path class="st3" d="M21.7,452c0,1.7-0.4,3.1-1.2,4.2c-0.8,1-1.9,1.6-3.3,1.6c-0.8,0-1.5-0.2-2.1-0.5s-1.1-0.7-1.5-1.3v6h-1.3
		v-16.1h1.1l0.2,1.8c0.4-0.6,0.9-1.1,1.5-1.5s1.3-0.5,2.2-0.5c1.4,0,2.5,0.6,3.3,1.7S21.8,450,21.7,452L21.7,452L21.7,452z
		 M20.4,451.8c0-1.5-0.3-2.7-0.9-3.6s-1.4-1.4-2.6-1.4c-0.9,0-1.6,0.2-2.1,0.6s-0.9,0.9-1.2,1.6v5.6c0.3,0.6,0.7,1.1,1.3,1.5
		s1.2,0.5,2.1,0.5c1.1,0,2-0.4,2.6-1.3s0.9-2,0.9-3.4L20.4,451.8L20.4,451.8z"/>
	<path class="st3" d="M29,457.8c-1.5,0-2.7-0.5-3.6-1.6s-1.4-2.4-1.4-4.1v-0.6c0-1.7,0.5-3,1.4-4.1s2.1-1.6,3.5-1.6s2.5,0.5,3.4,1.4
		c0.8,0.9,1.2,2.1,1.2,3.6v1.1h-8.2v0.3c0,1.3,0.3,2.4,1,3.3s1.6,1.3,2.7,1.3c0.8,0,1.5-0.1,2.1-0.3c0.6-0.2,1-0.5,1.4-1l0.5,0.9
		c-0.4,0.5-1,0.8-1.7,1.1C30.7,457.6,29.9,457.8,29,457.8z M28.8,446.8c-1,0-1.8,0.4-2.4,1.1s-1,1.6-1.1,2.7v0.1h6.8v-0.3
		c0-1-0.3-1.8-0.9-2.5C30.6,447.1,29.8,446.8,28.8,446.8z"/>
	<path class="st3" d="M41.3,447l-1-0.1c-0.8,0-1.5,0.2-2,0.7s-0.9,1.1-1.1,1.9v8H36v-11.6h1.1l0.2,1.9v0.1c0.3-0.7,0.8-1.3,1.4-1.7
		c0.6-0.4,1.2-0.6,2-0.6c0.2,0,0.3,0,0.5,0s0.3,0.1,0.4,0.1L41.3,447z"/>
	<path class="st3" d="M50.4,454.6c0-0.5-0.2-1-0.7-1.4c-0.4-0.4-1.3-0.7-2.4-1c-1.4-0.3-2.4-0.7-3.1-1.2s-1-1.2-1-2.1
		s0.4-1.6,1.1-2.2s1.7-0.9,3-0.9s2.3,0.3,3.1,1c0.8,0.6,1.1,1.5,1.1,2.4v0.1h-1.2c0-0.6-0.3-1.2-0.8-1.7s-1.3-0.7-2.2-0.7
		c-0.9,0-1.6,0.2-2.1,0.6s-0.7,0.9-0.7,1.4s0.2,1,0.6,1.3s1.2,0.7,2.4,0.9c1.4,0.3,2.4,0.7,3.1,1.3c0.7,0.5,1,1.3,1,2.2
		c0,1-0.4,1.8-1.2,2.4c-0.8,0.6-1.8,0.9-3.1,0.9c-1.4,0-2.5-0.3-3.3-1s-1.2-1.5-1.1-2.4v-0.1h1.2c0,0.8,0.4,1.4,1,1.8
		s1.4,0.6,2.2,0.6c0.9,0,1.7-0.2,2.2-0.6S50.4,455.2,50.4,454.6z"/>
	<path class="st3" d="M53.9,451.6c0-1.7,0.5-3.1,1.4-4.2s2.2-1.6,3.7-1.6c1.6,0,2.8,0.5,3.7,1.6s1.4,2.5,1.4,4.2v0.4
		c0,1.7-0.5,3.1-1.4,4.2s-2.2,1.6-3.7,1.6c-1.6,0-2.8-0.5-3.7-1.6s-1.4-2.5-1.4-4.2V451.6z M55.2,451.9c0,1.3,0.3,2.5,1,3.4
		s1.6,1.4,2.8,1.4c1.2,0,2.1-0.5,2.8-1.4c0.7-0.9,1-2,1-3.4v-0.4c0-1.3-0.3-2.4-1-3.4c-0.7-0.9-1.6-1.4-2.8-1.4
		c-1.2,0-2.1,0.5-2.8,1.4c-0.7,0.9-1,2-1,3.4V451.9z"/>
	<path class="st3" d="M68,445.9l0.1,2c0.4-0.7,0.9-1.3,1.5-1.7c0.6-0.4,1.4-0.6,2.2-0.6c1.3,0,2.2,0.4,2.9,1.2s1,2,1,3.6v7.1h-1.3
		v-7.1c0-1.3-0.2-2.3-0.7-2.8c-0.5-0.6-1.2-0.8-2.1-0.8s-1.6,0.2-2.2,0.7s-1,1.1-1.2,1.9v8.1h-1.3v-11.6L68,445.9L68,445.9z"/>
	<path class="st3" d="M86.5,457.5c-0.1-0.4-0.1-0.7-0.2-1c0-0.3-0.1-0.6-0.1-0.9c-0.4,0.6-1,1.1-1.7,1.5s-1.5,0.6-2.4,0.6
		c-1.1,0-2-0.3-2.6-0.9s-0.9-1.4-0.9-2.4c0-1.1,0.5-1.9,1.4-2.6s2.2-1,3.8-1h2.6v-1.4c0-0.8-0.3-1.5-0.8-2s-1.3-0.7-2.2-0.7
		s-1.6,0.2-2.2,0.7c-0.6,0.5-0.9,1-0.9,1.7h-1.2V449c0-0.9,0.4-1.6,1.2-2.3c0.8-0.7,1.9-1,3.2-1s2.3,0.3,3.1,1s1.2,1.6,1.2,2.8v5.7
		c0,0.4,0,0.8,0.1,1.2c0,0.4,0.1,0.8,0.2,1.1L86.5,457.5L86.5,457.5z M82.3,456.6c0.9,0,1.7-0.2,2.4-0.6s1.2-1,1.5-1.7v-2.4h-2.6
		c-1.2,0-2.1,0.2-2.8,0.7s-1,1.1-1,1.9c0,0.6,0.2,1.1,0.6,1.5C80.9,456.4,81.5,456.6,82.3,456.6z"/>
	<path class="st3" d="M97.9,454.6c0-0.5-0.2-1-0.7-1.4c-0.4-0.4-1.3-0.7-2.4-1c-1.4-0.3-2.4-0.7-3.1-1.2c-0.7-0.5-1-1.2-1-2.1
		s0.4-1.6,1.1-2.2c0.7-0.6,1.7-0.9,3-0.9s2.3,0.3,3.1,1c0.8,0.6,1.1,1.5,1.1,2.4v0.1h-1.2c0-0.6-0.3-1.2-0.8-1.7s-1.3-0.7-2.2-0.7
		s-1.6,0.2-2.1,0.6s-0.7,0.9-0.7,1.4s0.2,1,0.6,1.3c0.4,0.3,1.2,0.7,2.4,0.9c1.4,0.3,2.4,0.7,3.1,1.3c0.7,0.5,1,1.3,1,2.2
		c0,1-0.4,1.8-1.2,2.4s-1.8,0.9-3.1,0.9c-1.4,0-2.5-0.3-3.3-1s-1.2-1.5-1.1-2.4v-0.1h1.2c0,0.8,0.4,1.4,1,1.8s1.4,0.6,2.2,0.6
		c0.9,0,1.7-0.2,2.2-0.6S97.9,455.2,97.9,454.6z"/>
	<path class="st3" d="M107,451.8c0-1.9,0.4-3.3,1.2-4.5s1.9-1.7,3.3-1.7c0.8,0,1.5,0.2,2.1,0.5s1.1,0.8,1.5,1.4l0.1-1.7h1.1V462H115
		v-6c-0.4,0.6-0.9,1-1.5,1.3s-1.3,0.5-2.1,0.5c-1.4,0-2.5-0.5-3.3-1.6c-0.8-1-1.2-2.4-1.2-4.2v-0.2H107z M108.3,452
		c0,1.4,0.3,2.5,0.8,3.4c0.6,0.8,1.4,1.3,2.5,1.3c0.8,0,1.5-0.2,2-0.5c0.5-0.4,1-0.9,1.3-1.5V449c-0.3-0.6-0.7-1.2-1.3-1.6
		c-0.5-0.4-1.2-0.6-2-0.6c-1.1,0-2,0.5-2.6,1.4s-0.9,2.1-0.9,3.6v0.2H108.3z"/>
	<path class="st3" d="M127.4,455.6c-0.4,0.7-0.9,1.2-1.5,1.6s-1.4,0.6-2.2,0.6c-1.2,0-2.2-0.4-2.9-1.2c-0.7-0.8-1-2.1-1-3.9V446h1.3
		v6.8c0,1.4,0.2,2.4,0.7,3.1c0.5,0.6,1.2,0.9,2.1,0.9c1,0,1.8-0.2,2.3-0.7s1-1,1.2-1.8V446h1.3v11.6h-1.1L127.4,455.6z"/>
	<path class="st3" d="M136.4,457.8c-1.5,0-2.7-0.5-3.6-1.6s-1.4-2.4-1.4-4.1v-0.6c0-1.7,0.5-3,1.4-4.1s2.1-1.6,3.5-1.6
		s2.5,0.5,3.4,1.4c0.8,0.9,1.2,2.1,1.2,3.6v1.1h-8.2v0.3c0,1.3,0.3,2.4,1,3.3s1.6,1.3,2.7,1.3c0.8,0,1.5-0.1,2.1-0.3
		c0.6-0.2,1-0.5,1.4-1l0.5,0.9c-0.4,0.5-1,0.8-1.7,1.1C138.1,457.6,137.3,457.8,136.4,457.8z M136.2,446.8c-1,0-1.8,0.4-2.4,1.1
		c-0.6,0.7-1,1.6-1.1,2.7v0.1h6.8v-0.3c0-1-0.3-1.8-0.9-2.5C138,447.1,137.2,446.8,136.2,446.8z"/>
	<path class="st3" d="M148.2,451.8c0-1.9,0.4-3.3,1.2-4.5s1.9-1.7,3.3-1.7c0.8,0,1.5,0.2,2.1,0.5s1.1,0.8,1.5,1.5v-6.9h1.3v16.8
		h-1.1l-0.1-1.7c-0.4,0.6-0.9,1.1-1.5,1.4s-1.3,0.5-2.1,0.5c-1.4,0-2.5-0.5-3.3-1.6C148.7,455.1,148.3,453.7,148.2,451.8
		L148.2,451.8L148.2,451.8z M149.5,452c0,1.4,0.3,2.5,0.8,3.4c0.6,0.8,1.4,1.3,2.5,1.3c0.8,0,1.5-0.2,2.1-0.6s1-0.9,1.3-1.6V449
		c-0.3-0.7-0.7-1.2-1.2-1.6s-1.2-0.6-2.1-0.6c-1.1,0-2,0.5-2.6,1.4s-0.9,2.1-0.9,3.6L149.5,452L149.5,452z"/>
	<path class="st3" d="M165.3,457.8c-1.5,0-2.7-0.5-3.6-1.6s-1.4-2.4-1.4-4.1v-0.6c0-1.7,0.5-3,1.4-4.1s2.1-1.6,3.5-1.6
		s2.5,0.5,3.4,1.4c0.8,0.9,1.2,2.1,1.2,3.6v1.1h-8.2v0.3c0,1.3,0.3,2.4,1,3.3s1.6,1.3,2.7,1.3c0.8,0,1.5-0.1,2.1-0.3
		c0.6-0.2,1-0.5,1.4-1l0.5,0.9c-0.4,0.5-1,0.8-1.7,1.1C167,457.6,166.2,457.8,165.3,457.8z M165.1,446.8c-1,0-1.8,0.4-2.4,1.1
		c-0.6,0.7-1,1.6-1.1,2.7v0.1h6.8v-0.3c0-1-0.3-1.8-0.9-2.5C166.9,447.1,166.1,446.8,165.1,446.8z"/>
	<path class="st3" d="M179.2,454.6c0-0.5-0.2-1-0.7-1.4c-0.4-0.4-1.3-0.7-2.4-1c-1.4-0.3-2.4-0.7-3.1-1.2c-0.7-0.5-1-1.2-1-2.1
		s0.4-1.6,1.1-2.2c0.7-0.6,1.7-0.9,3-0.9s2.3,0.3,3.1,1c0.8,0.6,1.1,1.5,1.1,2.4v0.1h-1.2c0-0.6-0.3-1.2-0.8-1.7s-1.3-0.7-2.2-0.7
		s-1.6,0.2-2.1,0.6s-0.7,0.9-0.7,1.4s0.2,1,0.6,1.3c0.4,0.3,1.2,0.7,2.4,0.9c1.4,0.3,2.4,0.7,3.1,1.3c0.7,0.5,1,1.3,1,2.2
		c0,1-0.4,1.8-1.2,2.4s-1.8,0.9-3.1,0.9c-1.4,0-2.5-0.3-3.3-1s-1.2-1.5-1.1-2.4v-0.1h1.2c0,0.8,0.4,1.4,1,1.8s1.4,0.6,2.2,0.6
		c0.9,0,1.7-0.2,2.2-0.6S179.2,455.2,179.2,454.6z"/>
	<path class="st3" d="M187.8,457.8c-1.5,0-2.7-0.5-3.6-1.6s-1.4-2.4-1.4-4.1v-0.6c0-1.7,0.5-3,1.4-4.1s2.1-1.6,3.5-1.6
		s2.5,0.5,3.4,1.4c0.8,0.9,1.2,2.1,1.2,3.6v1.1H184v0.3c0,1.3,0.3,2.4,1,3.3s1.6,1.3,2.7,1.3c0.8,0,1.5-0.1,2.1-0.3
		c0.6-0.2,1-0.5,1.4-1l0.5,0.9c-0.4,0.5-1,0.8-1.7,1.1C189.5,457.6,188.7,457.8,187.8,457.8z M187.6,446.8c-1,0-1.8,0.4-2.4,1.1
		c-0.6,0.7-1,1.6-1.1,2.7v0.1h6.8v-0.3c0-1-0.3-1.8-0.9-2.5C189.5,447.1,188.7,446.8,187.6,446.8z"/>
	<path class="st3" d="M202.1,457.5c-0.1-0.4-0.1-0.7-0.2-1c0-0.3-0.1-0.6-0.1-0.9c-0.4,0.6-1,1.1-1.7,1.5s-1.5,0.6-2.4,0.6
		c-1.1,0-2-0.3-2.6-0.9s-0.9-1.4-0.9-2.4c0-1.1,0.5-1.9,1.4-2.6s2.2-1,3.8-1h2.6v-1.4c0-0.8-0.3-1.5-0.8-2s-1.3-0.7-2.2-0.7
		s-1.6,0.2-2.2,0.7c-0.6,0.5-0.9,1-0.9,1.7h-1.2V449c0-0.9,0.4-1.6,1.2-2.3c0.8-0.7,1.9-1,3.2-1s2.3,0.3,3.1,1s1.2,1.6,1.2,2.8v5.7
		c0,0.4,0,0.8,0.1,1.2c0,0.4,0.1,0.8,0.2,1.1L202.1,457.5L202.1,457.5z M197.9,456.6c0.9,0,1.7-0.2,2.4-0.6s1.2-1,1.5-1.7v-2.4h-2.6
		c-1.2,0-2.1,0.2-2.8,0.7s-1,1.1-1,1.9c0,0.6,0.2,1.1,0.6,1.5C196.5,456.4,197.1,456.6,197.9,456.6z"/>
	<path class="st3" d="M207.7,445.9l0.1,2c0.4-0.7,0.9-1.3,1.5-1.7c0.6-0.4,1.4-0.6,2.2-0.6c1.3,0,2.2,0.4,2.9,1.2s1,2,1,3.6v7.1
		h-1.3v-7.1c0-1.3-0.2-2.3-0.7-2.8c-0.5-0.6-1.2-0.8-2.1-0.8s-1.6,0.2-2.2,0.7s-1,1.1-1.2,1.9v8.1h-1.3v-11.6L207.7,445.9
		L207.7,445.9z"/>
	<path class="st3" d="M233.6,452c0,1.7-0.4,3.1-1.2,4.2c-0.8,1-1.9,1.6-3.3,1.6c-0.8,0-1.5-0.2-2.1-0.5s-1.1-0.7-1.5-1.3v6h-1.3
		v-16.1h1.1l0.2,1.8c0.4-0.6,0.9-1.1,1.5-1.5s1.3-0.5,2.2-0.5c1.4,0,2.5,0.6,3.3,1.7s1.2,2.6,1.2,4.5v0.1H233.6z M232.3,451.8
		c0-1.5-0.3-2.7-0.9-3.6s-1.4-1.4-2.6-1.4c-0.9,0-1.6,0.2-2.1,0.6s-0.9,0.9-1.2,1.6v5.6c0.3,0.6,0.7,1.1,1.3,1.5
		c0.6,0.4,1.2,0.5,2.1,0.5c1.1,0,2-0.4,2.6-1.3s0.9-2,0.9-3.4L232.3,451.8L232.3,451.8z"/>
	<path class="st3" d="M241.8,447l-1-0.1c-0.8,0-1.5,0.2-2,0.7s-0.9,1.1-1.1,1.9v8h-1.3v-11.6h1.1l0.2,1.9v0.1
		c0.3-0.7,0.8-1.3,1.4-1.7c0.6-0.4,1.2-0.6,2-0.6c0.2,0,0.3,0,0.5,0s0.3,0.1,0.4,0.1L241.8,447z"/>
	<path class="st3" d="M251.3,457.5c-0.1-0.4-0.1-0.7-0.2-1c0-0.3-0.1-0.6-0.1-0.9c-0.4,0.6-1,1.1-1.7,1.5s-1.5,0.6-2.4,0.6
		c-1.1,0-2-0.3-2.6-0.9s-0.9-1.4-0.9-2.4c0-1.1,0.5-1.9,1.4-2.6s2.2-1,3.8-1h2.6v-1.4c0-0.8-0.3-1.5-0.8-2s-1.3-0.7-2.2-0.7
		c-0.9,0-1.6,0.2-2.2,0.7s-0.9,1-0.9,1.7h-1.2V449c0-0.9,0.4-1.6,1.2-2.3c0.8-0.7,1.9-1,3.2-1c1.3,0,2.3,0.3,3.1,1
		c0.8,0.7,1.2,1.6,1.2,2.8v5.7c0,0.4,0,0.8,0.1,1.2c0,0.4,0.1,0.8,0.2,1.1L251.3,457.5L251.3,457.5z M247.1,456.6
		c0.9,0,1.7-0.2,2.4-0.6s1.2-1,1.5-1.7v-2.4h-2.6c-1.2,0-2.1,0.2-2.8,0.7c-0.7,0.5-1,1.1-1,1.9c0,0.6,0.2,1.1,0.6,1.5
		C245.7,456.4,246.3,456.6,247.1,456.6z"/>
	<path class="st3" d="M260.1,456.7c0.9,0,1.6-0.2,2.3-0.7c0.7-0.5,1-1.2,1-2h1.1v0.1c0,1.1-0.4,2-1.3,2.7s-1.9,1.1-3.1,1.1
		c-1.6,0-2.8-0.5-3.7-1.6s-1.3-2.5-1.3-4.2v-0.5c0-1.7,0.4-3.1,1.3-4.2s2.1-1.6,3.7-1.6c1.3,0,2.3,0.4,3.2,1.1
		c0.8,0.8,1.3,1.7,1.2,3v0.1h-1.1c0-0.9-0.3-1.7-0.9-2.2c-0.6-0.6-1.4-0.8-2.3-0.8c-1.2,0-2.2,0.4-2.8,1.3c-0.6,0.9-0.9,2-0.9,3.4
		v0.5c0,1.4,0.3,2.5,0.9,3.4C257.9,456.2,258.8,456.7,260.1,456.7z"/>
	<path class="st3" d="M269.2,442.9v3h2.6v1.1h-2.6v7.6c0,0.8,0.1,1.3,0.4,1.6c0.3,0.3,0.6,0.5,1.1,0.5c0.2,0,0.4,0,0.6,0
		s0.4,0,0.7-0.1l0.2,1c-0.2,0.1-0.5,0.2-0.8,0.2s-0.6,0.1-0.9,0.1c-0.8,0-1.5-0.3-1.9-0.8c-0.5-0.5-0.7-1.3-0.7-2.4V447h-2v-1.1h2
		v-3H269.2z"/>
	<path class="st3" d="M275.9,442.6h-1.3v-1.8h1.3V442.6z M275.9,457.5h-1.3v-11.6h1.3V457.5z"/>
	<path class="st3" d="M283.7,456.7c0.9,0,1.6-0.2,2.3-0.7c0.7-0.5,1-1.2,1-2h1.1v0.1c0,1.1-0.4,2-1.3,2.7s-1.9,1.1-3.1,1.1
		c-1.6,0-2.8-0.5-3.7-1.6s-1.3-2.5-1.3-4.2v-0.5c0-1.7,0.4-3.1,1.3-4.2s2.1-1.6,3.7-1.6c1.3,0,2.3,0.4,3.2,1.1
		c0.8,0.8,1.3,1.7,1.2,3v0.1H287c0-0.9-0.3-1.7-0.9-2.2c-0.6-0.6-1.4-0.8-2.3-0.8c-1.2,0-2.2,0.4-2.8,1.3c-0.6,0.9-0.9,2-0.9,3.4
		v0.5c0,1.4,0.3,2.5,0.9,3.4C281.6,456.2,282.5,456.7,283.7,456.7z"/>
	<path class="st3" d="M298.2,457.5c-0.1-0.4-0.1-0.7-0.2-1c0-0.3-0.1-0.6-0.1-0.9c-0.4,0.6-1,1.1-1.7,1.5s-1.5,0.6-2.4,0.6
		c-1.1,0-2-0.3-2.6-0.9s-0.9-1.4-0.9-2.4c0-1.1,0.5-1.9,1.4-2.6s2.2-1,3.8-1h2.6v-1.4c0-0.8-0.3-1.5-0.8-2s-1.3-0.7-2.2-0.7
		c-0.9,0-1.6,0.2-2.2,0.7s-0.9,1-0.9,1.7h-1.2V449c0-0.9,0.4-1.6,1.2-2.3c0.8-0.7,1.9-1,3.2-1c1.3,0,2.3,0.3,3.1,1
		c0.8,0.7,1.2,1.6,1.2,2.8v5.7c0,0.4,0,0.8,0.1,1.2c0,0.4,0.1,0.8,0.2,1.1L298.2,457.5L298.2,457.5z M294,456.6
		c0.9,0,1.7-0.2,2.4-0.6s1.2-1,1.5-1.7v-2.4h-2.6c-1.2,0-2.1,0.2-2.8,0.7c-0.7,0.5-1,1.1-1,1.9c0,0.6,0.2,1.1,0.6,1.5
		C292.6,456.4,293.2,456.6,294,456.6z"/>
	<path class="st3" d="M308,447l-1-0.1c-0.8,0-1.5,0.2-2,0.7s-0.9,1.1-1.1,1.9v8h-1.3v-11.6h1.1l0.2,1.9v0.1c0.3-0.7,0.8-1.3,1.4-1.7
		c0.6-0.4,1.2-0.6,2-0.6c0.2,0,0.3,0,0.5,0s0.3,0.1,0.4,0.1L308,447z"/>
	<path class="st3" d="M319.9,457.8c-1.5,0-2.7-0.5-3.6-1.6s-1.4-2.4-1.4-4.1v-0.6c0-1.7,0.5-3,1.4-4.1s2.1-1.6,3.5-1.6
		s2.5,0.5,3.4,1.4c0.8,0.9,1.2,2.1,1.2,3.6v1.1h-8.2v0.3c0,1.3,0.3,2.4,1,3.3s1.6,1.3,2.7,1.3c0.8,0,1.5-0.1,2.1-0.3
		c0.6-0.2,1-0.5,1.4-1l0.5,0.9c-0.4,0.5-1,0.8-1.7,1.1C321.6,457.6,320.8,457.8,319.9,457.8z M319.7,446.8c-1,0-1.8,0.4-2.4,1.1
		s-1,1.6-1.1,2.7v0.1h6.8v-0.3c0-1-0.3-1.8-0.9-2.5C321.5,447.1,320.7,446.8,319.7,446.8z"/>
	<path class="st3" d="M328.3,457.5H327v-16.8h1.3V457.5z"/>
	<path class="st3" d="M344.5,457.5c-0.1-0.4-0.1-0.7-0.2-1c0-0.3-0.1-0.6-0.1-0.9c-0.4,0.6-1,1.1-1.7,1.5s-1.5,0.6-2.4,0.6
		c-1.1,0-2-0.3-2.6-0.9s-0.9-1.4-0.9-2.4c0-1.1,0.5-1.9,1.4-2.6s2.2-1,3.8-1h2.6v-1.4c0-0.8-0.3-1.5-0.8-2s-1.3-0.7-2.2-0.7
		c-0.9,0-1.6,0.2-2.2,0.7s-0.9,1-0.9,1.7h-1.2V449c0-0.9,0.4-1.6,1.2-2.3c0.8-0.7,1.9-1,3.2-1c1.3,0,2.3,0.3,3.1,1
		c0.8,0.7,1.2,1.6,1.2,2.8v5.7c0,0.4,0,0.8,0.1,1.2c0,0.4,0.1,0.8,0.2,1.1L344.5,457.5L344.5,457.5z M340.3,456.6
		c0.9,0,1.7-0.2,2.4-0.6s1.2-1,1.5-1.7v-2.4h-2.6c-1.2,0-2.1,0.2-2.8,0.7c-0.7,0.5-1,1.1-1,1.9c0,0.6,0.2,1.1,0.6,1.5
		C338.9,456.4,339.5,456.6,340.3,456.6z"/>
	<path class="st3" d="M356.6,455.6c-0.4,0.7-0.9,1.2-1.5,1.6s-1.4,0.6-2.2,0.6c-1.2,0-2.2-0.4-2.9-1.2c-0.7-0.8-1-2.1-1-3.9V446h1.3
		v6.8c0,1.4,0.2,2.4,0.7,3.1c0.5,0.6,1.2,0.9,2.1,0.9c1,0,1.8-0.2,2.3-0.7s1-1,1.2-1.8V446h1.3v11.6h-1.1L356.6,455.6z"/>
</g>
<g class="st1">
	<path class="st3" d="M363.6,442.9v3h2.6v1.1h-2.6v7.6c0,0.8,0.1,1.3,0.4,1.6c0.3,0.3,0.6,0.5,1.1,0.5c0.2,0,0.4,0,0.6,0
		s0.4,0,0.7-0.1l0.2,1c-0.2,0.1-0.5,0.2-0.8,0.2s-0.6,0.1-0.9,0.1c-0.8,0-1.5-0.3-1.9-0.8c-0.5-0.5-0.7-1.3-0.7-2.4V447h-2v-1.1h2
		v-3H363.6z"/>
</g>
<g class="st1">
	<path class="st3" d="M367.7,451.6c0-1.7,0.5-3.1,1.4-4.2s2.2-1.6,3.7-1.6c1.6,0,2.8,0.5,3.7,1.6s1.4,2.5,1.4,4.2v0.4
		c0,1.7-0.5,3.1-1.4,4.2s-2.2,1.6-3.7,1.6c-1.6,0-2.8-0.5-3.7-1.6s-1.4-2.5-1.4-4.2V451.6z M369,451.9c0,1.3,0.3,2.5,1,3.4
		s1.6,1.4,2.8,1.4c1.2,0,2.1-0.5,2.8-1.4c0.7-0.9,1-2,1-3.4v-0.4c0-1.3-0.3-2.4-1-3.4c-0.7-0.9-1.6-1.4-2.8-1.4
		c-1.2,0-2.1,0.5-2.8,1.4c-0.7,0.9-1,2-1,3.4V451.9z"/>
	<path class="st3" d="M385,456.7c0.9,0,1.6-0.2,2.3-0.7c0.7-0.5,1-1.2,1-2h1.1v0.1c0,1.1-0.4,2-1.3,2.7s-1.9,1.1-3.1,1.1
		c-1.6,0-2.8-0.5-3.7-1.6s-1.3-2.5-1.3-4.2v-0.5c0-1.7,0.4-3.1,1.3-4.2s2.1-1.6,3.7-1.6c1.3,0,2.3,0.4,3.2,1.1
		c0.8,0.8,1.3,1.7,1.2,3v0.1h-1.1c0-0.9-0.3-1.7-0.9-2.2c-0.6-0.6-1.4-0.8-2.3-0.8c-1.2,0-2.2,0.4-2.8,1.3c-0.6,0.9-0.9,2-0.9,3.4
		v0.5c0,1.4,0.3,2.5,0.9,3.4C382.8,456.2,383.7,456.7,385,456.7z"/>
	<path class="st3" d="M399.7,455.6c-0.4,0.7-0.9,1.2-1.5,1.6s-1.4,0.6-2.2,0.6c-1.2,0-2.2-0.4-2.9-1.2c-0.7-0.8-1-2.1-1-3.9V446h1.3
		v6.8c0,1.4,0.2,2.4,0.7,3.1c0.5,0.6,1.2,0.9,2.1,0.9c1,0,1.8-0.2,2.3-0.7s1-1,1.2-1.8V446h1.3v11.6h-1.1L399.7,455.6z"/>
	<path class="st3" d="M405.8,442.6h-1.3v-1.8h1.3V442.6z M405.8,457.5h-1.3v-11.6h1.3V457.5z"/>
	<path class="st3" d="M408.8,451.8c0-1.9,0.4-3.3,1.2-4.5s1.9-1.7,3.3-1.7c0.8,0,1.5,0.2,2.1,0.5s1.1,0.8,1.5,1.5v-6.9h1.3v16.8H417
		l-0.1-1.7c-0.4,0.6-0.9,1.1-1.5,1.4s-1.3,0.5-2.1,0.5c-1.4,0-2.5-0.5-3.3-1.6C409.2,455.1,408.8,453.7,408.8,451.8L408.8,451.8z
		 M410.1,452c0,1.4,0.3,2.5,0.8,3.4c0.6,0.8,1.4,1.3,2.5,1.3c0.8,0,1.5-0.2,2.1-0.6s1-0.9,1.3-1.6V449c-0.3-0.7-0.7-1.2-1.2-1.6
		s-1.2-0.6-2.1-0.6c-1.1,0-2,0.5-2.6,1.4s-0.9,2.1-0.9,3.6v0.2H410.1z"/>
	<path class="st3" d="M428.9,457.5c-0.1-0.4-0.1-0.7-0.2-1c0-0.3-0.1-0.6-0.1-0.9c-0.4,0.6-1,1.1-1.7,1.5s-1.5,0.6-2.4,0.6
		c-1.1,0-2-0.3-2.6-0.9s-0.9-1.4-0.9-2.4c0-1.1,0.5-1.9,1.4-2.6s2.2-1,3.8-1h2.6v-1.4c0-0.8-0.3-1.5-0.8-2s-1.3-0.7-2.2-0.7
		c-0.9,0-1.6,0.2-2.2,0.7s-0.9,1-0.9,1.7h-1.2V449c0-0.9,0.4-1.6,1.2-2.3c0.8-0.7,1.9-1,3.2-1c1.3,0,2.3,0.3,3.1,1
		c0.8,0.7,1.2,1.6,1.2,2.8v5.7c0,0.4,0,0.8,0.1,1.2c0,0.4,0.1,0.8,0.2,1.1L428.9,457.5L428.9,457.5z M424.7,456.6
		c0.9,0,1.7-0.2,2.4-0.6s1.2-1,1.5-1.7v-2.4H426c-1.2,0-2.1,0.2-2.8,0.7c-0.7,0.5-1,1.1-1,1.9c0,0.6,0.2,1.1,0.6,1.5
		C423.3,456.4,423.9,456.6,424.7,456.6z"/>
	<path class="st3" d="M432.9,451.8c0-1.9,0.4-3.3,1.2-4.5s1.9-1.7,3.3-1.7c0.8,0,1.5,0.2,2.1,0.5s1.1,0.8,1.5,1.5v-6.9h1.3v16.8
		h-1.1l-0.1-1.7c-0.4,0.6-0.9,1.1-1.5,1.4s-1.3,0.5-2.1,0.5c-1.4,0-2.5-0.5-3.3-1.6C433.4,455.1,433,453.7,432.9,451.8L432.9,451.8
		L432.9,451.8z M434.2,452c0,1.4,0.3,2.5,0.8,3.4c0.6,0.8,1.4,1.3,2.5,1.3c0.8,0,1.5-0.2,2.1-0.6s1-0.9,1.3-1.6V449
		c-0.3-0.7-0.7-1.2-1.2-1.6s-1.2-0.6-2.1-0.6c-1.1,0-2,0.5-2.6,1.4s-0.9,2.1-0.9,3.6v0.2H434.2z"/>
	<path class="st3" d="M444.9,451.6c0-1.7,0.5-3.1,1.4-4.2s2.2-1.6,3.7-1.6c1.6,0,2.8,0.5,3.7,1.6s1.4,2.5,1.4,4.2v0.4
		c0,1.7-0.5,3.1-1.4,4.2s-2.2,1.6-3.7,1.6c-1.6,0-2.8-0.5-3.7-1.6s-1.4-2.5-1.4-4.2V451.6z M446.2,451.9c0,1.3,0.3,2.5,1,3.4
		s1.6,1.4,2.8,1.4c1.2,0,2.1-0.5,2.8-1.4c0.7-0.9,1-2,1-3.4v-0.4c0-1.3-0.3-2.4-1-3.4c-0.7-0.9-1.6-1.4-2.8-1.4
		c-1.2,0-2.1,0.5-2.8,1.4c-0.7,0.9-1,2-1,3.4V451.9z"/>
	<path class="st3" d="M466.5,454.4l0.4,1.4h0.1l3.5-9.9h1.4l-5,13.5c-0.3,0.8-0.7,1.5-1.2,2c-0.5,0.6-1.2,0.8-2.1,0.8
		c-0.2,0-0.3,0-0.5,0s-0.4-0.1-0.5-0.1l0.2-1.1c0.1,0,0.2,0,0.4,0c0.2,0,0.3,0,0.4,0c0.6,0,1-0.2,1.3-0.6c0.3-0.4,0.6-0.9,0.9-1.5
		l0.6-1.6l-4.5-11.5h1.4L466.5,454.4z"/>
	<path class="st3" d="M486.3,454.6c0-0.5-0.2-1-0.7-1.4c-0.4-0.4-1.3-0.7-2.4-1c-1.4-0.3-2.4-0.7-3.1-1.2s-1-1.2-1-2.1
		s0.4-1.6,1.1-2.2s1.7-0.9,3-0.9s2.3,0.3,3.1,1c0.8,0.6,1.1,1.5,1.1,2.4v0.1h-1.2c0-0.6-0.3-1.2-0.8-1.7s-1.3-0.7-2.2-0.7
		s-1.6,0.2-2.1,0.6s-0.7,0.9-0.7,1.4s0.2,1,0.6,1.3c0.4,0.3,1.2,0.7,2.4,0.9c1.4,0.3,2.4,0.7,3.1,1.3c0.7,0.5,1,1.3,1,2.2
		c0,1-0.4,1.8-1.2,2.4s-1.8,0.9-3.1,0.9c-1.4,0-2.5-0.3-3.3-1s-1.2-1.5-1.1-2.4v-0.1h1.2c0,0.8,0.4,1.4,1,1.8s1.4,0.6,2.2,0.6
		c0.9,0,1.7-0.2,2.2-0.6S486.3,455.2,486.3,454.6z"/>
	<path class="st3" d="M494.9,457.8c-1.5,0-2.7-0.5-3.6-1.6s-1.4-2.4-1.4-4.1v-0.6c0-1.7,0.5-3,1.4-4.1s2.1-1.6,3.5-1.6
		s2.5,0.5,3.4,1.4c0.8,0.9,1.2,2.1,1.2,3.6v1.1h-8.2v0.3c0,1.3,0.3,2.4,1,3.3s1.6,1.3,2.7,1.3c0.8,0,1.5-0.1,2.1-0.3
		c0.6-0.2,1-0.5,1.5-1l0.5,0.9c-0.4,0.5-1,0.8-1.7,1.1C496.6,457.6,495.8,457.8,494.9,457.8z M494.7,446.8c-1,0-1.8,0.4-2.4,1.1
		c-0.6,0.7-1,1.6-1.1,2.7v0.1h6.8v-0.3c0-1-0.3-1.8-0.9-2.5C496.5,447.1,495.7,446.8,494.7,446.8z"/>
	<path class="st3" d="M503,445.9l0.1,2c0.4-0.7,0.9-1.3,1.5-1.7c0.6-0.4,1.4-0.6,2.2-0.6c1.3,0,2.2,0.4,2.9,1.2c0.7,0.8,1,2,1,3.6
		v7.1h-1.3v-7.1c0-1.3-0.2-2.3-0.7-2.8c-0.5-0.6-1.2-0.8-2.1-0.8c-0.9,0-1.6,0.2-2.2,0.7c-0.6,0.5-1,1.1-1.2,1.9v8.1h-1.3v-11.6
		L503,445.9L503,445.9z"/>
	<path class="st3" d="M516.1,442.9v3h2.6v1.1h-2.6v7.6c0,0.8,0.1,1.3,0.4,1.6s0.6,0.5,1.1,0.5c0.2,0,0.4,0,0.6,0
		c0.2,0,0.4,0,0.7-0.1l0.2,1c-0.2,0.1-0.5,0.2-0.8,0.2s-0.6,0.1-0.9,0.1c-0.8,0-1.5-0.3-1.9-0.8s-0.7-1.3-0.7-2.4V447h-2v-1.1h2v-3
		H516.1z"/>
	<path class="st3" d="M522.8,442.6h-1.3v-1.8h1.3V442.6z M522.8,457.5h-1.3v-11.6h1.3V457.5z"/>
	<path class="st3" d="M531.7,447l-1-0.1c-0.8,0-1.5,0.2-2,0.7s-0.9,1.1-1.1,1.9v8h-1.3v-11.6h1.1l0.2,1.9v0.1
		c0.3-0.7,0.8-1.3,1.4-1.7c0.6-0.4,1.2-0.6,2-0.6c0.2,0,0.3,0,0.5,0s0.3,0.1,0.4,0.1L531.7,447z"/>
	<path class="st3" d="M540.8,454.6c0-0.5-0.2-1-0.7-1.4c-0.4-0.4-1.3-0.7-2.4-1c-1.4-0.3-2.4-0.7-3.1-1.2c-0.7-0.5-1-1.2-1-2.1
		s0.4-1.6,1.1-2.2c0.7-0.6,1.7-0.9,3-0.9s2.3,0.3,3.1,1c0.8,0.6,1.1,1.5,1.1,2.4v0.1h-1.2c0-0.6-0.3-1.2-0.8-1.7s-1.3-0.7-2.2-0.7
		s-1.6,0.2-2.1,0.6s-0.7,0.9-0.7,1.4s0.2,1,0.6,1.3c0.4,0.3,1.2,0.7,2.4,0.9c1.4,0.3,2.4,0.7,3.1,1.3c0.7,0.5,1,1.3,1,2.2
		c0,1-0.4,1.8-1.2,2.4s-1.8,0.9-3.1,0.9c-1.4,0-2.5-0.3-3.3-1s-1.2-1.5-1.1-2.4v-0.1h1.2c0,0.8,0.4,1.4,1,1.8s1.4,0.6,2.2,0.6
		c0.9,0,1.7-0.2,2.2-0.6S540.8,455.2,540.8,454.6z"/>
	<path class="st3" d="M549.4,457.8c-1.5,0-2.7-0.5-3.6-1.6s-1.4-2.4-1.4-4.1v-0.6c0-1.7,0.5-3,1.4-4.1s2.1-1.6,3.5-1.6
		s2.5,0.5,3.4,1.4s1.2,2.1,1.2,3.6v1.1h-8.2v0.3c0,1.3,0.3,2.4,1,3.3s1.6,1.3,2.7,1.3c0.8,0,1.5-0.1,2.1-0.3c0.6-0.2,1-0.5,1.4-1
		l0.5,0.9c-0.4,0.5-1,0.8-1.7,1.1C551.2,457.6,550.4,457.8,549.4,457.8z M549.3,446.8c-1,0-1.8,0.4-2.4,1.1c-0.6,0.7-1,1.6-1.1,2.7
		v0.1h6.8v-0.3c0-1-0.3-1.8-0.9-2.5C551.1,447.1,550.3,446.8,549.3,446.8z"/>
	<path class="st3" d="M571.1,452c0,1.7-0.4,3.1-1.2,4.2c-0.8,1-1.9,1.6-3.3,1.6c-0.9,0-1.6-0.2-2.2-0.5c-0.6-0.3-1.1-0.8-1.5-1.5
		l-0.1,1.8h-1.1v-16.8h1.3v7c0.4-0.7,0.9-1.2,1.5-1.5s1.3-0.5,2.1-0.5c1.4,0,2.5,0.6,3.3,1.7S571.1,450.1,571.1,452L571.1,452z
		 M569.8,451.8c0-1.5-0.3-2.7-0.9-3.6c-0.6-0.9-1.4-1.4-2.5-1.4c-0.9,0-1.6,0.2-2.2,0.7c-0.5,0.4-1,1-1.2,1.7v5.3
		c0.3,0.7,0.7,1.2,1.3,1.6s1.3,0.6,2.1,0.6c1.1,0,2-0.4,2.5-1.3c0.6-0.8,0.8-2,0.8-3.4v-0.2H569.8z"/>
	<path class="st3" d="M575.4,442.6h-1.3v-1.8h1.3V442.6z M575.4,457.5h-1.3v-11.6h1.3V457.5z"/>
	<path class="st3" d="M583.4,457.8c-1.5,0-2.7-0.5-3.6-1.6s-1.4-2.4-1.4-4.1v-0.6c0-1.7,0.5-3,1.4-4.1s2.1-1.6,3.5-1.6
		s2.5,0.5,3.4,1.4c0.8,0.9,1.2,2.1,1.2,3.6v1.1h-8.2v0.3c0,1.3,0.3,2.4,1,3.3s1.6,1.3,2.7,1.3c0.8,0,1.5-0.1,2.1-0.3
		c0.6-0.2,1-0.5,1.5-1l0.5,0.9c-0.4,0.5-1,0.8-1.7,1.1C585.1,457.6,584.3,457.8,583.4,457.8z M583.2,446.8c-1,0-1.8,0.4-2.4,1.1
		c-0.6,0.7-1,1.6-1.1,2.7v0.1h6.8v-0.3c0-1-0.3-1.8-0.9-2.5C585,447.1,584.2,446.8,583.2,446.8z"/>
	<path class="st3" d="M591.5,445.9l0.1,2c0.4-0.7,0.9-1.3,1.5-1.7c0.6-0.4,1.4-0.6,2.2-0.6c1.3,0,2.2,0.4,2.9,1.2s1,2,1,3.6v7.1
		h-1.3v-7.1c0-1.3-0.2-2.3-0.7-2.8c-0.5-0.6-1.2-0.8-2.1-0.8c-0.9,0-1.6,0.2-2.2,0.7c-0.6,0.5-1,1.1-1.2,1.9v8.1h-1.3v-11.6
		L591.5,445.9L591.5,445.9z"/>
	<path class="st3" d="M604.1,457.5h-1.5v-1.8h1.5V457.5z"/>
</g>
<g class="st1">
	<path class="st3" d="M50.2,509.2h7.7v1.1h-9v-15.6h1.3V509.2z"/>
	<path class="st3" d="M67.5,510.3c-0.1-0.4-0.1-0.7-0.2-1c0-0.3-0.1-0.6-0.1-0.9c-0.4,0.6-1,1.1-1.7,1.5s-1.5,0.6-2.4,0.6
		c-1.1,0-2-0.3-2.6-0.9s-0.9-1.4-0.9-2.4c0-1.1,0.5-1.9,1.4-2.6s2.2-1,3.8-1h2.6v-1.4c0-0.8-0.3-1.5-0.8-2s-1.3-0.7-2.2-0.7
		c-0.9,0-1.6,0.2-2.2,0.7s-0.9,1-0.9,1.7h-1.2v-0.1c0-0.9,0.4-1.6,1.2-2.3c0.8-0.7,1.9-1,3.2-1c1.3,0,2.3,0.3,3.1,1
		c0.8,0.7,1.2,1.6,1.2,2.8v5.7c0,0.4,0,0.8,0.1,1.2c0,0.4,0.1,0.8,0.2,1.1L67.5,510.3L67.5,510.3z M63.3,509.4
		c0.9,0,1.7-0.2,2.4-0.6s1.2-1,1.5-1.7v-2.4h-2.6c-1.2,0-2.1,0.2-2.8,0.7c-0.7,0.5-1,1.1-1,1.9c0,0.6,0.2,1.1,0.6,1.5
		C61.9,509.2,62.5,509.4,63.3,509.4z"/>
	<path class="st3" d="M86.7,504.8c0,1.7-0.4,3.1-1.2,4.2c-0.8,1-1.9,1.6-3.3,1.6c-0.8,0-1.5-0.2-2.1-0.5s-1.1-0.7-1.5-1.3v6h-1.3
		v-16.1h1.1l0.2,1.8c0.4-0.6,0.9-1.1,1.5-1.5s1.3-0.5,2.2-0.5c1.4,0,2.5,0.6,3.3,1.7S86.8,502.8,86.7,504.8L86.7,504.8L86.7,504.8z
		 M85.4,504.6c0-1.5-0.3-2.7-0.9-3.6c-0.6-0.9-1.4-1.4-2.6-1.4c-0.9,0-1.6,0.2-2.1,0.6s-0.9,0.9-1.2,1.6v5.6
		c0.3,0.6,0.7,1.1,1.3,1.5c0.6,0.4,1.2,0.5,2.1,0.5c1.1,0,2-0.4,2.6-1.3s0.9-2,0.9-3.4v-0.1H85.4z"/>
	<path class="st3" d="M94.9,499.8l-1-0.1c-0.8,0-1.5,0.2-2,0.7s-0.9,1.1-1.1,1.9v8h-1.3v-11.6h1.1l0.2,1.9v0.1
		c0.3-0.7,0.8-1.3,1.4-1.7c0.6-0.4,1.2-0.6,2-0.6c0.2,0,0.3,0,0.5,0s0.3,0.1,0.4,0.1L94.9,499.8z"/>
	<path class="st3" d="M98.5,495.4h-1.3v-1.8h1.3V495.4z M98.5,510.3h-1.3v-11.6h1.3V510.3z"/>
	<path class="st3" d="M103.1,498.7l0.1,1.9c0.4-0.7,0.9-1.2,1.5-1.6s1.4-0.6,2.2-0.6c0.9,0,1.6,0.2,2.2,0.6c0.6,0.4,1,1.1,1.3,2
		c0.4-0.8,0.9-1.5,1.5-1.9s1.4-0.7,2.4-0.7c1.2,0,2.2,0.4,2.9,1.2s1,2.1,1,3.8v6.8h-1.3v-6.8c0-1.4-0.3-2.4-0.8-3s-1.2-0.9-2.1-0.9
		c-1,0-1.8,0.3-2.3,0.9s-0.9,1.4-1,2.4c0,0.1,0,0.1,0,0.2s0,0.2,0,0.2v7h-1.3v-6.8c0-1.4-0.3-2.4-0.8-3s-1.2-0.9-2.1-0.9
		c-0.9,0-1.6,0.2-2.2,0.7c-0.5,0.5-0.9,1.1-1.1,1.9v8.2H102v-11.6L103.1,498.7L103.1,498.7z"/>
	<path class="st3" d="M125.9,510.6c-1.5,0-2.7-0.5-3.6-1.6s-1.4-2.4-1.4-4.1v-0.6c0-1.7,0.5-3,1.4-4.1s2.1-1.6,3.5-1.6
		s2.5,0.5,3.4,1.4c0.8,0.9,1.2,2.1,1.2,3.6v1.1h-8.2v0.3c0,1.3,0.3,2.4,1,3.3s1.6,1.3,2.7,1.3c0.8,0,1.5-0.1,2.1-0.3
		c0.6-0.2,1-0.5,1.4-1l0.5,0.9c-0.4,0.5-1,0.8-1.7,1.1C127.6,510.4,126.8,510.6,125.9,510.6z M125.7,499.6c-1,0-1.8,0.4-2.4,1.1
		c-0.6,0.7-1,1.6-1.1,2.7v0.1h6.8v-0.3c0-1-0.3-1.8-0.9-2.5C127.5,499.9,126.7,499.6,125.7,499.6z"/>
	<path class="st3" d="M138.2,499.8l-1-0.1c-0.8,0-1.5,0.2-2,0.7s-0.9,1.1-1.1,1.9v8h-1.3v-11.6h1.1l0.2,1.9v0.1
		c0.3-0.7,0.8-1.3,1.4-1.7c0.6-0.4,1.2-0.6,2-0.6c0.2,0,0.3,0,0.5,0s0.3,0.1,0.4,0.1L138.2,499.8z"/>
	<path class="st3" d="M147.7,510.3c-0.1-0.4-0.1-0.7-0.2-1c0-0.3-0.1-0.6-0.1-0.9c-0.4,0.6-1,1.1-1.7,1.5s-1.5,0.6-2.4,0.6
		c-1.1,0-2-0.3-2.6-0.9s-0.9-1.4-0.9-2.4c0-1.1,0.5-1.9,1.4-2.6s2.2-1,3.8-1h2.6v-1.4c0-0.8-0.3-1.5-0.8-2s-1.3-0.7-2.2-0.7
		s-1.6,0.2-2.2,0.7c-0.6,0.5-0.9,1-0.9,1.7h-1.2v-0.1c0-0.9,0.4-1.6,1.2-2.3c0.8-0.7,1.9-1,3.2-1s2.3,0.3,3.1,1s1.2,1.6,1.2,2.8v5.7
		c0,0.4,0,0.8,0.1,1.2c0,0.4,0.1,0.8,0.2,1.1L147.7,510.3L147.7,510.3z M143.5,509.4c0.9,0,1.7-0.2,2.4-0.6s1.2-1,1.5-1.7v-2.4h-2.6
		c-1.2,0-2.1,0.2-2.8,0.7s-1,1.1-1,1.9c0,0.6,0.2,1.1,0.6,1.5C142.1,509.2,142.7,509.4,143.5,509.4z"/>
	<path class="st3" d="M161.8,509.5c0.9,0,1.6-0.2,2.3-0.7s1-1.2,1-2h1.1v0.1c0,1.1-0.4,2-1.3,2.7c-0.9,0.7-1.9,1.1-3.1,1.1
		c-1.6,0-2.8-0.5-3.7-1.6s-1.3-2.5-1.3-4.2v-0.5c0-1.7,0.4-3.1,1.3-4.2c0.9-1.1,2.1-1.6,3.7-1.6c1.3,0,2.3,0.4,3.2,1.1
		c0.8,0.8,1.3,1.7,1.2,3v0.1h-1.1c0-0.9-0.3-1.7-0.9-2.2c-0.6-0.6-1.4-0.8-2.3-0.8c-1.2,0-2.2,0.4-2.8,1.3s-0.9,2-0.9,3.4v0.5
		c0,1.4,0.3,2.5,0.9,3.4C159.6,509,160.6,509.5,161.8,509.5z"/>
	<path class="st3" d="M168.2,504.3c0-1.7,0.5-3.1,1.4-4.2s2.2-1.6,3.7-1.6c1.6,0,2.8,0.5,3.7,1.6s1.4,2.5,1.4,4.2v0.4
		c0,1.7-0.5,3.1-1.4,4.2s-2.2,1.6-3.7,1.6c-1.6,0-2.8-0.5-3.7-1.6s-1.4-2.5-1.4-4.2V504.3z M169.5,504.7c0,1.3,0.3,2.5,1,3.4
		s1.6,1.4,2.8,1.4s2.1-0.5,2.8-1.4s1-2,1-3.4v-0.4c0-1.3-0.3-2.4-1-3.4c-0.7-0.9-1.6-1.4-2.8-1.4s-2.1,0.5-2.8,1.4s-1,2-1,3.4V504.7
		z"/>
	<path class="st3" d="M182.2,498.7l0.1,1.9c0.4-0.7,0.9-1.2,1.5-1.6s1.4-0.6,2.2-0.6c0.9,0,1.6,0.2,2.2,0.6c0.6,0.4,1,1.1,1.3,2
		c0.4-0.8,0.9-1.5,1.5-1.9s1.4-0.7,2.4-0.7c1.2,0,2.2,0.4,2.9,1.2s1,2.1,1,3.8v6.8H196v-6.8c0-1.4-0.3-2.4-0.8-3s-1.2-0.9-2.1-0.9
		c-1,0-1.8,0.3-2.3,0.9s-0.9,1.4-1,2.4c0,0.1,0,0.1,0,0.2s0,0.2,0,0.2v7h-1.3v-6.8c0-1.4-0.3-2.4-0.8-3s-1.2-0.9-2.1-0.9
		c-0.9,0-1.6,0.2-2.2,0.7c-0.5,0.5-0.9,1.1-1.1,1.9v8.2H181v-11.6L182.2,498.7L182.2,498.7z"/>
	<path class="st3" d="M208.3,508.4c-0.4,0.7-0.9,1.2-1.5,1.6s-1.4,0.6-2.2,0.6c-1.2,0-2.2-0.4-2.9-1.2c-0.7-0.8-1-2.1-1-3.9v-6.7
		h1.3v6.8c0,1.4,0.2,2.4,0.7,3.1c0.5,0.6,1.2,0.9,2.1,0.9c1,0,1.8-0.2,2.3-0.7s1-1,1.2-1.8v-8.3h1.3v11.6h-1.1L208.3,508.4z"/>
	<path class="st3" d="M214,498.7l0.1,2c0.4-0.7,0.9-1.3,1.5-1.7c0.6-0.4,1.4-0.6,2.2-0.6c1.3,0,2.2,0.4,2.9,1.2s1,2,1,3.6v7.1h-1.3
		v-7.1c0-1.3-0.2-2.3-0.7-2.8c-0.5-0.6-1.2-0.8-2.1-0.8s-1.6,0.2-2.2,0.7s-1,1.1-1.2,1.9v8.1h-1.3v-11.6L214,498.7L214,498.7z"/>
	<path class="st3" d="M226.6,495.4h-1.3v-1.8h1.3V495.4z M226.6,510.3h-1.3v-11.6h1.3V510.3z"/>
	<path class="st3" d="M229.6,504.6c0-1.9,0.4-3.3,1.2-4.5s1.9-1.7,3.3-1.7c0.8,0,1.5,0.2,2.1,0.5s1.1,0.8,1.5,1.5v-6.9h1.3v16.8
		h-1.1l-0.1-1.7c-0.4,0.6-0.9,1.1-1.5,1.4s-1.3,0.5-2.1,0.5c-1.4,0-2.5-0.5-3.3-1.6C230.1,507.9,229.7,506.5,229.6,504.6
		L229.6,504.6L229.6,504.6z M230.9,504.8c0,1.4,0.3,2.5,0.8,3.4c0.6,0.8,1.4,1.3,2.5,1.3c0.8,0,1.5-0.2,2.1-0.6s1-0.9,1.3-1.6v-5.5
		c-0.3-0.7-0.7-1.2-1.2-1.6s-1.2-0.6-2.1-0.6c-1.1,0-2,0.5-2.6,1.4s-0.9,2.1-0.9,3.6v0.2H230.9z"/>
	<path class="st3" d="M249.7,510.3c-0.1-0.4-0.1-0.7-0.2-1c0-0.3-0.1-0.6-0.1-0.9c-0.4,0.6-1,1.1-1.7,1.5s-1.5,0.6-2.4,0.6
		c-1.1,0-2-0.3-2.6-0.9s-0.9-1.4-0.9-2.4c0-1.1,0.5-1.9,1.4-2.6s2.2-1,3.8-1h2.6v-1.4c0-0.8-0.3-1.5-0.8-2s-1.3-0.7-2.2-0.7
		c-0.9,0-1.6,0.2-2.2,0.7s-0.9,1-0.9,1.7h-1.2v-0.1c0-0.9,0.4-1.6,1.2-2.3c0.8-0.7,1.9-1,3.2-1c1.3,0,2.3,0.3,3.1,1
		c0.8,0.7,1.2,1.6,1.2,2.8v5.7c0,0.4,0,0.8,0.1,1.2c0,0.4,0.1,0.8,0.2,1.1L249.7,510.3L249.7,510.3z M245.5,509.4
		c0.9,0,1.7-0.2,2.4-0.6s1.2-1,1.5-1.7v-2.4h-2.6c-1.2,0-2.1,0.2-2.8,0.7c-0.7,0.5-1,1.1-1,1.9c0,0.6,0.2,1.1,0.6,1.5
		C244.1,509.2,244.7,509.4,245.5,509.4z"/>
	<path class="st3" d="M253.7,504.6c0-1.9,0.4-3.3,1.2-4.5s1.9-1.7,3.3-1.7c0.8,0,1.5,0.2,2.1,0.5s1.1,0.8,1.5,1.5v-6.9h1.3v16.8H262
		l-0.1-1.7c-0.4,0.6-0.9,1.1-1.5,1.4s-1.3,0.5-2.1,0.5c-1.4,0-2.5-0.5-3.3-1.6C254.2,507.9,253.8,506.5,253.7,504.6L253.7,504.6
		L253.7,504.6z M255,504.8c0,1.4,0.3,2.5,0.8,3.4c0.6,0.8,1.4,1.3,2.5,1.3c0.8,0,1.5-0.2,2.1-0.6s1-0.9,1.3-1.6v-5.5
		c-0.3-0.7-0.7-1.2-1.2-1.6s-1.2-0.6-2.1-0.6c-1.1,0-2,0.5-2.6,1.4s-0.9,2.1-0.9,3.6v0.2H255z"/>
	<path class="st3" d="M271.1,504.3c0-1.7,0.5-3.1,1.4-4.2s2.2-1.6,3.7-1.6c1.6,0,2.8,0.5,3.7,1.6s1.4,2.5,1.4,4.2v0.4
		c0,1.7-0.5,3.1-1.4,4.2s-2.2,1.6-3.7,1.6c-1.6,0-2.8-0.5-3.7-1.6s-1.4-2.5-1.4-4.2V504.3z M272.4,504.7c0,1.3,0.3,2.5,1,3.4
		s1.6,1.4,2.8,1.4c1.2,0,2.1-0.5,2.8-1.4c0.7-0.9,1-2,1-3.4v-0.4c0-1.3-0.3-2.4-1-3.4c-0.7-0.9-1.6-1.4-2.8-1.4
		c-1.2,0-2.1,0.5-2.8,1.4c-0.7,0.9-1,2-1,3.4V504.7z"/>
	<path class="st3" d="M285.2,498.7l0.1,2c0.4-0.7,0.9-1.3,1.5-1.7c0.6-0.4,1.4-0.6,2.2-0.6c1.3,0,2.2,0.4,2.9,1.2s1,2,1,3.6v7.1
		h-1.3v-7.1c0-1.3-0.2-2.3-0.7-2.8c-0.5-0.6-1.2-0.8-2.1-0.8s-1.6,0.2-2.2,0.7s-1,1.1-1.2,1.9v8.1H284v-11.6L285.2,498.7
		L285.2,498.7z"/>
	<path class="st3" d="M297.7,510.3h-1.3v-16.8h1.3V510.3z"/>
	<path class="st3" d="M302.7,495.4h-1.3v-1.8h1.3V495.4z M302.7,510.3h-1.3v-11.6h1.3V510.3z"/>
	<path class="st3" d="M307.4,498.7l0.1,2c0.4-0.7,0.9-1.3,1.5-1.7c0.6-0.4,1.4-0.6,2.2-0.6c1.3,0,2.2,0.4,2.9,1.2s1,2,1,3.6v7.1
		h-1.3v-7.1c0-1.3-0.2-2.3-0.7-2.8c-0.5-0.6-1.2-0.8-2.1-0.8s-1.6,0.2-2.2,0.7s-1,1.1-1.2,1.9v8.1h-1.3v-11.6L307.4,498.7
		L307.4,498.7z"/>
	<path class="st3" d="M322.9,510.6c-1.5,0-2.7-0.5-3.6-1.6s-1.4-2.4-1.4-4.1v-0.6c0-1.7,0.5-3,1.4-4.1s2.1-1.6,3.5-1.6
		s2.5,0.5,3.4,1.4c0.8,0.9,1.2,2.1,1.2,3.6v1.1h-8.2v0.3c0,1.3,0.3,2.4,1,3.3s1.6,1.3,2.7,1.3c0.8,0,1.5-0.1,2.1-0.3
		c0.6-0.2,1-0.5,1.4-1l0.5,0.9c-0.4,0.5-1,0.8-1.7,1.1C324.6,510.4,323.8,510.6,322.9,510.6z M322.7,499.6c-1,0-1.8,0.4-2.4,1.1
		s-1,1.6-1.1,2.7v0.1h6.8v-0.3c0-1-0.3-1.8-0.9-2.5C324.5,499.9,323.7,499.6,322.7,499.6z"/>
	<path class="st3" d="M339.5,510.6c-1.5,0-2.7-0.5-3.6-1.6s-1.4-2.4-1.4-4.1v-0.6c0-1.7,0.5-3,1.4-4.1s2.1-1.6,3.5-1.6
		s2.5,0.5,3.4,1.4c0.8,0.9,1.2,2.1,1.2,3.6v1.1h-8.2v0.3c0,1.3,0.3,2.4,1,3.3s1.6,1.3,2.7,1.3c0.8,0,1.5-0.1,2.1-0.3
		c0.6-0.2,1-0.5,1.4-1l0.5,0.9c-0.4,0.5-1,0.8-1.7,1.1C341.3,510.4,340.5,510.6,339.5,510.6z M339.4,499.6c-1,0-1.8,0.4-2.4,1.1
		s-1,1.6-1.1,2.7v0.1h6.8v-0.3c0-1-0.3-1.8-0.9-2.5C341.2,499.9,340.4,499.6,339.4,499.6z"/>
	<path class="st3" d="M347.7,498.7l0.1,2c0.4-0.7,0.9-1.3,1.5-1.7c0.6-0.4,1.4-0.6,2.2-0.6c1.3,0,2.2,0.4,2.9,1.2s1,2,1,3.6v7.1
		h-1.3v-7.1c0-1.3-0.2-2.3-0.7-2.8c-0.5-0.6-1.2-0.8-2.1-0.8s-1.6,0.2-2.2,0.7s-1,1.1-1.2,1.9v8.1h-1.3v-11.6L347.7,498.7
		L347.7,498.7z"/>
	<path class="st3" d="M365.6,510.3h-1.3v-16.8h1.3V510.3z"/>
	<path class="st3" d="M376.5,510.3c-0.1-0.4-0.1-0.7-0.2-1c0-0.3-0.1-0.6-0.1-0.9c-0.4,0.6-1,1.1-1.7,1.5s-1.5,0.6-2.4,0.6
		c-1.1,0-2-0.3-2.6-0.9s-0.9-1.4-0.9-2.4c0-1.1,0.5-1.9,1.4-2.6s2.2-1,3.8-1h2.6v-1.4c0-0.8-0.3-1.5-0.8-2s-1.3-0.7-2.2-0.7
		c-0.9,0-1.6,0.2-2.2,0.7s-0.9,1-0.9,1.7h-1.2v-0.1c0-0.9,0.4-1.6,1.2-2.3c0.8-0.7,1.9-1,3.2-1c1.3,0,2.3,0.3,3.1,1
		c0.8,0.7,1.2,1.6,1.2,2.8v5.7c0,0.4,0,0.8,0.1,1.2c0,0.4,0.1,0.8,0.2,1.1L376.5,510.3L376.5,510.3z M372.2,509.4
		c0.9,0,1.7-0.2,2.4-0.6s1.2-1,1.5-1.7v-2.4h-2.6c-1.2,0-2.1,0.2-2.8,0.7c-0.7,0.5-1,1.1-1,1.9c0,0.6,0.2,1.1,0.6,1.5
		C370.9,509.2,371.5,509.4,372.2,509.4z"/>
	<path class="st3" d="M385.8,504.6c0-1.9,0.4-3.3,1.2-4.5s1.9-1.7,3.3-1.7c0.8,0,1.5,0.2,2.1,0.5s1.1,0.8,1.5,1.4l0.1-1.7h1.1v16.1
		h-1.3v-6c-0.4,0.6-0.9,1-1.5,1.3s-1.3,0.5-2.1,0.5c-1.4,0-2.5-0.5-3.3-1.6C386.1,507.9,385.7,506.5,385.8,504.6L385.8,504.6
		L385.8,504.6z M387.1,504.8c0,1.4,0.3,2.5,0.8,3.4c0.6,0.8,1.4,1.3,2.5,1.3c0.8,0,1.5-0.2,2-0.5c0.5-0.4,1-0.9,1.3-1.5v-5.7
		c-0.3-0.6-0.7-1.2-1.3-1.6c-0.5-0.4-1.2-0.6-2-0.6c-1.1,0-2,0.5-2.6,1.4s-0.9,2.1-0.9,3.6v0.2H387.1z"/>
	<path class="st3" d="M406.1,508.4c-0.4,0.7-0.9,1.2-1.5,1.6s-1.4,0.6-2.2,0.6c-1.2,0-2.2-0.4-2.9-1.2c-0.7-0.8-1-2.1-1-3.9v-6.7
		h1.3v6.8c0,1.4,0.2,2.4,0.7,3.1c0.5,0.6,1.2,0.9,2.1,0.9c1,0,1.8-0.2,2.3-0.7s1-1,1.2-1.8v-8.3h1.3v11.6h-1.1L406.1,508.4z"/>
	<path class="st3" d="M415.1,510.6c-1.5,0-2.7-0.5-3.6-1.6s-1.4-2.4-1.4-4.1v-0.6c0-1.7,0.5-3,1.4-4.1s2.1-1.6,3.5-1.6
		s2.5,0.5,3.4,1.4c0.8,0.9,1.2,2.1,1.2,3.6v1.1h-8.2v0.3c0,1.3,0.3,2.4,1,3.3s1.6,1.3,2.7,1.3c0.8,0,1.5-0.1,2.1-0.3
		c0.6-0.2,1-0.5,1.4-1l0.5,0.9c-0.4,0.5-1,0.8-1.7,1.1C416.8,510.4,416.1,510.6,415.1,510.6z M415,499.6c-1,0-1.8,0.4-2.4,1.1
		s-1,1.6-1.1,2.7v0.1h6.8v-0.3c0-1-0.3-1.8-0.9-2.5C416.8,499.9,416,499.6,415,499.6z"/>
	<path class="st3" d="M431.8,509.5c0.9,0,1.6-0.2,2.3-0.7c0.7-0.5,1-1.2,1-2h1.1v0.1c0,1.1-0.4,2-1.3,2.7s-1.9,1.1-3.1,1.1
		c-1.6,0-2.8-0.5-3.7-1.6s-1.3-2.5-1.3-4.2v-0.5c0-1.7,0.4-3.1,1.3-4.2s2.1-1.6,3.7-1.6c1.3,0,2.3,0.4,3.2,1.1
		c0.8,0.8,1.3,1.7,1.2,3v0.1H435c0-0.9-0.3-1.7-0.9-2.2c-0.6-0.6-1.4-0.8-2.3-0.8c-1.2,0-2.2,0.4-2.8,1.3c-0.6,0.9-0.9,2-0.9,3.4
		v0.5c0,1.4,0.3,2.5,0.9,3.4C429.6,509,430.5,509.5,431.8,509.5z"/>
	<path class="st3" d="M438.1,504.3c0-1.7,0.5-3.1,1.4-4.2s2.2-1.6,3.7-1.6c1.6,0,2.8,0.5,3.7,1.6s1.4,2.5,1.4,4.2v0.4
		c0,1.7-0.5,3.1-1.4,4.2s-2.2,1.6-3.7,1.6c-1.6,0-2.8-0.5-3.7-1.6s-1.4-2.5-1.4-4.2V504.3z M439.4,504.7c0,1.3,0.3,2.5,1,3.4
		s1.6,1.4,2.8,1.4c1.2,0,2.1-0.5,2.8-1.4c0.7-0.9,1-2,1-3.4v-0.4c0-1.3-0.3-2.4-1-3.4c-0.7-0.9-1.6-1.4-2.8-1.4
		c-1.2,0-2.1,0.5-2.8,1.4c-0.7,0.9-1,2-1,3.4V504.7z"/>
	<path class="st3" d="M452.2,498.7l0.1,1.9c0.4-0.7,0.9-1.2,1.5-1.6s1.4-0.6,2.2-0.6c0.9,0,1.6,0.2,2.2,0.6s1,1.1,1.3,2
		c0.4-0.8,0.9-1.5,1.5-1.9c0.6-0.5,1.4-0.7,2.4-0.7c1.2,0,2.2,0.4,2.9,1.2s1,2.1,1,3.8v6.8H466v-6.8c0-1.4-0.3-2.4-0.8-3
		s-1.2-0.9-2.1-0.9c-1,0-1.8,0.3-2.3,0.9s-0.9,1.4-1,2.4c0,0.1,0,0.1,0,0.2s0,0.2,0,0.2v7h-1.3v-6.8c0-1.4-0.3-2.4-0.8-3
		s-1.2-0.9-2.1-0.9s-1.6,0.2-2.2,0.7c-0.5,0.5-0.9,1.1-1.1,1.9v8.2H451v-11.6L452.2,498.7L452.2,498.7z"/>
	<path class="st3" d="M479.9,504.8c0,1.7-0.4,3.1-1.2,4.2c-0.8,1-1.9,1.6-3.3,1.6c-0.8,0-1.5-0.2-2.1-0.5s-1.1-0.7-1.5-1.3v6h-1.3
		v-16.1h1.1l0.2,1.8c0.4-0.6,0.9-1.1,1.5-1.5s1.3-0.5,2.2-0.5c1.4,0,2.5,0.6,3.3,1.7s1.2,2.6,1.2,4.5v0.1H479.9z M478.6,504.6
		c0-1.5-0.3-2.7-0.9-3.6c-0.6-0.9-1.4-1.4-2.6-1.4c-0.9,0-1.6,0.2-2.1,0.6s-0.9,0.9-1.2,1.6v5.6c0.3,0.6,0.7,1.1,1.3,1.5
		s1.2,0.5,2.1,0.5c1.1,0,2-0.4,2.6-1.3c0.6-0.8,0.9-2,0.9-3.4L478.6,504.6L478.6,504.6z"/>
	<path class="st3" d="M490.2,510.3c-0.1-0.4-0.1-0.7-0.2-1c0-0.3-0.1-0.6-0.1-0.9c-0.4,0.6-1,1.1-1.7,1.5s-1.5,0.6-2.4,0.6
		c-1.1,0-2-0.3-2.6-0.9s-0.9-1.4-0.9-2.4c0-1.1,0.5-1.9,1.4-2.6c0.9-0.6,2.2-1,3.8-1h2.6v-1.4c0-0.8-0.3-1.5-0.8-2s-1.3-0.7-2.2-0.7
		s-1.6,0.2-2.2,0.7c-0.6,0.5-0.9,1-0.9,1.7h-1.2v-0.1c0-0.9,0.4-1.6,1.2-2.3s1.9-1,3.2-1s2.3,0.3,3.1,1s1.2,1.6,1.2,2.8v5.7
		c0,0.4,0,0.8,0.1,1.2c0,0.4,0.1,0.8,0.2,1.1L490.2,510.3L490.2,510.3z M486,509.4c0.9,0,1.7-0.2,2.4-0.6s1.2-1,1.5-1.7v-2.4h-2.6
		c-1.2,0-2.1,0.2-2.8,0.7s-1,1.1-1,1.9c0,0.6,0.2,1.1,0.6,1.5S485.2,509.4,486,509.4z"/>
</g>
<g class="st1">
	<path class="st3" d="M500,499.8l-1-0.1c-0.8,0-1.5,0.2-2,0.7s-0.9,1.1-1.1,1.9v8h-1.3v-11.6h1.1l0.2,1.9v0.1
		c0.3-0.7,0.8-1.3,1.4-1.7c0.6-0.4,1.2-0.6,2-0.6c0.2,0,0.3,0,0.5,0s0.3,0.1,0.4,0.1L500,499.8z"/>
</g>
<g class="st1">
	<path class="st3" d="M504.5,495.7v3h2.6v1.1h-2.6v7.6c0,0.8,0.1,1.3,0.4,1.6s0.6,0.5,1.1,0.5c0.2,0,0.4,0,0.6,0
		c0.2,0,0.4,0,0.7-0.1l0.2,1c-0.2,0.1-0.5,0.2-0.8,0.2s-0.6,0.1-0.9,0.1c-0.8,0-1.5-0.3-1.9-0.8s-0.7-1.3-0.7-2.4v-7.6h-2v-1.1h2v-3
		h1.3V495.7z"/>
	<path class="st3" d="M511.3,495.4H510v-1.8h1.3V495.4z M511.3,510.3H510v-11.6h1.3V510.3z"/>
	<path class="st3" d="M520.2,499.8l-1-0.1c-0.8,0-1.5,0.2-2,0.7s-0.9,1.1-1.1,1.9v8h-1.3v-11.6h1.1l0.2,1.9v0.1
		c0.3-0.7,0.8-1.3,1.4-1.7c0.6-0.4,1.2-0.6,2-0.6c0.2,0,0.3,0,0.5,0s0.3,0.1,0.4,0.1L520.2,499.8z"/>
	<path class="st3" d="M529.7,495.7v3h2.6v1.1h-2.6v7.6c0,0.8,0.1,1.3,0.4,1.6s0.6,0.5,1.1,0.5c0.2,0,0.4,0,0.6,0
		c0.2,0,0.4,0,0.7-0.1l0.2,1c-0.2,0.1-0.5,0.2-0.8,0.2s-0.6,0.1-0.9,0.1c-0.8,0-1.5-0.3-1.9-0.8s-0.7-1.3-0.7-2.4v-7.6h-2v-1.1h2v-3
		h1.3V495.7z"/>
	<path class="st3" d="M542.6,508.4c-0.4,0.7-0.9,1.2-1.5,1.6s-1.4,0.6-2.2,0.6c-1.2,0-2.2-0.4-2.9-1.2c-0.7-0.8-1-2.1-1-3.9v-6.7
		h1.3v6.8c0,1.4,0.2,2.4,0.7,3.1c0.5,0.6,1.2,0.9,2.1,0.9c1,0,1.8-0.2,2.3-0.7s1-1,1.2-1.8v-8.3h1.3v11.6h-1.1L542.6,508.4z"/>
	<path class="st3" d="M554.2,507.4c0-0.5-0.2-1-0.7-1.4c-0.4-0.4-1.3-0.7-2.4-1c-1.4-0.3-2.4-0.7-3.1-1.2s-1-1.2-1-2.1
		s0.4-1.6,1.1-2.2s1.7-0.9,3-0.9s2.3,0.3,3.1,1c0.8,0.6,1.1,1.5,1.1,2.4v0.1h-1.2c0-0.6-0.3-1.2-0.8-1.7s-1.3-0.7-2.2-0.7
		s-1.6,0.2-2.1,0.6s-0.7,0.9-0.7,1.4s0.2,1,0.6,1.3c0.4,0.3,1.2,0.7,2.4,0.9c1.4,0.3,2.4,0.7,3.1,1.3c0.7,0.5,1,1.3,1,2.2
		c0,1-0.4,1.8-1.2,2.4s-1.8,0.9-3.1,0.9c-1.4,0-2.5-0.3-3.3-1s-1.2-1.5-1.1-2.4v-0.1h1.2c0,0.8,0.4,1.4,1,1.8s1.4,0.6,2.2,0.6
		c0.9,0,1.7-0.2,2.2-0.6S554.2,507.9,554.2,507.4z"/>
</g>
<g class="st1">
	<path class="st3" d="M28.4,521.8h-1.3V520h1.3V521.8z M28.4,536.7h-1.3v-11.6h1.3V536.7z"/>
	<path class="st3" d="M33.1,525.1l0.1,2c0.4-0.7,0.9-1.3,1.5-1.7s1.4-0.6,2.2-0.6c1.3,0,2.2,0.4,2.9,1.2s1,2,1,3.6v7.1h-1.3v-7.1
		c0-1.3-0.2-2.3-0.7-2.8c-0.5-0.6-1.2-0.8-2.1-0.8s-1.6,0.2-2.2,0.7s-1,1.1-1.2,1.9v8.1H32v-11.6L33.1,525.1L33.1,525.1z"/>
	<path class="st3" d="M43.7,531c0-1.9,0.4-3.3,1.2-4.5s1.9-1.7,3.3-1.7c0.8,0,1.5,0.2,2.1,0.5s1.1,0.8,1.5,1.4l0.1-1.7H53v16.1h-1.3
		v-6c-0.4,0.6-0.9,1-1.5,1.3s-1.2,0.6-2,0.6c-1.4,0-2.5-0.5-3.3-1.6c-0.8-1-1.2-2.4-1.2-4.2V531z M45,531.2c0,1.4,0.3,2.5,0.8,3.4
		c0.6,0.8,1.4,1.3,2.5,1.3c0.8,0,1.5-0.2,2-0.5c0.5-0.4,1-0.9,1.3-1.5v-5.7c-0.3-0.6-0.7-1.2-1.3-1.6c-0.5-0.4-1.2-0.6-2-0.6
		c-1.1,0-2,0.5-2.6,1.4s-0.9,2.1-0.9,3.6v0.2H45z"/>
	<path class="st3" d="M64.1,534.8c-0.4,0.7-0.9,1.2-1.5,1.6c-0.6,0.4-1.4,0.6-2.2,0.6c-1.2,0-2.2-0.4-2.9-1.2c-0.7-0.8-1-2.1-1-3.9
		v-6.7h1.3v6.8c0,1.4,0.2,2.4,0.7,3.1c0.5,0.6,1.2,0.9,2.1,0.9c1,0,1.8-0.2,2.3-0.7s1-1,1.2-1.8v-8.3h1.3v11.6h-1.1L64.1,534.8z"/>
	<path class="st3" d="M70.2,521.8h-1.3V520h1.3V521.8z M70.2,536.7h-1.3v-11.6h1.3V536.7z"/>
	<path class="st3" d="M78.1,537c-1.5,0-2.7-0.5-3.6-1.6s-1.4-2.4-1.4-4.1v-0.6c0-1.7,0.5-3,1.4-4.1s2.1-1.6,3.5-1.6s2.5,0.5,3.4,1.4
		c0.8,0.9,1.2,2.1,1.2,3.6v1.1h-8.2v0.3c0,1.3,0.3,2.4,1,3.3c0.7,0.9,1.6,1.3,2.7,1.3c0.8,0,1.5-0.1,2.1-0.3s1-0.5,1.4-1l0.5,0.9
		c-0.4,0.5-1,0.8-1.7,1.1C79.8,536.8,79,537,78.1,537z M77.9,526c-1,0-1.8,0.4-2.4,1.1c-0.6,0.7-1,1.6-1.1,2.7v0.1h6.8v-0.3
		c0-1-0.3-1.8-0.9-2.5C79.7,526.3,78.9,526,77.9,526z"/>
	<path class="st3" d="M87.1,522.1v3h2.6v1.1h-2.6v7.6c0,0.8,0.1,1.3,0.4,1.6c0.3,0.3,0.6,0.5,1.1,0.5c0.2,0,0.4,0,0.6,0
		c0.2,0,0.4,0,0.7-0.1l0.2,1c-0.2,0.1-0.5,0.2-0.8,0.2s-0.6,0.1-0.9,0.1c-0.8,0-1.5-0.3-1.9-0.8c-0.5-0.5-0.7-1.3-0.7-2.4v-7.6h-2
		v-1.1h2v-3L87.1,522.1L87.1,522.1z"/>
	<path class="st3" d="M100,534.8c-0.4,0.7-0.9,1.2-1.5,1.6c-0.6,0.4-1.4,0.6-2.2,0.6c-1.2,0-2.2-0.4-2.9-1.2s-1-2.1-1-3.9v-6.7h1.3
		v6.8c0,1.4,0.2,2.4,0.7,3.1c0.5,0.6,1.2,0.9,2.1,0.9c1,0,1.8-0.2,2.3-0.7s1-1,1.2-1.8v-8.3h1.3v11.6h-1.1L100,534.8z"/>
	<path class="st3" d="M104.1,531c0-1.9,0.4-3.3,1.2-4.5s1.9-1.7,3.3-1.7c0.8,0,1.5,0.2,2.1,0.5s1.1,0.8,1.5,1.5V520h1.3v16.8h-1.1
		l-0.1-1.7c-0.4,0.6-0.9,1.1-1.5,1.4c-0.6,0.3-1.3,0.5-2.1,0.5c-1.4,0-2.5-0.5-3.3-1.6c-0.8-1-1.2-2.4-1.2-4.2L104.1,531L104.1,531z
		 M105.4,531.2c0,1.4,0.3,2.5,0.8,3.4c0.6,0.8,1.4,1.3,2.5,1.3c0.8,0,1.5-0.2,2.1-0.6c0.6-0.4,1-0.9,1.3-1.6v-5.5
		c-0.3-0.7-0.7-1.2-1.2-1.6c-0.5-0.4-1.2-0.6-2.1-0.6c-1.1,0-2,0.5-2.6,1.4s-0.9,2.1-0.9,3.6L105.4,531.2L105.4,531.2z"/>
	<path class="st3" d="M121.2,537c-1.5,0-2.7-0.5-3.6-1.6s-1.4-2.4-1.4-4.1v-0.6c0-1.7,0.5-3,1.4-4.1s2.1-1.6,3.5-1.6
		s2.5,0.5,3.4,1.4c0.8,0.9,1.2,2.1,1.2,3.6v1.1h-8.2v0.3c0,1.3,0.3,2.4,1,3.3c0.7,0.9,1.6,1.3,2.7,1.3c0.8,0,1.5-0.1,2.1-0.3
		s1-0.5,1.4-1l0.5,0.9c-0.4,0.5-1,0.8-1.7,1.1C122.9,536.8,122.1,537,121.2,537z M121,526c-1,0-1.8,0.4-2.4,1.1
		c-0.6,0.7-1,1.6-1.1,2.7v0.1h6.8v-0.3c0-1-0.3-1.8-0.9-2.5C122.9,526.3,122.1,526,121,526z"/>
	<path class="st3" d="M135.1,533.8c0-0.5-0.2-1-0.7-1.4c-0.4-0.4-1.3-0.7-2.4-1c-1.4-0.3-2.4-0.7-3.1-1.2c-0.7-0.5-1-1.2-1-2.1
		c0-0.9,0.4-1.6,1.1-2.2c0.7-0.6,1.7-0.9,3-0.9s2.3,0.3,3.1,1c0.8,0.6,1.1,1.5,1.1,2.4v0.1H135c0-0.6-0.3-1.2-0.8-1.7
		s-1.3-0.7-2.2-0.7s-1.6,0.2-2.1,0.6c-0.5,0.4-0.7,0.9-0.7,1.4s0.2,1,0.6,1.3c0.4,0.3,1.2,0.7,2.4,0.9c1.4,0.3,2.4,0.7,3.1,1.3
		c0.7,0.5,1,1.3,1,2.2c0,1-0.4,1.8-1.2,2.4c-0.8,0.6-1.8,0.9-3.1,0.9c-1.4,0-2.5-0.3-3.3-1s-1.2-1.5-1.1-2.4v-0.1h1.2
		c0,0.8,0.4,1.4,1,1.8c0.6,0.4,1.4,0.6,2.2,0.6c0.9,0,1.7-0.2,2.2-0.6S135.1,534.4,135.1,533.8z"/>
	<path class="st3" d="M140.6,536.5l-1.1,3h-0.9l0.7-3v-1.8h1.3V536.5z"/>
	<path class="st3" d="M156.3,536.7c-0.1-0.4-0.1-0.7-0.2-1c0-0.3-0.1-0.6-0.1-0.9c-0.4,0.6-1,1.1-1.7,1.5s-1.5,0.6-2.4,0.6
		c-1.1,0-2-0.3-2.6-0.9s-0.9-1.4-0.9-2.4c0-1.1,0.5-1.9,1.4-2.6s2.2-1,3.8-1h2.6v-1.4c0-0.8-0.3-1.5-0.8-2s-1.3-0.7-2.2-0.7
		s-1.6,0.2-2.2,0.7c-0.6,0.5-0.9,1-0.9,1.7h-1.2v-0.1c0-0.9,0.4-1.6,1.2-2.3s1.9-1,3.2-1s2.3,0.3,3.1,1s1.2,1.6,1.2,2.8v5.7
		c0,0.4,0,0.8,0.1,1.2c0,0.4,0.1,0.8,0.2,1.1L156.3,536.7L156.3,536.7z M152.1,535.8c0.9,0,1.7-0.2,2.4-0.6s1.2-1,1.5-1.7v-2.4h-2.6
		c-1.2,0-2.1,0.2-2.8,0.7s-1,1.1-1,1.9c0,0.6,0.2,1.1,0.6,1.5C150.7,535.6,151.3,535.8,152.1,535.8z"/>
	<path class="st3" d="M160.3,531c0-1.9,0.4-3.3,1.2-4.5s1.9-1.7,3.3-1.7c0.8,0,1.5,0.2,2.1,0.5s1.1,0.8,1.5,1.5V520h1.3v16.8h-1.1
		l-0.1-1.7c-0.4,0.6-0.9,1.1-1.5,1.4c-0.6,0.3-1.3,0.5-2.1,0.5c-1.4,0-2.5-0.5-3.3-1.6c-0.8-1-1.2-2.4-1.2-4.2L160.3,531L160.3,531z
		 M161.5,531.2c0,1.4,0.3,2.5,0.8,3.4c0.6,0.8,1.4,1.3,2.5,1.3c0.8,0,1.5-0.2,2.1-0.6c0.6-0.4,1-0.9,1.3-1.6v-5.5
		c-0.3-0.7-0.7-1.2-1.2-1.6c-0.5-0.4-1.2-0.6-2.1-0.6c-1.1,0-2,0.5-2.6,1.4s-0.9,2.1-0.9,3.6L161.5,531.2L161.5,531.2z"/>
	<path class="st3" d="M177.4,537c-1.5,0-2.7-0.5-3.6-1.6s-1.4-2.4-1.4-4.1v-0.6c0-1.7,0.5-3,1.4-4.1s2.1-1.6,3.5-1.6
		s2.5,0.5,3.4,1.4c0.8,0.9,1.2,2.1,1.2,3.6v1.1h-8.2v0.3c0,1.3,0.3,2.4,1,3.3c0.7,0.9,1.6,1.3,2.7,1.3c0.8,0,1.5-0.1,2.1-0.3
		s1-0.5,1.4-1l0.5,0.9c-0.4,0.5-1,0.8-1.7,1.1C179.1,536.8,178.3,537,177.4,537z M177.2,526c-1,0-1.8,0.4-2.4,1.1
		c-0.6,0.7-1,1.6-1.1,2.7v0.1h6.8v-0.3c0-1-0.3-1.8-0.9-2.5C179,526.3,178.2,526,177.2,526z"/>
	<path class="st3" d="M185.4,525.1l0.1,1.9c0.4-0.7,0.9-1.2,1.5-1.6c0.6-0.4,1.4-0.6,2.2-0.6c0.9,0,1.6,0.2,2.2,0.6
		c0.6,0.4,1,1.1,1.3,2c0.4-0.8,0.9-1.5,1.5-1.9s1.4-0.7,2.4-0.7c1.2,0,2.2,0.4,2.9,1.2s1,2.1,1,3.8v6.8h-1.3v-6.8
		c0-1.4-0.3-2.4-0.8-3s-1.2-0.9-2.1-0.9c-1,0-1.8,0.3-2.3,0.9c-0.5,0.6-0.9,1.4-1,2.4c0,0.1,0,0.1,0,0.2c0,0.1,0,0.2,0,0.2v7h-1.3
		v-6.8c0-1.4-0.3-2.4-0.8-3s-1.2-0.9-2.1-0.9c-0.9,0-1.6,0.2-2.2,0.7c-0.5,0.5-0.9,1.1-1.1,1.9v8.2h-1.3v-11.6L185.4,525.1
		L185.4,525.1z"/>
	<path class="st3" d="M211.2,536.7c-0.1-0.4-0.1-0.7-0.2-1c0-0.3-0.1-0.6-0.1-0.9c-0.4,0.6-1,1.1-1.7,1.5c-0.7,0.4-1.5,0.6-2.4,0.6
		c-1.1,0-2-0.3-2.6-0.9s-0.9-1.4-0.9-2.4c0-1.1,0.5-1.9,1.4-2.6s2.2-1,3.8-1h2.6v-1.4c0-0.8-0.3-1.5-0.8-2s-1.3-0.7-2.2-0.7
		s-1.6,0.2-2.2,0.7c-0.6,0.5-0.9,1-0.9,1.7h-1.2v-0.1c0-0.9,0.4-1.6,1.2-2.3s1.9-1,3.2-1s2.3,0.3,3.1,1s1.2,1.6,1.2,2.8v5.7
		c0,0.4,0,0.8,0.1,1.2c0,0.4,0.1,0.8,0.2,1.1L211.2,536.7L211.2,536.7z M207,535.8c0.9,0,1.7-0.2,2.4-0.6c0.7-0.4,1.2-1,1.5-1.7
		v-2.4h-2.6c-1.2,0-2.1,0.2-2.8,0.7s-1,1.1-1,1.9c0,0.6,0.2,1.1,0.6,1.5C205.6,535.6,206.2,535.8,207,535.8z M209.4,520.6h1.6v0.1
		l-2.7,2.8h-1.2L209.4,520.6z"/>
	<path class="st3" d="M222.6,533.8c0-0.5-0.2-1-0.7-1.4c-0.4-0.4-1.3-0.7-2.4-1c-1.4-0.3-2.4-0.7-3.1-1.2s-1-1.2-1-2.1
		c0-0.9,0.4-1.6,1.1-2.2c0.7-0.6,1.7-0.9,3-0.9s2.3,0.3,3.1,1c0.8,0.6,1.1,1.5,1.1,2.4v0.1h-1.2c0-0.6-0.3-1.2-0.8-1.7
		s-1.3-0.7-2.2-0.7c-0.9,0-1.6,0.2-2.1,0.6c-0.5,0.4-0.7,0.9-0.7,1.4s0.2,1,0.6,1.3s1.2,0.7,2.4,0.9c1.4,0.3,2.4,0.7,3.1,1.3
		c0.7,0.5,1,1.3,1,2.2c0,1-0.4,1.8-1.2,2.4c-0.8,0.6-1.8,0.9-3.1,0.9c-1.4,0-2.5-0.3-3.3-1s-1.2-1.5-1.1-2.4v-0.1h1.2
		c0,0.8,0.4,1.4,1,1.8c0.6,0.4,1.4,0.6,2.2,0.6c0.9,0,1.7-0.2,2.2-0.6S222.6,534.4,222.6,533.8z"/>
	<path class="st3" d="M231.7,531c0-1.9,0.4-3.3,1.2-4.5s1.9-1.7,3.3-1.7c0.8,0,1.5,0.2,2.1,0.5s1.1,0.8,1.5,1.5V520h1.3v16.8H240
		l-0.1-1.7c-0.4,0.6-0.9,1.1-1.5,1.4c-0.6,0.3-1.3,0.5-2.1,0.5c-1.4,0-2.5-0.5-3.3-1.6c-0.8-1-1.2-2.4-1.2-4.2L231.7,531L231.7,531z
		 M233,531.2c0,1.4,0.3,2.5,0.8,3.4c0.6,0.8,1.4,1.3,2.5,1.3c0.8,0,1.5-0.2,2.1-0.6c0.6-0.4,1-0.9,1.3-1.6v-5.5
		c-0.3-0.7-0.7-1.2-1.2-1.6c-0.5-0.4-1.2-0.6-2.1-0.6c-1.1,0-2,0.5-2.6,1.4s-0.9,2.1-0.9,3.6v0.2H233z"/>
	<path class="st3" d="M248.8,537c-1.5,0-2.7-0.5-3.6-1.6s-1.4-2.4-1.4-4.1v-0.6c0-1.7,0.5-3,1.4-4.1s2.1-1.6,3.5-1.6
		s2.5,0.5,3.4,1.4c0.8,0.9,1.2,2.1,1.2,3.6v1.1H245v0.3c0,1.3,0.3,2.4,1,3.3c0.7,0.9,1.6,1.3,2.7,1.3c0.8,0,1.5-0.1,2.1-0.3
		s1-0.5,1.4-1l0.5,0.9c-0.4,0.5-1,0.8-1.7,1.1C250.5,536.8,249.7,537,248.8,537z M248.6,526c-1,0-1.8,0.4-2.4,1.1
		c-0.6,0.7-1,1.6-1.1,2.7v0.1h6.8v-0.3c0-1-0.3-1.8-0.9-2.5C250.5,526.3,249.7,526,248.6,526z"/>
	<path class="st3" d="M260.4,530.8c0-1.7,0.5-3.1,1.4-4.2s2.2-1.6,3.7-1.6c1.6,0,2.8,0.5,3.7,1.6s1.4,2.5,1.4,4.2v0.4
		c0,1.7-0.5,3.1-1.4,4.2s-2.2,1.6-3.7,1.6c-1.6,0-2.8-0.5-3.7-1.6s-1.4-2.5-1.4-4.2V530.8z M261.7,531.1c0,1.3,0.3,2.5,1,3.4
		s1.6,1.4,2.8,1.4c1.2,0,2.1-0.5,2.8-1.4c0.7-0.9,1-2,1-3.4v-0.4c0-1.3-0.3-2.4-1-3.4c-0.7-0.9-1.6-1.4-2.8-1.4
		c-1.2,0-2.1,0.5-2.8,1.4c-0.7,0.9-1,2-1,3.4V531.1z"/>
	<path class="st3" d="M282.7,531.2c0,1.7-0.4,3.1-1.2,4.2c-0.8,1-1.9,1.6-3.3,1.6c-0.9,0-1.6-0.2-2.2-0.5s-1.1-0.8-1.5-1.5l-0.1,1.8
		h-1.1V520h1.3v7c0.4-0.7,0.9-1.2,1.5-1.5s1.3-0.5,2.1-0.5c1.4,0,2.5,0.6,3.3,1.7S282.7,529.3,282.7,531.2L282.7,531.2L282.7,531.2z
		 M281.4,531c0-1.5-0.3-2.7-0.9-3.6c-0.6-0.9-1.4-1.4-2.5-1.4c-0.9,0-1.6,0.2-2.2,0.7c-0.5,0.4-1,1-1.2,1.7v5.3
		c0.3,0.7,0.7,1.2,1.3,1.6c0.6,0.4,1.3,0.6,2.1,0.6c1.1,0,2-0.4,2.5-1.3c0.6-0.8,0.8-2,0.8-3.4V531H281.4z"/>
	<path class="st3" d="M287.6,522.1v3h2.6v1.1h-2.6v7.6c0,0.8,0.1,1.3,0.4,1.6s0.6,0.5,1.1,0.5c0.2,0,0.4,0,0.6,0s0.4,0,0.7-0.1
		l0.2,1c-0.2,0.1-0.5,0.2-0.8,0.2s-0.6,0.1-0.9,0.1c-0.8,0-1.5-0.3-1.9-0.8c-0.5-0.5-0.7-1.3-0.7-2.4v-7.6h-2v-1.1h2v-3L287.6,522.1
		L287.6,522.1z"/>
	<path class="st3" d="M297.3,537c-1.5,0-2.7-0.5-3.6-1.6s-1.4-2.4-1.4-4.1v-0.6c0-1.7,0.5-3,1.4-4.1s2.1-1.6,3.5-1.6
		s2.5,0.5,3.4,1.4c0.8,0.9,1.2,2.1,1.2,3.6v1.1h-8.2v0.3c0,1.3,0.3,2.4,1,3.3c0.7,0.9,1.6,1.3,2.7,1.3c0.8,0,1.5-0.1,2.1-0.3
		s1-0.5,1.4-1l0.5,0.9c-0.4,0.5-1,0.8-1.7,1.1C299,536.8,298.2,537,297.3,537z M297.1,526c-1,0-1.8,0.4-2.4,1.1
		c-0.6,0.7-1,1.6-1.1,2.7v0.1h6.8v-0.3c0-1-0.3-1.8-0.9-2.5C298.9,526.3,298.1,526,297.1,526z"/>
	<path class="st3" d="M305.4,525.1l0.1,2c0.4-0.7,0.9-1.3,1.5-1.7s1.4-0.6,2.2-0.6c1.3,0,2.2,0.4,2.9,1.2s1,2,1,3.6v7.1h-1.3v-7.1
		c0-1.3-0.2-2.3-0.7-2.8c-0.5-0.6-1.2-0.8-2.1-0.8s-1.6,0.2-2.2,0.7s-1,1.1-1.2,1.9v8.1h-1.3v-11.6L305.4,525.1L305.4,525.1z"/>
	<path class="st3" d="M320.8,537c-1.5,0-2.7-0.5-3.6-1.6s-1.4-2.4-1.4-4.1v-0.6c0-1.7,0.5-3,1.4-4.1s2.1-1.6,3.5-1.6
		s2.5,0.5,3.4,1.4c0.8,0.9,1.2,2.1,1.2,3.6v1.1h-8.2v0.3c0,1.3,0.3,2.4,1,3.3c0.7,0.9,1.6,1.3,2.7,1.3c0.8,0,1.5-0.1,2.1-0.3
		s1-0.5,1.4-1l0.5,0.9c-0.4,0.5-1,0.8-1.7,1.1C322.6,536.8,321.8,537,320.8,537z M320.7,526c-1,0-1.8,0.4-2.4,1.1
		c-0.6,0.7-1,1.6-1.1,2.7v0.1h6.8v-0.3c0-1-0.3-1.8-0.9-2.5C322.5,526.3,321.7,526,320.7,526z"/>
	<path class="st3" d="M333.2,526.2l-1-0.1c-0.8,0-1.5,0.2-2,0.7s-0.9,1.1-1.1,1.9v8h-1.3v-11.6h1.1l0.2,1.9v0.1
		c0.3-0.7,0.8-1.3,1.4-1.7s1.2-0.6,2-0.6c0.2,0,0.3,0,0.5,0s0.3,0.1,0.4,0.1L333.2,526.2z"/>
	<path class="st3" d="M345,535.9c0.9,0,1.6-0.2,2.3-0.7c0.7-0.5,1-1.2,1-2h1.1v0.1c0,1.1-0.4,2-1.3,2.7s-1.9,1.1-3.1,1.1
		c-1.6,0-2.8-0.5-3.7-1.6s-1.3-2.5-1.3-4.2v-0.5c0-1.7,0.4-3.1,1.3-4.2c0.9-1.1,2.1-1.6,3.7-1.6c1.3,0,2.3,0.4,3.2,1.1
		c0.8,0.8,1.3,1.7,1.2,3v0.1h-1.1c0-0.9-0.3-1.7-0.9-2.2c-0.6-0.6-1.4-0.8-2.3-0.8c-1.2,0-2.2,0.4-2.8,1.3c-0.6,0.9-0.9,2-0.9,3.4
		v0.5c0,1.4,0.3,2.5,0.9,3.4C342.8,535.4,343.7,535.9,345,535.9z"/>
	<path class="st3" d="M351.3,530.8c0-1.7,0.5-3.1,1.4-4.2s2.2-1.6,3.7-1.6c1.6,0,2.8,0.5,3.7,1.6s1.4,2.5,1.4,4.2v0.4
		c0,1.7-0.5,3.1-1.4,4.2s-2.2,1.6-3.7,1.6c-1.6,0-2.8-0.5-3.7-1.6s-1.4-2.5-1.4-4.2V530.8z M352.6,531.1c0,1.3,0.3,2.5,1,3.4
		s1.6,1.4,2.8,1.4c1.2,0,2.1-0.5,2.8-1.4c0.7-0.9,1-2,1-3.4v-0.4c0-1.3-0.3-2.4-1-3.4c-0.7-0.9-1.6-1.4-2.8-1.4
		c-1.2,0-2.1,0.5-2.8,1.4c-0.7,0.9-1,2-1,3.4V531.1z"/>
	<path class="st3" d="M365.4,525.1l0.1,2c0.4-0.7,0.9-1.3,1.5-1.7s1.4-0.6,2.2-0.6c1.3,0,2.2,0.4,2.9,1.2s1,2,1,3.6v7.1h-1.3v-7.1
		c0-1.3-0.2-2.3-0.7-2.8c-0.5-0.6-1.2-0.8-2.1-0.8s-1.6,0.2-2.2,0.7s-1,1.1-1.2,1.9v8.1h-1.3v-11.6L365.4,525.1L365.4,525.1z"/>
	<path class="st3" d="M383.5,533.8c0-0.5-0.2-1-0.7-1.4c-0.4-0.4-1.3-0.7-2.4-1c-1.4-0.3-2.4-0.7-3.1-1.2s-1-1.2-1-2.1
		c0-0.9,0.4-1.6,1.1-2.2c0.7-0.6,1.7-0.9,3-0.9s2.3,0.3,3.1,1c0.8,0.6,1.1,1.5,1.1,2.4v0.1h-1.2c0-0.6-0.3-1.2-0.8-1.7
		s-1.3-0.7-2.2-0.7c-0.9,0-1.6,0.2-2.1,0.6c-0.5,0.4-0.7,0.9-0.7,1.4s0.2,1,0.6,1.3s1.2,0.7,2.4,0.9c1.4,0.3,2.4,0.7,3.1,1.3
		c0.7,0.5,1,1.3,1,2.2c0,1-0.4,1.8-1.2,2.4c-0.8,0.6-1.8,0.9-3.1,0.9c-1.4,0-2.5-0.3-3.3-1s-1.2-1.5-1.1-2.4v-0.1h1.2
		c0,0.8,0.4,1.4,1,1.8c0.6,0.4,1.4,0.6,2.2,0.6c0.9,0,1.7-0.2,2.2-0.6S383.5,534.4,383.5,533.8z"/>
	<path class="st3" d="M392.1,537c-1.5,0-2.7-0.5-3.6-1.6s-1.4-2.4-1.4-4.1v-0.6c0-1.7,0.5-3,1.4-4.1s2.1-1.6,3.5-1.6
		s2.5,0.5,3.4,1.4c0.8,0.9,1.2,2.1,1.2,3.6v1.1h-8.2v0.3c0,1.3,0.3,2.4,1,3.3c0.7,0.9,1.6,1.3,2.7,1.3c0.8,0,1.5-0.1,2.1-0.3
		s1-0.5,1.4-1l0.5,0.9c-0.4,0.5-1,0.8-1.7,1.1C393.8,536.8,393,537,392.1,537z M391.9,526c-1,0-1.8,0.4-2.4,1.1
		c-0.6,0.7-1,1.6-1.1,2.7v0.1h6.8v-0.3c0-1-0.3-1.8-0.9-2.5C393.8,526.3,393,526,391.9,526z"/>
	<path class="st3" d="M400.6,525.1v12.6c0,1.2-0.3,2.1-0.9,2.8c-0.6,0.6-1.4,1-2.4,1c-0.2,0-0.4,0-0.6-0.1c-0.2,0-0.4-0.1-0.6-0.2
		l0.1-1.1c0.1,0,0.3,0.1,0.5,0.1s0.4,0.1,0.5,0.1c0.6,0,1.1-0.2,1.5-0.7c0.4-0.4,0.5-1.1,0.5-1.9v-12.6L400.6,525.1L400.6,525.1z
		 M400.5,521.7h-1.3V520h1.3V521.7z"/>
	<path class="st3" d="M403.5,530.8c0-1.7,0.5-3.1,1.4-4.2s2.2-1.6,3.7-1.6c1.6,0,2.8,0.5,3.7,1.6s1.4,2.5,1.4,4.2v0.4
		c0,1.7-0.5,3.1-1.4,4.2s-2.2,1.6-3.7,1.6c-1.6,0-2.8-0.5-3.7-1.6s-1.4-2.5-1.4-4.2V530.8z M404.8,531.1c0,1.3,0.3,2.5,1,3.4
		s1.6,1.4,2.8,1.4c1.2,0,2.1-0.5,2.8-1.4c0.7-0.9,1-2,1-3.4v-0.4c0-1.3-0.3-2.4-1-3.4c-0.7-0.9-1.6-1.4-2.8-1.4
		c-1.2,0-2.1,0.5-2.8,1.4c-0.7,0.9-1,2-1,3.4V531.1z"/>
	<path class="st3" d="M423.5,533.8c0-0.5-0.2-1-0.7-1.4c-0.4-0.4-1.3-0.7-2.4-1c-1.4-0.3-2.4-0.7-3.1-1.2s-1-1.2-1-2.1
		c0-0.9,0.4-1.6,1.1-2.2c0.7-0.6,1.7-0.9,3-0.9s2.3,0.3,3.1,1c0.8,0.6,1.1,1.5,1.1,2.4v0.1h-1.2c0-0.6-0.3-1.2-0.8-1.7
		s-1.3-0.7-2.2-0.7c-0.9,0-1.6,0.2-2.1,0.6c-0.5,0.4-0.7,0.9-0.7,1.4s0.2,1,0.6,1.3s1.2,0.7,2.4,0.9c1.4,0.3,2.4,0.7,3.1,1.3
		c0.7,0.5,1,1.3,1,2.2c0,1-0.4,1.8-1.2,2.4c-0.8,0.6-1.8,0.9-3.1,0.9c-1.4,0-2.5-0.3-3.3-1s-1.2-1.5-1.1-2.4v-0.1h1.2
		c0,0.8,0.4,1.4,1,1.8c0.6,0.4,1.4,0.6,2.2,0.6c0.9,0,1.7-0.2,2.2-0.6S423.5,534.4,423.5,533.8z"/>
	<path class="st3" d="M442.4,531.2c0,1.7-0.4,3.1-1.2,4.2c-0.8,1-1.9,1.6-3.3,1.6c-0.8,0-1.5-0.2-2.1-0.5s-1.1-0.7-1.5-1.3v6H433
		v-16.1h1.1l0.2,1.8c0.4-0.6,0.9-1.1,1.5-1.5s1.3-0.5,2.2-0.5c1.4,0,2.5,0.6,3.3,1.7s1.2,2.6,1.2,4.5v0.1H442.4z M441.1,531
		c0-1.5-0.3-2.7-0.9-3.6c-0.6-0.9-1.4-1.4-2.6-1.4c-0.9,0-1.6,0.2-2.1,0.6s-0.9,0.9-1.2,1.6v5.6c0.3,0.6,0.7,1.1,1.3,1.5
		c0.6,0.4,1.2,0.5,2.1,0.5c1.1,0,2-0.4,2.6-1.3S441.2,532.5,441.1,531L441.1,531L441.1,531z"/>
	<path class="st3" d="M449.7,537c-1.5,0-2.7-0.5-3.6-1.6s-1.4-2.4-1.4-4.1v-0.6c0-1.7,0.5-3,1.4-4.1s2.1-1.6,3.5-1.6
		s2.5,0.5,3.4,1.4c0.8,0.9,1.2,2.1,1.2,3.6v1.1H446v0.3c0,1.3,0.3,2.4,1,3.3c0.7,0.9,1.6,1.3,2.7,1.3c0.8,0,1.5-0.1,2.1-0.3
		s1-0.5,1.4-1l0.5,0.9c-0.4,0.5-1,0.8-1.7,1.1C451.4,536.8,450.6,537,449.7,537z M449.5,526c-1,0-1.8,0.4-2.4,1.1
		c-0.6,0.7-1,1.6-1.1,2.7v0.1h6.8v-0.3c0-1-0.3-1.8-0.9-2.5C451.3,526.3,450.5,526,449.5,526z"/>
	<path class="st3" d="M462,526.2l-1-0.1c-0.8,0-1.5,0.2-2,0.7s-0.9,1.1-1.1,1.9v8h-1.3v-11.6h1.1l0.2,1.9v0.1
		c0.3-0.7,0.8-1.3,1.4-1.7s1.2-0.6,2-0.6c0.2,0,0.3,0,0.5,0s0.3,0.1,0.4,0.1L462,526.2z"/>
	<path class="st3" d="M471.1,533.8c0-0.5-0.2-1-0.7-1.4c-0.4-0.4-1.3-0.7-2.4-1c-1.4-0.3-2.4-0.7-3.1-1.2c-0.7-0.5-1-1.2-1-2.1
		c0-0.9,0.4-1.6,1.1-2.2c0.7-0.6,1.7-0.9,3-0.9s2.3,0.3,3.1,1c0.8,0.6,1.1,1.5,1.1,2.4v0.1H471c0-0.6-0.3-1.2-0.8-1.7
		s-1.3-0.7-2.2-0.7s-1.6,0.2-2.1,0.6c-0.5,0.4-0.7,0.9-0.7,1.4s0.2,1,0.6,1.3c0.4,0.3,1.2,0.7,2.4,0.9c1.4,0.3,2.4,0.7,3.1,1.3
		s1,1.3,1,2.2c0,1-0.4,1.8-1.2,2.4c-0.8,0.6-1.8,0.9-3.1,0.9c-1.4,0-2.5-0.3-3.3-1s-1.2-1.5-1.1-2.4v-0.1h1.2c0,0.8,0.4,1.4,1,1.8
		c0.6,0.4,1.4,0.6,2.2,0.6c0.9,0,1.7-0.2,2.2-0.6S471.1,534.4,471.1,533.8z"/>
	<path class="st3" d="M474.6,530.8c0-1.7,0.5-3.1,1.4-4.2c0.9-1.1,2.2-1.6,3.7-1.6c1.6,0,2.8,0.5,3.7,1.6s1.4,2.5,1.4,4.2v0.4
		c0,1.7-0.5,3.1-1.4,4.2s-2.2,1.6-3.7,1.6c-1.6,0-2.8-0.5-3.7-1.6s-1.4-2.5-1.4-4.2V530.8z M475.9,531.1c0,1.3,0.3,2.5,1,3.4
		s1.6,1.4,2.8,1.4s2.1-0.5,2.8-1.4s1-2,1-3.4v-0.4c0-1.3-0.3-2.4-1-3.4c-0.7-0.9-1.6-1.4-2.8-1.4s-2.1,0.5-2.8,1.4s-1,2-1,3.4V531.1
		z"/>
	<path class="st3" d="M488.7,525.1l0.1,2c0.4-0.7,0.9-1.3,1.5-1.7s1.4-0.6,2.2-0.6c1.3,0,2.2,0.4,2.9,1.2s1,2,1,3.6v7.1h-1.3v-7.1
		c0-1.3-0.2-2.3-0.7-2.8c-0.5-0.6-1.2-0.8-2.1-0.8c-0.9,0-1.6,0.2-2.2,0.7c-0.6,0.5-1,1.1-1.2,1.9v8.1h-1.3v-11.6L488.7,525.1
		L488.7,525.1z"/>
	<path class="st3" d="M507.2,536.7c-0.1-0.4-0.1-0.7-0.2-1c0-0.3-0.1-0.6-0.1-0.9c-0.4,0.6-1,1.1-1.7,1.5s-1.5,0.6-2.4,0.6
		c-1.1,0-2-0.3-2.6-0.9c-0.6-0.6-0.9-1.4-0.9-2.4c0-1.1,0.5-1.9,1.4-2.6c0.9-0.6,2.2-1,3.8-1h2.6v-1.4c0-0.8-0.3-1.5-0.8-2
		s-1.3-0.7-2.2-0.7s-1.6,0.2-2.2,0.7s-0.9,1-0.9,1.7h-1.2v-0.1c0-0.9,0.4-1.6,1.2-2.3s1.9-1,3.2-1s2.3,0.3,3.1,1s1.2,1.6,1.2,2.8
		v5.7c0,0.4,0,0.8,0.1,1.2c0,0.4,0.1,0.8,0.2,1.1L507.2,536.7L507.2,536.7z M502.9,535.8c0.9,0,1.7-0.2,2.4-0.6s1.2-1,1.5-1.7v-2.4
		h-2.6c-1.2,0-2.1,0.2-2.8,0.7s-1,1.1-1,1.9c0,0.6,0.2,1.1,0.6,1.5S502.2,535.8,502.9,535.8z"/>
	<path class="st3" d="M513.1,536.7h-1.3V520h1.3V536.7z"/>
	<path class="st3" d="M518.1,521.8h-1.3V520h1.3V521.8z M518.1,536.7h-1.3v-11.6h1.3V536.7z"/>
	<path class="st3" d="M522.5,535.6h7.5v1.1h-9.1v-1l7-9.6h-6.8V525h8.4v0.9L522.5,535.6z"/>
	<path class="st3" d="M539.7,536.7c-0.1-0.4-0.1-0.7-0.2-1c0-0.3-0.1-0.6-0.1-0.9c-0.4,0.6-1,1.1-1.7,1.5s-1.5,0.6-2.4,0.6
		c-1.1,0-2-0.3-2.6-0.9c-0.6-0.6-0.9-1.4-0.9-2.4c0-1.1,0.5-1.9,1.4-2.6c0.9-0.6,2.2-1,3.8-1h2.6v-1.4c0-0.8-0.3-1.5-0.8-2
		s-1.3-0.7-2.2-0.7s-1.6,0.2-2.2,0.7c-0.6,0.5-0.9,1-0.9,1.7h-1.2v-0.1c0-0.9,0.4-1.6,1.2-2.3s1.9-1,3.2-1s2.3,0.3,3.1,1
		s1.2,1.6,1.2,2.8v5.7c0,0.4,0,0.8,0.1,1.2s0.1,0.8,0.2,1.1L539.7,536.7L539.7,536.7z M535.5,535.8c0.9,0,1.7-0.2,2.4-0.6
		s1.2-1,1.5-1.7v-2.4h-2.6c-1.2,0-2.1,0.2-2.8,0.7s-1,1.1-1,1.9c0,0.6,0.2,1.1,0.7,1.5C534.2,535.6,534.8,535.8,535.5,535.8z"/>
	<path class="st3" d="M543.7,531c0-1.9,0.4-3.3,1.2-4.5s1.9-1.7,3.3-1.7c0.8,0,1.5,0.2,2.1,0.5s1.1,0.8,1.5,1.5V520h1.3v16.8H552
		l-0.1-1.7c-0.4,0.6-0.9,1.1-1.5,1.4c-0.6,0.3-1.3,0.5-2.1,0.5c-1.4,0-2.5-0.5-3.3-1.6c-0.8-1-1.2-2.4-1.2-4.2V531H543.7z
		 M545,531.2c0,1.4,0.3,2.5,0.8,3.4s1.4,1.3,2.5,1.3c0.8,0,1.5-0.2,2.1-0.6s1-0.9,1.3-1.6v-5.5c-0.3-0.7-0.7-1.2-1.2-1.6
		c-0.5-0.4-1.2-0.6-2.1-0.6c-1.1,0-2,0.5-2.6,1.4s-0.9,2.1-0.9,3.6v0.2H545z"/>
	<path class="st3" d="M555.7,530.8c0-1.7,0.5-3.1,1.4-4.2c0.9-1.1,2.2-1.6,3.7-1.6c1.6,0,2.8,0.5,3.7,1.6s1.4,2.5,1.4,4.2v0.4
		c0,1.7-0.5,3.1-1.4,4.2s-2.2,1.6-3.7,1.6c-1.6,0-2.8-0.5-3.7-1.6s-1.4-2.5-1.4-4.2V530.8z M557,531.1c0,1.3,0.3,2.5,1,3.4
		s1.6,1.4,2.8,1.4s2.1-0.5,2.8-1.4s1-2,1-3.4v-0.4c0-1.3-0.3-2.4-1-3.4c-0.7-0.9-1.6-1.4-2.8-1.4s-2.1,0.5-2.8,1.4s-1,2-1,3.4V531.1
		z"/>
	<path class="st3" d="M575.7,533.8c0-0.5-0.2-1-0.7-1.4c-0.4-0.4-1.3-0.7-2.4-1c-1.4-0.3-2.4-0.7-3.1-1.2c-0.7-0.5-1-1.2-1-2.1
		c0-0.9,0.4-1.6,1.1-2.2c0.7-0.6,1.7-0.9,3-0.9s2.3,0.3,3.1,1c0.8,0.6,1.1,1.5,1.1,2.4v0.1h-1.2c0-0.6-0.3-1.2-0.8-1.7
		s-1.3-0.7-2.2-0.7s-1.6,0.2-2.1,0.6c-0.5,0.4-0.7,0.9-0.7,1.4s0.2,1,0.6,1.3c0.4,0.3,1.2,0.7,2.4,0.9c1.4,0.3,2.4,0.7,3.1,1.3
		s1,1.3,1,2.2c0,1-0.4,1.8-1.2,2.4c-0.8,0.6-1.8,0.9-3.1,0.9c-1.4,0-2.5-0.3-3.3-1s-1.2-1.5-1.1-2.4v-0.1h1.2c0,0.8,0.4,1.4,1,1.8
		c0.6,0.4,1.4,0.6,2.2,0.6c0.9,0,1.7-0.2,2.2-0.6S575.7,534.4,575.7,533.8z"/>
</g>
<g class="st1">
	<path class="st3" d="M102.3,557.4c0-1.9,0.4-3.3,1.2-4.5s1.9-1.7,3.3-1.7c0.8,0,1.5,0.2,2.1,0.5s1.1,0.8,1.5,1.5v-6.9h1.3v16.8
		h-1.1l-0.1-1.7c-0.4,0.6-0.9,1.1-1.5,1.4c-0.6,0.3-1.3,0.5-2.1,0.5c-1.4,0-2.5-0.5-3.3-1.6C102.8,560.7,102.4,559.3,102.3,557.4
		L102.3,557.4L102.3,557.4z M103.6,557.6c0,1.4,0.3,2.5,0.8,3.4c0.6,0.8,1.4,1.3,2.5,1.3c0.8,0,1.5-0.2,2.1-0.6
		c0.6-0.4,1-0.9,1.3-1.6v-5.5c-0.3-0.7-0.7-1.2-1.2-1.6c-0.5-0.4-1.2-0.6-2.1-0.6c-1.1,0-2,0.5-2.6,1.4s-0.9,2.1-0.9,3.6
		L103.6,557.6L103.6,557.6z"/>
	<path class="st3" d="M119.4,563.4c-1.5,0-2.7-0.5-3.6-1.6s-1.4-2.4-1.4-4.1v-0.6c0-1.7,0.5-3,1.4-4.1s2.1-1.6,3.5-1.6
		s2.5,0.5,3.4,1.4c0.8,0.9,1.2,2.1,1.2,3.6v1.1h-8.2v0.3c0,1.3,0.3,2.4,1,3.3c0.7,0.9,1.6,1.3,2.7,1.3c0.8,0,1.5-0.1,2.1-0.3
		s1-0.5,1.4-1l0.5,0.9c-0.4,0.5-1,0.8-1.7,1.1C121.1,563.2,120.3,563.4,119.4,563.4z M119.2,552.4c-1,0-1.8,0.4-2.4,1.1
		c-0.6,0.7-1,1.6-1.1,2.7v0.1h6.8V556c0-1-0.3-1.8-0.9-2.5C121,552.7,120.2,552.4,119.2,552.4z"/>
	<path class="st3" d="M132.6,563.1v-10.6h-1.9v-1.1h1.9v-1.7c0-1.2,0.3-2.1,0.9-2.7c0.6-0.6,1.4-1,2.5-1c0.2,0,0.5,0,0.7,0.1
		c0.2,0,0.5,0.1,0.7,0.2l-0.2,1.1c-0.2,0-0.3-0.1-0.5-0.1s-0.4,0-0.6,0c-0.7,0-1.2,0.2-1.6,0.7c-0.4,0.4-0.6,1.1-0.6,1.9v1.7h2.8
		v1.1h-2.8v10.6h-1.3V563.1z"/>
	<path class="st3" d="M146.3,563.1c-0.1-0.4-0.1-0.7-0.2-1c0-0.3-0.1-0.6-0.1-0.9c-0.4,0.6-1,1.1-1.7,1.5s-1.5,0.6-2.4,0.6
		c-1.1,0-2-0.3-2.6-0.9s-0.9-1.4-0.9-2.4c0-1.1,0.5-1.9,1.4-2.6s2.2-1,3.8-1h2.6V555c0-0.8-0.3-1.5-0.8-2s-1.3-0.7-2.2-0.7
		s-1.6,0.2-2.2,0.7c-0.6,0.5-0.9,1-0.9,1.7h-1.2v-0.1c0-0.9,0.4-1.6,1.2-2.3s1.9-1,3.2-1s2.3,0.3,3.1,1s1.2,1.6,1.2,2.8v5.7
		c0,0.4,0,0.8,0.1,1.2c0,0.4,0.1,0.8,0.2,1.1L146.3,563.1L146.3,563.1z M142.1,562.2c0.9,0,1.7-0.2,2.4-0.6s1.2-1,1.5-1.7v-2.4h-2.6
		c-1.2,0-2.1,0.2-2.8,0.7s-1,1.1-1,1.9c0,0.6,0.2,1.1,0.6,1.5C140.7,562,141.3,562.2,142.1,562.2z"/>
	<path class="st3" d="M156.1,552.6l-1-0.1c-0.8,0-1.5,0.2-2,0.7s-0.9,1.1-1.1,1.9v8h-1.3v-11.6h1.1l0.2,1.9v0.1
		c0.3-0.7,0.8-1.3,1.4-1.7c0.6-0.4,1.2-0.6,2-0.6c0.2,0,0.3,0,0.5,0s0.3,0.1,0.4,0.1L156.1,552.6z"/>
	<path class="st3" d="M159.3,551.5l0.1,1.9c0.4-0.7,0.9-1.2,1.5-1.6c0.6-0.4,1.4-0.6,2.2-0.6c0.9,0,1.6,0.2,2.2,0.6
		c0.6,0.4,1,1.1,1.3,2c0.4-0.8,0.9-1.5,1.5-1.9s1.4-0.7,2.4-0.7c1.2,0,2.2,0.4,2.9,1.2s1,2.1,1,3.8v6.8h-1.3v-6.8
		c0-1.4-0.3-2.4-0.8-3s-1.2-0.9-2.1-0.9c-1,0-1.8,0.3-2.3,0.9c-0.5,0.6-0.9,1.4-1,2.4c0,0.1,0,0.1,0,0.2c0,0.1,0,0.2,0,0.2v7h-1.3
		v-6.8c0-1.4-0.3-2.4-0.8-3s-1.2-0.9-2.1-0.9c-0.9,0-1.6,0.2-2.2,0.7c-0.5,0.5-0.9,1.1-1.1,1.9v8.2h-1.3v-11.6L159.3,551.5
		L159.3,551.5z"/>
	<path class="st3" d="M185.1,563.1c-0.1-0.4-0.1-0.7-0.2-1c0-0.3-0.1-0.6-0.1-0.9c-0.4,0.6-1,1.1-1.7,1.5s-1.5,0.6-2.4,0.6
		c-1.1,0-2-0.3-2.6-0.9s-0.9-1.4-0.9-2.4c0-1.1,0.5-1.9,1.4-2.6s2.2-1,3.8-1h2.6V555c0-0.8-0.3-1.5-0.8-2s-1.3-0.7-2.2-0.7
		s-1.6,0.2-2.2,0.7c-0.6,0.5-0.9,1-0.9,1.7h-1.2v-0.1c0-0.9,0.4-1.6,1.2-2.3s1.9-1,3.2-1s2.3,0.3,3.1,1s1.2,1.6,1.2,2.8v5.7
		c0,0.4,0,0.8,0.1,1.2c0,0.4,0.1,0.8,0.2,1.1L185.1,563.1L185.1,563.1z M180.9,562.2c0.9,0,1.7-0.2,2.4-0.6s1.2-1,1.5-1.7v-2.4h-2.6
		c-1.2,0-2.1,0.2-2.8,0.7s-1,1.1-1,1.9c0,0.6,0.2,1.1,0.6,1.5C179.5,562,180.1,562.2,180.9,562.2z"/>
	<path class="st3" d="M193.9,562.3c0.9,0,1.6-0.2,2.3-0.7s1-1.2,1-2h1.1v0.1c0,1.1-0.4,2-1.3,2.7c-0.9,0.7-1.9,1.1-3.1,1.1
		c-1.6,0-2.8-0.5-3.7-1.6s-1.3-2.5-1.3-4.2v-0.5c0-1.7,0.4-3.1,1.3-4.2c0.9-1.1,2.1-1.6,3.7-1.6c1.3,0,2.3,0.4,3.2,1.1
		c0.8,0.8,1.3,1.7,1.2,3v0.1h-1.1c0-0.9-0.3-1.7-0.9-2.2c-0.6-0.6-1.4-0.8-2.3-0.8c-1.2,0-2.2,0.4-2.8,1.3c-0.6,0.9-0.9,2-0.9,3.4
		v0.5c0,1.4,0.3,2.5,0.9,3.4C191.7,561.8,192.6,562.3,193.9,562.3z"/>
	<path class="st3" d="M205.3,563.4c-1.5,0-2.7-0.5-3.6-1.6s-1.4-2.4-1.4-4.1v-0.6c0-1.7,0.5-3,1.4-4.1s2.1-1.6,3.5-1.6
		s2.5,0.5,3.4,1.4c0.8,0.9,1.2,2.1,1.2,3.6v1.1h-8.2v0.3c0,1.3,0.3,2.4,1,3.3c0.7,0.9,1.6,1.3,2.7,1.3c0.8,0,1.5-0.1,2.1-0.3
		s1-0.5,1.4-1l0.5,0.9c-0.4,0.5-1,0.8-1.7,1.1C207,563.2,206.2,563.4,205.3,563.4z M205.2,552.4c-1,0-1.8,0.4-2.4,1.1
		c-0.6,0.7-1,1.6-1.1,2.7v0.1h6.8V556c0-1-0.3-1.8-0.9-2.5C207,552.7,206.2,552.4,205.2,552.4z M206.7,547h1.6v0.1l-2.7,2.8h-1.2
		L206.7,547z"/>
	<path class="st3" d="M219.9,561.2c-0.4,0.7-0.9,1.2-1.5,1.6c-0.6,0.4-1.4,0.6-2.2,0.6c-1.2,0-2.2-0.4-2.9-1.2c-0.7-0.8-1-2.1-1-3.9
		v-6.7h1.3v6.8c0,1.4,0.2,2.4,0.7,3.1c0.5,0.6,1.2,0.9,2.1,0.9c1,0,1.8-0.2,2.3-0.7s1-1,1.2-1.8v-8.3h1.3v11.6H220L219.9,561.2z"/>
	<path class="st3" d="M226.5,548.5v3h2.6v1.1h-2.6v7.6c0,0.8,0.1,1.3,0.4,1.6s0.6,0.5,1.1,0.5c0.2,0,0.4,0,0.6,0s0.4,0,0.7-0.1
		l0.2,1c-0.2,0.1-0.5,0.2-0.8,0.2s-0.6,0.1-0.9,0.1c-0.8,0-1.5-0.3-1.9-0.8c-0.5-0.5-0.7-1.3-0.7-2.4v-7.6h-2v-1.1h2v-3L226.5,548.5
		L226.5,548.5z"/>
	<path class="st3" d="M233.3,548.2H232v-1.8h1.3V548.2z M233.3,563.1H232v-11.6h1.3V563.1z"/>
	<path class="st3" d="M241.1,562.3c0.9,0,1.6-0.2,2.3-0.7c0.7-0.5,1-1.2,1-2h1.1v0.1c0,1.1-0.4,2-1.3,2.7s-1.9,1.1-3.1,1.1
		c-1.6,0-2.8-0.5-3.7-1.6s-1.3-2.5-1.3-4.2v-0.5c0-1.7,0.4-3.1,1.3-4.2c0.9-1.1,2.1-1.6,3.7-1.6c1.3,0,2.3,0.4,3.2,1.1
		c0.8,0.8,1.3,1.7,1.2,3v0.1h-1.1c0-0.9-0.3-1.7-0.9-2.2c-0.6-0.6-1.4-0.8-2.3-0.8c-1.2,0-2.2,0.4-2.8,1.3c-0.6,0.9-0.9,2-0.9,3.4
		v0.5c0,1.4,0.3,2.5,0.9,3.4C238.9,561.8,239.9,562.3,241.1,562.3z"/>
	<path class="st3" d="M247.5,557.1c0-1.7,0.5-3.1,1.4-4.2s2.2-1.6,3.7-1.6c1.6,0,2.8,0.5,3.7,1.6s1.4,2.5,1.4,4.2v0.4
		c0,1.7-0.5,3.1-1.4,4.2s-2.2,1.6-3.7,1.6c-1.6,0-2.8-0.5-3.7-1.6s-1.4-2.5-1.4-4.2V557.1z M248.8,557.5c0,1.3,0.3,2.5,1,3.4
		s1.6,1.4,2.8,1.4c1.2,0,2.1-0.5,2.8-1.4c0.7-0.9,1-2,1-3.4v-0.4c0-1.3-0.3-2.4-1-3.4c-0.7-0.9-1.6-1.4-2.8-1.4
		c-1.2,0-2.1,0.5-2.8,1.4c-0.7,0.9-1,2-1,3.4V557.5z"/>
	<path class="st3" d="M267.4,560.2c0-0.5-0.2-1-0.7-1.4c-0.4-0.4-1.3-0.7-2.4-1c-1.4-0.3-2.4-0.7-3.1-1.2s-1-1.2-1-2.1
		c0-0.9,0.4-1.6,1.1-2.2c0.7-0.6,1.7-0.9,3-0.9s2.3,0.3,3.1,1c0.8,0.6,1.1,1.5,1.1,2.4v0.1h-1.2c0-0.6-0.3-1.2-0.8-1.7
		s-1.3-0.7-2.2-0.7c-0.9,0-1.6,0.2-2.1,0.6c-0.5,0.4-0.7,0.9-0.7,1.4s0.2,1,0.6,1.3s1.2,0.7,2.4,0.9c1.4,0.3,2.4,0.7,3.1,1.3
		c0.7,0.5,1,1.3,1,2.2c0,1-0.4,1.8-1.2,2.4c-0.8,0.6-1.8,0.9-3.1,0.9c-1.4,0-2.5-0.3-3.3-1s-1.2-1.5-1.1-2.4V560h1.2
		c0,0.8,0.4,1.4,1,1.8c0.6,0.4,1.4,0.6,2.2,0.6c0.9,0,1.7-0.2,2.2-0.6S267.4,560.7,267.4,560.2z"/>
	<path class="st3" d="M280.3,560l0.4,1.4h0.1l3.5-9.9h1.4l-5,13.5c-0.3,0.8-0.7,1.5-1.2,2c-0.5,0.6-1.2,0.8-2.1,0.8
		c-0.2,0-0.3,0-0.5,0s-0.4-0.1-0.5-0.1l0.2-1.1c0.1,0,0.2,0,0.4,0c0.2,0,0.3,0,0.4,0c0.6,0,1-0.2,1.3-0.6c0.3-0.4,0.6-0.9,0.9-1.5
		l0.6-1.6l-4.5-11.5h1.4L280.3,560z"/>
	<path class="st3" d="M297.4,562.3c0.9,0,1.6-0.2,2.3-0.7c0.7-0.5,1-1.2,1-2h1.1v0.1c0,1.1-0.4,2-1.3,2.7s-1.9,1.1-3.1,1.1
		c-1.6,0-2.8-0.5-3.7-1.6s-1.3-2.5-1.3-4.2v-0.5c0-1.7,0.4-3.1,1.3-4.2c0.9-1.1,2.1-1.6,3.7-1.6c1.3,0,2.3,0.4,3.2,1.1
		c0.8,0.8,1.3,1.7,1.2,3v0.1h-1.1c0-0.9-0.3-1.7-0.9-2.2c-0.6-0.6-1.4-0.8-2.3-0.8c-1.2,0-2.2,0.4-2.8,1.3c-0.6,0.9-0.9,2-0.9,3.4
		v0.5c0,1.4,0.3,2.5,0.9,3.4C295.2,561.8,296.2,562.3,297.4,562.3z"/>
	<path class="st3" d="M303.8,557.1c0-1.7,0.5-3.1,1.4-4.2s2.2-1.6,3.7-1.6c1.6,0,2.8,0.5,3.7,1.6s1.4,2.5,1.4,4.2v0.4
		c0,1.7-0.5,3.1-1.4,4.2s-2.2,1.6-3.7,1.6c-1.6,0-2.8-0.5-3.7-1.6s-1.4-2.5-1.4-4.2V557.1z M305.1,557.5c0,1.3,0.3,2.5,1,3.4
		s1.6,1.4,2.8,1.4c1.2,0,2.1-0.5,2.8-1.4c0.7-0.9,1-2,1-3.4v-0.4c0-1.3-0.3-2.4-1-3.4c-0.7-0.9-1.6-1.4-2.8-1.4
		c-1.2,0-2.1,0.5-2.8,1.4c-0.7,0.9-1,2-1,3.4V557.5z"/>
	<path class="st3" d="M324.1,563.1c-0.1-0.4-0.1-0.7-0.2-1c0-0.3-0.1-0.6-0.1-0.9c-0.4,0.6-1,1.1-1.7,1.5s-1.5,0.6-2.4,0.6
		c-1.1,0-2-0.3-2.6-0.9s-0.9-1.4-0.9-2.4c0-1.1,0.5-1.9,1.4-2.6s2.2-1,3.8-1h2.6V555c0-0.8-0.3-1.5-0.8-2s-1.3-0.7-2.2-0.7
		c-0.9,0-1.6,0.2-2.2,0.7s-0.9,1-0.9,1.7h-1.2v-0.1c0-0.9,0.4-1.6,1.2-2.3c0.8-0.7,1.9-1,3.2-1c1.3,0,2.3,0.3,3.1,1
		c0.8,0.7,1.2,1.6,1.2,2.8v5.7c0,0.4,0,0.8,0.1,1.2c0,0.4,0.1,0.8,0.2,1.1L324.1,563.1L324.1,563.1z M319.9,562.2
		c0.9,0,1.7-0.2,2.4-0.6s1.2-1,1.5-1.7v-2.4h-2.6c-1.2,0-2.1,0.2-2.8,0.7c-0.7,0.5-1,1.1-1,1.9c0,0.6,0.2,1.1,0.6,1.5
		C318.5,562,319.1,562.2,319.9,562.2z"/>
	<path class="st3" d="M332.9,562.3c0.9,0,1.6-0.2,2.3-0.7c0.7-0.5,1-1.2,1-2h1.1v0.1c0,1.1-0.4,2-1.3,2.7s-1.9,1.1-3.1,1.1
		c-1.6,0-2.8-0.5-3.7-1.6s-1.3-2.5-1.3-4.2v-0.5c0-1.7,0.4-3.1,1.3-4.2c0.9-1.1,2.1-1.6,3.7-1.6c1.3,0,2.3,0.4,3.2,1.1
		c0.8,0.8,1.3,1.7,1.2,3v0.1h-1.1c0-0.9-0.3-1.7-0.9-2.2c-0.6-0.6-1.4-0.8-2.3-0.8c-1.2,0-2.2,0.4-2.8,1.3c-0.6,0.9-0.9,2-0.9,3.4
		v0.5c0,1.4,0.3,2.5,0.9,3.4C330.7,561.8,331.6,562.3,332.9,562.3z"/>
	<path class="st3" d="M341.3,553.5c0.4-0.7,0.9-1.2,1.5-1.6s1.4-0.6,2.3-0.6c1.2,0,2.2,0.4,2.8,1.1s1,1.9,1,3.5v7.2h-1.3v-7.2
		c0-1.3-0.2-2.2-0.7-2.7s-1.2-0.8-2.1-0.8s-1.6,0.2-2.2,0.7s-1,1.1-1.3,1.8v8.2H340v-16.8h1.3V553.5z"/>
	<path class="st3" d="M359.2,560.2c0-0.5-0.2-1-0.7-1.4c-0.4-0.4-1.3-0.7-2.4-1c-1.4-0.3-2.4-0.7-3.1-1.2s-1-1.2-1-2.1
		c0-0.9,0.4-1.6,1.1-2.2c0.7-0.6,1.7-0.9,3-0.9s2.3,0.3,3.1,1c0.8,0.6,1.1,1.5,1.1,2.4v0.1h-1.2c0-0.6-0.3-1.2-0.8-1.7
		s-1.3-0.7-2.2-0.7c-0.9,0-1.6,0.2-2.1,0.6c-0.5,0.4-0.7,0.9-0.7,1.4s0.2,1,0.6,1.3s1.2,0.7,2.4,0.9c1.4,0.3,2.4,0.7,3.1,1.3
		c0.7,0.5,1,1.3,1,2.2c0,1-0.4,1.8-1.2,2.4c-0.8,0.6-1.8,0.9-3.1,0.9c-1.4,0-2.5-0.3-3.3-1s-1.2-1.5-1.1-2.4V560h1.2
		c0,0.8,0.4,1.4,1,1.8c0.6,0.4,1.4,0.6,2.2,0.6c0.9,0,1.7-0.2,2.2-0.6S359.2,560.7,359.2,560.2z"/>
	<path class="st3" d="M378.1,557.6c0,1.7-0.4,3.1-1.2,4.2c-0.8,1-1.9,1.6-3.3,1.6c-0.8,0-1.5-0.2-2.1-0.5s-1.1-0.7-1.5-1.3v6h-1.3
		v-16.1h1.1l0.2,1.8c0.4-0.6,0.9-1.1,1.5-1.5s1.3-0.5,2.2-0.5c1.4,0,2.5,0.6,3.3,1.7s1.2,2.6,1.2,4.5v0.1H378.1z M376.8,557.4
		c0-1.5-0.3-2.7-0.9-3.6c-0.6-0.9-1.4-1.4-2.6-1.4c-0.9,0-1.6,0.2-2.1,0.6s-0.9,0.9-1.2,1.6v5.6c0.3,0.6,0.7,1.1,1.3,1.5
		c0.6,0.4,1.2,0.5,2.1,0.5c1.1,0,2-0.4,2.6-1.3S376.9,558.9,376.8,557.4L376.8,557.4L376.8,557.4z"/>
</g>
<g class="st1">
	<path class="st3" d="M386.4,552.6l-1-0.1c-0.8,0-1.5,0.2-2,0.7s-0.9,1.1-1.1,1.9v8H381v-11.6h1.1l0.2,1.9v0.1
		c0.3-0.7,0.8-1.3,1.4-1.7s1.2-0.6,2-0.6c0.2,0,0.3,0,0.5,0s0.3,0.1,0.4,0.1L386.4,552.6z"/>
</g>
<g class="st1">
	<path class="st3" d="M387.6,557.1c0-1.7,0.5-3.1,1.4-4.2s2.2-1.6,3.7-1.6c1.6,0,2.8,0.5,3.7,1.6s1.4,2.5,1.4,4.2v0.4
		c0,1.7-0.5,3.1-1.4,4.2s-2.2,1.6-3.7,1.6c-1.6,0-2.8-0.5-3.7-1.6s-1.4-2.5-1.4-4.2V557.1z M388.9,557.5c0,1.3,0.3,2.5,1,3.4
		s1.6,1.4,2.8,1.4c1.2,0,2.1-0.5,2.8-1.4c0.7-0.9,1-2,1-3.4v-0.4c0-1.3-0.3-2.4-1-3.4c-0.7-0.9-1.6-1.4-2.8-1.4
		c-1.2,0-2.1,0.5-2.8,1.4c-0.7,0.9-1,2-1,3.4V557.5z"/>
</g>
<g class="st1">
	<path class="st3" d="M401.5,563.1v-10.6h-1.9v-1.1h1.9v-1.7c0-1.2,0.3-2.1,0.9-2.7c0.6-0.6,1.4-1,2.5-1c0.2,0,0.5,0,0.7,0.1
		c0.2,0,0.5,0.1,0.7,0.2l-0.2,1.1c-0.2,0-0.3-0.1-0.5-0.1s-0.4,0-0.6,0c-0.7,0-1.2,0.2-1.6,0.7c-0.4,0.4-0.6,1.1-0.6,1.9v1.7h2.8
		v1.1h-2.8v10.6h-1.3V563.1z"/>
</g>
<g class="st1">
	<path class="st3" d="M411.9,563.4c-1.5,0-2.7-0.5-3.6-1.6s-1.4-2.4-1.4-4.1v-0.6c0-1.7,0.5-3,1.4-4.1s2.1-1.6,3.5-1.6
		s2.5,0.5,3.4,1.4c0.8,0.9,1.2,2.1,1.2,3.6v1.1h-8.2v0.3c0,1.3,0.3,2.4,1,3.3c0.7,0.9,1.6,1.3,2.7,1.3c0.8,0,1.5-0.1,2.1-0.3
		s1-0.5,1.4-1l0.5,0.9c-0.4,0.5-1,0.8-1.7,1.1C413.6,563.2,412.8,563.4,411.9,563.4z M411.7,552.4c-1,0-1.8,0.4-2.4,1.1
		c-0.6,0.7-1,1.6-1.1,2.7v0.1h6.8V556c0-1-0.3-1.8-0.9-2.5C413.6,552.7,412.8,552.4,411.7,552.4z"/>
	<path class="st3" d="M425.8,560.2c0-0.5-0.2-1-0.7-1.4c-0.4-0.4-1.3-0.7-2.4-1c-1.4-0.3-2.4-0.7-3.1-1.2s-1-1.2-1-2.1
		c0-0.9,0.4-1.6,1.1-2.2c0.7-0.6,1.7-0.9,3-0.9s2.3,0.3,3.1,1c0.8,0.6,1.1,1.5,1.1,2.4v0.1h-1.2c0-0.6-0.3-1.2-0.8-1.7
		s-1.3-0.7-2.2-0.7c-0.9,0-1.6,0.2-2.1,0.6c-0.5,0.4-0.7,0.9-0.7,1.4s0.2,1,0.6,1.3s1.2,0.7,2.4,0.9c1.4,0.3,2.4,0.7,3.1,1.3
		c0.7,0.5,1,1.3,1,2.2c0,1-0.4,1.8-1.2,2.4c-0.8,0.6-1.8,0.9-3.1,0.9c-1.4,0-2.5-0.3-3.3-1s-1.2-1.5-1.1-2.4V560h1.2
		c0,0.8,0.4,1.4,1,1.8c0.6,0.4,1.4,0.6,2.2,0.6c0.9,0,1.7-0.2,2.2-0.6S425.8,560.7,425.8,560.2z"/>
	<path class="st3" d="M431.5,548.2h-1.3v-1.8h1.3V548.2z M431.5,563.1h-1.3v-11.6h1.3V563.1z"/>
	<path class="st3" d="M434.4,557.1c0-1.7,0.5-3.1,1.4-4.2s2.2-1.6,3.7-1.6c1.6,0,2.8,0.5,3.7,1.6s1.4,2.5,1.4,4.2v0.4
		c0,1.7-0.5,3.1-1.4,4.2s-2.2,1.6-3.7,1.6c-1.6,0-2.8-0.5-3.7-1.6s-1.4-2.5-1.4-4.2V557.1z M435.6,557.5c0,1.3,0.3,2.5,1,3.4
		s1.6,1.4,2.8,1.4c1.2,0,2.1-0.5,2.8-1.4c0.7-0.9,1-2,1-3.4v-0.4c0-1.3-0.3-2.4-1-3.4c-0.7-0.9-1.6-1.4-2.8-1.4
		c-1.2,0-2.1,0.5-2.8,1.4c-0.7,0.9-1,2-1,3.4V557.5z"/>
	<path class="st3" d="M448.5,551.5l0.1,2c0.4-0.7,0.9-1.3,1.5-1.7s1.4-0.6,2.2-0.6c1.3,0,2.2,0.4,2.9,1.2s1,2,1,3.6v7.1h-1.3V556
		c0-1.3-0.2-2.3-0.7-2.8c-0.5-0.6-1.2-0.8-2.1-0.8s-1.6,0.2-2.2,0.7s-1,1.1-1.2,1.9v8.1h-1.3v-11.6L448.5,551.5L448.5,551.5z"/>
	<path class="st3" d="M466.9,563.1c-0.1-0.4-0.1-0.7-0.2-1c0-0.3-0.1-0.6-0.1-0.9c-0.4,0.6-1,1.1-1.7,1.5s-1.5,0.6-2.4,0.6
		c-1.1,0-2-0.3-2.6-0.9S459,561,459,560c0-1.1,0.5-1.9,1.4-2.6s2.2-1,3.8-1h2.6V555c0-0.8-0.3-1.5-0.8-2s-1.3-0.7-2.2-0.7
		c-0.9,0-1.6,0.2-2.2,0.7s-0.9,1-0.9,1.7h-1.2v-0.1c0-0.9,0.4-1.6,1.2-2.3c0.8-0.7,1.9-1,3.2-1s2.3,0.3,3.1,1s1.2,1.6,1.2,2.8v5.7
		c0,0.4,0,0.8,0.1,1.2c0,0.4,0.1,0.8,0.2,1.1L466.9,563.1L466.9,563.1z M462.7,562.2c0.9,0,1.7-0.2,2.4-0.6s1.2-1,1.5-1.7v-2.4H464
		c-1.2,0-2.1,0.2-2.8,0.7c-0.7,0.5-1,1.1-1,1.9c0,0.6,0.2,1.1,0.6,1.5C461.3,562,461.9,562.2,462.7,562.2z"/>
	<path class="st3" d="M472.8,563.1h-1.3v-16.8h1.3V563.1z"/>
	<path class="st3" d="M480.7,563.4c-1.5,0-2.7-0.5-3.6-1.6s-1.4-2.4-1.4-4.1v-0.6c0-1.7,0.5-3,1.4-4.1c1-1.1,2.1-1.6,3.5-1.6
		s2.5,0.5,3.4,1.4c0.8,0.9,1.2,2.1,1.2,3.6v1.1H477v0.3c0,1.3,0.3,2.4,1,3.3c0.7,0.9,1.6,1.3,2.7,1.3c0.8,0,1.5-0.1,2.1-0.3
		s1-0.5,1.4-1l0.5,0.9c-0.4,0.5-1,0.8-1.7,1.1C482.5,563.2,481.7,563.4,480.7,563.4z M480.6,552.4c-1,0-1.8,0.4-2.4,1.1
		c-0.6,0.7-1,1.6-1.1,2.7v0.1h6.8V556c0-1-0.3-1.8-0.9-2.5S481.6,552.4,480.6,552.4z"/>
	<path class="st3" d="M494.7,560.2c0-0.5-0.2-1-0.7-1.4c-0.4-0.4-1.3-0.7-2.4-1c-1.4-0.3-2.4-0.7-3.1-1.2c-0.7-0.5-1-1.2-1-2.1
		c0-0.9,0.4-1.6,1.1-2.2c0.7-0.6,1.7-0.9,3-0.9s2.3,0.3,3.1,1c0.8,0.6,1.1,1.5,1.1,2.4v0.1h-1.2c0-0.6-0.3-1.2-0.8-1.7
		s-1.3-0.7-2.2-0.7s-1.6,0.2-2.1,0.6c-0.5,0.4-0.7,0.9-0.7,1.4s0.2,1,0.6,1.3c0.4,0.3,1.2,0.7,2.4,0.9c1.4,0.3,2.4,0.7,3.1,1.3
		c0.7,0.5,1,1.3,1,2.2c0,1-0.4,1.8-1.2,2.4c-0.8,0.6-1.8,0.9-3.1,0.9c-1.4,0-2.5-0.3-3.3-1s-1.2-1.5-1.1-2.4V560h1.2
		c0,0.8,0.4,1.4,1,1.8c0.6,0.4,1.4,0.6,2.2,0.6c0.9,0,1.7-0.2,2.2-0.6S494.7,560.7,494.7,560.2z"/>
	<path class="st3" d="M500.5,563.1H499v-1.8h1.5V563.1z"/>
</g>
</svg>
